<svg xmlns="http://www.w3.org/2000/svg" width="225.03" height="27.66" viewBox="0 0 225.03 27.66">
  <path id="패스_1398" data-name="패스 1398" d="M3.63-14.58c5.07-.36,8.52-1.98,10.17-4.26,1.62,2.28,5.04,3.9,10.14,4.26l1.2-3c-5.19-.36-7.92-1.86-8.73-3.54H24v-3.09H3.57v3.09h7.59c-.84,1.65-3.6,3.21-8.76,3.54ZM8.1-2.16H23.22V-9.24H4.14v2.88H19.32v1.5H4.17V2.37H23.94V-.57H8.1ZM1.29-13.83v3.09H26.25v-3.09ZM29.88-22.2v3.15h8.97c-.54,6.03-3.39,10.32-10.29,13.8l2.1,3.06C40.2-6.96,42.87-13.86,42.87-22.2Zm18.15-2.85v10.59H42.69v3.21h5.34V2.58h3.96V-25.05Zm20.94,3.42c3.78,0,5.94.75,5.94,2.31,0,1.53-2.16,2.31-5.94,2.31-3.75,0-5.91-.78-5.91-2.31C63.06-20.88,65.22-21.63,68.97-21.63Zm0,7.59c6.09,0,10.02-1.98,10.02-5.28,0-3.33-3.93-5.31-10.02-5.31s-9.99,1.98-9.99,5.31C58.98-16.02,62.88-14.04,68.97-14.04ZM74.58-.84H63.27V-4.02H74.58Zm6.87-8.64v-3.15H56.49v3.15h10.5v2.37H59.4V2.25H78.48V-7.11H70.95V-9.48ZM96.57-21.75c4.02,0,5.91.57,5.91,1.8,0,1.29-1.89,1.83-5.91,1.83-3.99,0-5.88-.54-5.88-1.83C90.69-21.18,92.58-21.75,96.57-21.75Zm0,6.51c6.33,0,10.02-1.65,10.02-4.71,0-3.03-3.69-4.71-10.02-4.71-6.3,0-9.99,1.68-9.99,4.71C86.58-16.89,90.27-15.24,96.57-15.24ZM90.9-2.16h15.12V-9.27H86.94v2.91h15.18v1.47H86.97V2.37h19.77V-.6H90.9ZM84.09-13.92v3.09h24.96v-3.09Zm42.45,6.81H123v-6.18h3.54Zm0-9.27H123v-6.24h-3.72V-3.96h10.89V-22.62h-3.63Zm11.91-8.7v10.56h-2.31V-24.63h-3.69V1.35h3.69V-11.34h2.31V2.55h3.75V-25.08Zm8.91,2.85v3.21h9.03c-.72,6.12-4.14,10.5-10.56,13.8l2.22,3.03c9.18-4.65,12.33-11.76,12.33-20.04Zm24.24,7.71h-3.87V-25.08h-3.96V2.52h3.96V-11.25h3.87ZM181.68-6.3a3.119,3.119,0,0,1-3.24-3.36,3.144,3.144,0,0,1,3.24-3.39,3.112,3.112,0,0,1,3.21,3.36A3.106,3.106,0,0,1,181.68-6.3Zm0-9.96c-4.02,0-7.02,2.73-7.02,6.57,0,3.9,3,6.63,7.02,6.63,3.99,0,6.96-2.73,6.96-6.63C188.64-13.53,185.67-16.26,181.68-16.26Zm1.95-8.31h-3.96v3.6h-6.12v3.15h16.08v-3.15h-6Zm15.72,10.32h-3.96v-10.8h-3.96V2.58h3.96V-10.98h3.96Zm23.46,7.44a63.934,63.934,0,0,0,1.11-13.23v-2.64H203.85v3.15h16.11a57.73,57.73,0,0,1-1.11,12.27Zm-8.7,2.88v-9.51h-3.96v9.51h-8.82V-.75h24.99V-3.93Z" transform="translate(-1.29 25.08)" fill="#fff"/>
</svg>
