<svg id="그룹_1600" data-name="그룹 1600" xmlns="http://www.w3.org/2000/svg" xmlns:xlink="http://www.w3.org/1999/xlink" width="360" height="740.022" viewBox="0 0 360 740.022">
  <defs>
    <clipPath id="clip-path">
      <rect id="사각형_142" data-name="사각형 142" width="360" height="740.022" fill="none"/>
    </clipPath>
  </defs>
  <g id="그룹_189" data-name="그룹 189" clip-path="url(#clip-path)">
    <path id="패스_42" data-name="패스 42" d="M0,740.022H360V0H0ZM110.683,381.383,89.451,354.971,68.22,381.383H45l32.842-40.854L45,299.675H68.22l21.231,26.413,21.232-26.413H133.9l-32.842,40.854L133.9,381.383Zm108.705-30.5H186.065v31.614H166.756V350.879H133.433V331.57h33.323V299.956h19.309V331.57h33.323Zm96.787,18.115A13.088,13.088,0,0,1,303.1,382.067H246.952a13.088,13.088,0,0,1-13.073-13.073V299.529H253.19v63.227h43.675V299.529h19.31Z"/>
  </g>
</svg>
