<svg xmlns="http://www.w3.org/2000/svg" width="7.13" height="35.4" viewBox="0 0 7.13 35.4">
  <path id="패스_1407" data-name="패스 1407" d="M2.98.07A2.981,2.981,0,0,1,1.745-.175,2.058,2.058,0,0,1,.89-.855a1.742,1.742,0,0,1-.32-1h.97a1.277,1.277,0,0,0,.4.825A1.453,1.453,0,0,0,2.98-.7a1.512,1.512,0,0,0,1.025-.325A1.055,1.055,0,0,0,4.38-1.86a.948.948,0,0,0-.22-.65,1.405,1.405,0,0,0-.55-.38,8.594,8.594,0,0,0-.89-.28,7.838,7.838,0,0,1-1.105-.36A1.78,1.78,0,0,1,.905-4.1,1.66,1.66,0,0,1,.61-5.13,1.793,1.793,0,0,1,.9-6.14a1.889,1.889,0,0,1,.815-.68A2.869,2.869,0,0,1,2.92-7.06a2.524,2.524,0,0,1,1.6.49,1.81,1.81,0,0,1,.7,1.3h-1a1.079,1.079,0,0,0-.42-.705,1.492,1.492,0,0,0-.98-.3,1.42,1.42,0,0,0-.93.3,1.007,1.007,0,0,0-.36.825.894.894,0,0,0,.215.62,1.386,1.386,0,0,0,.53.365q.315.125.885.285a8.312,8.312,0,0,1,1.11.375,1.851,1.851,0,0,1,.72.57A1.657,1.657,0,0,1,5.3-1.9a1.835,1.835,0,0,1-.27.96,1.985,1.985,0,0,1-.8.73A2.64,2.64,0,0,1,2.98.07ZM6.3-3.49a3.668,3.668,0,0,1,.46-1.835A3.342,3.342,0,0,1,8.015-6.6,3.46,3.46,0,0,1,9.78-7.06a3.581,3.581,0,0,1,1.99.55,3.152,3.152,0,0,1,1.24,1.56H11.92a2.189,2.189,0,0,0-.835-.97A2.416,2.416,0,0,0,9.78-6.26a2.542,2.542,0,0,0-1.31.34,2.378,2.378,0,0,0-.91.965A3.094,3.094,0,0,0,7.23-3.49a3.072,3.072,0,0,0,.33,1.455,2.378,2.378,0,0,0,.91.965,2.542,2.542,0,0,0,1.31.34,2.444,2.444,0,0,0,1.305-.335,2.157,2.157,0,0,0,.835-.965h1.09A3.129,3.129,0,0,1,11.77-.485,3.606,3.606,0,0,1,9.78.06,3.49,3.49,0,0,1,8.015-.4,3.315,3.315,0,0,1,6.76-1.66,3.64,3.64,0,0,1,6.3-3.49ZM18.03,0,16.37-2.85h-1.1V0h-.91V-6.97h2.25a2.987,2.987,0,0,1,1.335.27,1.88,1.88,0,0,1,.815.73,2.035,2.035,0,0,1,.27,1.05,2.051,2.051,0,0,1-.415,1.27,2.028,2.028,0,0,1-1.245.73L19.12,0ZM15.27-3.58h1.34a1.52,1.52,0,0,0,1.11-.365,1.308,1.308,0,0,0,.37-.975,1.247,1.247,0,0,0-.365-.96,1.588,1.588,0,0,0-1.115-.34H15.27ZM23.6.07a3.517,3.517,0,0,1-1.77-.455,3.331,3.331,0,0,1-1.265-1.27A3.636,3.636,0,0,1,20.1-3.49a3.636,3.636,0,0,1,.465-1.835A3.331,3.331,0,0,1,21.83-6.6,3.517,3.517,0,0,1,23.6-7.05a3.537,3.537,0,0,1,1.78.455A3.3,3.3,0,0,1,26.64-5.33a3.66,3.66,0,0,1,.46,1.84,3.66,3.66,0,0,1-.46,1.84A3.3,3.3,0,0,1,25.38-.385,3.537,3.537,0,0,1,23.6.07Zm0-.79a2.569,2.569,0,0,0,1.315-.34,2.393,2.393,0,0,0,.92-.97,3.064,3.064,0,0,0,.335-1.46,3.056,3.056,0,0,0-.335-1.465,2.411,2.411,0,0,0-.915-.965,2.561,2.561,0,0,0-1.32-.34,2.561,2.561,0,0,0-1.32.34,2.411,2.411,0,0,0-.915.965A3.056,3.056,0,0,0,21.03-3.49a3.064,3.064,0,0,0,.335,1.46,2.393,2.393,0,0,0,.92.97A2.569,2.569,0,0,0,23.6-.72Zm5.61-.02h2.44V0H28.3V-6.97h.91Zm4.32,0h2.44V0H32.62V-6.97h.91Z" transform="translate(7.06 35.97) rotate(-90)" fill="#fff" opacity="0.7"/>
</svg>
