<svg xmlns="http://www.w3.org/2000/svg" xmlns:xlink="http://www.w3.org/1999/xlink" width="114" height="46.1" viewBox="0 0 114 46.1">
  <defs>
    <clipPath id="clip-path">
      <rect id="사각형_529" data-name="사각형 529" width="114" height="46.1" transform="translate(1063 423.1)" fill="#fff" opacity="0.56"/>
    </clipPath>
  </defs>
  <g id="마스크_그룹_2" data-name="마스크 그룹 2" transform="translate(-1063 -423.1)" clip-path="url(#clip-path)">
    <path id="패스_40" data-name="패스 40" d="M229.55-41.75v15.9H218.3v5.3h11.25v25h6.6v-46.2ZM256.8-10.5c-3.1,0-5.4-2.1-5.4-5.6s2.3-5.65,5.4-5.65,5.35,2.15,5.35,5.6C262.15-12.6,259.9-10.5,256.8-10.5Zm0-16.6c-6.7,0-11.7,4.55-11.7,10.95,0,6.5,5,11.05,11.7,11.05,6.65,0,11.6-4.55,11.6-11.05C268.4-22.55,263.45-27.1,256.8-27.1Zm3.25-13.85h-6.6v6h-10.2v5.25h26.8v-5.25h-10Zm26.2,17.2h-6.6v-18h-6.6V4.3h6.6V-18.3h6.6Zm11.6-8.4h14.9V-37.5H291.3V-6.65h3.9a114.645,114.645,0,0,0,21.25-1.5l-.65-5.45a114.469,114.469,0,0,1-17.95,1.45Zm34.4,7.4h-6.7v-17h-6.6V4.4h6.6V-19.3h6.7Z" transform="translate(844.75 464.8)" fill="#fff"/>
  </g>
</svg>
