<svg xmlns="http://www.w3.org/2000/svg" width="60" height="60" viewBox="0 0 60 60">
  <g id="그룹_2139" data-name="그룹 2139" transform="translate(14393 5930)">
    <circle id="타원_18" data-name="타원 18" cx="30" cy="30" r="30" transform="translate(-14393 -5930)" fill="#dbfc00"/>
    <path id="패스_1408" data-name="패스 1408" d="M-8.53-1.02l1.56-4.49h1.21L-7.86,0H-9.22l-2.09-5.51h1.22Zm4.21-5.22a.706.706,0,0,1-.52-.21.706.706,0,0,1-.21-.52.706.706,0,0,1,.21-.52.706.706,0,0,1,.52-.21.694.694,0,0,1,.51.21.706.706,0,0,1,.21.52.706.706,0,0,1-.21.52A.694.694,0,0,1-4.32-6.24Zm.56.73V0H-4.9V-5.51ZM2.79-2.89a3.564,3.564,0,0,1-.04.56H-1.46A1.529,1.529,0,0,0-.97-1.27a1.547,1.547,0,0,0,1.08.4,1.334,1.334,0,0,0,1.3-.77H2.64A2.482,2.482,0,0,1,1.735-.4,2.655,2.655,0,0,1,.11.09,2.814,2.814,0,0,1-1.305-.265a2.526,2.526,0,0,1-.98-1,3.051,3.051,0,0,1-.355-1.5A3.122,3.122,0,0,1-2.3-4.255a2.426,2.426,0,0,1,.97-1A2.887,2.887,0,0,1,.11-5.6a2.806,2.806,0,0,1,1.39.34,2.4,2.4,0,0,1,.95.955A2.876,2.876,0,0,1,2.79-2.89ZM1.6-3.25a1.3,1.3,0,0,0-.45-1.01A1.609,1.609,0,0,0,.06-4.64a1.464,1.464,0,0,0-1.01.375,1.567,1.567,0,0,0-.5,1.015Zm9.71-2.26L9.6,0H8.4L7.29-4.07,6.18,0H4.98L3.26-5.51H4.42L5.57-1.08,6.74-5.51H7.93L9.05-1.1l1.14-4.41ZM-5.97,6.4A2.471,2.471,0,0,1-4.8,6.67a1.951,1.951,0,0,1,.81.8,2.6,2.6,0,0,1,.3,1.28V12H-4.83V8.92A1.6,1.6,0,0,0-5.2,7.785,1.317,1.317,0,0,0-6.21,7.39a1.333,1.333,0,0,0-1.015.395A1.586,1.586,0,0,0-7.6,8.92V12H-8.73V8.92A1.6,1.6,0,0,0-9.1,7.785a1.317,1.317,0,0,0-1.01-.395,1.333,1.333,0,0,0-1.015.395A1.586,1.586,0,0,0-11.5,8.92V12h-1.14V6.49h1.14v.63a1.9,1.9,0,0,1,.71-.53,2.251,2.251,0,0,1,.92-.19,2.449,2.449,0,0,1,1.18.28,1.914,1.914,0,0,1,.8.81,1.848,1.848,0,0,1,.78-.8A2.307,2.307,0,0,1-5.97,6.4ZM.14,12.09a2.822,2.822,0,0,1-1.41-.355,2.55,2.55,0,0,1-.99-1A3.016,3.016,0,0,1-2.62,9.24a2.959,2.959,0,0,1,.37-1.49,2.556,2.556,0,0,1,1.01-1A2.931,2.931,0,0,1,.19,6.4a2.931,2.931,0,0,1,1.43.35,2.556,2.556,0,0,1,1.01,1A2.959,2.959,0,0,1,3,9.24a2.9,2.9,0,0,1-.38,1.49,2.631,2.631,0,0,1-1.035,1.005A2.983,2.983,0,0,1,.14,12.09Zm0-.99a1.7,1.7,0,0,0,.825-.21,1.6,1.6,0,0,0,.625-.63,2.025,2.025,0,0,0,.24-1.02A2.068,2.068,0,0,0,1.6,8.225,1.553,1.553,0,0,0,.99,7.6a1.668,1.668,0,0,0-.82-.21,1.64,1.64,0,0,0-.815.21,1.5,1.5,0,0,0-.595.625A2.145,2.145,0,0,0-1.46,9.24,1.933,1.933,0,0,0-1,10.615,1.5,1.5,0,0,0,.14,11.1ZM5.27,7.29a1.79,1.79,0,0,1,.665-.655A1.967,1.967,0,0,1,6.92,6.4V7.58H6.63a1.388,1.388,0,0,0-1.015.34A1.626,1.626,0,0,0,5.27,9.1V12H4.13V6.49H5.27Zm7.75,1.82a3.564,3.564,0,0,1-.04.56H8.77a1.529,1.529,0,0,0,.49,1.06,1.547,1.547,0,0,0,1.08.4,1.334,1.334,0,0,0,1.3-.77h1.23a2.482,2.482,0,0,1-.9,1.245,2.655,2.655,0,0,1-1.625.485,2.814,2.814,0,0,1-1.415-.355,2.526,2.526,0,0,1-.98-1A3.051,3.051,0,0,1,7.59,9.24a3.122,3.122,0,0,1,.345-1.495,2.426,2.426,0,0,1,.97-1A2.887,2.887,0,0,1,10.34,6.4a2.806,2.806,0,0,1,1.39.34,2.4,2.4,0,0,1,.95.955A2.876,2.876,0,0,1,13.02,9.11Zm-1.19-.36a1.3,1.3,0,0,0-.45-1.01,1.609,1.609,0,0,0-1.09-.38,1.464,1.464,0,0,0-1.01.375,1.567,1.567,0,0,0-.5,1.015Z" transform="translate(-14363 -5902)"/>
  </g>
</svg>
