<svg xmlns="http://www.w3.org/2000/svg" width="375.05" height="46.1" viewBox="0 0 375.05 46.1">
  <path id="패스_37" data-name="패스 37" d="M6.05-24.3c8.45-.6,14.2-3.3,16.95-7.1,2.7,3.8,8.4,6.5,16.9,7.1l2-5c-8.65-.6-13.2-3.1-14.55-5.9H40v-5.15H5.95v5.15H18.6c-1.4,2.75-6,5.35-14.6,5.9ZM13.5-3.6H38.7V-15.4H6.9v4.8H32.2v2.5H6.95V3.95H39.9V-.95H13.5ZM2.15-23.05v5.15h41.6v-5.15ZM49.8-37v5.25H64.75c-.9,10.05-5.65,17.2-17.15,23l3.5,5.1C67-11.6,71.45-23.1,71.45-37Zm30.25-4.75V-24.1h-8.9v5.35h8.9V4.3h6.6V-41.75Zm34.9,5.7c6.3,0,9.9,1.25,9.9,3.85,0,2.55-3.6,3.85-9.9,3.85-6.25,0-9.85-1.3-9.85-3.85C105.1-34.8,108.7-36.05,114.95-36.05Zm0,12.65c10.15,0,16.7-3.3,16.7-8.8,0-5.55-6.55-8.85-16.7-8.85S98.3-37.75,98.3-32.2C98.3-26.7,104.8-23.4,114.95-23.4Zm9.35,22H105.45V-6.7H124.3Zm11.45-14.4v-5.25H94.15v5.25h17.5v3.95H99V3.75h31.8v-15.6H118.25V-15.8Zm25.2-20.45c6.7,0,9.85.95,9.85,3,0,2.15-3.15,3.05-9.85,3.05-6.65,0-9.8-.9-9.8-3.05C151.15-35.3,154.3-36.25,160.95-36.25Zm0,10.85c10.55,0,16.7-2.75,16.7-7.85,0-5.05-6.15-7.85-16.7-7.85-10.5,0-16.65,2.8-16.65,7.85C144.3-28.15,150.45-25.4,160.95-25.4ZM151.5-3.6h25.2V-15.45H144.9v4.85h25.3v2.45H144.95V3.95H177.9V-1H151.5ZM140.15-23.2v5.15h41.6V-23.2ZM210.9-11.85H205v-10.3h5.9Zm0-15.45H205V-37.7h-6.2V-6.6h18.15V-37.7H210.9Zm19.85-14.5v17.6H226.9V-41.05h-6.15V2.25h6.15V-18.9h3.85V4.25H237V-41.8Zm14.85,4.75v5.35h15.05c-1.2,10.2-6.9,17.5-17.6,23l3.7,5.05c15.3-7.75,20.55-19.6,20.55-33.4ZM286-24.2h-6.45V-41.8h-6.6v46h6.6V-18.75H286Zm16.8,13.7c-3.1,0-5.4-2.1-5.4-5.6s2.3-5.65,5.4-5.65,5.35,2.15,5.35,5.6C308.15-12.6,305.9-10.5,302.8-10.5Zm0-16.6c-6.7,0-11.7,4.55-11.7,10.95,0,6.5,5,11.05,11.7,11.05,6.65,0,11.6-4.55,11.6-11.05C314.4-22.55,309.45-27.1,302.8-27.1Zm3.25-13.85h-6.6v6h-10.2v5.25h26.8v-5.25h-10Zm26.2,17.2h-6.6v-18h-6.6V4.3h6.6V-18.3h6.6Zm39.1,12.4A106.556,106.556,0,0,0,373.2-33.4v-4.4H339.75v5.25H366.6a96.217,96.217,0,0,1-1.85,20.45Zm-14.5,4.8V-22.4h-6.6V-6.55h-14.7v5.3H377.2v-5.3Z" transform="translate(-2.15 41.8)" fill="#fff"/>
</svg>
