<svg xmlns="http://www.w3.org/2000/svg" width="133.32" height="27.63" viewBox="0 0 133.32 27.63">
  <path id="패스_1399" data-name="패스 1399" d="M21.24-25.08v10.77H19.02V-24.6H15.33V-6.9c-3.81-2.13-5.1-6.63-5.1-11.4v-4.35H6.39V-18c0,4.68-1.47,9.66-5.61,12.12L3.24-2.97a12.249,12.249,0,0,0,5.04-7.05,10.742,10.742,0,0,0,4.77,6.24l2.28-3.06V1.32h3.69V-11.13h2.22V2.55h3.75V-25.08ZM43.35-3.69V-7.8h8.37v-3.18H35.7v-3.09H51.09v-9.21H31.74v3.15H47.19v2.97H31.77V-7.8h7.62v4.11H28.89V-.45H53.91V-3.69ZM68.97-21.63c3.78,0,5.94.75,5.94,2.31,0,1.53-2.16,2.31-5.94,2.31-3.75,0-5.91-.78-5.91-2.31C63.06-20.88,65.22-21.63,68.97-21.63Zm0,7.59c6.09,0,10.02-1.98,10.02-5.28,0-3.33-3.93-5.31-10.02-5.31s-9.99,1.98-9.99,5.31C58.98-16.02,62.88-14.04,68.97-14.04ZM74.58-.84H63.27V-4.02H74.58Zm6.87-8.64v-3.15H56.49v3.15h10.5v2.37H59.4V2.25H78.48V-7.11H70.95V-9.48ZM96.57-21.75c4.02,0,5.91.57,5.91,1.8,0,1.29-1.89,1.83-5.91,1.83-3.99,0-5.88-.54-5.88-1.83C90.69-21.18,92.58-21.75,96.57-21.75Zm0,6.51c6.33,0,10.02-1.65,10.02-4.71,0-3.03-3.69-4.71-10.02-4.71-6.3,0-9.99,1.68-9.99,4.71C86.58-16.89,90.27-15.24,96.57-15.24ZM90.9-2.16h15.12V-9.27H86.94v2.91h15.18v1.47H86.97V2.37h19.77V-.6H90.9ZM84.09-13.92v3.09h24.96v-3.09Zm39.66-5.52h8.55v-3.15H119.79V-4.02h2.25a62.442,62.442,0,0,0,12.06-.81l-.39-3.21a58.111,58.111,0,0,1-9.96.78Z" transform="translate(-0.78 25.08)" fill="#fff"/>
</svg>
