<svg xmlns="http://www.w3.org/2000/svg" width="68.37" height="27.72" viewBox="0 0 68.37 27.72">
  <path id="패스_1400" data-name="패스 1400" d="M20.52-25.05v9.54H13.77v3.18h6.75v15h3.96V-25.05ZM36.87-6.3a3.119,3.119,0,0,1-3.24-3.36,3.144,3.144,0,0,1,3.24-3.39,3.112,3.112,0,0,1,3.21,3.36A3.106,3.106,0,0,1,36.87-6.3Zm0-9.96c-4.02,0-7.02,2.73-7.02,6.57,0,3.9,3,6.63,7.02,6.63,3.99,0,6.96-2.73,6.96-6.63C43.83-13.53,40.86-16.26,36.87-16.26Zm1.95-8.31H34.86v3.6H28.74v3.15H44.82v-3.15h-6ZM54.54-14.25H50.58v-10.8H46.62V2.58h3.96V-10.98h3.96Zm6.96-5.04h8.94V-22.5H57.57V-3.99h2.34a68.787,68.787,0,0,0,12.75-.9l-.39-3.27a68.681,68.681,0,0,1-10.77.87Zm20.64,4.44H78.12v-10.2H74.16V2.64h3.96V-11.58h4.02Z" transform="translate(-13.77 25.05)" fill="#fff"/>
</svg>
