<svg xmlns="http://www.w3.org/2000/svg" xmlns:xlink="http://www.w3.org/1999/xlink" width="210" height="120" viewBox="0 0 210 120">
  <defs>
    <clipPath id="clip-path">
      <rect id="사각형_4108" data-name="사각형 4108" width="210" height="113" fill="none"/>
    </clipPath>
  </defs>
  <g id="그룹_2131" data-name="그룹 2131" transform="translate(-59 -291)">
    <g id="그룹_2130" data-name="그룹 2130" transform="translate(59 295)">
      <g id="그룹_2127" data-name="그룹 2127">
        <g id="그룹_2126" data-name="그룹 2126" clip-path="url(#clip-path)">
          <path id="패스_1399" data-name="패스 1399" d="M23.337,190.467a7.542,7.542,0,0,1-3.136-2.492,6.372,6.372,0,0,1-1.174-3.681h3.558a4.671,4.671,0,0,0,1.486,3.022,5.333,5.333,0,0,0,3.8,1.228,5.55,5.55,0,0,0,3.76-1.191A3.86,3.86,0,0,0,33,184.294a3.473,3.473,0,0,0-.808-2.382,5.164,5.164,0,0,0-2.018-1.392,31.84,31.84,0,0,0-3.265-1.025,28.713,28.713,0,0,1-4.053-1.319,6.525,6.525,0,0,1-2.6-2.069,6.075,6.075,0,0,1-1.082-3.792,6.566,6.566,0,0,1,1.064-3.7,6.933,6.933,0,0,1,2.99-2.491,10.537,10.537,0,0,1,4.42-.88,9.268,9.268,0,0,1,5.888,1.8,6.631,6.631,0,0,1,2.587,4.762H32.454a3.954,3.954,0,0,0-1.541-2.582,5.477,5.477,0,0,0-3.6-1.118,5.214,5.214,0,0,0-3.412,1.081,3.687,3.687,0,0,0-1.321,3.022,3.27,3.27,0,0,0,.789,2.272,5.073,5.073,0,0,0,1.944,1.337q1.155.459,3.246,1.044a30.7,30.7,0,0,1,4.072,1.373,6.8,6.8,0,0,1,2.641,2.089,6.067,6.067,0,0,1,1.1,3.829,6.721,6.721,0,0,1-.99,3.516,7.279,7.279,0,0,1-2.935,2.674,9.689,9.689,0,0,1-4.586,1.026,10.94,10.94,0,0,1-4.53-.9" transform="translate(-9.01 -78.365)" fill="#9e9e9e"/>
          <path id="패스_1400" data-name="패스 1400" d="M100.027,165.872v2.711h-6.97v22.823H89.719V168.583H82.712v-2.711Z" transform="translate(-39.165 -78.662)" fill="#9e9e9e"/>
          <path id="패스_1401" data-name="패스 1401" d="M150.989,165.872v16.155a6.829,6.829,0,0,0,1.669,5.056,7.3,7.3,0,0,0,9.245,0,6.831,6.831,0,0,0,1.669-5.056V165.872h3.338v16.119a10.4,10.4,0,0,1-1.284,5.366,8.05,8.05,0,0,1-3.466,3.242,11.819,11.819,0,0,1-9.8,0,7.938,7.938,0,0,1-3.449-3.242,10.533,10.533,0,0,1-1.265-5.366V165.872Z" transform="translate(-69.914 -78.662)" fill="#9e9e9e"/>
          <path id="패스_1402" data-name="패스 1402" d="M234.415,167.429a10.957,10.957,0,0,1,4.7,4.451,15,15,0,0,1,0,13.61,10.759,10.759,0,0,1-4.7,4.4,16.121,16.121,0,0,1-7.244,1.52h-7.962V165.872h7.962a15.811,15.811,0,0,1,7.244,1.557m.312,18.611q2.6-2.619,2.6-7.345a10.165,10.165,0,0,0-2.623-7.436q-2.623-2.674-7.538-2.675h-4.623v20.076h4.623q4.952,0,7.557-2.619" transform="translate(-103.798 -78.662)" fill="#9e9e9e"/>
          <rect id="사각형_4107" data-name="사각형 4107" width="3.339" height="25.534" transform="translate(154.186 87.21)" fill="#9e9e9e"/>
          <path id="패스_1403" data-name="패스 1403" d="M338.363,189.732a12.192,12.192,0,0,1-4.64-4.652,14.1,14.1,0,0,1,0-13.445,12.21,12.21,0,0,1,4.64-4.652,13.554,13.554,0,0,1,13.023,0,12.12,12.12,0,0,1,4.622,4.634,14.3,14.3,0,0,1,0,13.481,12.1,12.1,0,0,1-4.622,4.635,13.55,13.55,0,0,1-13.023,0m11.317-2.473a8.774,8.774,0,0,0,3.375-3.553,12.285,12.285,0,0,0,0-10.716,8.849,8.849,0,0,0-3.356-3.536,10.037,10.037,0,0,0-9.685,0,8.841,8.841,0,0,0-3.357,3.536,12.3,12.3,0,0,0,0,10.716,8.778,8.778,0,0,0,3.375,3.553,9.962,9.962,0,0,0,9.648,0" transform="translate(-157.214 -78.398)" fill="#9e9e9e"/>
        </g>
      </g>
      <path id="패스_1404" data-name="패스 1404" d="M50.889.215,34.439,20.678,17.989.215H0L25.445,31.867,0,63.518H17.989l16.45-20.463,16.45,20.463H68.878L43.433,31.867,68.878.215Z" transform="translate(0 -0.102)" fill="#dbfc00"/>
      <g id="그룹_2129" data-name="그룹 2129">
        <g id="그룹_2128" data-name="그룹 2128" clip-path="url(#clip-path)">
          <path id="패스_1405" data-name="패스 1405" d="M292.774,48.9H326.6V0h14.954V53.72a10.128,10.128,0,0,1-10.124,10.11H287.944A10.129,10.129,0,0,1,277.82,53.72V0h14.954Z" transform="translate(-131.551)" fill="#dbfc00"/>
          <path id="패스_1406" data-name="패스 1406" d="M130.075,25.077h25.8V.629h14.953V25.077H196.64V40.01H170.834V64.458H155.88V40.01h-25.8Z" transform="translate(-61.592 -0.298)" fill="#dbfc00"/>
        </g>
      </g>
    </g>
    <rect id="사각형_4110" data-name="사각형 4110" width="210" height="120" transform="translate(59 291)" fill="none"/>
  </g>
</svg>
