<svg xmlns="http://www.w3.org/2000/svg" xmlns:xlink="http://www.w3.org/1999/xlink" width="150" height="40" viewBox="0 0 150 40">
  <defs>
    <clipPath id="clip-path">
      <rect id="사각형_4071" data-name="사각형 4071" width="35.574" height="25.507" fill="none"/>
    </clipPath>
  </defs>
  <g id="그룹_2073" data-name="그룹 2073" transform="translate(-340 -1424)">
    <g id="그룹_2072" data-name="그룹 2072" transform="translate(349 1431)">
      <path id="패스_1397" data-name="패스 1397" d="M6.76-21.38c-1.38,0-2.3-1.46-2.3-4.2,0-2.72.92-4.18,2.3-4.18,1.36,0,2.3,1.46,2.3,4.18C9.06-22.84,8.12-21.38,6.76-21.38Zm0-10.76c-2.8,0-4.84,2.52-4.84,6.56,0,4.06,2.04,6.6,4.84,6.6,2.78,0,4.84-2.54,4.84-6.6C11.6-29.62,9.54-32.14,6.76-32.14Zm12.16,5.66H16.24v-6.94H13.6V-15h2.64v-9.3h2.68Zm13.92-6.96v18.48h2.64V-33.44Zm-7.26,1.3c-2.78,0-4.84,2.52-4.84,6.56,0,4.06,2.06,6.6,4.84,6.6s4.84-2.54,4.84-6.6C30.42-29.62,28.36-32.14,25.58-32.14Zm0,2.38c1.36,0,2.3,1.46,2.3,4.18,0,2.74-.94,4.2-2.3,4.2s-2.3-1.46-2.3-4.2C23.28-28.3,24.22-29.76,25.58-29.76Zm27.74.42h-10v-1.62h9.86v-2.1H40.7v5.8H53.32ZM43.16-18.28H53.24v-4.88H40.52v1.98H50.64v1.04H40.54v4.98H53.72v-2.02H43.16Zm-4.52-8v2.08H55.3v-2.08Zm21.58-5.4H57.58v12.16h1.6a42.282,42.282,0,0,0,8.7-.8l-.26-2.16a44.9,44.9,0,0,1-7.4.76Zm13.8,5.2H71.44v-6.96H68.8v18.4h2.64V-24.3h2.58Zm4.76,1.74h5.84v-7.12H76.16v2.1h5.86v2.94H76.18v7.6h1.56a45.666,45.666,0,0,0,8.5-.62L86-21.98a41.9,41.9,0,0,1-7.22.58Zm13.74-1.74H89.88v-6.96H87.24v18.48h2.64V-24.3h2.64Z" transform="translate(38.899 38.22)" fill="#919191"/>
      <g id="그룹_2070" data-name="그룹 2070" clip-path="url(#clip-path)">
        <path id="패스_1380" data-name="패스 1380" d="M14.23,17.4c-.019,1.812-1.31,2.449-2.974,2.493H7.662C6,19.845,4.7,19.2,4.685,17.4V3.76H0V18.114c.007,4.055,3.583,6.12,6.758,6.127h5.376c3.164-.007,6.746-2.032,6.75-6.127L18.889,3.76H14.23Z" transform="translate(0 1.266)" fill="#555"/>
        <path id="패스_1381" data-name="패스 1381" d="M25.195,5.025V0H20.89V5.025h-5v4.28h5v5.027h4.305V9.305h5.031V5.025Z" transform="translate(5.349 0)" fill="#555"/>
      </g>
    </g>
    <rect id="사각형_4074" data-name="사각형 4074" width="150" height="40" transform="translate(340 1424)" fill="none"/>
  </g>
</svg>
