<svg xmlns="http://www.w3.org/2000/svg" xmlns:xlink="http://www.w3.org/1999/xlink" width="136" height="59.998" viewBox="0 0 136 59.998">
  <defs>
    <clipPath id="clip-path">
      <rect id="사각형_4070" data-name="사각형 4070" width="116.864" height="38.487" fill="none"/>
    </clipPath>
  </defs>
  <g id="그룹_2238" data-name="그룹 2238" transform="translate(21492 -1508)">
    <g id="그룹_2069" data-name="그룹 2069" transform="translate(-21482 1519)">
      <g id="그룹_2068" data-name="그룹 2068" transform="translate(0 0)" clip-path="url(#clip-path)">
        <path id="패스_1376" data-name="패스 1376" d="M21.469,24.355c-.028,2.737-1.976,3.688-4.484,3.762H11.561c-2.508-.074-4.466-1.043-4.49-3.762V3.772H0V25.434c.012,6.122,5.407,9.237,10.2,9.245H18.31c4.773-.008,10.178-3.061,10.19-9.245l0-21.662H21.469Z" transform="translate(0 3.808)" fill="#d6006e"/>
        <path id="패스_1377" data-name="패스 1377" d="M29.987,7.583V0h-6.5V7.583H15.946v6.46h7.543V21.63h6.5V14.042h7.591V7.583Z" transform="translate(16.103 -0.001)" fill="#d6006e"/>
        <path id="패스_1378" data-name="패스 1378" d="M40.465,34.113V8.714H30.226V3.749H56.5V8.714H46.255v25.4Z" transform="translate(30.525 3.786)" fill="#8b8b8c"/>
        <path id="패스_1379" data-name="패스 1379" d="M66.887,3.749h6.058c-2.788,9.061-7.274,21.3-11.111,30.363H54.47A315.788,315.788,0,0,0,43.49,3.749h6.363C52.6,10.372,56.3,20.7,58.526,28.276c3.007-7.4,6.186-17.12,8.361-24.527" transform="translate(43.919 3.785)" fill="#8b8b8c"/>
      </g>
    </g>
    <rect id="사각형_4075" data-name="사각형 4075" width="136" height="59.998" transform="translate(-21492 1508)" fill="none"/>
  </g>
</svg>
