<svg xmlns="http://www.w3.org/2000/svg" width="100" height="40" viewBox="0 0 100 40">
  <g id="그룹_2075" data-name="그룹 2075" transform="translate(-1512 -1424)">
    <g id="그룹_2076" data-name="그룹 2076" transform="translate(1512 1424)">
      <path id="_8831c85b436247f" data-name="8831c85b436247f" d="M11.662,21.444c-1.276.224-2.574.291-3.917.47l-4.1-12V22.429c-1.276.134-2.44.313-3.649.492V0H3.4L8.058,13.006V0h3.6V21.444Zm7.051-13.05c1.388,0,3.514-.067,4.79-.067v3.581c-1.589,0-3.447,0-4.79.067V17.3c2.1-.134,4.208-.314,6.335-.381V20.37l-9.916.784V0h9.916V3.582H18.714V8.394ZM38.367,3.582H34.651V20.057c-1.209,0-2.418,0-3.581.045V3.582H27.354V0H38.367V3.582Zm5.82,4.566h4.9V11.73h-4.9v8.126H40.673V0H50.679V3.582H44.187V8.148ZM56.5,16.721c2.037.045,4.1.2,6.089.313v3.537c-3.2-.2-6.4-.4-9.67-.47V0H56.5V16.721Zm9.111,4.1c1.142.067,2.35.134,3.514.269V0H65.609ZM84.816,0,80.271,10.9l4.544,12.021c-1.343-.179-2.686-.425-4.029-.649l-2.574-6.626-2.619,6.089c-1.3-.224-2.552-.291-3.85-.47l4.611-10.5L72.191,0h3.85l2.35,6.021L80.9,0h3.917Z" transform="translate(7.5 8.5)" fill="#555"/>
      <rect id="사각형_4076" data-name="사각형 4076" width="100" height="40" fill="none"/>
    </g>
  </g>
</svg>
