<svg id="그룹_2075" data-name="그룹 2075" xmlns="http://www.w3.org/2000/svg" width="100" height="40" viewBox="0 0 100 40">
  <g id="그룹_2076" data-name="그룹 2076" transform="translate(0 0)">
    <path id="_8831c85b436247f" data-name="8831c85b436247f" d="M11.664,21.448c-1.276.224-2.575.291-3.918.47l-4.1-12V22.433c-1.276.134-2.44.313-3.649.492V0H3.4L8.06,13.008V0h3.6V21.448ZM18.716,8.4c1.388,0,3.515-.067,4.791-.067V11.91c-1.59,0-3.448,0-4.791.067v5.328c2.1-.134,4.209-.314,6.336-.381v3.448l-9.918.784V0h9.918V3.582H18.716V8.4ZM38.373,3.582H34.657V20.06c-1.209,0-2.418,0-3.582.045V3.582H27.358V0H38.373V3.582Zm5.821,4.567h4.9v3.582h-4.9v8.127H40.679V0H50.687V3.582H44.194V8.149Zm12.313,8.575c2.037.045,4.1.2,6.09.313v3.537c-3.2-.2-6.4-.4-9.672-.47V0h3.582V16.724Zm9.112,4.1c1.142.067,2.351.134,3.515.269V0H65.619ZM84.829,0,80.284,10.9l4.545,12.022c-1.343-.179-2.687-.425-4.03-.649l-2.575-6.627L75.6,21.739c-1.3-.224-2.552-.291-3.851-.47l4.612-10.5L72.2,0h3.851L78.4,6.022,80.911,0h3.918Z" transform="translate(7.501 8.501)" fill="#d81f26"/>
    <rect id="사각형_4076" data-name="사각형 4076" width="100" height="40" fill="none"/>
  </g>
</svg>
