<svg xmlns="http://www.w3.org/2000/svg" xmlns:xlink="http://www.w3.org/1999/xlink" width="150" height="40" viewBox="0 0 150 40">
  <defs>
    <clipPath id="clip-path">
      <rect id="사각형_4071" data-name="사각형 4071" width="35.683" height="25.585" fill="none"/>
    </clipPath>
  </defs>
  <g id="그룹_2073" data-name="그룹 2073" transform="translate(-340 -1424)">
    <g id="그룹_2072" data-name="그룹 2072" transform="translate(349.028 1431.021)">
      <path id="패스_1398" data-name="패스 1398" d="M6.775-21.343c-1.384,0-2.307-1.464-2.307-4.213,0-2.728.923-4.193,2.307-4.193,1.364,0,2.307,1.464,2.307,4.193C9.082-22.808,8.139-21.343,6.775-21.343Zm0-10.793c-2.809,0-4.855,2.528-4.855,6.58,0,4.072,2.046,6.62,4.855,6.62,2.789,0,4.855-2.548,4.855-6.62C11.63-29.608,9.563-32.136,6.775-32.136Zm12.2,5.677H16.284V-33.42H13.636v18.476h2.648v-9.328h2.688ZM32.935-33.44V-14.9h2.648V-33.44Zm-7.282,1.3c-2.789,0-4.855,2.528-4.855,6.58,0,4.072,2.066,6.62,4.855,6.62s4.855-2.548,4.855-6.62C30.507-29.608,28.441-32.136,25.652-32.136Zm0,2.387c1.364,0,2.307,1.464,2.307,4.193,0,2.748-.943,4.213-2.307,4.213s-2.307-1.464-2.307-4.213C23.345-28.284,24.288-29.749,25.652-29.749Zm27.825.421H43.447v-1.625h9.89v-2.106H40.819v5.818H53.477ZM43.286-18.234H53.4v-4.895H40.638v1.986H50.789V-20.1H40.658v5h13.22V-17.13H43.286Zm-4.534-8.025v2.086H55.464v-2.086ZM60.4-31.675H57.751v12.2h1.6a42.412,42.412,0,0,0,8.727-.8l-.261-2.167a45.039,45.039,0,0,1-7.423.762Zm13.842,5.216H71.653V-33.44H69v18.456h2.648v-9.288h2.588Zm4.775,1.745h5.858v-7.142H76.387v2.106h5.878V-26.8H76.408v7.623h1.565A45.805,45.805,0,0,0,86.5-19.8l-.241-2.147a42.032,42.032,0,0,1-7.242.582ZM92.8-26.459H90.15V-33.44H87.5V-14.9H90.15v-9.369H92.8Z" transform="translate(39.024 38.235)" fill="#fff"/>
      <g id="그룹_2070" data-name="그룹 2070" transform="translate(0)" clip-path="url(#clip-path)">
        <path id="패스_1380" data-name="패스 1380" d="M14.273,17.438c-.019,1.818-1.314,2.456-2.983,2.5H7.685c-1.665-.044-2.967-.693-2.986-2.5V3.76H0v14.4C.007,22.226,3.594,24.3,6.779,24.3h5.392c3.173-.007,6.767-2.038,6.771-6.146l.005-14.4H14.273Z" transform="translate(0 1.281)" fill="#d6056e"/>
        <path id="패스_1381" data-name="패스 1381" d="M25.223,5.041V0H20.9V5.041H15.891V9.334H20.9v5.042h4.318V9.334H30.27V5.041Z" transform="translate(5.414 0)" fill="#d6056e"/>
      </g>
    </g>
    <rect id="사각형_4074" data-name="사각형 4074" width="150" height="40" transform="translate(340 1424)" fill="none"/>
  </g>
</svg>
