<svg xmlns="http://www.w3.org/2000/svg" xmlns:xlink="http://www.w3.org/1999/xlink" width="160" height="59.998" viewBox="0 0 160 59.998">
  <defs>
    <clipPath id="clip-path">
      <rect id="사각형_4195" data-name="사각형 4195" width="151.539" height="38.443" fill="none"/>
    </clipPath>
  </defs>
  <g id="그룹_2236" data-name="그룹 2236" transform="translate(21769 -1508)">
    <g id="그룹_2197" data-name="그룹 2197" transform="translate(-21765 1519)" clip-path="url(#clip-path)">
      <path id="패스_1418" data-name="패스 1418" d="M21.444,24.329c-.028,2.732-1.973,3.686-4.479,3.756H11.547c-2.5-.07-4.461-1.042-4.485-3.756V3.773H0V25.407c.012,6.115,5.4,9.228,10.184,9.236h8.1c4.768-.008,10.166-3.061,10.178-9.236l0-21.634H21.444Z" transform="translate(0 3.8)" fill="#d6006e"/>
      <path id="패스_1419" data-name="패스 1419" d="M29.97,7.575V0H23.48V7.575H15.946v6.448H23.48V21.6h6.49v-7.58h7.582V7.575Z" transform="translate(16.065 0)" fill="#d6006e"/>
      <path id="패스_1420" data-name="패스 1420" d="M29.521,30.058V26.1H42.23V19.9H33.379V4.889H55.963V19.9H47.084v6.2H59.822v3.957ZM51.384,8.85H37.994v7.092h13.39Z" transform="translate(29.741 4.925)" fill="#8b8b8c"/>
      <path id="패스_1421" data-name="패스 1421" d="M46.227,27.825V6.237h4.579V13.02H57.35V6.237H61.9V27.825ZM57.35,17.015H50.806v6.851H57.35Zm13.464,2.307V34.059H66.2V3.758h4.615V14.879H75.08v4.442Z" transform="translate(46.572 3.785)" fill="#8b8b8c"/>
      <path id="패스_1422" data-name="패스 1422" d="M70.427,19.115c-4.479,0-8.54-3-8.54-7.4s3.995-7.367,8.54-7.367c4.473,0,8.54,2.959,8.54,7.367,0,4.372-4.067,7.4-8.54,7.4m-4.236,14.6V25.589H83.439V24H66.191V20.595H88.5v8.022H71.254v1.552H89.19v3.543ZM70.427,8.233c-2.138,0-4.031,1.518-4.031,3.409a4.048,4.048,0,0,0,8.026,0c0-1.927-1.893-3.409-3.995-3.409m13.6-4.475h4.579V19.424H84.027Z" transform="translate(62.348 3.785)" fill="#8b8b8c"/>
    </g>
    <rect id="사각형_4196" data-name="사각형 4196" width="160" height="59.998" transform="translate(-21769 1508)" fill="none"/>
  </g>
</svg>
