<svg xmlns="http://www.w3.org/2000/svg" xmlns:xlink="http://www.w3.org/1999/xlink" width="155" height="31" viewBox="0 0 155 31">
  <defs>
    <clipPath id="clip-path">
      <rect id="사각형_4802" data-name="사각형 4802" width="147.25" height="29.957" transform="translate(0 0)" fill="none"/>
    </clipPath>
  </defs>
  <g id="그룹_117077" data-name="그룹 117077" transform="translate(18451 1164)">
    <rect id="사각형_4805" data-name="사각형 4805" width="155" height="31" transform="translate(-18451 -1164)" fill="none"/>
    <g id="그룹_117075" data-name="그룹 117075" transform="translate(-18447.125 -1163.225)">
      <g id="그룹_117068" data-name="그룹 117068" transform="translate(0 0)" clip-path="url(#clip-path)">
        <path id="패스_1469" data-name="패스 1469" d="M450.252,37.261H443.94V31.325h-3.3v5.936h-6.312v3.147h6.312v5.938h3.3V40.407h6.312Zm12.925-5.936V43.2h-7.6V31.325h-3.3V44.142a2.2,2.2,0,0,0,2.2,2.2h9.788a2.2,2.2,0,0,0,2.2-2.2V31.325Zm-28.036,0h-3.929l-4.062,5.062-4.062-5.062H419.16l6.027,7.51-6.027,7.51h3.929l4.062-5.062,4.062,5.062h3.929l-6.027-7.51Z" transform="translate(-319.224 -23.857)" fill="#fff"/>
        <path id="패스_1470" data-name="패스 1470" d="M236.307,42.772a3.437,3.437,0,0,0,1.283,2.888,4.564,4.564,0,0,0,5.3,0,3.437,3.437,0,0,0,1.283-2.888V35.378a3.438,3.438,0,0,0-1.283-2.888,4.565,4.565,0,0,0-5.3,0,3.438,3.438,0,0,0-1.283,2.888Zm6.324.037a2.2,2.2,0,0,1-.736,1.753,2.751,2.751,0,0,1-3.3,0,2.2,2.2,0,0,1-.736-1.753V35.341a2.2,2.2,0,0,1,.736-1.753,2.751,2.751,0,0,1,3.3,0,2.2,2.2,0,0,1,.736,1.753Zm-8.772,3.551h-1.547V31.79h1.547Zm-4.9-13.484a3.984,3.984,0,0,0-3.005-1.086h-3.65V46.36h3.65a3.983,3.983,0,0,0,3.005-1.086,3.515,3.515,0,0,0,.9-2.527V35.4a3.516,3.516,0,0,0-.9-2.527m-.647,9.817a2.222,2.222,0,0,1-.6,1.647,2.388,2.388,0,0,1-1.755.623h-2.1V33.187h2.1a2.388,2.388,0,0,1,1.755.623,2.223,2.223,0,0,1,.6,1.648Zm-16.267-10.9V42.772a3.437,3.437,0,0,0,1.283,2.888,4.47,4.47,0,0,0,5.245,0,3.437,3.437,0,0,0,1.283-2.888V31.79h-1.547V42.809a2.2,2.2,0,0,1-.737,1.753,2.661,2.661,0,0,1-3.243,0,2.2,2.2,0,0,1-.737-1.753V31.79Zm-1.457,1.4h-2.974V46.36h-1.547V33.187H203.1v-1.4h7.5Zm-8.487,9.79a3.26,3.26,0,0,1-1.153,2.666,4.1,4.1,0,0,1-2.614.867,4.507,4.507,0,0,1-2.852-.825A3.167,3.167,0,0,1,194.25,42.9V41.684h1.544v.991a2.227,2.227,0,0,0,.647,1.844,2.708,2.708,0,0,0,1.823.595,2.359,2.359,0,0,0,1.763-.639,2.023,2.023,0,0,0,.534-1.395,2.265,2.265,0,0,0-.524-1.425,6.957,6.957,0,0,0-1.376-1.239l-2.009-1.552a7.064,7.064,0,0,1-1.9-2.027,3.405,3.405,0,0,1-.451-1.846,3.127,3.127,0,0,1,1.148-2.472,4.1,4.1,0,0,1,2.658-.878,4.217,4.217,0,0,1,2.695.892,2.929,2.929,0,0,1,1.105,2.443v.91h-1.544v-.532a2.069,2.069,0,0,0-.644-1.8,2.436,2.436,0,0,0-1.631-.515,2.306,2.306,0,0,0-1.643.558,1.937,1.937,0,0,0-.6,1.485,2.255,2.255,0,0,0,.539,1.391,7.043,7.043,0,0,0,1.377,1.28l2.062,1.593a6.752,6.752,0,0,1,1.8,1.8,3.246,3.246,0,0,1,.486,1.835" transform="translate(-147.937 -24.096)" fill="#fff"/>
        <path id="패스_1471" data-name="패스 1471" d="M15.459,29.874V19.234a.084.084,0,0,1,.083-.083h2.295a.084.084,0,0,1,.083.083V29.874a.084.084,0,0,1-.083.083H15.542a.084.084,0,0,1-.083-.083m.083-19.068h2.295a.084.084,0,0,0,.083-.083V.083A.084.084,0,0,0,17.837,0H15.542a.084.084,0,0,0-.083.083V10.723a.084.084,0,0,0,.083.083M.918,13.831v2.295A.083.083,0,0,0,1,16.209H12.434a.083.083,0,0,0,.083-.083V13.831a.083.083,0,0,0-.083-.083H1a.084.084,0,0,0-.083.083m19.944,0v2.295a.083.083,0,0,0,.083.083H32.377a.083.083,0,0,0,.083-.083V13.831a.083.083,0,0,0-.083-.083H20.945a.084.084,0,0,0-.083.083m11.785,12.54L27.54,18.725c-.136-.2-.689-.072-1.235.292s-.879.825-.743,1.029l5,7.491H28.959c-.485,0-.653-.04-.87-.241a6.9,6.9,0,0,1-.817-1.105l-4.986-7.466c-.136-.2-.689-.072-1.235.292s-.879.825-.743,1.029l4.61,6.9a8,8,0,0,0,1.945,2.319,3.42,3.42,0,0,0,2.239.607h1.953a2.783,2.783,0,0,0,1.626-.33,1.532,1.532,0,0,0,.7-1.328,3.138,3.138,0,0,0-.732-1.845M12.328,19.017c-.546-.365-1.1-.5-1.235-.292L6.107,26.191A6.887,6.887,0,0,1,5.29,27.3c-.217.2-.385.241-.871.241H2.813l5-7.491c.136-.2-.2-.664-.743-1.029s-1.1-.5-1.235-.292L.732,26.371A3.139,3.139,0,0,0,0,28.216a1.531,1.531,0,0,0,.7,1.328,2.783,2.783,0,0,0,1.626.33H4.276a3.42,3.42,0,0,0,2.24-.607,8,8,0,0,0,1.945-2.319l4.61-6.9c.136-.2-.2-.664-.743-1.029m.743-9.106-4.61-6.9A8,8,0,0,0,6.515.69,3.42,3.42,0,0,0,4.276.083H2.323A2.783,2.783,0,0,0,.7.413,1.531,1.531,0,0,0,0,1.741,3.139,3.139,0,0,0,.732,3.586l5.107,7.646c.136.2.689.072,1.235-.293s.879-.825.743-1.029l-5-7.491H4.42c.485,0,.653.04.871.241a6.9,6.9,0,0,1,.816,1.106l4.987,7.466c.136.2.689.072,1.235-.293s.879-.825.743-1.029M32.682.413a2.783,2.783,0,0,0-1.626-.33H29.1A3.42,3.42,0,0,0,26.864.69a8,8,0,0,0-1.945,2.319l-4.61,6.9c-.136.2.2.664.743,1.029s1.1.5,1.235.293l4.986-7.466a6.916,6.916,0,0,1,.817-1.106c.217-.2.385-.241.87-.241h1.606l-5,7.491c-.136.2.2.664.743,1.029s1.1.5,1.235.293l5.107-7.646a3.138,3.138,0,0,0,.732-1.845,1.532,1.532,0,0,0-.7-1.328" transform="translate(0 0)" fill="#c8f500"/>
      </g>
    </g>
  </g>
</svg>
