<svg xmlns="http://www.w3.org/2000/svg" xmlns:xlink="http://www.w3.org/1999/xlink" width="151" height="25" viewBox="0 0 151 25">
  <defs>
    <clipPath id="clip-path">
      <rect id="사각형_4806" data-name="사각형 4806" width="151" height="23" transform="translate(0 0.056)" fill="none"/>
    </clipPath>
  </defs>
  <g id="그룹_117162" data-name="그룹 117162" transform="translate(13630 5548.448)">
    <g id="그룹_117080" data-name="그룹 117080" transform="translate(-13630 -5547.504)">
      <g id="그룹_117079" data-name="그룹 117079" transform="translate(0 0)" clip-path="url(#clip-path)">
        <path id="패스_1472" data-name="패스 1472" d="M510.638,8.884H501.19V0h-4.935V8.884h-9.448v4.71h9.448v8.888h4.935V13.594h9.448ZM529.984,0V17.772H518.608V0h-4.935V19.184a3.3,3.3,0,0,0,3.3,3.3h14.65a3.3,3.3,0,0,0,3.3-3.3V0ZM488.021,0h-5.88l-6.08,7.577L469.98,0H464.1l9.02,11.241L464.1,22.482h5.88l6.08-7.577,6.08,7.577h5.88L479,11.241Z" transform="translate(-383.839 0.235)" fill="#c8f500"/>
        <path id="패스_1473" data-name="패스 1473" d="M62.95,17.312a5.146,5.146,0,0,0,1.92,4.323,6.832,6.832,0,0,0,7.94,0,5.146,5.146,0,0,0,1.92-4.323V6.245a5.146,5.146,0,0,0-1.92-4.323,6.831,6.831,0,0,0-7.94,0,5.146,5.146,0,0,0-1.92,4.323Zm9.465.056a3.288,3.288,0,0,1-1.1,2.624,4.118,4.118,0,0,1-4.944,0,3.288,3.288,0,0,1-1.1-2.624V6.189a3.288,3.288,0,0,1,1.1-2.624,4.117,4.117,0,0,1,4.944,0,3.288,3.288,0,0,1,1.1,2.624Zm-13.13,5.314H56.969V.875h2.316ZM51.958,2.5A5.962,5.962,0,0,0,47.46.875H42V22.682H47.46a5.962,5.962,0,0,0,4.5-1.625A5.262,5.262,0,0,0,53.3,17.275V6.283A5.262,5.262,0,0,0,51.958,2.5m-.968,14.693a3.328,3.328,0,0,1-.9,2.466,3.575,3.575,0,0,1-2.626.932H44.312V2.966H47.46a3.575,3.575,0,0,1,2.626.932,3.328,3.328,0,0,1,.9,2.466ZM26.641.875V17.312a5.146,5.146,0,0,0,1.92,4.323,6.111,6.111,0,0,0,3.925,1.272,6.111,6.111,0,0,0,3.925-1.272,5.146,5.146,0,0,0,1.92-4.323V.875H36.016V17.368a3.288,3.288,0,0,1-1.1,2.624,3.985,3.985,0,0,1-4.854,0,3.288,3.288,0,0,1-1.1-2.624V.875ZM24.46,2.966H20.009V22.682H17.693V2.966H13.242V.875H24.46Zm-12.7,14.654a4.879,4.879,0,0,1-1.727,3.99,6.134,6.134,0,0,1-3.913,1.3,6.748,6.748,0,0,1-4.27-1.234A4.74,4.74,0,0,1,0,17.5V15.683H2.311v1.483a3.334,3.334,0,0,0,.968,2.761,4.053,4.053,0,0,0,2.728.89,3.531,3.531,0,0,0,2.639-.956,3.029,3.029,0,0,0,.8-2.088,3.391,3.391,0,0,0-.785-2.133A10.425,10.425,0,0,0,6.6,13.785L3.6,11.462A10.581,10.581,0,0,1,.749,8.428,5.1,5.1,0,0,1,.074,5.665a4.68,4.68,0,0,1,1.719-3.7A6.145,6.145,0,0,1,5.772.65,6.314,6.314,0,0,1,9.8,1.985a4.383,4.383,0,0,1,1.655,3.656V7H9.148v-.8a3.1,3.1,0,0,0-.965-2.694,3.645,3.645,0,0,0-2.441-.771,3.453,3.453,0,0,0-2.459.835,2.9,2.9,0,0,0-.9,2.223,3.375,3.375,0,0,0,.807,2.082A10.544,10.544,0,0,0,5.254,9.8l3.087,2.384a10.117,10.117,0,0,1,2.69,2.691,4.858,4.858,0,0,1,.727,2.747" transform="translate(0 -0.303)" fill="#c8f500"/>
      </g>
    </g>
    <rect id="사각형_4807" data-name="사각형 4807" width="151" height="25" transform="translate(-13630 -5548.448)" fill="none"/>
  </g>
</svg>
