<svg xmlns="http://www.w3.org/2000/svg" width="27.368" height="25" viewBox="0 0 27.368 25">
  <path id="패스_1435" data-name="패스 1435" d="M17.8-13.794q.854,5.151,1.4,7.385a7.578,7.578,0,0,0,1.135,2.893,1.093,1.093,0,0,0,.83.366A1.661,1.661,0,0,0,22.3-3.625a8.1,8.1,0,0,0,1.355-2.136l2.222,1.025a11.181,11.181,0,0,1-3.21,3.857A7.1,7.1,0,0,1,18.457.391a6.2,6.2,0,0,1-2.38-.378,3.545,3.545,0,0,1-1.514-1.257,8.577,8.577,0,0,1-1.1-2.478,34.112,34.112,0,0,1-.891-4.187h-.244q-2.075,2.979-3.32,4.541A18.72,18.72,0,0,1,6.873-1.025,5.9,5.9,0,0,1,5.164.073,5.437,5.437,0,0,1,3.2.391,7.793,7.793,0,0,1,1.892.256,6.9,6.9,0,0,1,.732-.024l1.147-5.3h2.2a1.2,1.2,0,0,0,.256.769.77.77,0,0,0,.6.256A1.853,1.853,0,0,0,5.75-4.48,4.864,4.864,0,0,0,6.8-5.3,22.314,22.314,0,0,0,8.5-7.166Q9.521-8.4,11.963-11.5,11.45-14.38,11-16.467a21.974,21.974,0,0,0-.818-3.027,3.722,3.722,0,0,0-.7-1.257,1.046,1.046,0,0,0-.745-.317,1.452,1.452,0,0,0-.854.256,3.371,3.371,0,0,0-.769.83,11.4,11.4,0,0,0-.867,1.526L4.028-19.482A11.32,11.32,0,0,1,7.214-23.34a6.758,6.758,0,0,1,4.041-1.27,6.1,6.1,0,0,1,2.979.586,4.268,4.268,0,0,1,1.685,2.039,21.6,21.6,0,0,1,1.245,4.651h.244q1.807-2.539,2.808-3.821a16.157,16.157,0,0,1,1.855-2.051,5.619,5.619,0,0,1,1.66-1.086,5.185,5.185,0,0,1,1.9-.317,7.373,7.373,0,0,1,2.466.439L26.953-18.9h-2.2q-.122-1.025-.9-1.025a1.751,1.751,0,0,0-.72.171,4.082,4.082,0,0,0-1,.769,20.375,20.375,0,0,0-1.55,1.733Q19.653-16.113,17.8-13.794Z" transform="translate(-0.732 24.609)" fill="#919191"/>
</svg>
