<svg xmlns="http://www.w3.org/2000/svg" xmlns:xlink="http://www.w3.org/1999/xlink" width="179" height="64.001" viewBox="0 0 179 64.001">
  <defs>
    <clipPath id="clip-path">
      <rect id="사각형_4802" data-name="사각형 4802" width="169.71" height="34.527" transform="translate(0 0)" fill="none"/>
    </clipPath>
  </defs>
  <g id="로고" transform="translate(-870 -461.999)">
    <text id="WELCOME_BACK" data-name="WELCOME BACK" transform="translate(896.001 478.999)" fill="#3f3f3f" font-size="16" font-family="NotoSans-Bold, Noto Sans" font-weight="700"><tspan x="0" y="0">WELCOME BACK</tspan></text>
    <g id="그룹_117180" data-name="그룹 117180" transform="translate(19321 1654)">
      <rect id="사각형_4805" data-name="사각형 4805" width="179" height="36" transform="translate(-18451 -1164)" fill="none"/>
      <g id="그룹_117075" data-name="그룹 117075" transform="translate(-18446.533 -1163.107)">
        <g id="그룹_117068" data-name="그룹 117068" transform="translate(0 0)" clip-path="url(#clip-path)">
          <path id="패스_1469" data-name="패스 1469" d="M454.995,38.166H447.72V31.325h-3.8v6.841h-7.275v3.627h7.275v6.844h3.8V41.793h7.275Zm14.9-6.841V45.01h-8.76V31.325h-3.8V46.1a2.539,2.539,0,0,0,2.539,2.539h11.281a2.539,2.539,0,0,0,2.539-2.539V31.325Zm-32.312,0h-4.528l-4.682,5.834-4.682-5.834H419.16l6.946,8.656-6.946,8.656h4.528L428.37,42.8l4.682,5.835h4.528l-6.946-8.656Z" transform="translate(-303.981 -22.717)" fill="#fff"/>
          <path id="패스_1470" data-name="패스 1470" d="M242.722,44.47A3.962,3.962,0,0,0,244.2,47.8a5.26,5.26,0,0,0,6.114,0,3.962,3.962,0,0,0,1.479-3.328V35.948a3.962,3.962,0,0,0-1.479-3.329,5.261,5.261,0,0,0-6.114,0,3.962,3.962,0,0,0-1.479,3.329Zm7.288.043a2.532,2.532,0,0,1-.849,2.02,3.171,3.171,0,0,1-3.807,0,2.532,2.532,0,0,1-.849-2.02V35.905a2.532,2.532,0,0,1,.849-2.02,3.171,3.171,0,0,1,3.807,0,2.532,2.532,0,0,1,.849,2.02ZM239.9,48.605h-1.783V31.813H239.9Zm-5.642-15.541a4.591,4.591,0,0,0-3.464-1.251h-4.207V48.605h4.207a4.59,4.59,0,0,0,3.464-1.252,4.052,4.052,0,0,0,1.037-2.912V35.977a4.053,4.053,0,0,0-1.037-2.913m-.746,11.314a2.561,2.561,0,0,1-.7,1.9,2.753,2.753,0,0,1-2.022.718h-2.424V33.423h2.424a2.752,2.752,0,0,1,2.022.717,2.562,2.562,0,0,1,.7,1.9ZM214.764,31.813V44.47a3.962,3.962,0,0,0,1.479,3.328,5.152,5.152,0,0,0,6.045,0,3.962,3.962,0,0,0,1.479-3.328V31.813h-1.783v12.7a2.531,2.531,0,0,1-.849,2.02,3.067,3.067,0,0,1-3.738,0,2.532,2.532,0,0,1-.849-2.02v-12.7Zm-1.679,1.61h-3.428V48.605h-1.783V33.423h-3.428v-1.61h8.638ZM203.3,44.707a3.757,3.757,0,0,1-1.329,3.072,4.724,4.724,0,0,1-3.013,1,5.194,5.194,0,0,1-3.288-.951,3.65,3.65,0,0,1-1.424-3.213v-1.4h1.78v1.142a2.567,2.567,0,0,0,.745,2.125,3.121,3.121,0,0,0,2.1.685,2.719,2.719,0,0,0,2.032-.736,2.332,2.332,0,0,0,.616-1.608,2.611,2.611,0,0,0-.6-1.642,8.018,8.018,0,0,0-1.586-1.428l-2.315-1.789a8.142,8.142,0,0,1-2.192-2.336,3.925,3.925,0,0,1-.52-2.128,3.6,3.6,0,0,1,1.324-2.85,4.731,4.731,0,0,1,3.064-1.012,4.861,4.861,0,0,1,3.106,1.028,3.375,3.375,0,0,1,1.274,2.815v1.048h-1.78v-.613a2.385,2.385,0,0,0-.743-2.074,2.807,2.807,0,0,0-1.879-.594,2.658,2.658,0,0,0-1.893.643,2.232,2.232,0,0,0-.691,1.712,2.6,2.6,0,0,0,.621,1.6,8.118,8.118,0,0,0,1.587,1.476l2.377,1.836a7.783,7.783,0,0,1,2.072,2.072,3.741,3.741,0,0,1,.56,2.115" transform="translate(-140.873 -22.946)" fill="#fff"/>
          <path id="패스_1471" data-name="패스 1471" d="M17.817,34.431V22.168a.1.1,0,0,1,.1-.1h2.645a.1.1,0,0,1,.1.1V34.431a.1.1,0,0,1-.1.1H17.913a.1.1,0,0,1-.1-.1m.1-21.976h2.645a.1.1,0,0,0,.1-.1V.1a.1.1,0,0,0-.1-.1H17.913a.1.1,0,0,0-.1.1V12.358a.1.1,0,0,0,.1.1M1.058,15.941v2.645a.1.1,0,0,0,.1.1H14.33a.1.1,0,0,0,.1-.1V15.941a.1.1,0,0,0-.1-.1H1.154a.1.1,0,0,0-.1.1m22.986,0v2.645a.1.1,0,0,0,.1.1H37.316a.1.1,0,0,0,.1-.1V15.941a.1.1,0,0,0-.1-.1H24.14a.1.1,0,0,0-.1.1M37.626,30.394,31.74,21.581c-.157-.234-.794-.084-1.423.337s-1.013.951-.856,1.186l5.767,8.634H33.376c-.559,0-.753-.046-1-.278a7.95,7.95,0,0,1-.941-1.274l-5.747-8.6c-.157-.234-.794-.084-1.423.337s-1.013.951-.856,1.186l5.314,7.955a9.221,9.221,0,0,0,2.242,2.672,3.942,3.942,0,0,0,2.581.7h2.251a3.208,3.208,0,0,0,1.873-.38,1.765,1.765,0,0,0,.8-1.531,3.617,3.617,0,0,0-.844-2.126M14.208,21.918c-.63-.42-1.266-.571-1.423-.337l-5.747,8.6A7.937,7.937,0,0,1,6.1,31.46c-.251.232-.444.278-1,.278H3.242L9.009,23.1c.156-.234-.227-.765-.857-1.186s-1.266-.571-1.423-.337L.844,30.394A3.617,3.617,0,0,0,0,32.52,1.765,1.765,0,0,0,.8,34.05a3.207,3.207,0,0,0,1.873.38h2.25a3.942,3.942,0,0,0,2.581-.7,9.221,9.221,0,0,0,2.242-2.672L15.065,23.1c.157-.234-.227-.765-.856-1.186m.856-10.5L9.751,3.468A9.221,9.221,0,0,0,7.509.8,3.942,3.942,0,0,0,4.928.1H2.677A3.207,3.207,0,0,0,.8.476,1.765,1.765,0,0,0,0,2.007,3.617,3.617,0,0,0,.844,4.133L6.73,12.945c.156.234.794.083,1.423-.337s1.013-.951.857-1.185L3.242,2.789H5.094c.559,0,.753.046,1,.278a7.958,7.958,0,0,1,.941,1.274l5.747,8.6c.157.234.794.083,1.423-.337s1.013-.951.856-1.185M37.667.476A3.208,3.208,0,0,0,35.793.1H33.542a3.942,3.942,0,0,0-2.581.7,9.221,9.221,0,0,0-2.242,2.672l-5.314,7.955c-.157.234.227.765.856,1.185s1.266.571,1.423.337l5.747-8.6a7.971,7.971,0,0,1,.941-1.274c.251-.232.444-.278,1-.278h1.852l-5.767,8.634c-.156.234.227.765.856,1.185s1.266.571,1.423.337l5.886-8.812a3.617,3.617,0,0,0,.844-2.126,1.765,1.765,0,0,0-.8-1.531" transform="translate(0 0)" fill="#c8f500"/>
        </g>
      </g>
    </g>
  </g>
</svg>
