<svg xmlns="http://www.w3.org/2000/svg" xmlns:xlink="http://www.w3.org/1999/xlink" width="388" height="64" viewBox="0 0 388 64">
  <defs>
    <clipPath id="clip-path">
      <rect id="사각형_4806" data-name="사각형 4806" width="388" height="58" transform="translate(0 -0.163)" fill="none"/>
    </clipPath>
  </defs>
  <g id="그룹_117136" data-name="그룹 117136" transform="translate(13629.869 5548.451)">
    <g id="그룹_117080" data-name="그룹 117080" transform="translate(-13629.869 -5545.288)">
      <g id="그룹_117079" data-name="그룹 117079" transform="translate(0 0)" clip-path="url(#clip-path)">
        <path id="패스_1472" data-name="패스 1472" d="M583.579,22.809H559.323V0H546.653V22.809H522.4V34.9h24.257V57.719h12.669V34.9h24.256ZM633.246,0V45.627H604.04V0H591.371V49.253a8.466,8.466,0,0,0,8.467,8.467h37.612a8.466,8.466,0,0,0,8.467-8.467V0ZM525.513,0h-15.1l-15.61,19.453L479.2,0H464.1l23.158,28.86L464.1,57.719h15.1l15.609-19.453,15.61,19.453h15.1L502.355,28.86Z" transform="translate(-258.18 -0.032)" fill="#c8f500"/>
        <path id="패스_1473" data-name="패스 1473" d="M161.614,43.428c0,4.945,1.628,8.409,4.93,11.1a17.54,17.54,0,0,0,20.386,0c3.3-2.689,4.93-6.153,4.93-11.1V15.014c0-4.945-1.628-8.409-4.93-11.1a17.538,17.538,0,0,0-20.386,0c-3.3,2.689-4.93,6.153-4.93,11.1Zm24.3.143a8.442,8.442,0,0,1-2.83,6.736,10.573,10.573,0,0,1-12.694,0,8.442,8.442,0,0,1-2.83-6.736v-28.7a8.442,8.442,0,0,1,2.83-6.736,10.571,10.571,0,0,1,12.694,0,8.442,8.442,0,0,1,2.83,6.736ZM152.206,57.215h-5.945V1.227h5.945ZM133.394,5.4c-2.648-2.816-6.655-4.173-11.548-4.173H107.82V57.215h14.026c4.894,0,8.9-1.357,11.548-4.173a13.509,13.509,0,0,0,3.459-9.711V15.111A13.509,13.509,0,0,0,133.394,5.4m-2.486,37.723a8.545,8.545,0,0,1-2.319,6.332,9.179,9.179,0,0,1-6.743,2.392h-8.081V6.6h8.081a9.179,9.179,0,0,1,6.743,2.393,8.545,8.545,0,0,1,2.319,6.332ZM68.4,1.227v42.2c0,4.945,1.628,8.409,4.93,11.1A15.688,15.688,0,0,0,83.4,57.792a15.688,15.688,0,0,0,10.077-3.266c3.3-2.689,4.93-6.153,4.93-11.1V1.227H92.466V43.571a8.442,8.442,0,0,1-2.83,6.736,10.23,10.23,0,0,1-12.463,0,8.442,8.442,0,0,1-2.83-6.736V1.227ZM62.8,6.6H51.37v50.62H45.425V6.6H34V1.227H62.8ZM30.187,44.217c0,4.041-1.229,7.61-4.433,10.244a15.748,15.748,0,0,1-10.046,3.332c-3.7,0-8-.7-10.962-3.169C1.226,51.691,0,48.787,0,43.909V39.245H5.934v3.807c0,3.549.786,5.563,2.486,7.087a10.4,10.4,0,0,0,7,2.284A9.067,9.067,0,0,0,22.2,49.971a7.777,7.777,0,0,0,2.054-5.361,8.706,8.706,0,0,0-2.015-5.476,26.763,26.763,0,0,0-5.286-4.762l-7.72-5.964A27.166,27.166,0,0,1,1.923,20.62,13.092,13.092,0,0,1,.189,13.525,12.016,12.016,0,0,1,4.6,4.024,15.776,15.776,0,0,1,14.818.65,16.209,16.209,0,0,1,25.173,4.077a11.254,11.254,0,0,1,4.248,9.387v3.5H23.486V14.915c0-3.694-.779-5.435-2.477-6.916a9.357,9.357,0,0,0-6.266-1.981A8.866,8.866,0,0,0,8.431,8.161a7.445,7.445,0,0,0-2.3,5.708A8.665,8.665,0,0,0,8.2,19.214a27.07,27.07,0,0,0,5.29,4.92l7.925,6.122c3.306,2.554,5.323,4.344,6.907,6.909a12.473,12.473,0,0,1,1.866,7.052" transform="translate(-0.138 -0.393)" fill="#c8f500"/>
      </g>
    </g>
    <rect id="사각형_4807" data-name="사각형 4807" width="388" height="64" transform="translate(-13629.869 -5548.451)" fill="none"/>
  </g>
</svg>
