<svg xmlns="http://www.w3.org/2000/svg" width="72.799" height="66.5" viewBox="0 0 72.799 66.5">
  <path id="패스_1432" data-name="패스 1432" d="M47.342-36.692q2.273,13.7,3.734,19.645t3.02,7.7a2.908,2.908,0,0,0,2.208.974,4.419,4.419,0,0,0,3.02-1.266,21.549,21.549,0,0,0,3.6-5.682l5.91,2.728A29.741,29.741,0,0,1,60.3-2.338,18.9,18.9,0,0,1,49.1,1.039,16.481,16.481,0,0,1,42.764.032a9.43,9.43,0,0,1-4.026-3.344A22.814,22.814,0,0,1,35.815-9.9a90.739,90.739,0,0,1-2.37-11.137H32.8q-5.52,7.923-8.832,12.079a49.8,49.8,0,0,1-5.682,6.234A15.684,15.684,0,0,1,13.735.195a14.461,14.461,0,0,1-5.228.844A20.729,20.729,0,0,1,5.033.682,18.36,18.36,0,0,1,1.948-.065L5-14.157h5.845a3.2,3.2,0,0,0,.682,2.046,2.048,2.048,0,0,0,1.591.682,4.929,4.929,0,0,0,2.176-.487,12.939,12.939,0,0,0,2.792-2.176A59.355,59.355,0,0,0,22.6-19.06q2.728-3.28,9.222-11.527Q30.458-38.25,29.256-43.8a58.452,58.452,0,0,0-2.176-8.053A9.9,9.9,0,0,0,25.23-55.2a2.784,2.784,0,0,0-1.981-.844,3.863,3.863,0,0,0-2.273.682,8.966,8.966,0,0,0-2.046,2.208A30.33,30.33,0,0,0,16.625-49.1l-5.91-2.728A30.112,30.112,0,0,1,19.19-62.084a17.977,17.977,0,0,1,10.748-3.377q5.2,0,7.923,1.559a11.353,11.353,0,0,1,4.481,5.423q1.753,3.864,3.312,12.371H46.3q4.806-6.754,7.468-10.163a42.979,42.979,0,0,1,4.936-5.455,14.947,14.947,0,0,1,4.416-2.89,13.792,13.792,0,0,1,5.065-.844,19.613,19.613,0,0,1,6.559,1.169L71.7-50.265H65.851q-.325-2.728-2.4-2.728a4.658,4.658,0,0,0-1.916.455,10.857,10.857,0,0,0-2.663,2.046,54.2,54.2,0,0,0-4.124,4.611Q52.278-42.861,47.342-36.692Z" transform="translate(-1.948 65.461)" fill="#fff"/>
</svg>
