<svg xmlns="http://www.w3.org/2000/svg" width="24" height="24" viewBox="0 0 24 24">
  <g id="그룹_2283" data-name="그룹 2283" transform="translate(-1476 -5181)">
    <g id="Page-1" transform="translate(1476.461 5177.606)">
      <g id="Icons" transform="translate(-446 -2)">
        <path id="Download-2" d="M457.107,22.43l-3.558-3.557a.537.537,0,1,1,.76-.76L457,20.8V9.039a.539.539,0,0,1,1.076,0V20.81l2.7-2.7a.538.538,0,1,1,.762.76l-3.611,3.613a.546.546,0,0,1-.387.16.537.537,0,0,1-.43-.217Zm5.664,3.825H452.312a4.154,4.154,0,0,1-4.152-4.15.539.539,0,0,1,1.076,0,3.08,3.08,0,0,0,3.076,3.074h10.459a3.076,3.076,0,0,0,3.072-3.074.538.538,0,0,1,1.076,0,4.154,4.154,0,0,1-4.148,4.15Z" fill="#919191" fill-rule="evenodd"/>
      </g>
    </g>
    <rect id="사각형_4230" data-name="사각형 4230" width="24" height="24" transform="translate(1476 5181)" fill="none"/>
  </g>
</svg>
