<svg xmlns="http://www.w3.org/2000/svg" xmlns:xlink="http://www.w3.org/1999/xlink" width="550" height="92" viewBox="0 0 550 92">
  <defs>
    <clipPath id="clip-path">
      <rect id="사각형_4806" data-name="사각형 4806" width="550" height="82" transform="translate(0 -0.238)" fill="none"/>
    </clipPath>
  </defs>
  <g id="그룹_117085" data-name="그룹 117085" transform="translate(13630 5549)">
    <g id="그룹_117080" data-name="그룹 117080" transform="translate(-13630 -5543.762)">
      <g id="그룹_117079" data-name="그룹 117079" clip-path="url(#clip-path)">
        <path id="패스_1472" data-name="패스 1472" d="M633.52,32.343h-34.4V0H581.16V32.343h-34.4V49.489h34.4V81.845h17.965V49.489h34.4ZM703.948,0V64.7H662.534V0H644.569V69.84a12.005,12.005,0,0,0,12.005,12.005h53.333A12,12,0,0,0,721.912,69.84V0ZM551.183,0H529.776L507.642,27.584,485.508,0H464.1l32.838,40.923L464.1,81.845h21.408l22.134-27.584,22.134,27.584h21.408L518.345,40.923Z" transform="translate(-171.912)" fill="#c8f500"/>
        <path id="패스_1473" data-name="패스 1473" d="M229.167,61.309c0,7.012,2.308,11.924,6.99,15.737a24.872,24.872,0,0,0,28.906,0c4.682-3.813,6.99-8.725,6.99-15.737V21.018c0-7.012-2.308-11.924-6.99-15.737a24.869,24.869,0,0,0-28.906,0c-4.682,3.813-6.99,8.725-6.99,15.737Zm34.457.2c0,4.235-1.528,7.474-4.014,9.551a14.992,14.992,0,0,1-18,0c-2.486-2.078-4.014-5.317-4.014-9.551v-40.7c0-4.235,1.528-7.474,4.014-9.551a14.99,14.99,0,0,1,18,0c2.486,2.078,4.014,5.317,4.014,9.551Zm-47.8,19.346H207.4V1.468h8.43ZM189.151,7.386c-3.755-3.993-9.436-5.917-16.375-5.917H152.887v79.39h19.888c6.939,0,12.62-1.924,16.375-5.917,3.368-3.581,4.9-8.146,4.9-13.77V21.155c0-5.623-1.537-10.189-4.9-13.77m-3.526,53.49c0,3.806-1.1,6.784-3.289,8.978s-5.4,3.392-9.561,3.392H161.317V9.08h11.458c4.163,0,7.369,1.2,9.561,3.393s3.289,5.173,3.289,8.978ZM96.987,1.468V61.309c0,7.012,2.308,11.924,6.99,15.737a22.246,22.246,0,0,0,14.29,4.631,22.246,22.246,0,0,0,14.29-4.631c4.682-3.813,6.99-8.725,6.99-15.737V1.468h-8.43V61.512c0,4.235-1.528,7.474-4.014,9.551a14.506,14.506,0,0,1-17.672,0c-2.486-2.078-4.014-5.317-4.014-9.551V1.468ZM89.048,9.08H72.842V80.858h-8.43V9.08H48.207V1.468H89.048ZM42.805,62.427c0,5.73-1.743,10.79-6.286,14.526a22.33,22.33,0,0,1-14.245,4.724c-5.248,0-11.337-.991-15.544-4.494C1.739,73.026,0,68.908,0,61.99V55.377H8.414v5.4c0,5.032,1.114,7.888,3.526,10.05,2.377,2.13,5.9,3.239,9.932,3.239,4.248,0,7.471-1.264,9.608-3.479a11.028,11.028,0,0,0,2.912-7.6,12.345,12.345,0,0,0-2.858-7.765c-1.634-2.175-4.159-4.238-7.5-6.752L13.091,40.011c-4.9-3.8-8.256-7.32-10.364-11.044A18.565,18.565,0,0,1,.268,18.907,17.039,17.039,0,0,1,6.527,5.435,22.37,22.37,0,0,1,21.012.65,22.985,22.985,0,0,1,35.695,5.509c4.024,3.264,6.023,7.5,6.023,13.311v4.956H33.3v-2.9c0-5.238-1.1-7.707-3.512-9.807-2.076-1.81-5.114-2.809-8.885-2.809-3.753,0-6.82,1.005-8.951,3.04a10.557,10.557,0,0,0-3.268,8.093c0,3.032,1.243,5.278,2.938,7.579,1.609,2.185,4.053,4.313,7.5,6.976L30.365,42.63c4.687,3.621,7.548,6.16,9.794,9.8a17.687,17.687,0,0,1,2.646,10" transform="translate(0 -0.241)" fill="#c8f500"/>
      </g>
    </g>
    <rect id="사각형_4807" data-name="사각형 4807" width="550" height="92" transform="translate(-13630 -5549)" fill="none"/>
  </g>
</svg>
