<svg xmlns="http://www.w3.org/2000/svg" xmlns:xlink="http://www.w3.org/1999/xlink" width="359" height="80" viewBox="0 0 359 80">
  <defs>
    <clipPath id="clip-path">
      <rect id="사각형_4809" data-name="사각형 4809" width="359" height="73.037" fill="none"/>
    </clipPath>
  </defs>
  <g id="그룹_117089" data-name="그룹 117089" transform="translate(7616 896)">
    <rect id="사각형_4810" data-name="사각형 4810" width="359" height="80" transform="translate(-7616 -896)" fill="none"/>
    <g id="그룹_117088" data-name="그룹 117088" transform="translate(-7616 -893)">
      <g id="그룹_117088-2" data-name="그룹 117088" transform="translate(0 0)" clip-path="url(#clip-path)">
        <path id="패스_1477" data-name="패스 1477" d="M494.964,45.8h-15.39V31.325h-8.038V45.8h-15.39v7.672h15.39V67.945h8.038V53.468h15.39Zm31.512-14.471V60.273h-18.53V31.325h-8.038V62.574a5.371,5.371,0,0,0,5.372,5.372h23.863a5.371,5.371,0,0,0,5.371-5.372V31.325Zm-68.352,0h-9.578l-9.9,12.342-9.9-12.342H419.16l14.693,18.31L419.16,67.945h9.578l9.9-12.342,9.9,12.342h9.578l-14.693-18.31Z" transform="translate(-175.514 -13.117)" fill="#fff"/>
        <path id="패스_1478" data-name="패스 1478" d="M296.787,58.781a8.38,8.38,0,0,0,3.128,7.041,11.126,11.126,0,0,0,12.933,0,8.38,8.38,0,0,0,3.128-7.041V40.753a8.382,8.382,0,0,0-3.128-7.042,11.129,11.129,0,0,0-12.933,0,8.382,8.382,0,0,0-3.128,7.042Zm15.417.091a5.357,5.357,0,0,1-1.8,4.274,6.708,6.708,0,0,1-8.054,0,5.357,5.357,0,0,1-1.8-4.274V40.663a5.356,5.356,0,0,1,1.8-4.274,6.708,6.708,0,0,1,8.054,0,5.356,5.356,0,0,1,1.8,4.274Zm-21.386,8.656h-3.772V32.006h3.772ZM278.882,34.653c-1.68-1.786-4.222-2.647-7.327-2.647h-8.9V67.528h8.9c3.1,0,5.646-.861,7.327-2.648a8.571,8.571,0,0,0,2.194-6.161v-17.9a8.573,8.573,0,0,0-2.194-6.161M277.3,58.587a5.418,5.418,0,0,1-1.472,4.017,5.823,5.823,0,0,1-4.278,1.518h-5.127V35.412h5.127a5.823,5.823,0,0,1,4.278,1.518,5.42,5.42,0,0,1,1.472,4.017Zm-39.66-26.581V58.781a8.38,8.38,0,0,0,3.128,7.041,10.9,10.9,0,0,0,12.787,0,8.38,8.38,0,0,0,3.128-7.041V32.006h-3.772V58.871a5.355,5.355,0,0,1-1.8,4.274,6.489,6.489,0,0,1-7.906,0,5.355,5.355,0,0,1-1.8-4.274V32.006Zm-3.552,3.406h-7.251V67.528H223.07V35.412h-7.251V32.006h18.273ZM213.4,59.281a7.947,7.947,0,0,1-2.812,6.5,9.994,9.994,0,0,1-6.374,2.114c-2.348,0-5.073-.444-6.954-2.011-2.233-1.86-3.012-3.7-3.012-6.8V56.127h3.765v2.416c0,2.251.5,3.529,1.577,4.5a6.6,6.6,0,0,0,4.444,1.45,5.751,5.751,0,0,0,4.3-1.557,4.933,4.933,0,0,0,1.3-3.4,5.523,5.523,0,0,0-1.278-3.474,16.961,16.961,0,0,0-3.354-3.021l-4.9-3.784a17.222,17.222,0,0,1-4.637-4.941,8.3,8.3,0,0,1-1.1-4.5,7.623,7.623,0,0,1,2.8-6.028,10.007,10.007,0,0,1,6.481-2.141,10.282,10.282,0,0,1,6.57,2.174,7.14,7.14,0,0,1,2.695,5.956v2.218h-3.765v-1.3c0-2.344-.494-3.448-1.571-4.388a5.938,5.938,0,0,0-3.975-1.256,5.622,5.622,0,0,0-4,1.36,4.722,4.722,0,0,0-1.462,3.621,5.5,5.5,0,0,0,1.314,3.391,17.172,17.172,0,0,0,3.356,3.121l5.028,3.884a16.462,16.462,0,0,1,4.382,4.383,7.913,7.913,0,0,1,1.184,4.475" transform="translate(-81.338 -13.249)" fill="#fff"/>
        <path id="패스_1479" data-name="패스 1479" d="M37.689,72.834V46.894a.2.2,0,0,1,.2-.2h5.595a.2.2,0,0,1,.2.2V72.834a.2.2,0,0,1-.2.2H37.892a.2.2,0,0,1-.2-.2m.2-46.487h5.595a.2.2,0,0,0,.2-.2V.2a.2.2,0,0,0-.2-.2H37.892a.2.2,0,0,0-.2.2V26.143a.2.2,0,0,0,.2.2M2.238,33.721v5.595a.2.2,0,0,0,.2.2H30.313a.2.2,0,0,0,.2-.2V33.721a.2.2,0,0,0-.2-.2H2.441a.2.2,0,0,0-.2.2m48.623,0v5.595a.2.2,0,0,0,.2.2H78.937a.2.2,0,0,0,.2-.2V33.721a.2.2,0,0,0-.2-.2H51.065a.2.2,0,0,0-.2.2M79.593,64.294,67.142,45.653c-.331-.5-1.679-.177-3.01.713s-2.142,2.012-1.811,2.508l12.2,18.264H70.6c-1.183,0-1.592-.1-2.122-.588a16.819,16.819,0,0,1-1.991-2.695l-12.157-18.2c-.331-.5-1.679-.177-3.01.713s-2.143,2.012-1.811,2.508L60.752,65.7C62.952,69,64.1,70.4,65.494,71.354a8.338,8.338,0,0,0,5.46,1.479h4.761c1.927,0,3.048-.192,3.963-.8a3.734,3.734,0,0,0,1.7-3.238c0-1.51-.529-2.617-1.785-4.5M30.056,46.365c-1.332-.889-2.679-1.208-3.01-.713l-12.157,18.2a16.791,16.791,0,0,1-1.99,2.695c-.53.491-.939.588-2.123.588H6.859l12.2-18.264c.331-.5-.48-1.619-1.812-2.508s-2.679-1.208-3.01-.713L1.786,64.294C.53,66.174,0,67.281,0,68.791a3.733,3.733,0,0,0,1.7,3.238c.915.612,2.036.8,3.963.8h4.761a8.339,8.339,0,0,0,5.46-1.479c1.4-.958,2.542-2.358,4.743-5.653l11.24-16.828c.331-.5-.48-1.619-1.811-2.508m1.811-22.2L20.627,7.336c-2.2-3.295-3.344-4.695-4.743-5.653A8.339,8.339,0,0,0,10.424.2H5.663C3.736.2,2.615.4,1.7,1.008A3.733,3.733,0,0,0,0,4.246c0,1.51.53,2.617,1.786,4.5L14.237,27.384c.331.5,1.679.176,3.01-.713s2.143-2.012,1.812-2.508L6.859,5.9h3.916c1.183,0,1.593.1,2.123.588a16.834,16.834,0,0,1,1.99,2.7l12.157,18.2c.331.5,1.679.176,3.01-.713s2.143-2.012,1.811-2.508M79.679,1.008C78.763.4,77.642.2,75.715.2H70.954a8.338,8.338,0,0,0-5.46,1.479c-1.4.958-2.542,2.358-4.743,5.653L49.512,24.164c-.331.5.48,1.618,1.811,2.508s2.679,1.208,3.01.713L66.49,9.183a16.862,16.862,0,0,1,1.991-2.7C69.011,6,69.42,5.9,70.6,5.9H74.52l-12.2,18.264c-.331.5.48,1.618,1.811,2.508s2.679,1.208,3.01.713L79.593,8.743c1.256-1.88,1.785-2.987,1.785-4.5a3.734,3.734,0,0,0-1.7-3.238" transform="translate(0 0)" fill="#c8f500"/>
      </g>
    </g>
  </g>
</svg>
