<svg id="그룹_521" data-name="그룹 521" xmlns="http://www.w3.org/2000/svg" xmlns:xlink="http://www.w3.org/1999/xlink" width="197.509" height="106.425" viewBox="0 0 197.509 106.425">
  <defs>
    <clipPath id="clip-path">
      <rect id="사각형_621" data-name="사각형 621" width="197.509" height="106.425" fill="none"/>
    </clipPath>
  </defs>
  <g id="그룹_518" data-name="그룹 518">
    <g id="그룹_517" data-name="그룹 517" clip-path="url(#clip-path)">
      <path id="패스_987" data-name="패스 987" d="M23.081,189a7.1,7.1,0,0,1-2.95-2.347,6.007,6.007,0,0,1-1.1-3.467h3.346a4.4,4.4,0,0,0,1.4,2.846,5.011,5.011,0,0,0,3.571,1.157,5.215,5.215,0,0,0,3.537-1.122,3.638,3.638,0,0,0,1.294-2.88,3.274,3.274,0,0,0-.76-2.243,4.856,4.856,0,0,0-1.9-1.311,29.918,29.918,0,0,0-3.071-.966,26.979,26.979,0,0,1-3.812-1.242,6.138,6.138,0,0,1-2.45-1.949,5.727,5.727,0,0,1-1.018-3.572,6.19,6.19,0,0,1,1-3.485,6.523,6.523,0,0,1,2.812-2.346,9.9,9.9,0,0,1,4.157-.828,8.708,8.708,0,0,1,5.538,1.691,6.248,6.248,0,0,1,2.433,4.485h-3.45a3.725,3.725,0,0,0-1.449-2.432,5.146,5.146,0,0,0-3.382-1.053,4.9,4.9,0,0,0-3.209,1.018,3.475,3.475,0,0,0-1.242,2.846,3.083,3.083,0,0,0,.742,2.14,4.771,4.771,0,0,0,1.829,1.259q1.087.432,3.053.983a28.853,28.853,0,0,1,3.83,1.293,6.4,6.4,0,0,1,2.484,1.967,5.72,5.72,0,0,1,1.034,3.606,6.336,6.336,0,0,1-.931,3.312,6.849,6.849,0,0,1-2.761,2.518,9.1,9.1,0,0,1-4.313.967A10.277,10.277,0,0,1,23.081,189" transform="translate(-9.605 -83.42)" fill="#9e9e9e"/>
      <path id="패스_988" data-name="패스 988" d="M99,165.872v2.553H92.442V189.92H89.3V168.425h-6.59v-2.553Z" transform="translate(-41.755 -83.737)" fill="#9e9e9e"/>
      <path id="패스_989" data-name="패스 989" d="M150.79,165.872v15.215a6.437,6.437,0,0,0,1.57,4.762,6.862,6.862,0,0,0,8.7,0,6.439,6.439,0,0,0,1.57-4.762V165.872h3.139v15.181a9.808,9.808,0,0,1-1.208,5.054,7.575,7.575,0,0,1-3.26,3.054,11.1,11.1,0,0,1-9.213,0,7.47,7.47,0,0,1-3.243-3.054,9.931,9.931,0,0,1-1.19-5.054V165.872Z" transform="translate(-74.538 -83.737)" fill="#9e9e9e"/>
      <path id="패스_990" data-name="패스 990" d="M233.511,167.338a10.311,10.311,0,0,1,4.416,4.192,14.148,14.148,0,0,1,0,12.819,10.125,10.125,0,0,1-4.416,4.14,15.144,15.144,0,0,1-6.814,1.432h-7.488V165.872H226.7a14.854,14.854,0,0,1,6.814,1.466m.294,17.528a9.392,9.392,0,0,0,2.449-6.918,9.582,9.582,0,0,0-2.467-7q-2.467-2.519-7.089-2.519h-4.348v18.908H226.7q4.657,0,7.107-2.467" transform="translate(-110.663 -83.737)" fill="#9e9e9e"/>
      <rect id="사각형_620" data-name="사각형 620" width="3.14" height="24.048" transform="translate(145.015 82.135)" fill="#9e9e9e"/>
      <path id="패스_991" data-name="패스 991" d="M337.985,188.311a11.475,11.475,0,0,1-4.364-4.382,13.295,13.295,0,0,1,0-12.663,11.492,11.492,0,0,1,4.364-4.382,12.732,12.732,0,0,1,12.249,0,11.407,11.407,0,0,1,4.347,4.364,13.487,13.487,0,0,1,0,12.7,11.391,11.391,0,0,1-4.347,4.365,12.728,12.728,0,0,1-12.249,0m10.644-2.329a8.26,8.26,0,0,0,3.174-3.346,11.585,11.585,0,0,0,0-10.092,8.329,8.329,0,0,0-3.156-3.33,9.428,9.428,0,0,0-9.109,0,8.321,8.321,0,0,0-3.157,3.33,11.6,11.6,0,0,0,0,10.092,8.263,8.263,0,0,0,3.174,3.346,9.358,9.358,0,0,0,9.075,0" transform="translate(-167.611 -83.456)" fill="#9e9e9e"/>
    </g>
  </g>
  <path id="패스_992" data-name="패스 992" d="M47.84.215,32.376,19.452,16.912.215H0l23.92,29.756L0,59.727H16.912L32.376,40.489,47.84,59.727H64.752L40.832,29.971,64.752.215Z" transform="translate(0 -0.108)" fill="#dbfc00"/>
  <g id="그룹_520" data-name="그룹 520">
    <g id="그룹_519" data-name="그룹 519" clip-path="url(#clip-path)">
      <path id="패스_993" data-name="패스 993" d="M291.885,46.051H323.7V0H337.76V50.594a9.532,9.532,0,0,1-9.522,9.522h-40.9a9.533,9.533,0,0,1-9.522-9.522V0h14.065Z" transform="translate(-140.251)" fill="#dbfc00"/>
      <path id="패스_994" data-name="패스 994" d="M130.075,23.655h24.27V.629h14.064V23.655h24.271V37.718H168.409V60.744H154.345V37.718h-24.27Z" transform="translate(-65.666 -0.318)" fill="#dbfc00"/>
    </g>
  </g>
</svg>
