<svg xmlns="http://www.w3.org/2000/svg" width="1600" height="400" viewBox="0 0 1600 400">
  <g id="그룹_2521" data-name="그룹 2521" transform="translate(-160 -3137)">
    <rect id="사각형_4636" data-name="사각형 4636" width="794" height="400" transform="translate(966 3137)" fill="#191919"/>
    <rect id="사각형_4546" data-name="사각형 4546" width="794" height="400" transform="translate(160 3137)" fill="#191919"/>
    <g id="그룹_2286" data-name="그룹 2286" transform="translate(0 -1605)">
      <g id="그룹_2285" data-name="그룹 2285">
        <rect id="사각형_4231" data-name="사각형 4231" width="794" height="1" transform="translate(160 4752)" fill="#111"/>
        <rect id="사각형_4232" data-name="사각형 4232" width="794" height="1" transform="translate(160 4762)" fill="#111"/>
        <rect id="사각형_4233" data-name="사각형 4233" width="794" height="1" transform="translate(160 4772)" fill="#111"/>
        <rect id="사각형_4234" data-name="사각형 4234" width="794" height="1" transform="translate(160 4782)" fill="#111"/>
        <rect id="사각형_4235" data-name="사각형 4235" width="794" height="1" transform="translate(160 4792)" fill="#111"/>
        <rect id="사각형_4236" data-name="사각형 4236" width="794" height="1" transform="translate(160 4802)" fill="#111"/>
        <rect id="사각형_4237" data-name="사각형 4237" width="794" height="1" transform="translate(160 4812)" fill="#111"/>
        <rect id="사각형_4238" data-name="사각형 4238" width="794" height="1" transform="translate(160 4822)" fill="#111"/>
        <rect id="사각형_4239" data-name="사각형 4239" width="794" height="1" transform="translate(160 4832)" fill="#111"/>
        <rect id="사각형_4240" data-name="사각형 4240" width="794" height="1" transform="translate(160 4842)" fill="#111"/>
        <rect id="사각형_4241" data-name="사각형 4241" width="794" height="1" transform="translate(160 4852)" fill="#111"/>
        <rect id="사각형_4242" data-name="사각형 4242" width="794" height="1" transform="translate(160 4862)" fill="#111"/>
        <rect id="사각형_4243" data-name="사각형 4243" width="794" height="1" transform="translate(160 4872)" fill="#111"/>
        <rect id="사각형_4244" data-name="사각형 4244" width="794" height="1" transform="translate(160 4882)" fill="#111"/>
        <rect id="사각형_4245" data-name="사각형 4245" width="794" height="1" transform="translate(160 4892)" fill="#111"/>
        <rect id="사각형_4246" data-name="사각형 4246" width="794" height="1" transform="translate(160 4902)" fill="#111"/>
        <rect id="사각형_4247" data-name="사각형 4247" width="794" height="1" transform="translate(160 4912)" fill="#111"/>
        <rect id="사각형_4248" data-name="사각형 4248" width="794" height="1" transform="translate(160 4922)" fill="#111"/>
        <rect id="사각형_4249" data-name="사각형 4249" width="794" height="1" transform="translate(160 4932)" fill="#111"/>
        <rect id="사각형_4250" data-name="사각형 4250" width="794" height="1" transform="translate(160 4942)" fill="#111"/>
        <rect id="사각형_4251" data-name="사각형 4251" width="794" height="1" transform="translate(160 4952)" fill="#111"/>
        <rect id="사각형_4252" data-name="사각형 4252" width="794" height="1" transform="translate(160 4962)" fill="#111"/>
        <rect id="사각형_4253" data-name="사각형 4253" width="794" height="1" transform="translate(160 4972)" fill="#111"/>
        <rect id="사각형_4254" data-name="사각형 4254" width="794" height="1" transform="translate(160 4982)" fill="#111"/>
        <rect id="사각형_4255" data-name="사각형 4255" width="794" height="1" transform="translate(160 4992)" fill="#111"/>
        <rect id="사각형_4256" data-name="사각형 4256" width="794" height="1" transform="translate(160 5002)" fill="#111"/>
        <rect id="사각형_4257" data-name="사각형 4257" width="794" height="1" transform="translate(160 5012)" fill="#111"/>
        <rect id="사각형_4258" data-name="사각형 4258" width="794" height="1" transform="translate(160 5022)" fill="#111"/>
        <rect id="사각형_4259" data-name="사각형 4259" width="794" height="1" transform="translate(160 5032)" fill="#111"/>
        <rect id="사각형_4260" data-name="사각형 4260" width="794" height="1" transform="translate(160 5042)" fill="#111"/>
        <rect id="사각형_4261" data-name="사각형 4261" width="794" height="1" transform="translate(160 5052)" fill="#111"/>
        <rect id="사각형_4262" data-name="사각형 4262" width="794" height="1" transform="translate(160 5062)" fill="#111"/>
        <rect id="사각형_4263" data-name="사각형 4263" width="794" height="1" transform="translate(160 5072)" fill="#111"/>
        <rect id="사각형_4264" data-name="사각형 4264" width="794" height="1" transform="translate(160 5082)" fill="#111"/>
        <rect id="사각형_4265" data-name="사각형 4265" width="794" height="1" transform="translate(160 5092)" fill="#111"/>
        <rect id="사각형_4266" data-name="사각형 4266" width="794" height="1" transform="translate(160 5102)" fill="#111"/>
        <rect id="사각형_4267" data-name="사각형 4267" width="794" height="1" transform="translate(160 5112)" fill="#111"/>
        <rect id="사각형_4268" data-name="사각형 4268" width="794" height="1" transform="translate(160 5122)" fill="#111"/>
        <rect id="사각형_4269" data-name="사각형 4269" width="794" height="1" transform="translate(160 5132)" fill="#111"/>
        <rect id="사각형_4270" data-name="사각형 4270" width="400" height="1" transform="translate(551 4742) rotate(90)" fill="#111"/>
        <rect id="사각형_4271" data-name="사각형 4271" width="400" height="1" transform="translate(541 4742) rotate(90)" fill="#111"/>
        <rect id="사각형_4272" data-name="사각형 4272" width="400" height="1" transform="translate(531 4742) rotate(90)" fill="#111"/>
        <rect id="사각형_4273" data-name="사각형 4273" width="400" height="1" transform="translate(521 4742) rotate(90)" fill="#111"/>
        <rect id="사각형_4274" data-name="사각형 4274" width="400" height="1" transform="translate(511 4742) rotate(90)" fill="#111"/>
        <rect id="사각형_4275" data-name="사각형 4275" width="400" height="1" transform="translate(501 4742) rotate(90)" fill="#111"/>
        <rect id="사각형_4276" data-name="사각형 4276" width="400" height="1" transform="translate(491 4742) rotate(90)" fill="#111"/>
        <rect id="사각형_4277" data-name="사각형 4277" width="400" height="1" transform="translate(481 4742) rotate(90)" fill="#111"/>
        <rect id="사각형_4278" data-name="사각형 4278" width="400" height="1" transform="translate(471 4742) rotate(90)" fill="#111"/>
        <rect id="사각형_4279" data-name="사각형 4279" width="400" height="1" transform="translate(461 4742) rotate(90)" fill="#111"/>
        <rect id="사각형_4280" data-name="사각형 4280" width="400" height="1" transform="translate(451 4742) rotate(90)" fill="#111"/>
        <rect id="사각형_4281" data-name="사각형 4281" width="400" height="1" transform="translate(441 4742) rotate(90)" fill="#111"/>
        <rect id="사각형_4282" data-name="사각형 4282" width="400" height="1" transform="translate(431 4742) rotate(90)" fill="#111"/>
        <rect id="사각형_4283" data-name="사각형 4283" width="400" height="1" transform="translate(421 4742) rotate(90)" fill="#111"/>
        <rect id="사각형_4284" data-name="사각형 4284" width="400" height="1" transform="translate(411 4742) rotate(90)" fill="#111"/>
        <rect id="사각형_4285" data-name="사각형 4285" width="400" height="1" transform="translate(401 4742) rotate(90)" fill="#111"/>
        <rect id="사각형_4286" data-name="사각형 4286" width="400" height="1" transform="translate(391 4742) rotate(90)" fill="#111"/>
        <rect id="사각형_4287" data-name="사각형 4287" width="400" height="1" transform="translate(381 4742) rotate(90)" fill="#111"/>
        <rect id="사각형_4288" data-name="사각형 4288" width="400" height="1" transform="translate(371 4742) rotate(90)" fill="#111"/>
        <rect id="사각형_4289" data-name="사각형 4289" width="400" height="1" transform="translate(361 4742) rotate(90)" fill="#111"/>
        <rect id="사각형_4290" data-name="사각형 4290" width="400" height="1" transform="translate(351 4742) rotate(90)" fill="#111"/>
        <rect id="사각형_4291" data-name="사각형 4291" width="400" height="1" transform="translate(341 4742) rotate(90)" fill="#111"/>
        <rect id="사각형_4292" data-name="사각형 4292" width="400" height="1" transform="translate(331 4742) rotate(90)" fill="#111"/>
        <rect id="사각형_4293" data-name="사각형 4293" width="400" height="1" transform="translate(321 4742) rotate(90)" fill="#111"/>
        <rect id="사각형_4294" data-name="사각형 4294" width="400" height="1" transform="translate(311 4742) rotate(90)" fill="#111"/>
        <rect id="사각형_4295" data-name="사각형 4295" width="400" height="1" transform="translate(301 4742) rotate(90)" fill="#111"/>
        <rect id="사각형_4296" data-name="사각형 4296" width="400" height="1" transform="translate(291 4742) rotate(90)" fill="#111"/>
        <rect id="사각형_4297" data-name="사각형 4297" width="400" height="1" transform="translate(281 4742) rotate(90)" fill="#111"/>
        <rect id="사각형_4298" data-name="사각형 4298" width="400" height="1" transform="translate(271 4742) rotate(90)" fill="#111"/>
        <rect id="사각형_4299" data-name="사각형 4299" width="400" height="1" transform="translate(261 4742) rotate(90)" fill="#111"/>
        <rect id="사각형_4300" data-name="사각형 4300" width="400" height="1" transform="translate(251 4742) rotate(90)" fill="#111"/>
        <rect id="사각형_4301" data-name="사각형 4301" width="400" height="1" transform="translate(241 4742) rotate(90)" fill="#111"/>
        <rect id="사각형_4302" data-name="사각형 4302" width="400" height="1" transform="translate(231 4742) rotate(90)" fill="#111"/>
        <rect id="사각형_4303" data-name="사각형 4303" width="400" height="1" transform="translate(221 4742) rotate(90)" fill="#111"/>
        <rect id="사각형_4304" data-name="사각형 4304" width="400" height="1" transform="translate(211 4742) rotate(90)" fill="#111"/>
        <rect id="사각형_4305" data-name="사각형 4305" width="400" height="1" transform="translate(201 4742) rotate(90)" fill="#111"/>
        <rect id="사각형_4306" data-name="사각형 4306" width="400" height="1" transform="translate(191 4742) rotate(90)" fill="#111"/>
        <rect id="사각형_4307" data-name="사각형 4307" width="400" height="1" transform="translate(181 4742) rotate(90)" fill="#111"/>
        <rect id="사각형_4308" data-name="사각형 4308" width="400" height="1" transform="translate(171 4742) rotate(90)" fill="#111"/>
        <rect id="사각형_4309" data-name="사각형 4309" width="400" height="1" transform="translate(941 4742) rotate(90)" fill="#111"/>
        <rect id="사각형_4310" data-name="사각형 4310" width="400" height="1" transform="translate(931 4742) rotate(90)" fill="#111"/>
        <rect id="사각형_4311" data-name="사각형 4311" width="400" height="1" transform="translate(921 4742) rotate(90)" fill="#111"/>
        <rect id="사각형_4312" data-name="사각형 4312" width="400" height="1" transform="translate(911 4742) rotate(90)" fill="#111"/>
        <rect id="사각형_4313" data-name="사각형 4313" width="400" height="1" transform="translate(901 4742) rotate(90)" fill="#111"/>
        <rect id="사각형_4314" data-name="사각형 4314" width="400" height="1" transform="translate(891 4742) rotate(90)" fill="#111"/>
        <rect id="사각형_4315" data-name="사각형 4315" width="400" height="1" transform="translate(881 4742) rotate(90)" fill="#111"/>
        <rect id="사각형_4316" data-name="사각형 4316" width="400" height="1" transform="translate(871 4742) rotate(90)" fill="#111"/>
        <rect id="사각형_4317" data-name="사각형 4317" width="400" height="1" transform="translate(861 4742) rotate(90)" fill="#111"/>
        <rect id="사각형_4318" data-name="사각형 4318" width="400" height="1" transform="translate(851 4742) rotate(90)" fill="#111"/>
        <rect id="사각형_4319" data-name="사각형 4319" width="400" height="1" transform="translate(841 4742) rotate(90)" fill="#111"/>
        <rect id="사각형_4320" data-name="사각형 4320" width="400" height="1" transform="translate(831 4742) rotate(90)" fill="#111"/>
        <rect id="사각형_4321" data-name="사각형 4321" width="400" height="1" transform="translate(821 4742) rotate(90)" fill="#111"/>
        <rect id="사각형_4322" data-name="사각형 4322" width="400" height="1" transform="translate(811 4742) rotate(90)" fill="#111"/>
        <rect id="사각형_4323" data-name="사각형 4323" width="400" height="1" transform="translate(801 4742) rotate(90)" fill="#111"/>
        <rect id="사각형_4324" data-name="사각형 4324" width="400" height="1" transform="translate(791 4742) rotate(90)" fill="#111"/>
        <rect id="사각형_4325" data-name="사각형 4325" width="400" height="1" transform="translate(781 4742) rotate(90)" fill="#111"/>
        <rect id="사각형_4326" data-name="사각형 4326" width="400" height="1" transform="translate(771 4742) rotate(90)" fill="#111"/>
        <rect id="사각형_4327" data-name="사각형 4327" width="400" height="1" transform="translate(761 4742) rotate(90)" fill="#111"/>
        <rect id="사각형_4328" data-name="사각형 4328" width="400" height="1" transform="translate(751 4742) rotate(90)" fill="#111"/>
        <rect id="사각형_4329" data-name="사각형 4329" width="400" height="1" transform="translate(741 4742) rotate(90)" fill="#111"/>
        <rect id="사각형_4330" data-name="사각형 4330" width="400" height="1" transform="translate(731 4742) rotate(90)" fill="#111"/>
        <rect id="사각형_4331" data-name="사각형 4331" width="400" height="1" transform="translate(721 4742) rotate(90)" fill="#111"/>
        <rect id="사각형_4332" data-name="사각형 4332" width="400" height="1" transform="translate(711 4742) rotate(90)" fill="#111"/>
        <rect id="사각형_4333" data-name="사각형 4333" width="400" height="1" transform="translate(701 4742) rotate(90)" fill="#111"/>
        <rect id="사각형_4334" data-name="사각형 4334" width="400" height="1" transform="translate(691 4742) rotate(90)" fill="#111"/>
        <rect id="사각형_4335" data-name="사각형 4335" width="400" height="1" transform="translate(681 4742) rotate(90)" fill="#111"/>
        <rect id="사각형_4336" data-name="사각형 4336" width="400" height="1" transform="translate(671 4742) rotate(90)" fill="#111"/>
        <rect id="사각형_4337" data-name="사각형 4337" width="400" height="1" transform="translate(661 4742) rotate(90)" fill="#111"/>
        <rect id="사각형_4338" data-name="사각형 4338" width="400" height="1" transform="translate(651 4742) rotate(90)" fill="#111"/>
        <rect id="사각형_4339" data-name="사각형 4339" width="400" height="1" transform="translate(641 4742) rotate(90)" fill="#111"/>
        <rect id="사각형_4340" data-name="사각형 4340" width="400" height="1" transform="translate(631 4742) rotate(90)" fill="#111"/>
        <rect id="사각형_4341" data-name="사각형 4341" width="400" height="1" transform="translate(621 4742) rotate(90)" fill="#111"/>
        <rect id="사각형_4342" data-name="사각형 4342" width="400" height="1" transform="translate(611 4742) rotate(90)" fill="#111"/>
        <rect id="사각형_4343" data-name="사각형 4343" width="400" height="1" transform="translate(601 4742) rotate(90)" fill="#111"/>
        <rect id="사각형_4344" data-name="사각형 4344" width="400" height="1" transform="translate(591 4742) rotate(90)" fill="#111"/>
        <rect id="사각형_4345" data-name="사각형 4345" width="400" height="1" transform="translate(581 4742) rotate(90)" fill="#111"/>
        <rect id="사각형_4346" data-name="사각형 4346" width="400" height="1" transform="translate(571 4742) rotate(90)" fill="#111"/>
        <rect id="사각형_4347" data-name="사각형 4347" width="400" height="1" transform="translate(561 4742) rotate(90)" fill="#111"/>
        <rect id="사각형_4348" data-name="사각형 4348" width="400" height="1" transform="translate(1331 4742) rotate(90)" fill="#111"/>
        <rect id="사각형_4349" data-name="사각형 4349" width="400" height="1" transform="translate(1321 4742) rotate(90)" fill="#111"/>
        <rect id="사각형_4350" data-name="사각형 4350" width="400" height="1" transform="translate(1311 4742) rotate(90)" fill="#111"/>
        <rect id="사각형_4351" data-name="사각형 4351" width="400" height="1" transform="translate(1301 4742) rotate(90)" fill="#111"/>
        <rect id="사각형_4352" data-name="사각형 4352" width="400" height="1" transform="translate(1291 4742) rotate(90)" fill="#111"/>
        <rect id="사각형_4353" data-name="사각형 4353" width="400" height="1" transform="translate(1281 4742) rotate(90)" fill="#111"/>
        <rect id="사각형_4354" data-name="사각형 4354" width="400" height="1" transform="translate(1271 4742) rotate(90)" fill="#111"/>
        <rect id="사각형_4355" data-name="사각형 4355" width="400" height="1" transform="translate(1261 4742) rotate(90)" fill="#111"/>
        <rect id="사각형_4356" data-name="사각형 4356" width="400" height="1" transform="translate(1251 4742) rotate(90)" fill="#111"/>
        <rect id="사각형_4357" data-name="사각형 4357" width="400" height="1" transform="translate(1241 4742) rotate(90)" fill="#111"/>
        <rect id="사각형_4358" data-name="사각형 4358" width="400" height="1" transform="translate(1231 4742) rotate(90)" fill="#111"/>
        <rect id="사각형_4359" data-name="사각형 4359" width="400" height="1" transform="translate(1221 4742) rotate(90)" fill="#111"/>
        <rect id="사각형_4360" data-name="사각형 4360" width="400" height="1" transform="translate(1211 4742) rotate(90)" fill="#111"/>
        <rect id="사각형_4361" data-name="사각형 4361" width="400" height="1" transform="translate(1201 4742) rotate(90)" fill="#111"/>
        <rect id="사각형_4362" data-name="사각형 4362" width="400" height="1" transform="translate(1191 4742) rotate(90)" fill="#111"/>
        <rect id="사각형_4363" data-name="사각형 4363" width="400" height="1" transform="translate(1181 4742) rotate(90)" fill="#111"/>
        <rect id="사각형_4364" data-name="사각형 4364" width="400" height="1" transform="translate(1171 4742) rotate(90)" fill="#111"/>
        <rect id="사각형_4365" data-name="사각형 4365" width="400" height="1" transform="translate(1161 4742) rotate(90)" fill="#111"/>
        <rect id="사각형_4366" data-name="사각형 4366" width="400" height="1" transform="translate(1151 4742) rotate(90)" fill="#111"/>
        <rect id="사각형_4367" data-name="사각형 4367" width="400" height="1" transform="translate(1141 4742) rotate(90)" fill="#111"/>
        <rect id="사각형_4368" data-name="사각형 4368" width="400" height="1" transform="translate(1131 4742) rotate(90)" fill="#111"/>
        <rect id="사각형_4369" data-name="사각형 4369" width="400" height="1" transform="translate(1121 4742) rotate(90)" fill="#111"/>
        <rect id="사각형_4370" data-name="사각형 4370" width="400" height="1" transform="translate(1111 4742) rotate(90)" fill="#111"/>
        <rect id="사각형_4371" data-name="사각형 4371" width="400" height="1" transform="translate(1101 4742) rotate(90)" fill="#111"/>
        <rect id="사각형_4372" data-name="사각형 4372" width="400" height="1" transform="translate(1091 4742) rotate(90)" fill="#111"/>
        <rect id="사각형_4373" data-name="사각형 4373" width="400" height="1" transform="translate(1081 4742) rotate(90)" fill="#111"/>
        <rect id="사각형_4374" data-name="사각형 4374" width="400" height="1" transform="translate(1071 4742) rotate(90)" fill="#111"/>
        <rect id="사각형_4375" data-name="사각형 4375" width="400" height="1" transform="translate(1061 4742) rotate(90)" fill="#111"/>
        <rect id="사각형_4376" data-name="사각형 4376" width="400" height="1" transform="translate(1051 4742) rotate(90)" fill="#111"/>
        <rect id="사각형_4377" data-name="사각형 4377" width="400" height="1" transform="translate(1041 4742) rotate(90)" fill="#111"/>
        <rect id="사각형_4378" data-name="사각형 4378" width="400" height="1" transform="translate(1031 4742) rotate(90)" fill="#111"/>
        <rect id="사각형_4379" data-name="사각형 4379" width="400" height="1" transform="translate(1021 4742) rotate(90)" fill="#111"/>
        <rect id="사각형_4380" data-name="사각형 4380" width="400" height="1" transform="translate(1011 4742) rotate(90)" fill="#111"/>
        <rect id="사각형_4381" data-name="사각형 4381" width="400" height="1" transform="translate(1001 4742) rotate(90)" fill="#111"/>
        <rect id="사각형_4382" data-name="사각형 4382" width="400" height="1" transform="translate(991 4742) rotate(90)" fill="#111"/>
        <rect id="사각형_4383" data-name="사각형 4383" width="400" height="1" transform="translate(981 4742) rotate(90)" fill="#111"/>
        <rect id="사각형_4676" data-name="사각형 4676" width="400" height="1" transform="translate(971 4742) rotate(90)" fill="#111"/>
        <rect id="사각형_4386" data-name="사각형 4386" width="400" height="1" transform="translate(951 4742) rotate(90)" fill="#111"/>
        <rect id="사각형_4387" data-name="사각형 4387" width="400" height="1" transform="translate(1721 4742) rotate(90)" fill="#111"/>
        <rect id="사각형_4388" data-name="사각형 4388" width="400" height="1" transform="translate(1711 4742) rotate(90)" fill="#111"/>
        <rect id="사각형_4389" data-name="사각형 4389" width="400" height="1" transform="translate(1701 4742) rotate(90)" fill="#111"/>
        <rect id="사각형_4390" data-name="사각형 4390" width="400" height="1" transform="translate(1691 4742) rotate(90)" fill="#111"/>
        <rect id="사각형_4391" data-name="사각형 4391" width="400" height="1" transform="translate(1681 4742) rotate(90)" fill="#111"/>
        <rect id="사각형_4392" data-name="사각형 4392" width="400" height="1" transform="translate(1671 4742) rotate(90)" fill="#111"/>
        <rect id="사각형_4393" data-name="사각형 4393" width="400" height="1" transform="translate(1661 4742) rotate(90)" fill="#111"/>
        <rect id="사각형_4394" data-name="사각형 4394" width="400" height="1" transform="translate(1651 4742) rotate(90)" fill="#111"/>
        <rect id="사각형_4395" data-name="사각형 4395" width="400" height="1" transform="translate(1641 4742) rotate(90)" fill="#111"/>
        <rect id="사각형_4396" data-name="사각형 4396" width="400" height="1" transform="translate(1631 4742) rotate(90)" fill="#111"/>
        <rect id="사각형_4397" data-name="사각형 4397" width="400" height="1" transform="translate(1621 4742) rotate(90)" fill="#111"/>
        <rect id="사각형_4398" data-name="사각형 4398" width="400" height="1" transform="translate(1611 4742) rotate(90)" fill="#111"/>
        <rect id="사각형_4399" data-name="사각형 4399" width="400" height="1" transform="translate(1601 4742) rotate(90)" fill="#111"/>
        <rect id="사각형_4400" data-name="사각형 4400" width="400" height="1" transform="translate(1591 4742) rotate(90)" fill="#111"/>
        <rect id="사각형_4401" data-name="사각형 4401" width="400" height="1" transform="translate(1581 4742) rotate(90)" fill="#111"/>
        <rect id="사각형_4402" data-name="사각형 4402" width="400" height="1" transform="translate(1571 4742) rotate(90)" fill="#111"/>
        <rect id="사각형_4403" data-name="사각형 4403" width="400" height="1" transform="translate(1561 4742) rotate(90)" fill="#111"/>
        <rect id="사각형_4404" data-name="사각형 4404" width="400" height="1" transform="translate(1551 4742) rotate(90)" fill="#111"/>
        <rect id="사각형_4405" data-name="사각형 4405" width="400" height="1" transform="translate(1541 4742) rotate(90)" fill="#111"/>
        <rect id="사각형_4406" data-name="사각형 4406" width="400" height="1" transform="translate(1531 4742) rotate(90)" fill="#111"/>
        <rect id="사각형_4407" data-name="사각형 4407" width="400" height="1" transform="translate(1521 4742) rotate(90)" fill="#111"/>
        <rect id="사각형_4408" data-name="사각형 4408" width="400" height="1" transform="translate(1511 4742) rotate(90)" fill="#111"/>
        <rect id="사각형_4409" data-name="사각형 4409" width="400" height="1" transform="translate(1501 4742) rotate(90)" fill="#111"/>
        <rect id="사각형_4410" data-name="사각형 4410" width="400" height="1" transform="translate(1491 4742) rotate(90)" fill="#111"/>
        <rect id="사각형_4411" data-name="사각형 4411" width="400" height="1" transform="translate(1481 4742) rotate(90)" fill="#111"/>
        <rect id="사각형_4412" data-name="사각형 4412" width="400" height="1" transform="translate(1471 4742) rotate(90)" fill="#111"/>
        <rect id="사각형_4413" data-name="사각형 4413" width="400" height="1" transform="translate(1461 4742) rotate(90)" fill="#111"/>
        <rect id="사각형_4414" data-name="사각형 4414" width="400" height="1" transform="translate(1451 4742) rotate(90)" fill="#111"/>
        <rect id="사각형_4415" data-name="사각형 4415" width="400" height="1" transform="translate(1441 4742) rotate(90)" fill="#111"/>
        <rect id="사각형_4416" data-name="사각형 4416" width="400" height="1" transform="translate(1431 4742) rotate(90)" fill="#111"/>
        <rect id="사각형_4417" data-name="사각형 4417" width="400" height="1" transform="translate(1421 4742) rotate(90)" fill="#111"/>
        <rect id="사각형_4418" data-name="사각형 4418" width="400" height="1" transform="translate(1411 4742) rotate(90)" fill="#111"/>
        <rect id="사각형_4419" data-name="사각형 4419" width="400" height="1" transform="translate(1401 4742) rotate(90)" fill="#111"/>
        <rect id="사각형_4420" data-name="사각형 4420" width="400" height="1" transform="translate(1391 4742) rotate(90)" fill="#111"/>
        <rect id="사각형_4421" data-name="사각형 4421" width="400" height="1" transform="translate(1381 4742) rotate(90)" fill="#111"/>
        <rect id="사각형_4422" data-name="사각형 4422" width="400" height="1" transform="translate(1371 4742) rotate(90)" fill="#111"/>
        <rect id="사각형_4423" data-name="사각형 4423" width="400" height="1" transform="translate(1361 4742) rotate(90)" fill="#111"/>
        <rect id="사각형_4424" data-name="사각형 4424" width="400" height="1" transform="translate(1351 4742) rotate(90)" fill="#111"/>
        <rect id="사각형_4425" data-name="사각형 4425" width="400" height="1" transform="translate(1341 4742) rotate(90)" fill="#111"/>
        <rect id="사각형_4427" data-name="사각형 4427" width="400" height="1" transform="translate(1751 4742) rotate(90)" fill="#111"/>
        <rect id="사각형_4428" data-name="사각형 4428" width="400" height="1" transform="translate(1741 4742) rotate(90)" fill="#111"/>
        <rect id="사각형_4429" data-name="사각형 4429" width="400" height="1" transform="translate(1731 4742) rotate(90)" fill="#111"/>
        <rect id="사각형_4637" data-name="사각형 4637" width="794" height="1" transform="translate(966 4752)" fill="#111"/>
        <rect id="사각형_4638" data-name="사각형 4638" width="794" height="1" transform="translate(966 4762)" fill="#111"/>
        <rect id="사각형_4639" data-name="사각형 4639" width="794" height="1" transform="translate(966 4772)" fill="#111"/>
        <rect id="사각형_4640" data-name="사각형 4640" width="794" height="1" transform="translate(966 4782)" fill="#111"/>
        <rect id="사각형_4641" data-name="사각형 4641" width="794" height="1" transform="translate(966 4792)" fill="#111"/>
        <rect id="사각형_4642" data-name="사각형 4642" width="794" height="1" transform="translate(966 4802)" fill="#111"/>
        <rect id="사각형_4643" data-name="사각형 4643" width="794" height="1" transform="translate(966 4812)" fill="#111"/>
        <rect id="사각형_4644" data-name="사각형 4644" width="794" height="1" transform="translate(966 4822)" fill="#111"/>
        <rect id="사각형_4645" data-name="사각형 4645" width="794" height="1" transform="translate(966 4832)" fill="#111"/>
        <rect id="사각형_4646" data-name="사각형 4646" width="794" height="1" transform="translate(966 4842)" fill="#111"/>
        <rect id="사각형_4647" data-name="사각형 4647" width="794" height="1" transform="translate(966 4852)" fill="#111"/>
        <rect id="사각형_4648" data-name="사각형 4648" width="794" height="1" transform="translate(966 4862)" fill="#111"/>
        <rect id="사각형_4649" data-name="사각형 4649" width="794" height="1" transform="translate(966 4872)" fill="#111"/>
        <rect id="사각형_4650" data-name="사각형 4650" width="794" height="1" transform="translate(966 4882)" fill="#111"/>
        <rect id="사각형_4651" data-name="사각형 4651" width="794" height="1" transform="translate(966 4892)" fill="#111"/>
        <rect id="사각형_4652" data-name="사각형 4652" width="794" height="1" transform="translate(966 4902)" fill="#111"/>
        <rect id="사각형_4653" data-name="사각형 4653" width="794" height="1" transform="translate(966 4912)" fill="#111"/>
        <rect id="사각형_4654" data-name="사각형 4654" width="794" height="1" transform="translate(966 4922)" fill="#111"/>
        <rect id="사각형_4655" data-name="사각형 4655" width="794" height="1" transform="translate(966 4932)" fill="#111"/>
        <rect id="사각형_4656" data-name="사각형 4656" width="794" height="1" transform="translate(966 4942)" fill="#111"/>
        <rect id="사각형_4657" data-name="사각형 4657" width="794" height="1" transform="translate(966 4952)" fill="#111"/>
        <rect id="사각형_4658" data-name="사각형 4658" width="794" height="1" transform="translate(966 4962)" fill="#111"/>
        <rect id="사각형_4659" data-name="사각형 4659" width="794" height="1" transform="translate(966 4972)" fill="#111"/>
        <rect id="사각형_4660" data-name="사각형 4660" width="794" height="1" transform="translate(966 4982)" fill="#111"/>
        <rect id="사각형_4661" data-name="사각형 4661" width="794" height="1" transform="translate(966 4992)" fill="#111"/>
        <rect id="사각형_4662" data-name="사각형 4662" width="794" height="1" transform="translate(966 5002)" fill="#111"/>
        <rect id="사각형_4663" data-name="사각형 4663" width="794" height="1" transform="translate(966 5012)" fill="#111"/>
        <rect id="사각형_4664" data-name="사각형 4664" width="794" height="1" transform="translate(966 5022)" fill="#111"/>
        <rect id="사각형_4665" data-name="사각형 4665" width="794" height="1" transform="translate(966 5032)" fill="#111"/>
        <rect id="사각형_4666" data-name="사각형 4666" width="794" height="1" transform="translate(966 5042)" fill="#111"/>
        <rect id="사각형_4667" data-name="사각형 4667" width="794" height="1" transform="translate(966 5052)" fill="#111"/>
        <rect id="사각형_4668" data-name="사각형 4668" width="794" height="1" transform="translate(966 5062)" fill="#111"/>
        <rect id="사각형_4669" data-name="사각형 4669" width="794" height="1" transform="translate(966 5072)" fill="#111"/>
        <rect id="사각형_4670" data-name="사각형 4670" width="794" height="1" transform="translate(966 5082)" fill="#111"/>
        <rect id="사각형_4671" data-name="사각형 4671" width="794" height="1" transform="translate(966 5092)" fill="#111"/>
        <rect id="사각형_4672" data-name="사각형 4672" width="794" height="1" transform="translate(966 5102)" fill="#111"/>
        <rect id="사각형_4673" data-name="사각형 4673" width="794" height="1" transform="translate(966 5112)" fill="#111"/>
        <rect id="사각형_4674" data-name="사각형 4674" width="794" height="1" transform="translate(966 5122)" fill="#111"/>
        <rect id="사각형_4675" data-name="사각형 4675" width="794" height="1" transform="translate(966 5132)" fill="#111"/>
      </g>
    </g>
  </g>
</svg>
