<svg xmlns="http://www.w3.org/2000/svg" xmlns:xlink="http://www.w3.org/1999/xlink" width="198" height="140.8" viewBox="0 0 198 140.8">
  <defs>
    <clipPath id="clip-path">
      <rect id="사각형_4808" data-name="사각형 4808" width="198" height="139.8" fill="none"/>
    </clipPath>
  </defs>
  <g id="그룹_117090" data-name="그룹 117090" transform="translate(7557 1817)">
    <g id="그룹_117087" data-name="그룹 117087" transform="translate(-7557 -1816)">
      <g id="그룹_117086" data-name="그룹 117086" clip-path="url(#clip-path)">
        <path id="패스_1474" data-name="패스 1474" d="M246.631,206.368H234.249V194.725h-6.467v11.643H215.4v6.173h12.382v11.648h6.467V212.541h12.382Zm25.354-11.643v23.292H257.076V194.725h-6.467v25.142a4.322,4.322,0,0,0,4.322,4.322h19.2a4.322,4.322,0,0,0,4.322-4.322V194.725Zm-55,0h-7.707l-7.968,9.93-7.968-9.93H185.64l11.821,14.732L185.64,224.189h7.707l7.968-9.93,7.968,9.93h7.707l-11.821-14.732Z" transform="translate(-80.452 -84.39)" fill="#fff"/>
        <path id="패스_1475" data-name="패스 1475" d="M82.5,216.822a6.743,6.743,0,0,0,2.516,5.665,8.952,8.952,0,0,0,10.407,0,6.743,6.743,0,0,0,2.516-5.665v-14.5a6.743,6.743,0,0,0-2.516-5.665,8.954,8.954,0,0,0-10.407,0,6.743,6.743,0,0,0-2.516,5.665Zm12.4.073a4.31,4.31,0,0,1-1.445,3.438,5.4,5.4,0,0,1-6.48,0,4.31,4.31,0,0,1-1.445-3.438V202.244a4.31,4.31,0,0,1,1.445-3.438,5.4,5.4,0,0,1,6.48,0,4.31,4.31,0,0,1,1.445,3.438ZM77.7,223.86H74.663V195.28H77.7Zm-9.6-26.45a7.812,7.812,0,0,0-5.9-2.13h-7.16v28.58H62.2a7.813,7.813,0,0,0,5.9-2.13,6.9,6.9,0,0,0,1.766-4.957V202.366a6.9,6.9,0,0,0-1.766-4.957m-1.269,19.257a4.361,4.361,0,0,1-1.184,3.232A4.686,4.686,0,0,1,62.2,221.12H58.074v-23.1H62.2a4.685,4.685,0,0,1,3.442,1.221,4.361,4.361,0,0,1,1.184,3.232ZM34.915,195.28v21.542a6.743,6.743,0,0,0,2.516,5.665,8.007,8.007,0,0,0,5.144,1.668,8.007,8.007,0,0,0,5.144-1.668,6.743,6.743,0,0,0,2.516-5.665V195.28H47.2V216.9a4.31,4.31,0,0,1-1.445,3.438,5.22,5.22,0,0,1-6.362,0A4.31,4.31,0,0,1,37.95,216.9V195.28Zm-2.858,2.74H26.223v25.84H23.188V198.02H17.354v-2.74h14.7Zm-16.647,19.2a6.4,6.4,0,0,1-2.263,5.229,8.04,8.04,0,0,1-5.128,1.7,8.843,8.843,0,0,1-5.6-1.618A6.212,6.212,0,0,1,0,217.067v-2.381H3.029v1.943c0,1.811.4,2.84,1.269,3.618a5.31,5.31,0,0,0,3.575,1.167,4.628,4.628,0,0,0,3.459-1.253,3.97,3.97,0,0,0,1.048-2.737,4.442,4.442,0,0,0-1.028-2.8,13.656,13.656,0,0,0-2.7-2.431l-3.941-3.044a13.859,13.859,0,0,1-3.731-3.976A6.682,6.682,0,0,1,.1,201.557a6.135,6.135,0,0,1,2.253-4.85,8.054,8.054,0,0,1,5.215-1.722,8.277,8.277,0,0,1,5.286,1.749,5.747,5.747,0,0,1,2.168,4.792v1.784H11.989v-1.044c0-1.886-.4-2.775-1.264-3.531a4.778,4.778,0,0,0-3.2-1.011A4.524,4.524,0,0,0,4.3,198.819a3.8,3.8,0,0,0-1.176,2.914,4.423,4.423,0,0,0,1.058,2.728,13.816,13.816,0,0,0,2.7,2.511l4.046,3.125a13.259,13.259,0,0,1,3.526,3.527,6.37,6.37,0,0,1,.952,3.6" transform="translate(0 -84.502)" fill="#fff"/>
        <path id="패스_1476" data-name="패스 1476" d="M136.707,81.14v-28.9a.227.227,0,0,1,.227-.227h6.233a.227.227,0,0,1,.227.227v28.9a.227.227,0,0,1-.227.227h-6.233a.227.227,0,0,1-.227-.227m.227-51.789h6.233a.227.227,0,0,0,.227-.227V.227A.227.227,0,0,0,143.166,0h-6.233a.227.227,0,0,0-.227.227v28.9a.227.227,0,0,0,.227.227m-39.72,8.216V43.8a.227.227,0,0,0,.227.227h31.051a.227.227,0,0,0,.227-.227V37.567a.227.227,0,0,0-.227-.227H97.44a.227.227,0,0,0-.227.227m54.169,0V43.8a.227.227,0,0,0,.227.227H182.66a.227.227,0,0,0,.227-.227V37.567a.227.227,0,0,0-.227-.227H151.609a.227.227,0,0,0-.227.227m32.008,34.06L169.52,50.859c-.369-.552-1.87-.2-3.353.794s-2.387,2.242-2.018,2.793l13.59,20.347h-4.363c-1.318,0-1.774-.108-2.365-.655a18.724,18.724,0,0,1-2.218-3L155.249,50.859c-.368-.552-1.87-.2-3.353.794s-2.387,2.242-2.018,2.793L162.4,73.195c2.451,3.67,3.726,5.23,5.284,6.3,1.785,1.223,3.232,1.648,6.083,1.648h5.3c2.146,0,3.4-.215,4.415-.9a4.159,4.159,0,0,0,1.894-3.607c0-1.682-.589-2.915-1.989-5.011M128.2,51.654c-1.483-.991-2.984-1.346-3.353-.794L111.306,71.137a18.733,18.733,0,0,1-2.217,3c-.591.547-1.047.655-2.365.655h-4.362l13.59-20.347c.369-.552-.534-1.8-2.018-2.793s-2.985-1.346-3.354-.794L96.709,71.627c-1.4,2.1-1.989,3.328-1.989,5.011a4.16,4.16,0,0,0,1.894,3.607c1.02.682,2.269.9,4.415.9h5.3c2.851,0,4.3-.425,6.083-1.648,1.558-1.067,2.832-2.627,5.283-6.3l12.522-18.748c.369-.552-.535-1.8-2.018-2.793m2.018-24.734L117.7,8.172c-2.451-3.671-3.726-5.23-5.283-6.3C110.63.652,109.184.227,106.333.227h-5.3c-2.146,0-3.4.215-4.415.9A4.16,4.16,0,0,0,94.72,4.73c0,1.682.59,2.916,1.989,5.011L110.58,30.507c.369.552,1.87.2,3.354-.794s2.387-2.242,2.018-2.794L102.361,6.573h4.362c1.319,0,1.774.109,2.365.655a18.747,18.747,0,0,1,2.217,3L124.85,30.507c.369.552,1.87.2,3.353-.794s2.387-2.242,2.018-2.794m53.264-25.8c-1.02-.682-2.269-.9-4.415-.9h-5.3c-2.851,0-4.3.426-6.083,1.648-1.558,1.067-2.833,2.627-5.284,6.3L149.878,26.92c-.369.552.534,1.8,2.018,2.794s2.985,1.346,3.353.794L168.793,10.23a18.738,18.738,0,0,1,2.218-3c.59-.546,1.047-.655,2.365-.655h4.363L164.148,26.92c-.369.552.535,1.8,2.018,2.794s2.984,1.346,3.353.794L183.391,9.74c1.4-2.095,1.989-3.328,1.989-5.011a4.159,4.159,0,0,0-1.894-3.607" transform="translate(-41.05)" fill="#c8f500"/>
      </g>
    </g>
    <rect id="사각형_4811" data-name="사각형 4811" width="198" height="140" transform="translate(-7557 -1817)" fill="none"/>
  </g>
</svg>
