<svg id="그룹_2229" data-name="그룹 2229" xmlns="http://www.w3.org/2000/svg" xmlns:xlink="http://www.w3.org/1999/xlink" width="558" height="79.27" viewBox="0 0 558 79.27">
  <defs>
    <clipPath id="clip-path">
      <rect id="사각형_4209" data-name="사각형 4209" width="558" height="79.27" fill="none"/>
    </clipPath>
  </defs>
  <g id="그룹_2226" data-name="그룹 2226">
    <g id="그룹_2225" data-name="그룹 2225" clip-path="url(#clip-path)">
      <path id="패스_1423" data-name="패스 1423" d="M8.521,70.451a14.774,14.774,0,0,1-6.139-4.986A13.084,13.084,0,0,1,0,58.322H5.507a10.459,10.459,0,0,0,3.348,6.66q2.976,2.865,8.706,2.865,5.283,0,8.371-2.716a8.769,8.769,0,0,0,3.088-6.884,8.128,8.128,0,0,0-1.712-5.394A10.486,10.486,0,0,0,23.067,49.8a65.962,65.962,0,0,0-6.994-2.195,61.026,61.026,0,0,1-8.26-2.753A13.127,13.127,0,0,1,2.6,40.686,12.328,12.328,0,0,1,.447,33.022a12.751,12.751,0,0,1,2.084-7.181,13.95,13.95,0,0,1,5.878-4.948,20.222,20.222,0,0,1,8.706-1.786q7.217,0,11.644,3.535a13.279,13.279,0,0,1,5.1,9.115H28.2a9.365,9.365,0,0,0-3.5-5.693,12.123,12.123,0,0,0-8.035-2.493,12.141,12.141,0,0,0-7.813,2.493A8.243,8.243,0,0,0,5.73,32.874a7.862,7.862,0,0,0,1.712,5.283,10.9,10.9,0,0,0,4.278,3.05,63.139,63.139,0,0,0,6.958,2.233,63.018,63.018,0,0,1,8.185,2.79,13.362,13.362,0,0,1,5.283,4.2,12.215,12.215,0,0,1,2.158,7.59,13.394,13.394,0,0,1-1.934,6.92,14.129,14.129,0,0,1-5.73,5.283,19.168,19.168,0,0,1-9.079,2.009,21.545,21.545,0,0,1-9.04-1.786" transform="translate(0 -6.429)" fill="#919191"/>
      <path id="패스_1424" data-name="패스 1424" d="M99.95,20V24.32H85.514v47.7H80.305V24.32H65.8V20Z" transform="translate(-22.137 -6.731)" fill="#919191"/>
      <path id="패스_1425" data-name="패스 1425" d="M139.153,20.005v32.74q0,7.74,3.683,11.459t10.082,3.72q6.4,0,10.009-3.683t3.608-11.5V20.005h5.209V52.67q0,9.9-5.247,14.883t-13.654,4.985q-8.409,0-13.654-4.985T133.944,52.67V20.005Z" transform="translate(-45.067 -6.731)" fill="#919191"/>
      <path id="패스_1426" data-name="패스 1426" d="M243.183,23.129a21.829,21.829,0,0,1,9.449,9,28.33,28.33,0,0,1,3.274,13.989A27.951,27.951,0,0,1,252.632,60a21.656,21.656,0,0,1-9.449,8.929,32.8,32.8,0,0,1-14.808,3.088h-15.4V20h15.4a32.47,32.47,0,0,1,14.808,3.125m1.748,38.88q5.692-5.692,5.692-15.886,0-10.269-5.692-16.035T228.374,24.32H218.18V67.7h10.195q10.864,0,16.556-5.692" transform="translate(-71.656 -6.731)" fill="#919191"/>
      <rect id="사각형_4208" data-name="사각형 4208" width="5.209" height="52.012" transform="translate(196.879 13.274)" fill="#919191"/>
      <path id="패스_1427" data-name="패스 1427" d="M336.018,68.851a24.393,24.393,0,0,1-9.264-9.451,27.661,27.661,0,0,1-3.386-13.728,27.672,27.672,0,0,1,3.386-13.729,24.4,24.4,0,0,1,9.264-9.449,27.162,27.162,0,0,1,26.266,0,24.151,24.151,0,0,1,9.227,9.449,27.928,27.928,0,0,1,3.348,13.729A27.917,27.917,0,0,1,371.511,59.4a24.146,24.146,0,0,1-9.227,9.451,27.166,27.166,0,0,1-26.266,0m23.513-3.833a19.014,19.014,0,0,0,7.292-7.7A24.376,24.376,0,0,0,369.5,45.672a24.163,24.163,0,0,0-2.679-11.608,19.084,19.084,0,0,0-7.292-7.664,21.591,21.591,0,0,0-20.835,0,19.072,19.072,0,0,0-7.292,7.664,24.163,24.163,0,0,0-2.679,11.608A24.375,24.375,0,0,0,331.4,57.317a19,19,0,0,0,7.292,7.7,21.591,21.591,0,0,0,20.835,0" transform="translate(-108.8 -6.429)" fill="#919191"/>
    </g>
  </g>
  <path id="패스_1428" data-name="패스 1428" d="M513.218.21,492.932,25.447,472.645.21H450.459l31.38,39.035L450.459,78.28h22.186l20.286-25.237L513.218,78.28H535.4l-31.38-39.035L535.4.21Z" transform="translate(-151.561 -0.071)" fill="#dbfc00"/>
  <g id="그룹_2228" data-name="그룹 2228">
    <g id="그룹_2227" data-name="그룹 2227" clip-path="url(#clip-path)">
      <path id="패스_1429" data-name="패스 1429" d="M740.89,60.412h41.731V0h18.45V66.372a12.5,12.5,0,0,1-12.49,12.491H734.93a12.505,12.505,0,0,1-12.491-12.491V0H740.89Z" transform="translate(-243.071)" fill="#dbfc00"/>
      <path id="패스_1430" data-name="패스 1430" d="M577.8,30.821h31.839V.616h18.45V30.821h31.839v18.45H628.088V79.477h-18.45V49.271H577.8Z" transform="translate(-194.406 -0.207)" fill="#dbfc00"/>
    </g>
  </g>
</svg>
