<svg id="그룹_516" data-name="그룹 516" xmlns="http://www.w3.org/2000/svg" xmlns:xlink="http://www.w3.org/1999/xlink" width="359.001" height="51" viewBox="0 0 359.001 51">
  <defs>
    <clipPath id="clip-path">
      <rect id="사각형_618" data-name="사각형 618" width="359.001" height="51" fill="none"/>
    </clipPath>
  </defs>
  <g id="그룹_513" data-name="그룹 513">
    <g id="그룹_512" data-name="그룹 512" clip-path="url(#clip-path)">
      <path id="패스_979" data-name="패스 979" d="M5.482,52.14a9.505,9.505,0,0,1-3.95-3.208A8.418,8.418,0,0,1,0,44.337H3.543A6.729,6.729,0,0,0,5.7,48.622a7.769,7.769,0,0,0,5.6,1.843,7.864,7.864,0,0,0,5.386-1.747,5.642,5.642,0,0,0,1.987-4.429,5.229,5.229,0,0,0-1.1-3.47,6.746,6.746,0,0,0-2.728-1.963,42.438,42.438,0,0,0-4.5-1.412,39.262,39.262,0,0,1-5.314-1.771,8.445,8.445,0,0,1-3.351-2.681A7.932,7.932,0,0,1,.288,28.06a8.2,8.2,0,0,1,1.34-4.62A8.975,8.975,0,0,1,5.41,20.257a13.01,13.01,0,0,1,5.6-1.149A11.654,11.654,0,0,1,18.5,21.382a8.543,8.543,0,0,1,3.279,5.864H18.144a6.025,6.025,0,0,0-2.251-3.663,7.8,7.8,0,0,0-5.17-1.6,7.811,7.811,0,0,0-5.027,1.6,5.3,5.3,0,0,0-2.011,4.381,5.058,5.058,0,0,0,1.1,3.4A7.011,7.011,0,0,0,7.54,33.326a40.625,40.625,0,0,0,4.477,1.437,40.544,40.544,0,0,1,5.266,1.8,8.6,8.6,0,0,1,3.4,2.7,7.859,7.859,0,0,1,1.388,4.883A8.618,8.618,0,0,1,20.825,48.6,9.09,9.09,0,0,1,17.139,52,12.332,12.332,0,0,1,11.3,53.289,13.861,13.861,0,0,1,5.482,52.14" transform="translate(0 -10.951)" fill="#9e9e9e"/>
      <path id="패스_980" data-name="패스 980" d="M87.769,20v2.777H78.482V53.468H75.131V22.781H65.8V20Z" transform="translate(-37.707 -11.465)" fill="#9e9e9e"/>
      <path id="패스_981" data-name="패스 981" d="M137.3,20V41.069q0,4.979,2.37,7.373a8.713,8.713,0,0,0,6.486,2.393,8.6,8.6,0,0,0,6.44-2.369q2.321-2.369,2.322-7.4V20h3.351V41.021q0,6.368-3.376,9.575a13.634,13.634,0,0,1-17.569,0q-3.375-3.207-3.375-9.575V20Z" transform="translate(-76.763 -11.465)" fill="#9e9e9e"/>
      <path id="패스_982" data-name="패스 982" d="M232.408,22.015a14.044,14.044,0,0,1,6.08,5.793,18.227,18.227,0,0,1,2.106,9,17.983,17.983,0,0,1-2.106,8.928,13.933,13.933,0,0,1-6.08,5.745,21.1,21.1,0,0,1-9.527,1.987h-9.91V20h9.91a20.89,20.89,0,0,1,9.527,2.011m1.124,25.014q3.662-3.662,3.662-10.221,0-6.607-3.662-10.317t-10.652-3.71h-6.559v27.91h6.559q6.989,0,10.652-3.662" transform="translate(-122.053 -11.464)" fill="#9e9e9e"/>
      <rect id="사각형_617" data-name="사각형 617" width="3.351" height="33.463" transform="translate(126.666 8.54)" fill="#9e9e9e"/>
      <path id="패스_983" data-name="패스 983" d="M331.506,51.111a15.694,15.694,0,0,1-5.96-6.08,17.8,17.8,0,0,1-2.179-8.832,17.8,17.8,0,0,1,2.179-8.833,15.7,15.7,0,0,1,5.96-6.08,17.475,17.475,0,0,1,16.9,0,15.538,15.538,0,0,1,5.937,6.08A17.969,17.969,0,0,1,356.5,36.2a17.961,17.961,0,0,1-2.154,8.832,15.534,15.534,0,0,1-5.937,6.08,17.478,17.478,0,0,1-16.9,0m15.128-2.466a12.233,12.233,0,0,0,4.692-4.955A15.683,15.683,0,0,0,353.05,36.2a15.546,15.546,0,0,0-1.724-7.468,12.278,12.278,0,0,0-4.692-4.931,13.891,13.891,0,0,0-13.4,0,12.27,12.27,0,0,0-4.692,4.931,15.546,15.546,0,0,0-1.724,7.468,15.682,15.682,0,0,0,1.724,7.492,12.224,12.224,0,0,0,4.692,4.955,13.891,13.891,0,0,0,13.4,0" transform="translate(-185.321 -10.951)" fill="#9e9e9e"/>
    </g>
  </g>
  <path id="패스_984" data-name="패스 984" d="M490.836.21,477.784,16.446,464.733.21H450.459l20.189,25.114L450.459,50.438h14.274L477.784,34.2l13.052,16.237H505.11L484.921,25.324,505.11.21Z" transform="translate(-258.156 -0.12)" fill="#dbfc00"/>
  <g id="그룹_515" data-name="그룹 515">
    <g id="그룹_514" data-name="그룹 514" clip-path="url(#clip-path)">
      <path id="패스_985" data-name="패스 985" d="M734.31,38.867h26.848V0h11.87V42.7a8.045,8.045,0,0,1-8.036,8.036H730.475a8.046,8.046,0,0,1-8.036-8.036V0H734.31Z" transform="translate(-414.027)" fill="#dbfc00"/>
      <path id="패스_986" data-name="패스 986" d="M577.8,20.049h20.484V.616h11.87V20.049h20.485v11.87H610.154V51.353h-11.87V31.919H577.8Z" transform="translate(-331.135 -0.353)" fill="#dbfc00"/>
    </g>
  </g>
</svg>
