<svg xmlns="http://www.w3.org/2000/svg" xmlns:xlink="http://www.w3.org/1999/xlink" width="200" height="40" viewBox="0 0 200 40">
  <defs>
    <clipPath id="clip-path">
      <rect id="사각형_4802" data-name="사각형 4802" width="190" height="38.655" transform="translate(0 0)" fill="none"/>
    </clipPath>
  </defs>
  <g id="그룹_117075" data-name="그룹 117075" transform="translate(18451 1164)">
    <rect id="사각형_4805" data-name="사각형 4805" width="200" height="40" transform="translate(-18451 -1164)" fill="none"/>
    <g id="그룹_117075-2" data-name="그룹 117075" transform="translate(-18446 -1163)">
      <g id="그룹_117068" data-name="그룹 117068" transform="translate(0 0)" clip-path="url(#clip-path)">
        <path id="패스_1469" data-name="패스 1469" d="M459.279,38.984h-8.145V31.325H446.88v7.659h-8.145v4.06h8.145v7.662h4.254V43.044h8.145Zm16.678-7.659V46.646H466.15V31.325H461.9V47.863a2.843,2.843,0,0,0,2.843,2.843h12.629a2.843,2.843,0,0,0,2.843-2.843V31.325Zm-36.175,0h-5.069l-5.242,6.532-5.242-6.532H419.16l7.776,9.691-7.776,9.691h5.069l5.242-6.532,5.242,6.532h5.069l-7.776-9.691Z" transform="translate(-290.211 -21.688)" fill="#fff"/>
        <path id="패스_1470" data-name="패스 1470" d="M248.517,46a4.435,4.435,0,0,0,1.655,3.726,5.889,5.889,0,0,0,6.845,0A4.435,4.435,0,0,0,258.673,46V36.463a4.436,4.436,0,0,0-1.655-3.727,5.89,5.89,0,0,0-6.845,0,4.436,4.436,0,0,0-1.655,3.727Zm8.159.048a2.835,2.835,0,0,1-.95,2.262,3.55,3.55,0,0,1-4.263,0,2.835,2.835,0,0,1-.95-2.262V36.415a2.835,2.835,0,0,1,.95-2.262,3.55,3.55,0,0,1,4.263,0,2.835,2.835,0,0,1,.95,2.262Zm-11.319,4.581h-2v-18.8h2Zm-6.317-17.4a5.14,5.14,0,0,0-3.878-1.4h-4.71v18.8h4.71a5.139,5.139,0,0,0,3.878-1.4,4.536,4.536,0,0,0,1.161-3.261V36.5a4.537,4.537,0,0,0-1.161-3.261M238.206,45.9a2.867,2.867,0,0,1-.779,2.126,3.082,3.082,0,0,1-2.264.8H232.45V33.636h2.713a3.082,3.082,0,0,1,2.264.8,2.869,2.869,0,0,1,.779,2.126Zm-20.99-14.068V46a4.435,4.435,0,0,0,1.655,3.726,5.768,5.768,0,0,0,6.767,0A4.435,4.435,0,0,0,227.295,46V31.834h-2V46.052a2.834,2.834,0,0,1-.951,2.262,3.434,3.434,0,0,1-4.184,0,2.834,2.834,0,0,1-.951-2.262V31.834Zm-1.88,1.8H211.5v17h-2v-17h-3.837v-1.8h9.671Zm-10.95,12.633a4.206,4.206,0,0,1-1.488,3.44,5.289,5.289,0,0,1-3.374,1.119,5.815,5.815,0,0,1-3.681-1.064,4.086,4.086,0,0,1-1.594-3.6V44.6h1.993v1.279a2.873,2.873,0,0,0,.835,2.38,3.494,3.494,0,0,0,2.352.767A3.044,3.044,0,0,0,201.7,48.2a2.61,2.61,0,0,0,.689-1.8,2.923,2.923,0,0,0-.677-1.839,8.977,8.977,0,0,0-1.775-1.6l-2.592-2a9.115,9.115,0,0,1-2.454-2.615,4.394,4.394,0,0,1-.582-2.382,4.034,4.034,0,0,1,1.482-3.19,5.3,5.3,0,0,1,3.43-1.133,5.442,5.442,0,0,1,3.477,1.151,3.779,3.779,0,0,1,1.426,3.152v1.174h-1.993V36.43a2.67,2.67,0,0,0-.832-2.322,3.143,3.143,0,0,0-2.1-.665,2.975,2.975,0,0,0-2.12.72,2.5,2.5,0,0,0-.774,1.916,2.91,2.91,0,0,0,.7,1.795,9.088,9.088,0,0,0,1.776,1.652l2.661,2.056a8.713,8.713,0,0,1,2.319,2.32,4.188,4.188,0,0,1,.627,2.368" transform="translate(-134.491 -21.906)" fill="#fff"/>
        <path id="패스_1471" data-name="패스 1471" d="M19.947,38.547V24.819a.108.108,0,0,1,.108-.108h2.961a.108.108,0,0,1,.108.108V38.547a.108.108,0,0,1-.108.108H20.054a.108.108,0,0,1-.108-.108m.108-24.6h2.961a.108.108,0,0,0,.108-.108V.108A.108.108,0,0,0,23.015,0H20.054a.108.108,0,0,0-.108.108V13.836a.108.108,0,0,0,.108.108m-18.87,3.9v2.961a.108.108,0,0,0,.108.108H16.043a.107.107,0,0,0,.108-.108V17.847a.108.108,0,0,0-.108-.108H1.292a.108.108,0,0,0-.108.108m25.734,0v2.961a.108.108,0,0,0,.108.108H41.777a.107.107,0,0,0,.108-.108V17.847a.108.108,0,0,0-.108-.108H27.026a.108.108,0,0,0-.108.108M42.124,34.027l-6.59-9.866c-.175-.262-.888-.094-1.593.377s-1.134,1.065-.959,1.327l6.456,9.666H37.367c-.626,0-.843-.052-1.123-.311a8.9,8.9,0,0,1-1.054-1.426l-6.434-9.633c-.175-.262-.889-.094-1.593.377S26.029,25.6,26.2,25.866l5.949,8.906a10.324,10.324,0,0,0,2.51,2.992,4.413,4.413,0,0,0,2.89.783h2.52a3.592,3.592,0,0,0,2.1-.426,1.976,1.976,0,0,0,.9-1.714,4.049,4.049,0,0,0-.945-2.38M15.907,24.539c-.7-.471-1.418-.64-1.593-.377L7.88,33.795a8.886,8.886,0,0,1-1.053,1.426c-.281.26-.5.311-1.123.311H3.63l6.456-9.666c.175-.262-.254-.857-.959-1.327s-1.418-.64-1.593-.377L.945,34.027A4.05,4.05,0,0,0,0,36.408a1.976,1.976,0,0,0,.9,1.714,3.591,3.591,0,0,0,2.1.426h2.52a4.414,4.414,0,0,0,2.89-.783,10.324,10.324,0,0,0,2.51-2.992l5.949-8.906c.175-.262-.254-.857-.959-1.327m.959-11.75L10.917,3.882A10.324,10.324,0,0,0,8.407.891,4.414,4.414,0,0,0,5.517.108H3A3.591,3.591,0,0,0,.9.533,1.976,1.976,0,0,0,0,2.247a4.05,4.05,0,0,0,.945,2.38l6.59,9.866c.175.262.888.093,1.593-.377s1.134-1.065.959-1.327L3.63,3.123H5.7c.626,0,.843.051,1.123.311A8.909,8.909,0,0,1,7.88,4.86l6.434,9.633c.175.262.888.093,1.593-.377s1.134-1.065.959-1.327M42.17.533a3.592,3.592,0,0,0-2.1-.426h-2.52a4.413,4.413,0,0,0-2.89.783,10.324,10.324,0,0,0-2.51,2.992L26.2,12.788c-.175.262.254.856.959,1.327s1.418.64,1.593.377L35.19,4.86a8.923,8.923,0,0,1,1.054-1.427c.281-.26.5-.311,1.123-.311h2.073l-6.456,9.666c-.175.262.254.856.959,1.327s1.418.64,1.593.377l6.59-9.866a4.049,4.049,0,0,0,.945-2.38,1.976,1.976,0,0,0-.9-1.714" transform="translate(0 0)" fill="#c8f500"/>
      </g>
    </g>
  </g>
</svg>
