<svg xmlns="http://www.w3.org/2000/svg" xmlns:xlink="http://www.w3.org/1999/xlink" width="545.025" height="108.834" viewBox="0 0 545.025 108.834">
  <defs>
    <clipPath id="clip-path">
      <rect id="사각형_65" data-name="사각형 65" width="545.025" height="108.834" fill="#fff"/>
    </clipPath>
  </defs>
  <g id="그룹_51" data-name="그룹 51" transform="translate(0 0)">
    <g id="그룹_50" data-name="그룹 50" transform="translate(0 0)" clip-path="url(#clip-path)">
      <path id="패스_15" data-name="패스 15" d="M17.454,105.177A30.265,30.265,0,0,1,4.878,94.963,26.8,26.8,0,0,1,0,80.33H11.281A21.425,21.425,0,0,0,18.14,93.973q6.1,5.868,17.834,5.868,10.823,0,17.149-5.564a17.963,17.963,0,0,0,6.326-14.1q0-6.859-3.507-11.05a21.481,21.481,0,0,0-8.687-6.251,135.12,135.12,0,0,0-14.328-4.5,125.011,125.011,0,0,1-16.92-5.64A26.89,26.89,0,0,1,5.335,44.2Q.913,38.415.916,28.5a26.121,26.121,0,0,1,4.268-14.71A28.576,28.576,0,0,1,17.226,3.658,41.425,41.425,0,0,1,35.06,0Q49.844,0,58.914,7.241A27.2,27.2,0,0,1,69.356,25.913H57.772Q56.7,19.36,50.606,14.251T34.145,9.144q-9.6,0-16.005,5.107T11.737,28.2q0,6.71,3.507,10.824a22.325,22.325,0,0,0,8.763,6.249,129.352,129.352,0,0,0,14.253,4.574A129.092,129.092,0,0,1,55.027,55.56,27.372,27.372,0,0,1,65.85,64.171q4.418,5.8,4.42,15.549A27.439,27.439,0,0,1,66.308,93.9a28.943,28.943,0,0,1-11.737,10.823q-7.774,4.115-18.6,4.116a44.135,44.135,0,0,1-18.519-3.658" transform="translate(0 0)" fill="#fff"/>
      <path id="패스_16" data-name="패스 16" d="M135.761.9V9.737H106.19v97.707H95.52V9.737H65.8V.9Z" transform="translate(23.639 0.322)" fill="#fff"/>
      <path id="패스_17" data-name="패스 17" d="M144.614.9V67.965q0,15.855,7.545,23.475t20.653,7.621q13.11,0,20.5-7.545t7.392-23.551V.9h10.67V67.812q0,20.277-10.748,30.487t-27.97,10.212q-17.227,0-27.971-10.212T133.944,67.812V.9Z" transform="translate(48.123 0.322)" fill="#fff"/>
      <path id="패스_18" data-name="패스 18" d="M274.86,7.3a44.718,44.718,0,0,1,19.357,18.444q6.7,12.044,6.707,28.658,0,16.462-6.707,28.428a44.362,44.362,0,0,1-19.357,18.292q-12.656,6.327-30.335,6.326H212.971V.9h31.554q17.681,0,30.335,6.4m3.58,79.645Q290.1,75.283,290.1,54.4q0-21.037-11.66-32.848T244.525,9.738H223.641V98.6h20.884q22.255,0,33.915-11.66" transform="translate(76.515 0.322)" fill="#fff"/>
      <rect id="사각형_64" data-name="사각형 64" width="10.67" height="106.548" transform="translate(403.31 1.219)" fill="#fff"/>
      <path id="패스_19" data-name="패스 19" d="M349.281,101.9A49.97,49.97,0,0,1,330.3,82.539a56.665,56.665,0,0,1-6.936-28.122A56.689,56.689,0,0,1,330.3,26.294,49.981,49.981,0,0,1,349.281,6.936a55.642,55.642,0,0,1,53.807,0,49.473,49.473,0,0,1,18.9,19.357,57.213,57.213,0,0,1,6.857,28.123,57.19,57.19,0,0,1-6.857,28.122,49.462,49.462,0,0,1-18.9,19.36,55.651,55.651,0,0,1-53.807,0m48.167-7.851a38.95,38.95,0,0,0,14.938-15.777q5.487-10.288,5.489-23.854t-5.489-23.779a39.094,39.094,0,0,0-14.938-15.7,44.229,44.229,0,0,0-42.68,0,39.066,39.066,0,0,0-14.938,15.7q-5.487,10.213-5.489,23.779t5.489,23.854a38.923,38.923,0,0,0,14.938,15.777,44.229,44.229,0,0,0,42.68,0" transform="translate(116.178 0)" fill="#fff"/>
    </g>
  </g>
</svg>
