<svg id="그룹_120" data-name="그룹 120" xmlns="http://www.w3.org/2000/svg" xmlns:xlink="http://www.w3.org/1999/xlink" width="104.75" height="104.753" viewBox="0 0 104.75 104.753">
  <defs>
    <clipPath id="clip-path">
      <rect id="사각형_92" data-name="사각형 92" width="104.75" height="104.753" fill="#fff"/>
    </clipPath>
  </defs>
  <g id="그룹_111" data-name="그룹 111">
    <g id="그룹_110" data-name="그룹 110" clip-path="url(#clip-path)">
      <text id="_" data-name=" " transform="translate(36.647 97.673) rotate(-159.185)" fill="#fff" font-size="7" font-family="Poppins-Bold, Poppins" font-weight="700"><tspan x="0" y="0"> </tspan></text>
    </g>
  </g>
  <text id="_2" data-name=" " transform="matrix(-0.91, -0.414, 0.414, -0.91, 33.799, 96.579)" fill="#fff" font-size="7" font-family="Poppins-Bold, Poppins" font-weight="700"><tspan x="0" y="0"> </tspan></text>
  <text id="_3" data-name=" " transform="matrix(-0.882, -0.472, 0.472, -0.882, 31.008, 95.299)" fill="#fff" font-size="7" font-family="Poppins-Bold, Poppins" font-weight="700"><tspan x="0" y="0"> </tspan></text>
  <text id="S" transform="translate(31.472 88.94) rotate(-144.713)" fill="#fff" font-size="12" font-family="Poppins-Bold, Poppins" font-weight="700"><tspan x="0" y="0">S</tspan></text>
  <text id="T" transform="translate(25.107 84.447) rotate(-134.359)" fill="#fff" font-size="12" font-family="Poppins-Bold, Poppins" font-weight="700"><tspan x="0" y="0">T</tspan></text>
  <text id="U" transform="translate(18.977 79.723) rotate(-123.227)" fill="#fff" font-size="11" font-family="Poppins-Bold, Poppins" font-weight="700"><tspan x="0" y="0">U</tspan></text>
  <g id="그룹_113" data-name="그룹 113">
    <g id="그룹_112" data-name="그룹 112" clip-path="url(#clip-path)">
      <text id="D" transform="translate(13.951 72.102) rotate(-110.861)" fill="#fff" font-size="11" font-family="Poppins-Bold, Poppins" font-weight="700"><tspan x="0" y="0">D</tspan></text>
      <text id="I" transform="translate(10.789 63.207) rotate(-101.968)" fill="#fff" font-size="11" font-family="Poppins-Bold, Poppins" font-weight="700"><tspan x="0" y="0">I</tspan></text>
      <text id="O" transform="matrix(-0.046, -0.999, 0.999, -0.046, 10.739, 59.487)" fill="#fff" font-size="12" font-family="Poppins-Bold, Poppins" font-weight="700"><tspan x="0" y="0">O</tspan></text>
      <text id="_4" data-name=" " transform="matrix(0.102, -0.995, 0.995, 0.102, 4.565, 48.826)" fill="#fff" font-size="7" font-family="Poppins-Bold, Poppins" font-weight="700"><tspan x="0" y="0"> </tspan></text>
      <text id="U-2" data-name="U" transform="matrix(0.238, -0.971, 0.971, 0.238, 9.59, 46.6)" fill="#fff" font-size="11" font-family="Poppins-Bold, Poppins" font-weight="700"><tspan x="0" y="0">U</tspan></text>
      <text id="_5" data-name="+" transform="translate(12.711 38.162) rotate(-64.644)" fill="#fff" font-size="12" font-family="Poppins-Bold, Poppins" font-weight="700"><tspan x="0" y="0">+</tspan></text>
    </g>
  </g>
  <text id="X" transform="translate(15.237 30.347) rotate(-53.059)" fill="#fff" font-size="11" font-family="Poppins-Bold, Poppins" font-weight="700"><tspan x="0" y="0">X</tspan></text>
  <text id="_6" data-name=" " transform="translate(17.447 19.538) rotate(-45.107)" fill="#fff" font-size="7" font-family="Poppins-Bold, Poppins" font-weight="700"><tspan x="0" y="0"> </tspan></text>
  <text id="_7" data-name=" " transform="matrix(0.749, -0.662, 0.662, 0.749, 19.621, 17.37)" fill="#fff" font-size="7" font-family="Poppins-Bold, Poppins" font-weight="700"><tspan x="0" y="0"> </tspan></text>
  <text id="_8" data-name=" " transform="matrix(0.79, -0.613, 0.613, 0.79, 21.917, 15.354)" fill="#fff" font-size="7" font-family="Poppins-Bold, Poppins" font-weight="700"><tspan x="0" y="0"> </tspan></text>
  <text id="_9" data-name=" " transform="matrix(0.827, -0.562, 0.562, 0.827, 24.34, 13.484)" fill="#fff" font-size="7" font-family="Poppins-Bold, Poppins" font-weight="700"><tspan x="0" y="0"> </tspan></text>
  <text id="S-2" data-name="S" transform="translate(29.76 16.843) rotate(-27.032)" fill="#fff" font-size="12" font-family="Poppins-Bold, Poppins" font-weight="700"><tspan x="0" y="0">S</tspan></text>
  <g id="그룹_115" data-name="그룹 115">
    <g id="그룹_114" data-name="그룹 114" clip-path="url(#clip-path)">
      <text id="T-2" data-name="T" transform="translate(36.679 13.301) rotate(-16.591)" fill="#fff" font-size="12" font-family="Poppins-Bold, Poppins" font-weight="700"><tspan x="0" y="0">T</tspan></text>
      <text id="U-3" data-name="U" transform="translate(43.714 10.078) rotate(-5.368)" fill="#fff" font-size="11" font-family="Poppins-Bold, Poppins" font-weight="700"><tspan x="0" y="0">U</tspan></text>
      <text id="D-2" data-name="D" transform="matrix(0.993, 0.119, -0.119, 0.993, 52.81, 9.196)" fill="#fff" font-size="11" font-family="Poppins-Bold, Poppins" font-weight="700"><tspan x="0" y="0">D</tspan></text>
      <text id="I-2" data-name="I" transform="translate(62.168 10.534) rotate(15.721)" fill="#fff" font-size="11" font-family="Poppins-Bold, Poppins" font-weight="700"><tspan x="0" y="0">I</tspan></text>
      <text id="O-2" data-name="O" transform="translate(65.47 12.21) rotate(25.093)" fill="#fff" font-size="12" font-family="Poppins-Bold, Poppins" font-weight="700"><tspan x="0" y="0">O</tspan></text>
    </g>
  </g>
  <text id="_10" data-name=" " transform="matrix(0.832, 0.555, -0.555, 0.832, 77.777, 11.713)" fill="#fff" font-size="7" font-family="Poppins-Bold, Poppins" font-weight="700"><tspan x="0" y="0"> </tspan></text>
  <text id="U-4" data-name="U" transform="matrix(0.748, 0.664, -0.664, 0.748, 77.397, 17.197)" fill="#fff" font-size="11" font-family="Poppins-Bold, Poppins" font-weight="700"><tspan x="0" y="0">U</tspan></text>
  <text id="_11" data-name="+" transform="translate(83.417 23.908) rotate(53.037)" fill="#fff" font-size="12" font-family="Poppins-Bold, Poppins" font-weight="700"><tspan x="0" y="0">+</tspan></text>
  <g id="그룹_117" data-name="그룹 117">
    <g id="그룹_116" data-name="그룹 116" clip-path="url(#clip-path)">
      <text id="X-2" data-name="X" transform="translate(89.165 29.771) rotate(64.622)" fill="#fff" font-size="11" font-family="Poppins-Bold, Poppins" font-weight="700"><tspan x="0" y="0">X</tspan></text>
      <text id="_12" data-name=" " transform="matrix(0.298, 0.955, -0.955, 0.298, 97.713, 36.768)" fill="#fff" font-size="7" font-family="Poppins-Bold, Poppins" font-weight="700"><tspan x="0" y="0"> </tspan></text>
      <text id="_13" data-name=" " transform="matrix(0.236, 0.972, -0.972, 0.236, 98.61, 39.668)" fill="#fff" font-size="7" font-family="Poppins-Bold, Poppins" font-weight="700"><tspan x="0" y="0"> </tspan></text>
      <text id="_14" data-name=" " transform="translate(99.324 42.644) rotate(80.009)" fill="#fff" font-size="7" font-family="Poppins-Bold, Poppins" font-weight="700"><tspan x="0" y="0"> </tspan></text>
      <text id="_15" data-name=" " transform="translate(99.847 45.67) rotate(83.681)" fill="#fff" font-size="7" font-family="Poppins-Bold, Poppins" font-weight="700"><tspan x="0" y="0"> </tspan></text>
      <text id="S-3" data-name="S" transform="translate(94.355 48.892) rotate(90.93)" fill="#fff" font-size="12" font-family="Poppins-Bold, Poppins" font-weight="700"><tspan x="0" y="0">S</tspan></text>
      <text id="T-3" data-name="T" transform="translate(94.254 56.688) rotate(101.093)" fill="#fff" font-size="12" font-family="Poppins-Bold, Poppins" font-weight="700"><tspan x="0" y="0">T</tspan></text>
      <text id="U-5" data-name="U" transform="matrix(-0.38, 0.925, -0.925, -0.38, 93.84, 64.419)" fill="#fff" font-size="11" font-family="Poppins-Bold, Poppins" font-weight="700"><tspan x="0" y="0">U</tspan></text>
    </g>
  </g>
  <text id="D-3" data-name="D" transform="translate(90.384 72.886) rotate(124.73)" fill="#fff" font-size="11" font-family="Poppins-Bold, Poppins" font-weight="700"><tspan x="0" y="0">D</tspan></text>
  <text id="I-3" data-name="I" transform="matrix(-0.688, 0.725, -0.725, -0.688, 84.838, 80.515)" fill="#fff" font-size="11" font-family="Poppins-Bold, Poppins" font-weight="700"><tspan x="0" y="0">I</tspan></text>
  <text id="O-3" data-name="O" transform="matrix(-0.796, 0.605, -0.605, -0.796, 81.807, 82.662)" fill="#fff" font-size="12" font-family="Poppins-Bold, Poppins" font-weight="700"><tspan x="0" y="0">O</tspan></text>
  <text id="_16" data-name=" " transform="translate(76.534 93.788) rotate(151.358)" fill="#fff" font-size="7" font-family="Poppins-Bold, Poppins" font-weight="700"><tspan x="0" y="0"> </tspan></text>
  <g id="그룹_119" data-name="그룹 119">
    <g id="그룹_118" data-name="그룹 118" clip-path="url(#clip-path)">
      <text id="U-6" data-name="U" transform="translate(71.851 90.909) rotate(159.314)" fill="#fff" font-size="11" font-family="Poppins-Bold, Poppins" font-weight="700"><tspan x="0" y="0">U</tspan></text>
      <text id="_17" data-name="+" transform="translate(63.112 93.114) rotate(170.906)" fill="#fff" font-size="12" font-family="Poppins-Bold, Poppins" font-weight="700"><tspan x="0" y="0">+</tspan></text>
      <text id="X-3" data-name="X" transform="translate(55.258 95.449) rotate(-177.641)" fill="#fff" font-size="11" font-family="Poppins-Bold, Poppins" font-weight="700"><tspan x="0" y="0">X</tspan></text>
    </g>
  </g>
</svg>
