<svg xmlns="http://www.w3.org/2000/svg" xmlns:xlink="http://www.w3.org/1999/xlink" width="1920" height="970" viewBox="0 0 1920 970">
  <defs>
    <clipPath id="clip-path">
      <rect id="bg" width="1920" height="970" transform="translate(0 963.709)" fill="#191919"/>
    </clipPath>
  </defs>
  <g id="마스크_그룹_1" data-name="마스크 그룹 1" transform="translate(0 -963.709)" clip-path="url(#clip-path)">
    <g id="소개" transform="translate(-104.5 126)">
      <g id="그룹_168" data-name="그룹 168">
        <path id="패스_39" data-name="패스 39" d="M3.313,9.954,3.041,8.732l10.283-.378.018-1.907H3.779V5.3H14.651q0,4.922-.22,6.943l-1.257-.07q.026-.22.123-2.733Zm-2.18,4.482V13.268h6.68V10.622H9.105v2.646h7.761v1.169Zm2.593,6.574v-5.08h1.31v3.911h9.6v1.169Zm28.494-3.823V4.628h1.31v12.56Zm-3.041-.536V10.438H26.763V9.286H29.18V4.971h1.292V16.651ZM22.034,10.42V13.2q3.814,0,5.52-.185l.1,1.151q-2.4.185-6.917.185V5.762h6.39V6.913H22.034V9.269h3.577V10.42Zm.879,10.512V15.79h1.318v3.955h9.791v1.187ZM45.668,8.064a4.23,4.23,0,0,0,1.912,3.041,9.935,9.935,0,0,0,4.548,1.925l-.844,1.178A12.368,12.368,0,0,1,47.5,12.494a7.758,7.758,0,0,1-2.522-2.408A7.966,7.966,0,0,1,42.5,12.521,12.692,12.692,0,0,1,38.8,14.208l-.914-1.116a9.493,9.493,0,0,0,4.447-1.916,4.333,4.333,0,0,0,2-3.111H38.883V6.9H44.35V4.971h1.336V6.9h5.432V8.064Zm7.2,10.617H37.134V17.513H52.866ZM72.593,14.56V12.441h-3.56V11.255h3.56v-2.4H69.209V7.669h3.384V4.628h1.318V14.56ZM68.831,5.524a8.7,8.7,0,0,1-2.439,5.6,14.07,14.07,0,0,1-5.26,3.586l-.923-1.046a12.009,12.009,0,0,0,4.605-2.711A7.807,7.807,0,0,0,67.3,6.7H61.326V5.524Zm-.36,15.829a7.5,7.5,0,0,1-4.109-.949,2.811,2.811,0,0,1-1.455-2.417,2.771,2.771,0,0,1,1.455-2.4,7.612,7.612,0,0,1,4.109-.932,7.656,7.656,0,0,1,4.122.932,2.77,2.77,0,0,1,1.459,2.4A2.811,2.811,0,0,1,72.6,20.4,7.538,7.538,0,0,1,68.471,21.354Zm0-5.563a6.275,6.275,0,0,0-3.081.624A1.817,1.817,0,0,0,64.3,17.987a1.85,1.85,0,0,0,1.081,1.6,6.153,6.153,0,0,0,3.094.637,6.193,6.193,0,0,0,3.089-.633,1.846,1.846,0,0,0,1.085-1.6,1.813,1.813,0,0,0-1.1-1.578A6.317,6.317,0,0,0,68.471,15.79Zm9.6-7.9V6.737h4.315V4.54h1.3v2.2H88V7.889Zm12.524,6.855V11.413h-2.9V10.262h2.9V4.628h1.318V14.744Zm-7.576-.255a4.812,4.812,0,0,1-2.984-.839,2.566,2.566,0,0,1-.009-4.21,5.839,5.839,0,0,1,6,0,2.566,2.566,0,0,1-.009,4.21A4.844,4.844,0,0,1,83.017,14.489Zm.018-4.764a3.616,3.616,0,0,0-2.043.5,1.519,1.519,0,0,0-.743,1.31A1.549,1.549,0,0,0,81,12.859a3.548,3.548,0,0,0,2.039.514,3.5,3.5,0,0,0,2.03-.514,1.553,1.553,0,0,0,.738-1.323,1.526,1.526,0,0,0-.734-1.305A3.548,3.548,0,0,0,83.034,9.726ZM81.4,21.274v-5.6H91.911v5.6Zm9.211-4.438H82.692v3.27h7.919Zm18.883-1.872a3.814,3.814,0,0,1-3.621,2.32,3.713,3.713,0,0,1-3.1-1.547,6.807,6.807,0,0,1-1.178-4.219,6.832,6.832,0,0,1,1.165-4.228,3.718,3.718,0,0,1,3.116-1.529,3.8,3.8,0,0,1,3.621,2.3h3.621V4.628h1.31V21.582h-1.31V14.964Zm-3.621-8.033A2.514,2.514,0,0,0,103.7,8.179a5.947,5.947,0,0,0-.831,3.34,5.925,5.925,0,0,0,.839,3.34,2.488,2.488,0,0,0,4.329-.009,5.909,5.909,0,0,0,.844-3.331,5.963,5.963,0,0,0-.826-3.349A2.515,2.515,0,0,0,105.873,6.931Zm4.034,6.873h3.208V9.233h-3.208a8.6,8.6,0,0,1,.272,2.285A8.482,8.482,0,0,1,109.907,13.8Zm21.366.615V9.611h-3.955V8.442h3.955V4.628h1.318v9.791Zm-3.639-.967a10.677,10.677,0,0,1-2.312-1.749A7.624,7.624,0,0,1,123.7,9.594a8.978,8.978,0,0,1-1.67,2.369,9.891,9.891,0,0,1-2.364,1.92l-.932-.905a8.13,8.13,0,0,0,3.05-2.522,5.726,5.726,0,0,0,1.23-3.472V6.553h-3.727V5.384h8.728V6.553h-3.727v.431a5.072,5.072,0,0,0,1.274,3.252,7.584,7.584,0,0,0,2.962,2.259Zm-.246,7.884a7.653,7.653,0,0,1-4.1-.918,2.672,2.672,0,0,1,0-4.746,9.715,9.715,0,0,1,8.209,0,2.672,2.672,0,0,1,0,4.746A7.653,7.653,0,0,1,127.388,21.336Zm0-5.458a6.269,6.269,0,0,0-3.076.611,1.665,1.665,0,0,0,0,3.107,8.1,8.1,0,0,0,6.139,0,1.67,1.67,0,0,0,.009-3.116A6.307,6.307,0,0,0,127.388,15.878Zm22.263,5.7V4.628h1.318V21.582Zm-5.071-9.519a7.135,7.135,0,0,1-1.055,3.863,3.275,3.275,0,0,1-5.4-.132,7.894,7.894,0,0,1-.962-4.276,7.813,7.813,0,0,1,.971-4.271,3.278,3.278,0,0,1,5.379-.158,6.941,6.941,0,0,1,1.05,3.806h2.048V4.971h1.318V21.063H146.61v-9Zm-3.709-5.115a1.963,1.963,0,0,0-1.811,1.169,7.391,7.391,0,0,0-.624,3.4,7.419,7.419,0,0,0,.624,3.406,1.975,1.975,0,0,0,3.612,0,7.424,7.424,0,0,0,.624-3.4,7.4,7.4,0,0,0-.624-3.4A1.956,1.956,0,0,0,140.871,6.948Zm26.4,14.634V11.36h-3.955V10.191h3.955V4.628h1.318V21.582Zm-3.3-4.3a14.136,14.136,0,0,1-2.667-2.738,9.1,9.1,0,0,1-1.578-2.843,10.308,10.308,0,0,1-1.608,3.032A13.45,13.45,0,0,1,155.5,17.5l-1.011-.879a10.537,10.537,0,0,0,3.331-3.59,8.924,8.924,0,0,0,1.239-4.452V5.8h1.3V8.513a8.429,8.429,0,0,0,1.226,4.3,10.137,10.137,0,0,0,3.309,3.445Zm21.48,4.3V4.628h1.31V21.582Zm-7.207-7.576a4.621,4.621,0,0,1-3.19-1.151,3.719,3.719,0,0,1-1.292-2.9,3.719,3.719,0,0,1,1.283-2.874,4.971,4.971,0,0,1,6.394.009,3.722,3.722,0,0,1,1.288,2.865,3.727,3.727,0,0,1-1.283,2.9A4.623,4.623,0,0,1,178.251,14.006Zm0-6.926a3.209,3.209,0,0,0-2.232.809,2.658,2.658,0,0,0-.9,2.065,2.635,2.635,0,0,0,.918,2.079,3.47,3.47,0,0,0,4.443,0,2.652,2.652,0,0,0,.905-2.079,2.65,2.65,0,0,0-.9-2.074A3.242,3.242,0,0,0,178.251,7.08Zm-5.6,11.426-.123-1.134q2.268,0,6.333-.088t5.4-.2l.079,1.134q-1.38.114-5.445.2T172.652,18.506ZM209.465,4.628V21.582h-1.31V4.628Zm-7.611,3.419a3.88,3.88,0,0,0,1.538,2.676,6.261,6.261,0,0,0,3.12,1.586l-.9,1.063a9.414,9.414,0,0,1-2.694-1.481,5.8,5.8,0,0,1-1.736-1.868,6.783,6.783,0,0,1-1.736,2.035,9.345,9.345,0,0,1-2.676,1.674l-.949-.967a7.575,7.575,0,0,0,3.186-1.876,4.246,4.246,0,0,0,1.525-2.843H196.4V6.878h4.14V4.9h1.336V6.878h4V8.047Zm5.291,10.1q-5.01.29-11.7.29l-.132-1.169q2.795,0,5.221-.053V13.373h1.318v3.814q4.017-.1,5.221-.176Zm19.31-7.682V14.4h-1.31V4.628h1.31V9.269h2.558v1.2Zm-4.28,3.023a10.973,10.973,0,0,1-2.32-1.74,7.568,7.568,0,0,1-1.661-2.1,8.221,8.221,0,0,1-1.626,2.333,10.138,10.138,0,0,1-2.417,1.938l-.958-.905a8.393,8.393,0,0,0,3.1-2.566,5.714,5.714,0,0,0,1.239-3.463V5.208h1.257V6.983a5.122,5.122,0,0,0,1.252,3.252,7.636,7.636,0,0,0,2.993,2.294Zm-.958,7.954a7.585,7.585,0,0,1-4.083-.918,2.672,2.672,0,0,1,0-4.742,9.595,9.595,0,0,1,8.165,0,2.68,2.68,0,0,1,0,4.75A7.635,7.635,0,0,1,221.216,21.441Zm0-5.458a6.354,6.354,0,0,0-3.045.6,1.687,1.687,0,0,0,0,3.146,8.075,8.075,0,0,0,6.108,0,1.679,1.679,0,0,0,0-3.138A6.386,6.386,0,0,0,221.216,15.983Zm22.922,5.6V4.628h1.31V21.582Zm-7.207-7.576a4.621,4.621,0,0,1-3.19-1.151,3.719,3.719,0,0,1-1.292-2.9,3.719,3.719,0,0,1,1.283-2.874,4.971,4.971,0,0,1,6.394.009,3.722,3.722,0,0,1,1.288,2.865,3.727,3.727,0,0,1-1.283,2.9A4.623,4.623,0,0,1,236.931,14.006Zm0-6.926a3.209,3.209,0,0,0-2.232.809,2.658,2.658,0,0,0-.9,2.065,2.635,2.635,0,0,0,.918,2.079,3.47,3.47,0,0,0,4.443,0,2.652,2.652,0,0,0,.905-2.079,2.65,2.65,0,0,0-.9-2.074A3.242,3.242,0,0,0,236.931,7.08Zm-5.6,11.426-.123-1.134q2.268,0,6.333-.088t5.4-.2l.079,1.134q-1.38.114-5.445.2T231.332,18.506Zm35.336-3.164-1.274-.114a47.64,47.64,0,0,0,.308-5.168V7.414h-9.562V6.228h10.872v3.858A41.558,41.558,0,0,1,266.668,15.342Zm-12.814,3.217V17.372H260.1V11.844h1.31v5.528h8.174v1.187Zm31.087-4.28V10.332h-1.978v3.946h-1.3V4.971h1.3V9.146h1.978V4.628h1.31v9.65Zm-5.15-8.771q-.149,5.625-6.583,8.93l-.958-1.011a11.87,11.87,0,0,0,4.245-2.9,7.059,7.059,0,0,0,1.872-3.854h-5.361V5.507Zm5.15,16.075V16.4h-9.773V15.21H286.25v6.372Zm22.873-10.494v5.941H306.5V4.628h1.31V9.9h2.558v1.187Zm-12.27,2.61V5.656h7.734V13.7Zm6.442-6.873h-5.15v5.7h5.15ZM297.5,20.932V15.553h1.31v4.192h9.475v1.187Zm29.25-10.09A12.369,12.369,0,0,1,322.9,9.594a6.615,6.615,0,0,1-2.5-1.978,6.259,6.259,0,0,1-2.382,1.929,11.3,11.3,0,0,1-3.885,1.279l-.773-1.046a10.123,10.123,0,0,0,4.162-1.222A4.244,4.244,0,0,0,319.7,6.324h-5.414v-1.2h12.234v1.2h-5.4a4.341,4.341,0,0,0,2.215,2.259,9.776,9.776,0,0,0,4.1,1.213ZM312.534,13.9V12.714h7.2V10.227h1.336v2.487h7.2V13.9Zm11.83,7.682V16.889h-9.6V15.72h10.907v5.862Zm6.17-2.628V17.785h7.2v-3.92H333.2V6.228H343.6V7.4h-9.088v5.291h9.36v1.178h-4.808v3.92h7.2v1.169Zm31.553-7.8h-11V7.493h9.325V6.034h-9.325V4.918h10.617V8.513h-9.325v1.529h9.7Zm2.18,2.54H348.534V12.582h15.732Zm-2.145,7.708H351.039V17.7h9.413V16.238h-9.413V15.122h10.705v3.621h-9.413V20.29h9.791Zm22.372-10.318v5.941h-1.31V4.628h1.31V9.9h2.558v1.187Zm-12.27,2.61V5.656h7.734V13.7Zm6.442-6.873h-5.15v5.7h5.15Zm-4.482,14.106V15.553h1.31v4.192h9.475v1.187ZM391.859,10.4v-5.4H402.3V6.157H393.16V9.251h9.316V10.4Zm-2.646,3.05V12.274h15.732v1.178Zm2.593,7.664V14.885H393.1v2.074h7.963V14.885h1.292v6.231Zm9.255-2.988H393.1v1.837h7.963Zm18.932,3.454V4.628h1.318V21.582ZM418.7,16.221q-1.371.4-9.65.4V6.069h1.31v9.378h1.16a43.906,43.906,0,0,0,7.014-.36Zm19.705-3.727v9.088H437.1V4.628h1.31v6.68h2.988v1.187Zm-2.936,4.034q-1.441.176-2.944.211t-6.091.035V6.122h7.919V7.291h-6.6v8.314a73.193,73.193,0,0,0,7.611-.211Zm8.787,3.6a1.314,1.314,0,1,1,0-2.628,1.25,1.25,0,0,1,.918.378,1.348,1.348,0,0,1,0,1.872A1.25,1.25,0,0,1,444.258,20.126Z" transform="translate(1066.5 1650.209)" fill="#fff"/>
        <text id="Ultimate" transform="translate(1066.5 1627.209)" fill="#dbfc00" font-size="36" font-family="Poppins-SemiBold, Poppins" font-weight="600"><tspan x="0" y="0">U</tspan><tspan y="0" fill="#fff">ltimate</tspan></text>
      </g>
    </g>
    <g id="그룹_167" data-name="그룹 167" transform="translate(515.5 -252.541)">
      <path id="패스_38" data-name="패스 38" d="M3.313,9.954,3.041,8.732l10.283-.378.018-1.907H3.779V5.3H14.651q0,4.922-.22,6.943l-1.257-.07q.026-.22.123-2.733Zm-2.18,4.482V13.268h6.68V10.622H9.105v2.646h7.761v1.169Zm2.593,6.574v-5.08h1.31v3.911h9.6v1.169Zm28.494-3.823V4.628h1.31v12.56Zm-3.041-.536V10.438H26.763V9.286H29.18V4.971h1.292V16.651ZM22.034,10.42V13.2q3.814,0,5.52-.185l.1,1.151q-2.4.185-6.917.185V5.762h6.39V6.913H22.034V9.269h3.577V10.42Zm.879,10.512V15.79h1.318v3.955h9.791v1.187ZM45.668,8.064a4.23,4.23,0,0,0,1.912,3.041,9.935,9.935,0,0,0,4.548,1.925l-.844,1.178A12.368,12.368,0,0,1,47.5,12.494a7.758,7.758,0,0,1-2.522-2.408A7.966,7.966,0,0,1,42.5,12.521,12.692,12.692,0,0,1,38.8,14.208l-.914-1.116a9.493,9.493,0,0,0,4.447-1.916,4.333,4.333,0,0,0,2-3.111H38.883V6.9H44.35V4.971h1.336V6.9h5.432V8.064Zm7.2,10.617H37.134V17.513H52.866Zm20.14-5.994v8.895H71.7V4.628h1.31v6.891h2.936v1.169Zm-3.8,4.6a13.935,13.935,0,0,1-2.654-2.729A9.709,9.709,0,0,1,64.964,11.7a10.361,10.361,0,0,1-1.582,3A13.561,13.561,0,0,1,60.754,17.5l-1.011-.879a10.6,10.6,0,0,0,3.313-3.59A8.924,8.924,0,0,0,64.3,8.574V5.8h1.31V8.513a8.412,8.412,0,0,0,1.226,4.307,10.193,10.193,0,0,0,3.3,3.437ZM87.728,9.471A3.818,3.818,0,0,1,86.3,12.006a4.466,4.466,0,0,1-2.874.954,4.234,4.234,0,0,1-3.076-1.169,3.88,3.88,0,0,1-1.2-2.9A3.887,3.887,0,0,1,80.345,6,4.217,4.217,0,0,1,83.43,4.83a4.452,4.452,0,0,1,2.865.954A3.772,3.772,0,0,1,87.71,8.3h2.918V4.646h1.318v8.517H90.628V9.471Zm-4.3-3.507a2.927,2.927,0,0,0-2.158.826,2.838,2.838,0,0,0-.831,2.1,2.887,2.887,0,0,0,.822,2.127,3.277,3.277,0,0,0,4.351,0,2.887,2.887,0,0,0,.822-2.127,2.838,2.838,0,0,0-.831-2.1A2.95,2.95,0,0,0,83.43,5.964ZM81.488,21.187V14.094H82.78v2.575h7.866V14.094h1.3v7.093Zm9.158-3.366H82.78v2.2h7.866Zm18.132,3.762V4.628h1.31V21.582Zm-7.207-7.576a4.621,4.621,0,0,1-3.19-1.151,3.719,3.719,0,0,1-1.292-2.9A3.719,3.719,0,0,1,98.371,7.08a4.971,4.971,0,0,1,6.394.009,3.722,3.722,0,0,1,1.288,2.865,3.727,3.727,0,0,1-1.283,2.9A4.623,4.623,0,0,1,101.571,14.006Zm0-6.926a3.209,3.209,0,0,0-2.232.809,2.658,2.658,0,0,0-.9,2.065,2.635,2.635,0,0,0,.918,2.079,3.47,3.47,0,0,0,4.443,0,2.652,2.652,0,0,0,.905-2.079,2.65,2.65,0,0,0-.9-2.074A3.242,3.242,0,0,0,101.571,7.08Zm-5.6,11.426-.123-1.134q2.268,0,6.333-.088t5.4-.2l.079,1.134q-1.38.114-5.445.2T95.972,18.506ZM129.492,7.49,124.794,20h-2.376L117.7,7.49h2.2l3.708,10.4,3.726-10.4ZM130.518,15a5.489,5.489,0,0,1,.621-2.646A4.524,4.524,0,0,1,135.2,9.92a4.33,4.33,0,0,1,2.043.459,4.146,4.146,0,0,1,1.395,1.143v-1.44h2.07V20h-2.07V18.524a4.075,4.075,0,0,1-1.422,1.17,4.6,4.6,0,0,1-4.392-.189,4.659,4.659,0,0,1-1.683-1.836A5.648,5.648,0,0,1,130.518,15Zm8.118.036a3.591,3.591,0,0,0-.423-1.782,2.969,2.969,0,0,0-1.107-1.152,2.9,2.9,0,0,0-1.476-.4,2.948,2.948,0,0,0-1.476.387,2.918,2.918,0,0,0-1.107,1.134A3.54,3.54,0,0,0,132.624,15a3.7,3.7,0,0,0,.423,1.8,2.984,2.984,0,0,0,1.116,1.179,2.862,2.862,0,0,0,1.467.4,2.9,2.9,0,0,0,1.476-.4,2.954,2.954,0,0,0,1.107-1.161A3.643,3.643,0,0,0,138.636,15.032Zm6.822-8.352V20h-2.052V6.68Zm11.682,3.4V20h-2.052V18.83a3.321,3.321,0,0,1-1.269.963,4.024,4.024,0,0,1-1.665.351,4.448,4.448,0,0,1-2.1-.486,3.511,3.511,0,0,1-1.458-1.44,4.671,4.671,0,0,1-.531-2.3V10.082H150.1v5.526a2.879,2.879,0,0,0,.666,2.043,2.37,2.37,0,0,0,1.818.711,2.4,2.4,0,0,0,1.827-.711,2.854,2.854,0,0,0,.675-2.043V10.082ZM168.93,14.8a6.415,6.415,0,0,1-.072,1.008H161.28a2.752,2.752,0,0,0,.882,1.908,2.784,2.784,0,0,0,1.944.72,2.4,2.4,0,0,0,2.34-1.386h2.214a4.468,4.468,0,0,1-1.629,2.241,4.78,4.78,0,0,1-2.925.873,5.065,5.065,0,0,1-2.547-.639,4.546,4.546,0,0,1-1.764-1.8,5.491,5.491,0,0,1-.639-2.691,5.62,5.62,0,0,1,.621-2.691,4.367,4.367,0,0,1,1.746-1.791,5.2,5.2,0,0,1,2.583-.63,5.051,5.051,0,0,1,2.5.612,4.324,4.324,0,0,1,1.71,1.719A5.177,5.177,0,0,1,168.93,14.8Zm-2.142-.648a2.335,2.335,0,0,0-.81-1.818,2.9,2.9,0,0,0-1.962-.684,2.635,2.635,0,0,0-1.818.675,2.821,2.821,0,0,0-.9,1.827Zm16.452-1.53v1.728h-7.4V12.62Zm6.912,1.1a6.389,6.389,0,0,1,.855-3.294,6.088,6.088,0,0,1,2.322-2.277,6.826,6.826,0,0,1,6.768.162,5.586,5.586,0,0,1,2.259,2.781H199.89a3.306,3.306,0,0,0-1.35-1.476,4.006,4.006,0,0,0-2-.486,4.367,4.367,0,0,0-2.214.558,3.884,3.884,0,0,0-1.521,1.6,5.147,5.147,0,0,0-.549,2.43,5.147,5.147,0,0,0,.549,2.43,3.944,3.944,0,0,0,1.521,1.611,4.312,4.312,0,0,0,2.214.567,4.006,4.006,0,0,0,2-.486,3.306,3.306,0,0,0,1.35-1.476h2.466a5.539,5.539,0,0,1-2.259,2.772,6.573,6.573,0,0,1-3.555.972,6.465,6.465,0,0,1-3.222-.819,6.106,6.106,0,0,1-2.313-2.277A6.389,6.389,0,0,1,190.152,13.718Zm19.728-3.8a4.16,4.16,0,0,1,2.025.486,3.459,3.459,0,0,1,1.4,1.44,4.805,4.805,0,0,1,.513,2.3V20h-2.034V14.456a2.879,2.879,0,0,0-.666-2.043A2.37,2.37,0,0,0,209.3,11.7a2.4,2.4,0,0,0-1.827.711,2.854,2.854,0,0,0-.675,2.043V20H204.75V6.68H206.8v4.554a3.441,3.441,0,0,1,1.323-.972A4.423,4.423,0,0,1,209.88,9.92ZM215.748,15a5.489,5.489,0,0,1,.621-2.646,4.524,4.524,0,0,1,4.059-2.43,4.33,4.33,0,0,1,2.043.459,4.146,4.146,0,0,1,1.395,1.143v-1.44h2.07V20h-2.07V18.524a4.075,4.075,0,0,1-1.422,1.17,4.6,4.6,0,0,1-4.392-.189,4.659,4.659,0,0,1-1.683-1.836A5.648,5.648,0,0,1,215.748,15Zm8.118.036a3.591,3.591,0,0,0-.423-1.782,2.969,2.969,0,0,0-1.107-1.152,2.9,2.9,0,0,0-1.476-.4,2.948,2.948,0,0,0-1.476.387,2.918,2.918,0,0,0-1.107,1.134A3.54,3.54,0,0,0,217.854,15a3.7,3.7,0,0,0,.423,1.8,2.984,2.984,0,0,0,1.116,1.179,2.862,2.862,0,0,0,1.467.4,2.9,2.9,0,0,0,1.476-.4,2.954,2.954,0,0,0,1.107-1.161A3.643,3.643,0,0,0,223.866,15.032Zm5.814-6.264a1.324,1.324,0,0,1-.936-2.25,1.271,1.271,0,0,1,.936-.378,1.25,1.25,0,0,1,.918.378,1.348,1.348,0,0,1,0,1.872A1.25,1.25,0,0,1,229.68,8.768Zm1.008,1.314V20h-2.052V10.082Zm7.7-.162a4.448,4.448,0,0,1,2.1.486,3.456,3.456,0,0,1,1.449,1.44,4.737,4.737,0,0,1,.522,2.3V20h-2.034V14.456a2.879,2.879,0,0,0-.666-2.043,2.37,2.37,0,0,0-1.818-.711,2.4,2.4,0,0,0-1.827.711,2.854,2.854,0,0,0-.675,2.043V20h-2.052V10.082h2.052v1.134a3.4,3.4,0,0,1,1.287-.954A4.114,4.114,0,0,1,238.392,9.92Zm14.328.755a8.138,8.138,0,0,1-4.025-.813,2.446,2.446,0,0,1-1.406-2.175A2.449,2.449,0,0,1,248.7,5.516,8.105,8.105,0,0,1,252.72,4.7a8.2,8.2,0,0,1,4.034.8,2.4,2.4,0,0,1,0,4.364A8.171,8.171,0,0,1,252.72,10.675Zm0-4.931a6.8,6.8,0,0,0-3.015.536,1.6,1.6,0,0,0-1.055,1.406,1.607,1.607,0,0,0,1.063,1.424,6.812,6.812,0,0,0,3.006.536,6.726,6.726,0,0,0,3-.545,1.616,1.616,0,0,0,1.072-1.415,1.607,1.607,0,0,0-1.068-1.4A6.721,6.721,0,0,0,252.72,5.744ZM244.854,13.2V12.116h15.732V13.2Zm2.54,8.209V17.53h9.343V15.878h-9.343v-1.1h10.635v3.779h-9.343v1.749h9.791v1.1ZM268.114,7.4V6.245h4.351V4.487h1.3V6.245H278.1V7.4Zm12.955,4.43v4.052h-1.292V4.628h1.292v6.029h2.54v1.169ZM278.713,15.3q-4.131.272-11.074.272l-.123-1.134q2.663,0,4.931-.053V13.03a4.966,4.966,0,0,1-2.637-.8,2.059,2.059,0,0,1-.905-1.714,2.108,2.108,0,0,1,1.116-1.868,5.876,5.876,0,0,1,3.094-.69,5.708,5.708,0,0,1,3.059.712,2.12,2.12,0,0,1,1.134,1.846,2.058,2.058,0,0,1-.932,1.731,4.954,4.954,0,0,1-2.628.782v1.336q2.988-.035,4.9-.158Zm-5.6-6.258a4.651,4.651,0,0,0-2.18.4,1.139,1.139,0,0,0,.035,2.145,5.9,5.9,0,0,0,4.28,0,1.146,1.146,0,0,0,.035-2.149A4.6,4.6,0,0,0,273.115,9.04Zm6.662,12.542V17.891h-9.633V16.739h10.925v4.843Zm19.037-11.118V14.4H297.5V4.628h1.31V9.269h2.558v1.2Zm-4.28,3.023a10.715,10.715,0,0,1-2.32-1.758,7.779,7.779,0,0,1-1.661-2.118,8.724,8.724,0,0,1-1.652,2.364,9.986,9.986,0,0,1-2.391,1.942l-.958-.905a8.393,8.393,0,0,0,3.1-2.566,5.714,5.714,0,0,0,1.239-3.463V6.553h-3.744V5.384h8.745V6.553H291.15v.431a5.122,5.122,0,0,0,1.252,3.252,7.636,7.636,0,0,0,2.993,2.294Zm-.958,7.954a7.585,7.585,0,0,1-4.083-.918,2.672,2.672,0,0,1,0-4.742,9.595,9.595,0,0,1,8.165,0,2.68,2.68,0,0,1,0,4.75A7.635,7.635,0,0,1,293.576,21.441Zm0-5.458a6.354,6.354,0,0,0-3.045.6,1.687,1.687,0,0,0,0,3.146,8.075,8.075,0,0,0,6.108,0,1.679,1.679,0,0,0,0-3.138A6.386,6.386,0,0,0,293.576,15.983Zm23.221,5.6V13.61h-2.013v7.436h-1.292V4.953h1.292v7.488H316.8V4.628h1.318V21.582ZM303.569,8.838V7.669h3.762V5.041h1.318V7.669h3.762V8.838Zm4.465,8.64a3.726,3.726,0,0,1-2.689-1.05,3.556,3.556,0,0,1-1.09-2.676,3.571,3.571,0,0,1,1.085-2.667,3.951,3.951,0,0,1,5.375-.009,3.571,3.571,0,0,1,1.081,2.676,3.556,3.556,0,0,1-1.085,2.685A3.717,3.717,0,0,1,308.034,17.478Zm0-6.3a2.411,2.411,0,0,0-1.824.729,2.561,2.561,0,0,0-.7,1.846,2.544,2.544,0,0,0,.7,1.854,2.652,2.652,0,0,0,3.63,0,2.523,2.523,0,0,0,.712-1.859,2.539,2.539,0,0,0-.708-1.85A2.426,2.426,0,0,0,308.034,11.176Zm31.372,1.512v8.895H338.1V4.628h1.31v6.891h2.936v1.169Zm-2.733,3.445a12.118,12.118,0,0,1-2.312.268q-1.45.057-6.908.057V6.034h1.318V15.28l3.217.018q1.714,0,2.813-.075a14.7,14.7,0,0,0,1.688-.189Zm20.8-6.214v3.4h-1.31V4.628h1.31V8.75h2.742V9.919Zm-4.588-4.57q-.369,5.783-7.594,8.622l-.923-1.046a11.964,11.964,0,0,0,4.957-2.817,6.9,6.9,0,0,0,2.083-3.59h-5.994V5.349ZM347.2,21.169V14.261h1.292v2.461h7.69V14.261h1.292v6.908Zm8.982-3.278h-7.69v2.127h7.69Zm18.809,3.691V4.628h1.318V21.582ZM373.7,16.221q-1.371.4-9.65.4V6.069h1.31v9.378h1.16a43.906,43.906,0,0,0,7.014-.36Zm19.705-3.727v9.088H392.1V4.628h1.31v6.68h2.988v1.187Zm-2.936,4.034q-1.441.176-2.944.211t-6.091.035V6.122h7.919V7.291h-6.6v8.314a73.193,73.193,0,0,0,7.611-.211Zm8.787,3.6a1.314,1.314,0,1,1,0-2.628,1.25,1.25,0,0,1,.918.378,1.348,1.348,0,0,1,0,1.872A1.25,1.25,0,0,1,399.258,20.126Z" transform="translate(444.5 1761.396)" fill="#fff"/>
      <text id="eXpand" transform="translate(444.5 1738.396)" fill="#fff" font-size="36" font-family="Poppins-SemiBold, Poppins" font-weight="600"><tspan x="0" y="0">e</tspan><tspan y="0" fill="#dbfc00">X</tspan><tspan y="0">pand</tspan></text>
    </g>
    <g id="그룹_169" data-name="그룹 169" transform="translate(-75 -173.791)">
      <path id="패스_40" data-name="패스 40" d="M2.47,12.617V5.261H10.2V8.442h3.533V4.628h1.31V13.25h-1.31V9.629H10.2v2.988Zm6.442-6.17H3.762v5h5.15ZM4.605,21.187V17.064h9.149V15.359H4.605V14.182H15.047v4.034H5.924v1.8h9.589v1.169Zm27.308.4V4.628h1.318V21.582Zm-9.738-9.5v4.175h2.03a50.7,50.7,0,0,0,5.625-.22l.088,1.134q-1.345.158-2.9.2t-6.152.04V6.069h8.112V7.256h-6.8v3.691h6.082v1.134ZM43.739,6.14V5.006H55.621V6.14Zm-.211,4.395V9.4h2.531L45.9,6.755h1.292L47.377,9.4h4.605l.185-2.646h1.292L53.3,9.4h2.531v1.134Zm-1.714,2.681V12.046H57.546v1.169Zm2.593,7.954V17.337h9.255V15.843H44.407V14.691H54.953v3.779H45.7V20h9.7v1.169ZM72.9,15.623V10.64H70.923v3.92H69.64V4.971h1.283v4.5H72.9V4.628h1.31v11Zm-4.43-2.013q-1.512.176-2.58.207T61,13.848V8.926h5.115V6.57H61V5.419h6.425V10.06H62.319v2.628h1.942a31.3,31.3,0,0,0,4.087-.211ZM74.518,21.2a10.89,10.89,0,0,1-3.573-1.516,7.188,7.188,0,0,1-2.369-2.3A6.713,6.713,0,0,1,66.243,19.7a10.572,10.572,0,0,1-3.511,1.5l-.826-1.134A8.45,8.45,0,0,0,66.094,18.3a4.028,4.028,0,0,0,1.841-2.944V14.8h1.31v.545a3.929,3.929,0,0,0,1.8,2.927,8.654,8.654,0,0,0,4.232,1.8ZM79.739,6.228V5.059H91.621V6.228Zm-1.925,8.1V13.162h7.2V11.053H79.528V9.919h2.5l-.176-3.076H83.14l.185,3.076h4.711l.185-3.076h1.292l-.176,3.076h2.5v1.134H86.348v2.109h7.2v1.169Zm2.593,6.75V15.737H90.953v5.344Zm9.255-4.175H81.7V19.93h7.963Zm14.019-6.231a8.138,8.138,0,0,1-4.025-.813,2.446,2.446,0,0,1-1.406-2.175,2.449,2.449,0,0,1,1.411-2.171A8.105,8.105,0,0,1,103.68,4.7a8.2,8.2,0,0,1,4.034.8,2.4,2.4,0,0,1,0,4.364A8.171,8.171,0,0,1,103.68,10.675Zm0-4.931a6.8,6.8,0,0,0-3.015.536,1.6,1.6,0,0,0-1.055,1.406,1.607,1.607,0,0,0,1.063,1.424,6.812,6.812,0,0,0,3.006.536,6.726,6.726,0,0,0,3-.545,1.616,1.616,0,0,0,1.072-1.415,1.607,1.607,0,0,0-1.068-1.4A6.721,6.721,0,0,0,103.68,5.744ZM95.814,13.2V12.116h15.732V13.2Zm2.54,8.209V17.53H107.7V15.878H98.354v-1.1h10.635v3.779H99.646v1.749h9.791v1.1Zm20.14-6.97V13.268h7.216V11.519H121.1V5.006h10.564V6.175h-9.255V7.687h8.965V8.838h-8.965v1.529h9.475v1.151h-4.86v1.749h7.2v1.169Zm7.866,7.128a8.508,8.508,0,0,1-4.113-.8,2.455,2.455,0,0,1,0-4.447,10.977,10.977,0,0,1,8.227,0,2.455,2.455,0,0,1,0,4.447A8.508,8.508,0,0,1,126.36,21.564Zm0-4.931q-4.14,0-4.14,1.907t4.14,1.907q4.14,0,4.14-1.907T126.36,16.634Zm23.4,4.948V13.61h-2.013v7.436h-1.292V4.953h1.292v7.488h2.013V4.628h1.318V21.582ZM136.529,8.838V7.669h3.762V5.041h1.318V7.669h3.762V8.838Zm4.465,8.64a3.726,3.726,0,0,1-2.689-1.05,3.556,3.556,0,0,1-1.09-2.676,3.571,3.571,0,0,1,1.085-2.667,3.951,3.951,0,0,1,5.375-.009,3.571,3.571,0,0,1,1.081,2.676,3.556,3.556,0,0,1-1.085,2.685A3.717,3.717,0,0,1,140.994,17.478Zm0-6.3a2.411,2.411,0,0,0-1.824.729,2.561,2.561,0,0,0-.7,1.846,2.544,2.544,0,0,0,.7,1.854,2.652,2.652,0,0,0,3.63,0,2.523,2.523,0,0,0,.712-1.859,2.539,2.539,0,0,0-.708-1.85A2.426,2.426,0,0,0,140.994,11.176Zm28.208-.844a4.213,4.213,0,0,1-1.459,2.773,4.4,4.4,0,0,1-2.936,1.042,4.345,4.345,0,0,1-3.16-1.239,4.23,4.23,0,0,1-1.27-3.164,4.2,4.2,0,0,1,1.274-3.168,4.374,4.374,0,0,1,3.155-1.226,4.422,4.422,0,0,1,2.953,1.033A4.175,4.175,0,0,1,169.2,9.163h2.751V4.628h1.318V16.959h-1.318V10.332ZM164.808,6.5a3.007,3.007,0,0,0-2.25.9,3.212,3.212,0,0,0-.879,2.342,3.176,3.176,0,0,0,.888,2.342,3.279,3.279,0,0,0,4.487.009,3.178,3.178,0,0,0,.883-2.351,3.209,3.209,0,0,0-.879-2.347A3.015,3.015,0,0,0,164.808,6.5Zm-2.162,14.528V15.482h1.336v4.395h9.738v1.151Zm27.563.554V4.628h1.31V21.582Zm-3.076-.519V11.633h-2.953V10.464h2.953V4.971h1.292V21.063ZM184.8,17.609a12.169,12.169,0,0,1-3.182-5.3,9.845,9.845,0,0,1-1.279,2.848,13.446,13.446,0,0,1-2.123,2.681l-1.028-.826a8.857,8.857,0,0,0,2.646-3.335,9.858,9.858,0,0,0,1.151-4.46V7.273h-3.164V6.1h7.664V7.273h-3.2v1.96a9.484,9.484,0,0,0,1.033,4.219,9.934,9.934,0,0,0,2.474,3.3Zm24.552-5.546a6.284,6.284,0,0,1-1.314,3.872,3.931,3.931,0,0,1-6.086-.193,6.767,6.767,0,0,1-1.187-4.223,6.791,6.791,0,0,1,1.173-4.232,3.955,3.955,0,0,1,6.1-.176,6.2,6.2,0,0,1,1.3,3.784h3.138V4.628h1.31V21.582h-1.31V12.063Zm-4.28-5.133A2.511,2.511,0,0,0,202.89,8.17a5.987,5.987,0,0,0-.822,3.349,5.94,5.94,0,0,0,.835,3.349,2.5,2.5,0,0,0,4.333-.018,5.909,5.909,0,0,0,.844-3.331,5.963,5.963,0,0,0-.826-3.349A2.515,2.515,0,0,0,205.074,6.931Zm25.559,14.651V4.628h1.318V21.582Zm-1.96-4.825q-1.4.167-3.081.211t-6.025.044V6.14h8.165V7.309h-6.855v8.534a74.363,74.363,0,0,0,7.708-.22Zm19.96,4.825V11.36h-3.955V10.191h3.955V4.628h1.318V21.582Zm-3.3-4.3a14.136,14.136,0,0,1-2.667-2.738,9.1,9.1,0,0,1-1.578-2.843,10.308,10.308,0,0,1-1.608,3.032,13.45,13.45,0,0,1-2.619,2.76l-1.011-.879a10.537,10.537,0,0,0,3.331-3.59,8.924,8.924,0,0,0,1.239-4.452V5.8h1.3V8.513a8.429,8.429,0,0,0,1.226,4.3,10.137,10.137,0,0,0,3.309,3.445ZM256.5,11.29V5.3h10.441V6.465h-9.123V10.1h9.3V11.29Zm-2.645,3.349V13.47h15.732v1.169Zm2.575,6.372V16.2h1.31v3.639h9.615v1.169Zm33.385-9.923v5.941H288.5V4.628h1.31V9.9h2.558v1.187Zm-12.27,2.61V5.656h7.734V13.7Zm6.442-6.873h-5.15v5.7h5.15ZM279.5,20.932V15.553h1.31v4.192h9.475v1.187Zm28.31-11.461v3.384H306.5V4.628h1.31V8.284h2.558V9.471Zm-2.426,1.907q-1.644.413-9.5.413V5.313h1.31v5.309h1.169a44.353,44.353,0,0,0,6.864-.36ZM297.54,21.2V16.871h8.982V14.938H297.54V13.786h10.274v4.236h-8.982v2.013h9.457V21.2Zm33.983-9.624a10.507,10.507,0,0,1-3.973-1.419,6.64,6.64,0,0,1-2.47-2.184,7.043,7.043,0,0,1-2.5,2.206,11.688,11.688,0,0,1-3.9,1.5l-.809-1.1a9.693,9.693,0,0,0,4.575-1.674,3.808,3.808,0,0,0,1.973-3.01V5.164h1.318V5.9A3.758,3.758,0,0,0,327.664,8.9a9.386,9.386,0,0,0,4.632,1.6Zm-5.792,3.252v6.75h-1.318v-6.75h-7.2V13.663h15.732v1.169Zm26.943-.844V4.628h1.318v9.36Zm-7.251-.738a4.308,4.308,0,0,1-3.1-1.151,3.857,3.857,0,0,1-1.208-2.918,3.847,3.847,0,0,1,1.2-2.9,4.783,4.783,0,0,1,6.209,0,3.85,3.85,0,0,1,1.2,2.909,3.867,3.867,0,0,1-1.2,2.922A4.3,4.3,0,0,1,345.422,13.25Zm0-7a2.932,2.932,0,0,0-2.162.822,2.853,2.853,0,0,0-.826,2.114,2.875,2.875,0,0,0,.826,2.131,3.266,3.266,0,0,0,4.337,0,2.871,2.871,0,0,0,.831-2.127,2.852,2.852,0,0,0-.831-2.1A2.942,2.942,0,0,0,345.422,6.245Zm9.589,14.941a7,7,0,0,1-1.8-1.411A6.419,6.419,0,0,1,351.935,18a6.431,6.431,0,0,1-1.252,1.863,7.4,7.4,0,0,1-1.841,1.5l-.976-.87a6.2,6.2,0,0,0,2.461-2.057,4.924,4.924,0,0,0,.94-2.892v-.738h1.3v.738a4.731,4.731,0,0,0,.971,2.865,5.306,5.306,0,0,0,2.448,1.872ZM347.918,20a5.614,5.614,0,0,1-2.188-2.2,7.65,7.65,0,0,1-3.173,3.533l-1.011-.835a6.881,6.881,0,0,0,2.549-2.127,4.735,4.735,0,0,0,.967-2.821v-.721h1.274v.721a3.632,3.632,0,0,0,.729,2.25,3.756,3.756,0,0,0,1.811,1.336Zm24.2-9.29A10.621,10.621,0,0,1,368.282,9.4a7.138,7.138,0,0,1-2.5-2.14,7.145,7.145,0,0,1-2.483,2.1,10.448,10.448,0,0,1-3.8,1.34l-.773-1.063a8.988,8.988,0,0,0,4.535-1.547q1.854-1.318,1.854-2.575V4.936h1.3v.571q0,1.283,1.854,2.606A8.844,8.844,0,0,0,372.8,9.646Zm-14.221,2.742V12.274h15.732v1.178Zm2.593,7.664V14.8h1.292v2.109h7.945V14.8h1.292v6.319Zm9.237-3.059h-7.945v1.907h7.945Zm18.949,3.524V4.628h1.318V21.582Zm-1.292-5.361q-1.371.4-9.65.4V6.069h1.31v9.378h1.16a43.906,43.906,0,0,0,7.014-.36Zm19.705-3.727v9.088h-1.31V4.628h1.31v6.68h2.988v1.187Zm-2.936,4.034q-1.441.176-2.944.211t-6.091.035V6.122h7.919V7.291h-6.6v8.314a73.193,73.193,0,0,0,7.611-.211Zm8.787,3.6a1.314,1.314,0,1,1,0-2.628,1.25,1.25,0,0,1,.918.378,1.348,1.348,0,0,1,0,1.872A1.25,1.25,0,0,1,412.938,20.126Z" transform="translate(415.5 1950)" fill="#fff"/>
      <text id="Ubiquitous" transform="translate(415.5 1927)" fill="#dbfc00" font-size="36" font-family="Poppins-SemiBold, Poppins" font-weight="600"><tspan x="0" y="0">U</tspan><tspan y="0" fill="#fff">biquitous</tspan></text>
    </g>
    <g id="그룹_166" data-name="그룹 166" transform="translate(-657 981.563)">
      <text id="eXtraordinary" transform="translate(997 503.791)" fill="#fff" font-size="36" font-family="Poppins-SemiBold, Poppins" font-weight="600"><tspan x="0" y="0">e</tspan><tspan y="0" fill="#dbfc00">X</tspan><tspan y="0">traordinary</tspan></text>
      <path id="패스_37" data-name="패스 37" d="M13.948,15.342l-1.274-.114a47.641,47.641,0,0,0,.308-5.168V7.414H3.419V6.228H14.291v3.858A41.559,41.559,0,0,1,13.948,15.342ZM1.134,18.559V17.372H7.383V11.844h1.31v5.528h8.174v1.187Zm31.087-4.28V10.332H30.243v3.946h-1.3V4.971h1.3V9.146h1.978V4.628h1.31v9.65ZM27.07,5.507q-.149,5.625-6.583,8.93l-.958-1.011a11.87,11.87,0,0,0,4.245-2.9,7.059,7.059,0,0,0,1.872-3.854H20.285V5.507Zm5.15,16.075V16.4H22.447V15.21H33.53v6.372Zm7.559-11.443V5.006H50.291V6.122H41.08v2.9h9.413v1.116Zm-2.646,2.874V11.9H52.866v1.116Zm2.558,8.358V17.53h9.29V15.86h-9.29V14.744H50.273v3.832h-9.29v1.679h9.738v1.116Zm28.6.211V4.628h1.318V21.582ZM63.22,12.063a7.135,7.135,0,0,1-1.055,3.863,3.275,3.275,0,0,1-5.4-.132,7.894,7.894,0,0,1-.962-4.276,7.813,7.813,0,0,1,.971-4.271,3.278,3.278,0,0,1,5.379-.158,6.941,6.941,0,0,1,1.05,3.806H65.25V4.971h1.318V21.063H65.25v-9ZM59.511,6.948A1.963,1.963,0,0,0,57.7,8.117a7.391,7.391,0,0,0-.624,3.4,7.419,7.419,0,0,0,.624,3.406,1.975,1.975,0,0,0,3.612,0,7.424,7.424,0,0,0,.624-3.4,7.4,7.4,0,0,0-.624-3.4A1.956,1.956,0,0,0,59.511,6.948ZM86.186,21.582V4.628H87.5V21.582Zm-3.111-.554v-9.07H79.866V10.78h3.208V4.971h1.292V21.028ZM80.657,6.1A13.973,13.973,0,0,1,74.285,17.53l-1.046-.9a11.442,11.442,0,0,0,4.078-3.876,11.1,11.1,0,0,0,1.951-5.5H74.25V6.1Zm24.719,11.162a10.838,10.838,0,0,1-2.685-2.25,8.457,8.457,0,0,1-1.639-2.5,8.958,8.958,0,0,1-1.613,2.663,11.3,11.3,0,0,1-2.58,2.435l-.976-.976a8.048,8.048,0,0,0,3.182-2.887A6.979,6.979,0,0,0,100.4,9.884V8.17h-4.14V7h4.122V4.628h1.3V7h4.122V8.17h-4.122V9.937a6.218,6.218,0,0,0,1.336,3.647,7.67,7.67,0,0,0,3.252,2.654Zm3.63-4.289v8.6H107.7V4.628h1.31v7.163h2.777v1.187Zm6.592-.229V5.129h1.292V7.924h5.256V5.129h1.3V6.878h3.146V4.628h1.318v9.018h-1.318V11.2h-3.146v1.547Zm7.849-4.737v2.074h3.146V8.012Zm-1.3,1.063H116.89v2.5h5.256Zm-4.605,12.3V17.337h9.07v-1.6h-9.07V14.586h10.371v3.867H118.85V20.2h9.527v1.169Zm27.844-8.016v8.227h-1.31V4.628h1.31v7.559h2.61v1.169ZM136.674,4.7h1.292V6.913h4.412V8.082H132.244V6.913h4.43ZM137.966,15.1v2.408q3.085-.044,5.115-.176l.088,1.134q-4.641.272-11.479.272l-.132-1.151q2.329,0,5.1-.062V15.122a4.462,4.462,0,0,1-2.672-1.006A2.772,2.772,0,0,1,134.2,9.8a6.04,6.04,0,0,1,6.231-.018,2.614,2.614,0,0,1,1.143,2.175,2.753,2.753,0,0,1-.945,2.14A4.49,4.49,0,0,1,137.966,15.1Zm-.642-5.062a3.692,3.692,0,0,0-2.162.558,1.7,1.7,0,0,0-.791,1.446,1.669,1.669,0,0,0,.787,1.433,3.756,3.756,0,0,0,2.167.545,3.7,3.7,0,0,0,2.149-.549,1.672,1.672,0,0,0,.787-1.428,1.7,1.7,0,0,0-.791-1.446A3.658,3.658,0,0,0,137.325,10.042Zm29.808,7.242V4.628h1.31V17.284Zm-1.3-2.32q-5.572.316-10.74.316l-.185-1.239q2.215,0,5.063-.035V11.58H156.4V5.674h8.1V6.86h-6.785V10.4H164.7V11.58h-3.419v2.408q3.393-.088,4.447-.2Zm-8.227,6.223V16.581h1.318v3.437h10.028v1.169Zm33.807-10.705a11.159,11.159,0,0,1-3.946-1.208,5.949,5.949,0,0,1-2.391-1.912,5.871,5.871,0,0,1-2.351,1.846,11.661,11.661,0,0,1-3.916,1.274l-.773-1.046A10.566,10.566,0,0,0,182.113,8.3a4.285,4.285,0,0,0,2.224-2.158h-5.379V4.971h12.234V6.14h-5.361a4.571,4.571,0,0,0,2.285,2.2,9.428,9.428,0,0,0,4,1.116Zm-14.2,2.5V11.809h15.732v1.169Zm2.575,8.191V17.284h9.272V15.755h-9.272V14.6h10.564v3.814h-9.272V20H190.8v1.169Zm28.028.413v-9.07h-4.157V11.343h4.157V4.628h1.31V21.582Zm-3.8-15.442q-.185,7.233-7.638,11.435l-.984-1.063a12.49,12.49,0,0,0,4.772-3.586,10.371,10.371,0,0,0,2.443-5.616h-6.521V6.14ZM221.04,11.2a7.7,7.7,0,0,1-3.995-.857,2.672,2.672,0,0,1,0-4.7,9.739,9.739,0,0,1,7.989,0,2.672,2.672,0,0,1,0,4.7A7.7,7.7,0,0,1,221.04,11.2Zm0-5.3a6.327,6.327,0,0,0-3.019.563,1.671,1.671,0,0,0,0,3.059,8.383,8.383,0,0,0,6.038,0,1.671,1.671,0,0,0,0-3.059A6.327,6.327,0,0,0,221.04,5.9Zm-5.273,15.179V15.553h4.605V13.733h-7.2V12.564h15.732v1.169h-7.2v1.819h4.605v5.528Zm9.255-4.359h-7.963V19.93h7.963Zm22.421-4.21h-2.769v9.07h-1.336V4.628h1.318v6.715h2.786Zm-6.636-6.284q0,4.931-.325,8.71L239.2,14.85q.105-.932.2-3.5t.092-3.951h-7.2V6.228Zm1.38,11.9q-4.588.255-11.355.255l-.123-1.151q.905,0,4.245-.044V11.325h1.318V17.17l5.827-.176Zm24.447-3.568V12.441h-3.56V11.255h3.56v-2.4h-3.384V7.669h3.384V4.628h1.318V14.56Zm-3.762-9.035a8.7,8.7,0,0,1-2.439,5.6,14.07,14.07,0,0,1-5.26,3.586l-.923-1.046a12.009,12.009,0,0,0,4.605-2.711,7.807,7.807,0,0,0,2.487-4.25h-5.977V5.524Zm-.36,15.829A7.5,7.5,0,0,1,258.4,20.4a2.811,2.811,0,0,1-1.455-2.417,2.771,2.771,0,0,1,1.455-2.4,9.556,9.556,0,0,1,8.231,0,2.77,2.77,0,0,1,1.459,2.4,2.811,2.811,0,0,1-1.455,2.417A7.538,7.538,0,0,1,262.511,21.354Zm0-5.563a6.275,6.275,0,0,0-3.081.624,1.817,1.817,0,0,0-1.094,1.573,1.85,1.85,0,0,0,1.081,1.6,7.843,7.843,0,0,0,6.183,0,1.846,1.846,0,0,0,1.085-1.6,1.813,1.813,0,0,0-1.1-1.578A6.317,6.317,0,0,0,262.511,15.79Zm9.6-7.9V6.737h4.315V4.54h1.3v2.2h4.315V7.889Zm12.524,6.855V11.413h-2.9V10.262h2.9V4.628h1.318V14.744Zm-7.576-.255a4.812,4.812,0,0,1-2.984-.839,2.566,2.566,0,0,1-.009-4.21,5.839,5.839,0,0,1,6,0,2.566,2.566,0,0,1-.009,4.21A4.844,4.844,0,0,1,277.057,14.489Zm.018-4.764a3.616,3.616,0,0,0-2.043.5,1.519,1.519,0,0,0-.743,1.31,1.549,1.549,0,0,0,.747,1.323,3.548,3.548,0,0,0,2.039.514,3.5,3.5,0,0,0,2.03-.514,1.553,1.553,0,0,0,.738-1.323,1.526,1.526,0,0,0-.734-1.305A3.548,3.548,0,0,0,277.074,9.726ZM275.44,21.274v-5.6h10.512v5.6Zm9.211-4.438h-7.919v3.27h7.919Zm13.069-6.161a8.138,8.138,0,0,1-4.025-.813,2.446,2.446,0,0,1-1.406-2.175A2.449,2.449,0,0,1,293.7,5.516,8.105,8.105,0,0,1,297.72,4.7a8.2,8.2,0,0,1,4.034.8,2.4,2.4,0,0,1,0,4.364A8.171,8.171,0,0,1,297.72,10.675Zm0-4.931a6.8,6.8,0,0,0-3.015.536,1.6,1.6,0,0,0-1.055,1.406,1.607,1.607,0,0,0,1.063,1.424,6.812,6.812,0,0,0,3.006.536,6.726,6.726,0,0,0,3-.545,1.616,1.616,0,0,0,1.072-1.415,1.607,1.607,0,0,0-1.068-1.4A6.721,6.721,0,0,0,297.72,5.744ZM289.854,13.2V12.116h15.732V13.2Zm2.54,8.209V17.53h9.343V15.878h-9.343v-1.1h10.635v3.779h-9.343v1.749h9.791v1.1Zm32.726-4.395V9.726h-3.964V8.548h3.964V4.628h1.31V17.012Zm-3.384-2.83a11.283,11.283,0,0,1-2.377-1.991,9.089,9.089,0,0,1-1.586-2.219,10.279,10.279,0,0,1-1.7,2.58,9.133,9.133,0,0,1-2.373,2.07l-.949-.905A8.308,8.308,0,0,0,315.825,11a6.291,6.291,0,0,0,1.261-3.643V5.182h1.283v2.18a5.587,5.587,0,0,0,1.31,3.4,8.053,8.053,0,0,0,2.936,2.474Zm-5.748,6.847V15.641h1.318v4.236h9.571v1.151Zm27.738-8.341v8.895h-1.31V4.628h1.31v6.891h2.936v1.169Zm-3.8,4.6a13.935,13.935,0,0,1-2.654-2.729,9.709,9.709,0,0,1-1.591-2.852,10.361,10.361,0,0,1-1.582,3,13.561,13.561,0,0,1-2.628,2.791l-1.011-.879a10.6,10.6,0,0,0,3.313-3.59,8.924,8.924,0,0,0,1.239-4.452V5.8h1.31V8.513a8.412,8.412,0,0,0,1.226,4.307,10.193,10.193,0,0,0,3.3,3.437ZM353.016,4.391h1.31v2h4.359V7.546H348.657V6.395h4.359Zm8.8,6.319v3.832H360.5V4.628h1.31V9.541H364.2V10.71ZM353.7,14.4a4.927,4.927,0,0,1-3.059-.853,2.618,2.618,0,0,1,.013-4.3,5.877,5.877,0,0,1,6.126,0,2.6,2.6,0,0,1,0,4.289A4.965,4.965,0,0,1,353.7,14.4Zm.018-4.9a3.662,3.662,0,0,0-2.127.541,1.57,1.57,0,0,0,.009,2.711,4.518,4.518,0,0,0,4.236,0,1.57,1.57,0,0,0,.009-2.711A3.662,3.662,0,0,0,353.719,9.506Zm-2.338,11.9V15.482h1.292v1.942h7.849V15.482h1.292v5.924Zm9.141-2.848h-7.849v1.7h7.849Zm18.791,3.023V4.628h1.318V21.582Zm-1.292-5.361q-1.371.4-9.65.4V6.069h1.31v9.378h1.16a43.906,43.906,0,0,0,7.014-.36Zm19.705-3.727v9.088h-1.31V4.628h1.31v6.68h2.988v1.187Zm-2.936,4.034q-1.441.176-2.944.211t-6.091.035V6.122h7.919V7.291h-6.6v8.314a73.193,73.193,0,0,0,7.611-.211Zm8.787,3.6a1.314,1.314,0,1,1,0-2.628,1.25,1.25,0,0,1,.918.378,1.348,1.348,0,0,1,0,1.872A1.25,1.25,0,0,1,403.578,20.126Z" transform="translate(997 526.791)" fill="#fff"/>
    </g>
    <g id="그룹_129" data-name="그룹 129" transform="translate(51.5 -34.045)">
      <rect id="사각형_58" data-name="사각형 58" width="4.383" height="22.507" transform="translate(301.945 1220.507) rotate(180)" fill="#dbfc00"/>
      <rect id="사각형_59" data-name="사각형 59" width="4.383" height="22.507" transform="translate(288.5 1211.445) rotate(-90)" fill="#dbfc00"/>
      <rect id="사각형_60" data-name="사각형 60" width="3.818" height="21.956" transform="translate(293.341 1218.366) rotate(-135)" fill="#dbfc00"/>
      <rect id="사각형_61" data-name="사각형 61" width="3.818" height="21.956" transform="translate(290.641 1202.841) rotate(-45)" fill="#dbfc00"/>
    </g>
    <path id="패스_36" data-name="패스 36" d="M28.83-22.2a9.726,9.726,0,0,1,6.014,3.658,10.684,10.684,0,0,1,2.356,6.82,10.991,10.991,0,0,1-1.7,6.107,11.354,11.354,0,0,1-4.929,4.123A18.059,18.059,0,0,1,22.94,0H4.278V-43.276H22.134a18.518,18.518,0,0,1,7.6,1.426,10.815,10.815,0,0,1,4.836,3.968,10.39,10.39,0,0,1,1.643,5.766,9.862,9.862,0,0,1-2.015,6.324A10.78,10.78,0,0,1,28.83-22.2ZM12.958-25.42h7.936a7.265,7.265,0,0,0,4.774-1.4,4.912,4.912,0,0,0,1.674-4,5,5,0,0,0-1.674-4.03,7.156,7.156,0,0,0-4.774-1.426H12.958ZM21.7-7.068a7.428,7.428,0,0,0,4.929-1.488A5.207,5.207,0,0,0,28.4-12.772a5.429,5.429,0,0,0-1.86-4.371,7.5,7.5,0,0,0-5.022-1.581H12.958V-7.068ZM52.824-29.016a12.2,12.2,0,0,1,4.371-4.278,12.157,12.157,0,0,1,6.169-1.55v9.114H61.07q-4.092,0-6.169,1.922t-2.077,6.7V0h-8.68V-34.348h8.68ZM66.96-17.3a19.88,19.88,0,0,1,2.077-9.238,15.223,15.223,0,0,1,5.642-6.2,15.021,15.021,0,0,1,7.967-2.17,14,14,0,0,1,6.727,1.55,13.65,13.65,0,0,1,4.619,3.906v-4.9h8.742V0H93.992V-5.022a12.911,12.911,0,0,1-4.619,4A14.132,14.132,0,0,1,82.584.558a14.6,14.6,0,0,1-7.9-2.232,15.621,15.621,0,0,1-5.642-6.293A20.21,20.21,0,0,1,66.96-17.3Zm27.032.124a11.134,11.134,0,0,0-1.24-5.425A8.743,8.743,0,0,0,89.4-26.071a8.948,8.948,0,0,0-4.526-1.209A8.791,8.791,0,0,0,80.414-26.1,8.871,8.871,0,0,0,77.1-22.661,10.779,10.779,0,0,0,75.826-17.3,11.134,11.134,0,0,0,77.1-11.873a9.151,9.151,0,0,0,3.348,3.565,8.5,8.5,0,0,0,4.433,1.24A8.948,8.948,0,0,0,89.4-8.277a8.743,8.743,0,0,0,3.348-3.472A11.134,11.134,0,0,0,93.992-17.174Zm36.27-17.67a13.239,13.239,0,0,1,9.92,3.875q3.782,3.875,3.782,10.819V0h-8.68V-18.972a8.906,8.906,0,0,0-2.046-6.293,7.246,7.246,0,0,0-5.58-2.2,7.425,7.425,0,0,0-5.673,2.2,8.822,8.822,0,0,0-2.077,6.293V0h-8.68V-34.348h8.68v4.278a11.991,11.991,0,0,1,4.433-3.5A13.713,13.713,0,0,1,130.262-34.844ZM149.978-17.3a19.88,19.88,0,0,1,2.077-9.238,15.151,15.151,0,0,1,5.673-6.2,15.181,15.181,0,0,1,8-2.17,14.589,14.589,0,0,1,6.386,1.457,12.768,12.768,0,0,1,4.836,3.875V-45.88h8.8V0h-8.8V-5.084a11.763,11.763,0,0,1-4.526,4.092,14.178,14.178,0,0,1-6.758,1.55,14.753,14.753,0,0,1-7.936-2.232,15.543,15.543,0,0,1-5.673-6.293A20.21,20.21,0,0,1,149.978-17.3Zm27.032.124a11.133,11.133,0,0,0-1.24-5.425,8.743,8.743,0,0,0-3.348-3.472A8.948,8.948,0,0,0,167.9-27.28a8.791,8.791,0,0,0-4.464,1.178,8.871,8.871,0,0,0-3.317,3.441,10.779,10.779,0,0,0-1.271,5.363,11.134,11.134,0,0,0,1.271,5.425,9.151,9.151,0,0,0,3.348,3.565,8.5,8.5,0,0,0,4.433,1.24,8.948,8.948,0,0,0,4.526-1.209,8.743,8.743,0,0,0,3.348-3.472A11.133,11.133,0,0,0,177.01-17.174Zm70.866-26.1L232,0h-10.54L205.592-43.276h9.3l11.9,34.41,11.842-34.41Zm9.61,4.836a5.289,5.289,0,0,1-3.813-1.457,4.821,4.821,0,0,1-1.519-3.627,4.821,4.821,0,0,1,1.519-3.627,5.289,5.289,0,0,1,3.813-1.457,5.289,5.289,0,0,1,3.813,1.457,4.821,4.821,0,0,1,1.519,3.627A4.821,4.821,0,0,1,261.3-39.9,5.289,5.289,0,0,1,257.486-38.44Zm4.278,4.092V0h-8.68V-34.348ZM283.464.558A18.111,18.111,0,0,1,275.9-.961a13.366,13.366,0,0,1-5.3-4.123,10.449,10.449,0,0,1-2.139-5.766H277.2a4.762,4.762,0,0,0,1.953,3.286,6.793,6.793,0,0,0,4.247,1.3,6.6,6.6,0,0,0,3.875-.992A3,3,0,0,0,288.672-9.8a2.68,2.68,0,0,0-1.705-2.511,32.082,32.082,0,0,0-5.425-1.829,45.974,45.974,0,0,1-6.293-1.922,10.925,10.925,0,0,1-4.216-3.038,8.154,8.154,0,0,1-1.767-5.518,8.9,8.9,0,0,1,1.643-5.208,11.031,11.031,0,0,1,4.712-3.72,17.664,17.664,0,0,1,7.223-1.364q6.138,0,9.8,3.069a11.37,11.37,0,0,1,4.03,8.277h-8.308a4.5,4.5,0,0,0-1.705-3.255,6.337,6.337,0,0,0-4.061-1.209,6.4,6.4,0,0,0-3.627.868,2.767,2.767,0,0,0-1.271,2.418,2.842,2.842,0,0,0,1.736,2.635,26.957,26.957,0,0,0,5.394,1.829,45.786,45.786,0,0,1,6.138,1.922,10.845,10.845,0,0,1,4.185,3.069A8.427,8.427,0,0,1,296.98-9.8a9.1,9.1,0,0,1-1.643,5.332,10.823,10.823,0,0,1-4.712,3.689A17.853,17.853,0,0,1,283.464.558Zm25.048-39A5.289,5.289,0,0,1,304.7-39.9a4.821,4.821,0,0,1-1.519-3.627,4.821,4.821,0,0,1,1.519-3.627,5.289,5.289,0,0,1,3.813-1.457,5.289,5.289,0,0,1,3.813,1.457,4.821,4.821,0,0,1,1.519,3.627,4.821,4.821,0,0,1-1.519,3.627A5.289,5.289,0,0,1,308.512-38.44Zm4.278,4.092V0h-8.68V-34.348ZM336.6.558a18.092,18.092,0,0,1-8.928-2.2,15.849,15.849,0,0,1-6.231-6.231,18.671,18.671,0,0,1-2.263-9.3,18.274,18.274,0,0,1,2.325-9.3,16.157,16.157,0,0,1,6.355-6.231,18.444,18.444,0,0,1,8.99-2.2,18.444,18.444,0,0,1,8.99,2.2,16.157,16.157,0,0,1,6.355,6.231,18.274,18.274,0,0,1,2.325,9.3,17.9,17.9,0,0,1-2.387,9.3,16.529,16.529,0,0,1-6.448,6.231A18.75,18.75,0,0,1,336.6.558Zm0-7.564a9.03,9.03,0,0,0,4.433-1.147,8.336,8.336,0,0,0,3.317-3.441,11.6,11.6,0,0,0,1.24-5.58q0-4.9-2.573-7.533a8.458,8.458,0,0,0-6.293-2.635,8.259,8.259,0,0,0-6.231,2.635q-2.511,2.635-2.511,7.533t2.449,7.533A8.064,8.064,0,0,0,336.6-7.006Zm43.338-27.838a13.239,13.239,0,0,1,9.92,3.875q3.782,3.875,3.782,10.819V0h-8.68V-18.972a8.906,8.906,0,0,0-2.046-6.293,7.246,7.246,0,0,0-5.58-2.2,7.425,7.425,0,0,0-5.673,2.2,8.822,8.822,0,0,0-2.077,6.293V0H360.9V-34.348h8.68v4.278a11.991,11.991,0,0,1,4.433-3.5A13.714,13.714,0,0,1,379.936-34.844Z" transform="translate(340 1251.709)" fill="#fff"/>
  </g>
</svg>
