<svg xmlns="http://www.w3.org/2000/svg" width="9.954" height="50.442" viewBox="0 0 9.954 50.442">
  <path id="패스_1393" data-name="패스 1393" d="M4.256.1A4.358,4.358,0,0,1,2.492-.245,2.9,2.9,0,0,1,1.26-1.218a2.471,2.471,0,0,1-.448-1.47H2.52a1.542,1.542,0,0,0,.5,1.036,1.762,1.762,0,0,0,1.239.406,1.908,1.908,0,0,0,1.288-.4,1.3,1.3,0,0,0,.462-1.029,1.124,1.124,0,0,0-.287-.8,1.92,1.92,0,0,0-.714-.476,10.767,10.767,0,0,0-1.183-.364,11.084,11.084,0,0,1-1.547-.511A2.556,2.556,0,0,1,1.26-5.628,2.326,2.326,0,0,1,.84-7.084a2.588,2.588,0,0,1,.42-1.47A2.683,2.683,0,0,1,2.436-9.52a4.273,4.273,0,0,1,1.75-.336A3.647,3.647,0,0,1,6.5-9.149a2.608,2.608,0,0,1,1,1.939H5.74a1.278,1.278,0,0,0-.5-.91A1.863,1.863,0,0,0,4.018-8.5a1.728,1.728,0,0,0-1.12.35A1.22,1.22,0,0,0,2.464-7.14a1.023,1.023,0,0,0,.273.735,1.928,1.928,0,0,0,.693.455,10.758,10.758,0,0,0,1.148.364,11.985,11.985,0,0,1,1.575.532,2.622,2.622,0,0,1,1.036.819,2.354,2.354,0,0,1,.427,1.477,2.656,2.656,0,0,1-.4,1.4A2.878,2.878,0,0,1,6.055-.3,3.832,3.832,0,0,1,4.256.1ZM8.974-4.886a4.969,4.969,0,0,1,.665-2.562,4.735,4.735,0,0,1,1.806-1.771,5.04,5.04,0,0,1,2.5-.637,5.077,5.077,0,0,1,2.765.763A4.345,4.345,0,0,1,18.466-6.93H16.548A2.572,2.572,0,0,0,15.5-8.078a3.116,3.116,0,0,0-1.554-.378,3.4,3.4,0,0,0-1.722.434,3.021,3.021,0,0,0-1.183,1.246,4,4,0,0,0-.427,1.89A4,4,0,0,0,11.039-3a3.067,3.067,0,0,0,1.183,1.253,3.354,3.354,0,0,0,1.722.441A3.116,3.116,0,0,0,15.5-1.68a2.572,2.572,0,0,0,1.05-1.148h1.918A4.308,4.308,0,0,1,16.709-.672a5.112,5.112,0,0,1-2.765.756,5.029,5.029,0,0,1-2.506-.637,4.749,4.749,0,0,1-1.8-1.771A4.969,4.969,0,0,1,8.974-4.886ZM25.382,0l-2.24-3.892H21.924V0h-1.6V-9.73h3.36a4.178,4.178,0,0,1,1.9.392,2.719,2.719,0,0,1,1.162,1.05,2.857,2.857,0,0,1,.385,1.47,2.913,2.913,0,0,1-.553,1.729,2.807,2.807,0,0,1-1.7,1.057L27.286,0ZM21.924-5.166h1.764a1.851,1.851,0,0,0,1.351-.448,1.613,1.613,0,0,0,.455-1.2A1.556,1.556,0,0,0,25.046-8a1.9,1.9,0,0,0-1.358-.427H21.924ZM33.614.1a5.04,5.04,0,0,1-2.5-.637,4.72,4.72,0,0,1-1.806-1.778,5.007,5.007,0,0,1-.665-2.569,4.969,4.969,0,0,1,.665-2.562,4.735,4.735,0,0,1,1.806-1.771,5.04,5.04,0,0,1,2.5-.637,5.068,5.068,0,0,1,2.513.637,4.685,4.685,0,0,1,1.8,1.771,5.011,5.011,0,0,1,.658,2.562,5.049,5.049,0,0,1-.658,2.569,4.67,4.67,0,0,1-1.8,1.778A5.068,5.068,0,0,1,33.614.1Zm0-1.386a3.354,3.354,0,0,0,1.722-.441,3.057,3.057,0,0,0,1.183-1.26,4.046,4.046,0,0,0,.427-1.9,4,4,0,0,0-.427-1.89,3.021,3.021,0,0,0-1.183-1.246,3.4,3.4,0,0,0-1.722-.434,3.4,3.4,0,0,0-1.722.434,3.021,3.021,0,0,0-1.183,1.246,4,4,0,0,0-.427,1.89,4.046,4.046,0,0,0,.427,1.9,3.057,3.057,0,0,0,1.183,1.26A3.354,3.354,0,0,0,33.614-1.288Zm8.134,0h3.29V0H40.152V-9.73h1.6Zm6.216,0h3.29V0H46.368V-9.73h1.6Z" transform="translate(9.856 51.254) rotate(-90)" fill="#fff"/>
</svg>
