<svg xmlns="http://www.w3.org/2000/svg" xmlns:xlink="http://www.w3.org/1999/xlink" width="840" height="140" viewBox="0 0 840 140">
  <defs>
    <clipPath id="clip-path">
      <rect id="사각형_4806" data-name="사각형 4806" width="840" height="125" fill="none"/>
    </clipPath>
  </defs>
  <g id="그룹_117083" data-name="그룹 117083" transform="translate(13630 5549)">
    <g id="그룹_117080" data-name="그룹 117080" transform="translate(-13630 -5541)">
      <g id="그룹_117079" data-name="그룹 117079" clip-path="url(#clip-path)">
        <path id="패스_1472" data-name="패스 1472" d="M722.85,49.4H670.319V0H642.882V49.4H590.35V75.584h52.532V125h27.437V75.584H722.85ZM830.412,0V98.813h-63.25V0H739.725V106.664A18.335,18.335,0,0,0,758.061,125h81.454a18.335,18.335,0,0,0,18.336-18.336V0ZM597.1,0H564.4L530.6,42.128,496.8,0H464.1l50.153,62.5L464.1,125h32.7l33.8-42.128L564.4,125h32.7L546.947,62.5Z" transform="translate(-17.85)" fill="#c8f500"/>
        <path id="패스_1473" data-name="패스 1473" d="M350,93.293c0,10.71,3.525,18.212,10.676,24.035,5.71,4.65,13.488,7.072,22.074,7.072s16.364-2.422,22.074-7.072C411.975,111.5,415.5,104,415.5,93.293V31.758c0-10.71-3.525-18.212-10.676-24.035C399.114,3.073,391.337.65,382.75.65s-16.364,2.423-22.074,7.073C353.525,13.546,350,21.048,350,31.758Zm52.625.31c0,6.467-2.334,11.414-6.13,14.587a22.9,22.9,0,0,1-27.49,0c-3.8-3.173-6.13-8.12-6.13-14.587V31.448c0-6.467,2.334-11.414,6.13-14.587a22.893,22.893,0,0,1,27.49,0c3.8,3.173,6.13,8.12,6.13,14.587Zm-73,29.547H316.75V1.9h12.875ZM288.885,10.938c-5.736-6.1-14.412-9.037-25.01-9.037H233.5V123.15h30.375c10.6,0,19.274-2.938,25.01-9.037,5.143-5.469,7.49-12.441,7.49-21.03V31.967c0-8.588-2.347-15.562-7.49-21.03M283.5,92.632c0,5.813-1.675,10.362-5.023,13.713s-8.243,5.181-14.6,5.181h-17.5v-98h17.5c6.359,0,11.255,1.833,14.6,5.182s5.023,7.9,5.023,13.712ZM148.125,1.9V93.293c0,10.71,3.525,18.212,10.676,24.035,5.71,4.65,13.238,7.072,21.824,7.072s16.114-2.422,21.824-7.072C209.6,111.5,213.125,104,213.125,93.293V1.9H200.25V93.6c0,6.467-2.334,11.414-6.13,14.587a22.154,22.154,0,0,1-26.99,0c-3.8-3.173-6.13-8.12-6.13-14.587V1.9ZM136,13.525H111.25V123.15H98.375V13.525H73.625V1.9H136ZM65.375,95c0,8.752-2.662,16.48-9.6,22.185-5.478,4.5-13.1,7.215-21.757,7.215-8.014,0-17.315-1.513-23.739-6.863C2.656,111.188,0,104.9,0,94.334v-10.1H12.85v8.245c0,7.686,1.7,12.047,5.385,15.349,3.63,3.254,9.016,4.947,15.168,4.947,6.488,0,11.411-1.931,14.674-5.313a16.843,16.843,0,0,0,4.448-11.611c0-4.947-1.87-8.538-4.364-11.859S41.809,77.52,36.713,73.68L19.994,60.764C12.508,54.963,7.386,49.585,4.165,43.9,1.24,38.729.41,34.371.41,28.534A26.023,26.023,0,0,1,9.968,7.958C15.941,3.072,23.517.65,32.09.65,41.055.65,48.755,3.4,54.515,8.071c6.145,4.986,9.2,11.455,9.2,20.33V35.97H50.863V31.542c0-8-1.687-11.771-5.364-14.978-3.17-2.764-7.811-4.289-13.569-4.289-5.732,0-10.416,1.536-13.67,4.642-3.274,3.128-4.99,7.088-4.99,12.361,0,4.631,1.9,8.061,4.487,11.575,2.458,3.338,6.19,6.587,11.456,10.655L46.376,64.765C53.535,70.3,57.9,74.173,61.334,79.727c2.847,4.612,4.041,9.127,4.041,15.273" transform="translate(0 -0.025)" fill="#c8f500"/>
      </g>
    </g>
    <rect id="사각형_4807" data-name="사각형 4807" width="840" height="140" transform="translate(-13630 -5549)" fill="none"/>
  </g>
</svg>
