<svg xmlns="http://www.w3.org/2000/svg" xmlns:xlink="http://www.w3.org/1999/xlink" width="222" height="46" viewBox="0 0 222 46">
  <defs>
    <clipPath id="clip-path">
      <rect id="사각형_528" data-name="사각형 528" width="222" height="46" transform="translate(857.671 517)" fill="#fff" opacity="0.65"/>
    </clipPath>
  </defs>
  <g id="마스크_그룹_1" data-name="마스크 그룹 1" transform="translate(-857.671 -517)" clip-path="url(#clip-path)">
    <path id="패스_36" data-name="패스 36" d="M35.4-41.8v17.95H31.7V-41H25.55v29.5c-6.35-3.55-8.5-11.05-8.5-19v-7.25h-6.4V-30c0,7.8-2.45,16.1-9.35,20.2L5.4-4.95c4.1-2.5,6.8-6.7,8.4-11.75,1.5,4.5,4.05,8.2,7.95,10.4l3.8-5.1V2.2H31.7V-18.55h3.7V4.25h6.25V-41.8ZM72.25-6.15V-13H86.2v-5.3H59.5v-5.15H85.15V-38.8H52.9v5.25H78.65v4.95H52.95V-13h12.7v6.85H48.15v5.4h41.7v-5.4Zm42.7-29.9c6.3,0,9.9,1.25,9.9,3.85,0,2.55-3.6,3.85-9.9,3.85-6.25,0-9.85-1.3-9.85-3.85C105.1-34.8,108.7-36.05,114.95-36.05Zm0,12.65c10.15,0,16.7-3.3,16.7-8.8,0-5.55-6.55-8.85-16.7-8.85S98.3-37.75,98.3-32.2C98.3-26.7,104.8-23.4,114.95-23.4Zm9.35,22H105.45V-6.7H124.3Zm11.45-14.4v-5.25H94.15v5.25h17.5v3.95H99V3.75h31.8v-15.6H118.25V-15.8Zm25.2-20.45c6.7,0,9.85.95,9.85,3,0,2.15-3.15,3.05-9.85,3.05-6.65,0-9.8-.9-9.8-3.05C151.15-35.3,154.3-36.25,160.95-36.25Zm0,10.85c10.55,0,16.7-2.75,16.7-7.85,0-5.05-6.15-7.85-16.7-7.85-10.5,0-16.65,2.8-16.65,7.85C144.3-28.15,150.45-25.4,160.95-25.4ZM151.5-3.6h25.2V-15.45H144.9v4.85h25.3v2.45H144.95V3.95H177.9V-1H151.5ZM140.15-23.2v5.15h41.6V-23.2Zm66.1-9.2H220.5v-5.25H199.65V-6.7h3.75c8.4,0,13.9-.2,20.1-1.35l-.65-5.35a96.852,96.852,0,0,1-16.6,1.3ZM256.8-10.5c-3.1,0-5.4-2.1-5.4-5.6s2.3-5.65,5.4-5.65,5.35,2.15,5.35,5.6C262.15-12.6,259.9-10.5,256.8-10.5Zm0-16.6c-6.7,0-11.7,4.55-11.7,10.95,0,6.5,5,11.05,11.7,11.05,6.65,0,11.6-4.55,11.6-11.05C268.4-22.55,263.45-27.1,256.8-27.1Zm3.25-13.85h-6.6v6h-10.2v5.25h26.8v-5.25h-10Zm26.2,17.2h-6.6v-18h-6.6V4.3h6.6V-18.3h6.6Zm11.6-8.4h14.9V-37.5H291.3V-6.65h3.9a114.645,114.645,0,0,0,21.25-1.5l-.65-5.45a114.469,114.469,0,0,1-17.95,1.45Zm34.4,7.4h-6.7v-17h-6.6V4.4h6.6V-19.3h6.7Z" transform="translate(856 559)" fill="#fff"/>
  </g>
</svg>
