<svg id="그룹_2091" data-name="그룹 2091" xmlns="http://www.w3.org/2000/svg" xmlns:xlink="http://www.w3.org/1999/xlink" width="840.943" height="119.465" viewBox="0 0 840.943 119.465">
  <defs>
    <clipPath id="clip-path">
      <rect id="사각형_4086" data-name="사각형 4086" width="840.943" height="119.465" fill="none"/>
    </clipPath>
  </defs>
  <g id="그룹_2088" data-name="그룹 2088">
    <g id="그룹_2087" data-name="그룹 2087" clip-path="url(#clip-path)">
      <path id="패스_1384" data-name="패스 1384" d="M12.841,96.485a22.266,22.266,0,0,1-9.252-7.514A19.719,19.719,0,0,1,0,78.206H8.3a15.762,15.762,0,0,0,5.046,10.037q4.485,4.317,13.12,4.317,7.962,0,12.616-4.093a13.215,13.215,0,0,0,4.654-10.374,12.25,12.25,0,0,0-2.58-8.129,15.8,15.8,0,0,0-6.391-4.6,99.409,99.409,0,0,0-10.541-3.308,91.969,91.969,0,0,1-12.448-4.149,19.783,19.783,0,0,1-7.85-6.28Q.672,47.37.674,40.078a19.217,19.217,0,0,1,3.14-10.822A21.023,21.023,0,0,1,12.673,21.8a30.476,30.476,0,0,1,13.12-2.691q10.876,0,17.549,5.327a20.013,20.013,0,0,1,7.682,13.737H42.5a14.113,14.113,0,0,0-5.272-8.58q-4.483-3.754-12.11-3.757a18.3,18.3,0,0,0-11.775,3.757,12.423,12.423,0,0,0-4.71,10.262,11.849,11.849,0,0,0,2.58,7.962,16.424,16.424,0,0,0,6.447,4.6,95.163,95.163,0,0,0,10.486,3.365,94.971,94.971,0,0,1,12.335,4.205,20.137,20.137,0,0,1,7.962,6.335Q51.7,70.583,51.7,77.757a20.186,20.186,0,0,1-2.915,10.429,21.293,21.293,0,0,1-8.635,7.962,28.888,28.888,0,0,1-13.682,3.028,32.47,32.47,0,0,1-13.624-2.691" fill="#fff"/>
      <path id="패스_1385" data-name="패스 1385" d="M117.268,20v6.5H95.513V98.391h-7.85V26.509H65.8V20Z" fill="#fff"/>
      <path id="패스_1386" data-name="패스 1386" d="M141.794,20V69.347q0,11.664,5.551,17.27t15.194,5.606q9.645,0,15.085-5.55t5.438-17.326V20h7.85V69.234q0,14.917-7.907,22.429t-20.577,7.513q-12.673,0-20.578-7.513t-7.906-22.429V20Z" fill="#fff"/>
      <path id="패스_1387" data-name="패스 1387" d="M258.5,24.714a32.9,32.9,0,0,1,14.241,13.569q4.932,8.86,4.934,21.083,0,12.111-4.934,20.914A32.636,32.636,0,0,1,258.5,93.737q-9.311,4.654-22.317,4.654H212.971V20h23.214q13.008,0,22.317,4.71m2.634,58.594q8.579-8.579,8.578-23.942,0-15.476-8.578-24.166t-24.951-8.691H220.821V91.886h15.364q16.373,0,24.951-8.578" fill="#fff"/>
      <rect id="사각형_4085" data-name="사각형 4085" width="7.85" height="78.386" transform="translate(296.71 20.005)" fill="#fff"/>
      <path id="패스_1388" data-name="패스 1388" d="M342.432,94.074a36.762,36.762,0,0,1-13.961-14.243,41.688,41.688,0,0,1-5.1-20.689,41.705,41.705,0,0,1,5.1-20.69,36.771,36.771,0,0,1,13.961-14.241,40.935,40.935,0,0,1,39.585,0,36.4,36.4,0,0,1,13.906,14.241,42.091,42.091,0,0,1,5.045,20.69,42.073,42.073,0,0,1-5.045,20.689,36.388,36.388,0,0,1-13.906,14.243,40.942,40.942,0,0,1-39.585,0M377.868,88.3a28.655,28.655,0,0,0,10.99-11.607A36.735,36.735,0,0,0,392.9,59.142a36.415,36.415,0,0,0-4.038-17.494,28.761,28.761,0,0,0-10.99-11.55,32.538,32.538,0,0,0-31.4,0,28.741,28.741,0,0,0-10.99,11.55,36.415,36.415,0,0,0-4.038,17.494,36.735,36.735,0,0,0,4.038,17.549A28.635,28.635,0,0,0,346.469,88.3a32.538,32.538,0,0,0,31.4,0" fill="#fff"/>
    </g>
  </g>
  <path id="패스_1389" data-name="패스 1389" d="M545.041.21,514.468,38.244,483.895.21H450.459l47.292,58.829-47.292,58.829h33.436l30.573-38.034,30.573,38.034h33.436L531.185,59.039,578.477.21Z" fill="#dbfc00"/>
  <g id="그룹_2090" data-name="그룹 2090">
    <g id="그룹_2089" data-name="그룹 2089" clip-path="url(#clip-path)">
      <path id="패스_1390" data-name="패스 1390" d="M750.246,91.045h62.891V0h27.806V100.027a18.846,18.846,0,0,1-18.824,18.825H741.264a18.846,18.846,0,0,1-18.825-18.825V0h27.807Z" fill="#dbfc00"/>
      <path id="패스_1391" data-name="패스 1391" d="M577.8,46.138h47.983V.616h27.8V46.138h47.984V73.943H653.588v45.522h-27.8V73.943H577.8Z" fill="#dbfc00"/>
    </g>
  </g>
</svg>
