<svg xmlns="http://www.w3.org/2000/svg" xmlns:xlink="http://www.w3.org/1999/xlink" width="300" height="80" viewBox="0 0 300 80">
  <defs>
    <clipPath id="clip-path">
      <rect id="사각형_4071" data-name="사각형 4071" width="71.148" height="51.014" fill="none"/>
    </clipPath>
  </defs>
  <g id="그룹_2073" data-name="그룹 2073" transform="translate(-340 -1424)">
    <g id="그룹_2072" data-name="그룹 2072" transform="translate(-14.781 2)">
      <path id="패스_1397" data-name="패스 1397" d="M11.6-9.32c-2.76,0-4.6-2.92-4.6-8.4,0-5.44,1.84-8.36,4.6-8.36,2.72,0,4.6,2.92,4.6,8.36C16.2-12.24,14.32-9.32,11.6-9.32Zm0-21.52c-5.6,0-9.68,5.04-9.68,13.12C1.92-9.6,6-4.52,11.6-4.52c5.56,0,9.68-5.08,9.68-13.2C21.28-25.8,17.16-30.84,11.6-30.84ZM35.92-19.52H30.56V-33.4H25.28V3.44h5.28v-18.6h5.36ZM63.76-33.44V3.52h5.28V-33.44Zm-14.52,2.6c-5.56,0-9.68,5.04-9.68,13.12,0,8.12,4.12,13.2,9.68,13.2s9.68-5.08,9.68-13.2C58.92-25.8,54.8-30.84,49.24-30.84Zm0,4.76c2.72,0,4.6,2.92,4.6,8.36,0,5.48-1.88,8.4-4.6,8.4s-4.6-2.92-4.6-8.4C44.64-23.16,46.52-26.08,49.24-26.08Zm55.48.84h-20v-3.24h19.72v-4.2H79.48v11.6h25.24ZM84.4-3.12h20.16v-9.76H79.12v3.96H99.36v2.08H79.16V3.12h26.36V-.92H84.4Zm-9.04-16v4.16h33.32v-4.16Zm43.16-10.8h-5.28V-5.6h3.2a84.565,84.565,0,0,0,17.4-1.6l-.52-4.32A89.8,89.8,0,0,1,118.52-10Zm27.6,10.4h-5.16V-33.44h-5.28V3.36h5.28V-15.16h5.16Zm9.52,3.48h11.68V-30.28H150.4v4.2h11.72v5.88H150.44V-5h3.12a91.331,91.331,0,0,0,17-1.24l-.48-4.28a83.808,83.808,0,0,1-14.44,1.16Zm27.48-3.48h-5.28V-33.44h-5.28V3.52h5.28V-15.16h5.28Z" transform="translate(452.5 1479)" fill="#fff"/>
      <g id="그룹_2070" data-name="그룹 2070" transform="translate(372.781 1436)" clip-path="url(#clip-path)">
        <path id="패스_1380" data-name="패스 1380" d="M28.459,31.032c-.037,3.625-2.62,4.9-5.948,4.986H15.323C12,35.93,9.407,34.636,9.37,31.032V3.76H0V32.468c.013,8.111,7.167,12.241,13.516,12.254H24.268c6.328-.013,13.492-4.063,13.5-12.254L37.778,3.76H28.459Z" transform="translate(0 6.291)" fill="#d6006e"/>
        <path id="패스_1381" data-name="패스 1381" d="M34.5,10.051V0H25.889V10.051h-10v8.56h10V28.665H34.5V18.611H44.561v-8.56Z" transform="translate(26.589 -0.001)" fill="#d6006e"/>
      </g>
    </g>
    <rect id="사각형_4074" data-name="사각형 4074" width="300" height="80" transform="translate(340 1424)" fill="none"/>
  </g>
</svg>
