<svg xmlns="http://www.w3.org/2000/svg" width="1920" height="800" viewBox="0 0 1920 800">
  <g id="그룹_2106" data-name="그룹 2106" transform="translate(-2544 -4386)">
    <path id="패스_20" data-name="패스 20" d="M0,629H1920V0H0ZM659.246,488.36,566.709,373.242,474.171,488.36H372.97L516.111,310.3,372.97,132.24h101.2l92.538,115.118L659.246,132.24h101.2L617.307,310.3l143.14,178.06Zm473.782-132.949H987.79V493.2H903.632V355.411H758.4V271.252H903.632V133.467H987.79V271.252h145.238Zm421.839,78.951a57.04,57.04,0,0,1-56.976,56.976H1253.17a57.042,57.042,0,0,1-56.979-56.976V131.6h84.164V407.175h190.356V131.6h84.161Z" transform="translate(2544 4475)"/>
    <path id="패스_1394" data-name="패스 1394" d="M0,0H1920V133.229H0Z" transform="translate(2544 4386)"/>
    <path id="패스_1395" data-name="패스 1395" d="M0,0H1920V163.658H0Z" transform="translate(2544 5022.342)"/>
  </g>
</svg>
