<svg xmlns="http://www.w3.org/2000/svg" width="988.668" height="85.32" viewBox="0 0 988.668 85.32">
  <g id="그룹_82" data-name="그룹 82" transform="translate(85 -10029.52)">
    <path id="패스_93" data-name="패스 93" d="M754.68,351.64v24.48h28.8v11.161h-28.8V412.84h32.4V424H741V340.481h46.08V351.64Z" transform="translate(-826 9690)" fill="#fff"/>
    <path id="패스_94" data-name="패스 94" d="M842.158,382.36,868.078,424h-15.36l-18.84-30.241L816.238,424H801l25.92-41.64L800.878,340.6h15.36L835.2,371.08l17.76-30.481H868.2Z" transform="translate(-826 9690)" fill="#fff"/>
    <path id="패스_95" data-name="패스 95" d="M936.957,340.6v11.16h-22.2V424h-13.68V351.76h-22.32V340.6Z" transform="translate(-826 9690)" fill="#fff"/>
    <path id="패스_96" data-name="패스 96" d="M994.077,424l-19.2-33.36h-10.44V424h-13.68V340.6h28.8q9.6,0,16.26,3.36a23.314,23.314,0,0,1,9.96,9,24.5,24.5,0,0,1,3.3,12.6,24.972,24.972,0,0,1-4.74,14.82q-4.741,6.662-14.58,9.061L1010.4,424Zm-29.64-44.28h15.12q7.679,0,11.58-3.84t3.9-10.32q0-6.479-3.84-10.14t-11.64-3.66h-15.12Z" transform="translate(-826 9690)" fill="#fff"/>
    <path id="패스_97" data-name="패스 97" d="M1076.875,406.96h-34.92l-6,17.04h-14.28l29.88-83.519h15.84L1097.275,424h-14.4Zm-3.84-11.16-13.56-38.76L1045.8,395.8Z" transform="translate(-826 9690)" fill="#fff"/>
    <path id="패스_98" data-name="패스 98" d="M1126.853,419.38a40.427,40.427,0,0,1-15.479-15.24,45.267,45.267,0,0,1,0-43.98,40.566,40.566,0,0,1,15.479-15.179,44.974,44.974,0,0,1,42.96,0,40.157,40.157,0,0,1,15.42,15.179,45.682,45.682,0,0,1,0,43.98,40.023,40.023,0,0,1-15.42,15.24,44.982,44.982,0,0,1-42.96,0m36.18-10.2a26.219,26.219,0,0,0,10.141-10.8,34.68,34.68,0,0,0,3.66-16.26,34.332,34.332,0,0,0-3.66-16.2,25.914,25.914,0,0,0-10.141-10.679,31.135,31.135,0,0,0-29.52,0,25.892,25.892,0,0,0-10.139,10.679,34.3,34.3,0,0,0-3.66,16.2,34.644,34.644,0,0,0,3.66,16.26,26.2,26.2,0,0,0,10.139,10.8,30.707,30.707,0,0,0,29.52,0" transform="translate(-826 9690)" fill="#fff"/>
    <path id="패스_99" data-name="패스 99" d="M1247.633,424l-19.2-33.36h-10.44V424h-13.68V340.6h28.8q9.6,0,16.26,3.36a23.314,23.314,0,0,1,9.96,9,24.5,24.5,0,0,1,3.3,12.6,24.965,24.965,0,0,1-4.74,14.82q-4.741,6.662-14.58,9.061L1263.953,424Zm-29.64-44.28h15.12q7.679,0,11.58-3.84t3.9-10.32q0-6.479-3.84-10.14t-11.64-3.66h-15.12Z" transform="translate(-826 9690)" fill="#fff"/>
    <path id="패스_100" data-name="패스 100" d="M1330.732,345.7a36.516,36.516,0,0,1,15.48,14.64q5.46,9.54,5.46,22.26t-5.46,22.08a36.063,36.063,0,0,1-15.48,14.34q-10.02,4.982-23.339,4.98h-27.241V340.6h27.241q13.319,0,23.339,5.1m-.9,59.22q7.8-7.92,7.8-22.32,0-14.519-7.8-22.68t-22.439-8.16h-13.561v61.08h13.561q14.637,0,22.439-7.92" transform="translate(-826 9690)" fill="#fff"/>
    <rect id="사각형_177" data-name="사각형 177" width="13.68" height="83.4" transform="translate(539.232 10030.6)" fill="#fff"/>
    <path id="패스_101" data-name="패스 101" d="M1465.431,424h-13.68l-41.16-62.28V424h-13.68V340.48h13.68l41.16,62.16V340.48h13.68Z" transform="translate(-826 9690)" fill="#fff"/>
    <path id="패스_102" data-name="패스 102" d="M1533.711,406.96h-34.92l-6,17.04h-14.28l29.88-83.519h15.839L1554.11,424h-14.4Zm-3.84-11.16-13.561-38.76-13.679,38.76Z" transform="translate(-826 9690)" fill="#fff"/>
    <path id="패스_103" data-name="패스 103" d="M1610.39,424l-19.2-33.36h-10.44V424h-13.68V340.6h28.8q9.6,0,16.26,3.36a23.314,23.314,0,0,1,9.96,9,24.5,24.5,0,0,1,3.3,12.6,24.967,24.967,0,0,1-4.741,14.82q-4.742,6.662-14.58,9.061L1626.709,424Zm-29.641-44.28h15.12q7.679,0,11.58-3.84t3.9-10.32q0-6.479-3.84-10.14t-11.641-3.66h-15.12Z" transform="translate(-826 9690)" fill="#fff"/>
    <path id="패스_104" data-name="패스 104" d="M1704.708,340.6l-27.6,53.16V424h-13.68V393.76l-27.72-53.16h15.24l19.321,40.92,19.319-40.92Z" transform="translate(-826 9690)" fill="#fff"/>
    <path id="패스_105" data-name="패스 105" d="M1714.788,422.32a8.76,8.76,0,0,1,6.239-15,8.329,8.329,0,0,1,6.12,2.52,8.983,8.983,0,0,1,0,12.48,8.329,8.329,0,0,1-6.12,2.52,8.473,8.473,0,0,1-6.239-2.52" transform="translate(-826 9690)" fill="#fff"/>
  </g>
</svg>
