<svg xmlns="http://www.w3.org/2000/svg" width="1117.421" height="50.398" viewBox="0 0 1117.421 50.398">
  <g id="그룹_87" data-name="그룹 87" transform="translate(332.68 -11172.857)">
    <path id="패스_173" data-name="패스 173" d="M516.5,1506.1H493.32V1485.6H516.5v8.119h11.2v-10.752H532.3v25.7H527.7v-11.2H516.5Zm-4.48-16.856H497.8v13.16h14.224Zm22.176,39.592v3.64H500.04v-12.6h27.72v-4.984H499.928v-3.64H532.3v12.1h-27.72v5.488Z" transform="translate(-826 9690)" fill="#fff"/>
    <path id="패스_174" data-name="패스 174" d="M548.536,1517.3c9.128,0,15.624-.336,23.128-1.679l.448,3.751c-7.84,1.344-14.56,1.68-24.136,1.68H544v-33.6h24.36v3.752H548.536v10.36h17.976v3.695H548.536Zm33.488,15.792h-4.592v-50.176h4.592Z" transform="translate(-826 9690)" fill="#fff"/>
    <path id="패스_175" data-name="패스 175" d="M646.928,1508.952H601.456v-3.64h45.472Zm-33.6-20.944h-7.616v-3.527H642.56v3.527H635v9.576h7.392v3.529H605.88v-3.529h7.448Zm-1.736,41.1h31.024v3.471h-35.5V1521.1h29.456v-4.313H606.944v-3.416H641.1v11.033H611.592Zm18.816-41.1H617.92v9.576h12.488Z" transform="translate(-826 9690)" fill="#fff"/>
    <path id="패스_176" data-name="패스 176" d="M675.824,1510.464a88.523,88.523,0,0,1-18.872,1.568h-3.3v-14.616h14.336v-6.832H653.536v-3.695h18.872v14H658.072v7.448a84.824,84.824,0,0,0,17.248-1.512Zm3.472,5.656c0,6.5,8.176,11.872,17.024,13.272l-1.848,3.584c-7.392-1.288-14.448-5.152-17.472-10.695-3.08,5.543-10.024,9.407-17.472,10.695l-1.848-3.584c8.792-1.4,16.968-6.776,16.968-13.272v-1.288H679.3Zm3.3-3.36h-4.368v-28.9H682.6v12.209h6.72v-13.1h4.424v34.16H689.32v-17.359H682.6Z" transform="translate(-826 9690)" fill="#fff"/>
    <path id="패스_177" data-name="패스 177" d="M746.608,1508.224v3.7H701.192v-3.7h20.384v-5.768h-15.96v-3.7h7.392v-10.527h-7.56v-3.7H742.3v3.7H734.68v10.527h7.391v3.7h-15.9v5.768Zm-39.816,8.456h34.272v15.792H706.792Zm4.48,12.1h25.312v-8.456H711.272Zm6.328-30.017h12.488v-10.527H717.6Z" transform="translate(-826 9690)" fill="#fff"/>
    <path id="패스_178" data-name="패스 178" d="M796.448,1508.281H750.975v-3.7h45.473Zm-40.377-15.792c0-5.656,6.609-8.736,17.64-8.736s17.641,3.08,17.641,8.736-6.609,8.68-17.641,8.68-17.64-3.024-17.64-8.68M761.112,1529h31.023v3.584h-35.5v-12.04h29.456v-4.48H756.464v-3.472h34.159v11.312H761.112Zm-.336-36.512c0,3.359,4.7,5.264,12.935,5.264s12.936-1.905,12.936-5.264-4.7-5.264-12.936-5.264-12.935,1.9-12.935,5.264" transform="translate(-826 9690)" fill="#fff"/>
    <path id="패스_179" data-name="패스 179" d="M857.151,1509.512v3.7H811.679v-3.7h20.44v-4.927H817.671v-20.216h33.88v3.584H822.263v4.648h27.944v3.472H822.263V1501h29.568v3.584h-15.12v4.927Zm-5.544,15.513c0,5.264-6.272,8.063-17.192,8.063s-17.192-2.8-17.192-8.063c0-5.208,6.272-8.009,17.192-8.009s17.192,2.8,17.192,8.009m-4.592,0c0-2.969-4.48-4.593-12.6-4.593-8.064,0-12.6,1.624-12.6,4.593,0,3.023,4.536,4.592,12.6,4.592,8.12,0,12.6-1.569,12.6-4.592" transform="translate(-826 9690)" fill="#fff"/>
    <path id="패스_180" data-name="패스 180" d="M876.247,1491.481h10.192v3.752h-24.92v-3.752h10.192v-7.112h4.536Zm8.512,18.535c0,6.832-4.536,11.481-10.752,11.481s-10.752-4.649-10.752-11.481c0-6.72,4.536-11.424,10.752-11.424s10.752,4.7,10.752,11.424m-4.088,0c0-4.367-2.8-7.559-6.664-7.559-3.92,0-6.664,3.192-6.664,7.559,0,4.481,2.744,7.673,6.664,7.673,3.864,0,6.664-3.192,6.664-7.673m23.464-27.159v50.231h-4.424v-25.255h-6.44v22.847h-4.312v-46.647h4.312v20.048h6.44v-21.224Z" transform="translate(-826 9690)" fill="#fff"/>
    <path id="패스_181" data-name="패스 181" d="M948.767,1500.609c-.952,6.16-6.048,10.416-12.768,10.416-7.392,0-12.936-5.152-12.936-12.376,0-7.336,5.544-12.544,12.936-12.544,6.776,0,11.984,4.368,12.824,10.752h10.192v-13.944h4.648v37.015h-4.648v-19.319ZM936,1506.993c4.872,0,8.568-3.416,8.568-8.344a8.568,8.568,0,0,0-17.136,0c0,4.928,3.64,8.344,8.568,8.344m29.064,21.28v3.752H931.519v-15.792h4.648v12.04Z" transform="translate(-826 9690)" fill="#fff"/>
    <path id="패스_182" data-name="패스 182" d="M986.847,1497.08c0,8.737,3.752,17.472,10.7,21.392l-2.8,3.36c-4.872-2.912-8.344-8.288-10.08-14.672-1.736,6.888-5.376,12.768-10.36,15.9l-2.8-3.416c7-4.2,10.92-13.328,10.92-22.569v-4.536H972.9v-3.752h22.9v3.752h-8.96Zm13.44-13.047h4.368v46.479h-4.368V1504.7H992v-3.752h8.288Zm14.5,49.055h-4.424v-50.231h4.424Z" transform="translate(-826 9690)" fill="#fff"/>
    <path id="패스_183" data-name="패스 183" d="M1074.206,1482.912v50.344h-4.592v-27.439h-10.919c-.449,9.855-5.432,16.015-12.433,16.015-7.336,0-12.544-6.832-12.544-17.528s5.208-17.527,12.544-17.527c6.776,0,11.705,5.88,12.433,15.288h10.919v-19.153Zm-19.823,21.392c0-8.119-3.36-13.384-8.121-13.384-4.816,0-8.175,5.265-8.175,13.384,0,8.177,3.359,13.44,8.175,13.44,4.761,0,8.121-5.263,8.121-13.44" transform="translate(-826 9690)" fill="#fff"/>
    <path id="패스_184" data-name="패스 184" d="M1090.446,1516.848c9.688,0,16.016-.279,23.409-1.68l.5,3.865c-7.729,1.4-14.281,1.735-24.416,1.735h-4.033v-33.1h23.744v3.864h-19.208Zm33.321,16.408h-4.593v-50.344h4.593Z" transform="translate(-826 9690)" fill="#fff"/>
    <path id="패스_185" data-name="패스 185" d="M1150.086,1496.24c0,9.128,5.712,18.256,12.992,21.728l-2.688,3.64c-5.712-2.856-10.3-8.848-12.6-15.9-2.183,7.448-6.832,13.776-12.488,16.8l-2.8-3.64c7.28-3.64,12.992-13.328,12.992-22.624v-9.016h4.592Zm23.8-13.328V1533.2h-4.592v-29.512h-11.647v-3.752h11.647v-17.024Z" transform="translate(-826 9690)" fill="#fff"/>
    <path id="패스_186" data-name="패스 186" d="M1227.758,1511.977h-45.416v-3.7h45.416Zm-5.208-9.24h-34.5v-17.7H1222.1v3.752h-29.456v10.248h29.9Zm-29.792,25.479H1223v3.752h-34.832V1517.3h4.592Z" transform="translate(-826 9690)" fill="#fff"/>
    <path id="패스_187" data-name="패스 187" d="M1268.19,1510.633h-23.072v-23.239h23.072Zm-4.48-19.544H1249.6v15.9h14.112Zm-8.344,37.184h28.9v3.752h-33.488v-15.792h4.592Zm34.048-30.072v3.864h-7.393v17.584h-4.591v-36.792h4.591V1498.2Z" transform="translate(-826 9690)" fill="#fff"/>
    <path id="패스_188" data-name="패스 188" d="M1322.678,1503.633a116.441,116.441,0,0,1-23.408,2.183h-3.92V1485.1h4.536v16.913a112.718,112.718,0,0,0,22.176-2.241Zm-18.032,25.144h29.064v3.7h-33.6V1519.48h27.216v-5.152h-27.384v-3.695h31.919v12.376h-27.216Zm34.664-35.449v3.809h-7.448v11.088h-4.592v-25.312h4.592v10.415Z" transform="translate(-826 9690)" fill="#fff"/>
    <path id="패스_189" data-name="패스 189" d="M1399.062,1515H1378.51v18.2h-4.592V1515h-20.271v-3.807h45.359Zm-4.144-9.24c-7.784-1.344-15.344-5.712-18.592-11.76-3.136,6.1-10.7,10.416-18.536,11.76l-1.848-3.7c9.128-1.345,17.976-7.393,17.976-14.561v-2.8h4.816v2.8c0,7,8.96,13.216,18.088,14.561Z" transform="translate(-826 9690)" fill="#fff"/>
    <path id="패스_190" data-name="패스 190" d="M1415.47,1497.584c0-6.943,5.488-11.7,13.049-11.7,7.615,0,13.159,4.761,13.159,11.7s-5.544,11.7-13.159,11.7c-7.561,0-13.049-4.759-13.049-11.7m34.44,18.928c0,5.208,3.7,10.36,10.08,12.488l-2.3,3.472a16.74,16.74,0,0,1-10.08-9.464,17.468,17.468,0,0,1-9.3,9.912,16.033,16.033,0,0,1-9.352-9.744,17.639,17.639,0,0,1-9.912,9.3l-2.3-3.472c6.328-2.24,10.08-7.672,10.08-12.488v-2.687h4.424v2.687a13.947,13.947,0,0,0,6.944,11.929c4.817-2.969,7.224-8.009,7.224-11.929v-2.687h4.48Zm-29.96-18.928c0,4.649,3.584,7.9,8.569,7.9s8.679-3.248,8.679-7.9c0-4.591-3.7-7.9-8.679-7.9s-8.569,3.3-8.569,7.9m35.56,14.056h-4.592v-28.672h4.592Z" transform="translate(-826 9690)" fill="#fff"/>
    <path id="패스_191" data-name="패스 191" d="M1509.55,1509.512h-45.472v-3.695h45.472Zm-4.256-7.224c-7.784-1.232-15.232-5.152-18.424-10.752-3.136,5.6-10.64,9.52-18.48,10.752l-1.68-3.7c9.016-1.12,17.808-6.5,17.808-12.88v-2.239h4.7v2.239c0,6.216,8.848,11.76,17.752,12.88Zm-6.216,10.7h4.536v19.487h-33.768v-19.487h4.536v5.88h24.7Zm0,9.407h-24.7v6.385h24.7Z" transform="translate(-826 9690)" fill="#fff"/>
    <path id="패스_192" data-name="패스 192" d="M1521.7,1516.233a118.6,118.6,0,0,0,23.688-2.353l.5,3.92a119.338,119.338,0,0,1-24.64,2.353h-4.145v-32.368h4.593Zm33.432,16.855h-4.592v-50.176h4.592Z" transform="translate(-826 9690)" fill="#fff"/>
    <path id="패스_193" data-name="패스 193" d="M1570.533,1516.792a122.078,122.078,0,0,0,22.624-1.68l.5,3.808c-7.672,1.456-14.279,1.792-23.743,1.792h-3.977v-32.983h23.353v3.807h-18.761Zm40.208-10.248h-8.288v26.712h-4.592v-50.344h4.592v19.824h8.288Z" transform="translate(-826 9690)" fill="#fff"/>
  </g>
</svg>
