<svg xmlns="http://www.w3.org/2000/svg" width="482.873" height="84.359" viewBox="0 0 482.873 84.359">
  <g id="그룹_81" data-name="그룹 81" transform="translate(382 -9859.48)">
    <path id="패스_69" data-name="패스 69" d="M457.68,180.64v24.48h28.8v11.161h-28.8V241.84h32.4V253H444V169.481h46.08V180.64Z" transform="translate(-826 9690)" fill="#fff"/>
    <path id="패스_70" data-name="패스 70" d="M545.158,211.36,571.078,253h-15.36l-18.84-30.241L519.238,253H504l25.92-41.64L503.878,169.6h15.36L538.2,200.08l17.76-30.481H571.2Z" transform="translate(-826 9690)" fill="#fff"/>
    <path id="패스_71" data-name="패스 71" d="M641.4,206.44a22.477,22.477,0,0,1-9.6,9.18q-6.6,3.542-16.92,3.54h-15.12V253h-13.68V169.6h28.8q9.6,0,16.26,3.3a22.966,22.966,0,0,1,9.96,8.94,24.5,24.5,0,0,1,3.3,12.6,25.185,25.185,0,0,1-3,12m-14.88-1.98q3.84-3.537,3.84-10.02,0-13.68-15.48-13.68h-15.12V208h15.12q7.8,0,11.64-3.54" transform="translate(-826 9690)" fill="#fff"/>
    <path id="패스_72" data-name="패스 72" d="M707.756,235.96h-34.92l-6,17.04h-14.28l29.88-83.519h15.84L728.156,253h-14.4Zm-3.84-11.16-13.56-38.76-13.68,38.76Z" transform="translate(-826 9690)" fill="#fff"/>
    <path id="패스_73" data-name="패스 73" d="M809.634,253h-13.68l-41.16-62.28V253h-13.68V169.48h13.68l41.16,62.16V169.48h13.68Z" transform="translate(-826 9690)" fill="#fff"/>
    <path id="패스_74" data-name="패스 74" d="M878.214,174.7a36.516,36.516,0,0,1,15.48,14.64q5.459,9.54,5.46,22.26t-5.46,22.08a36.062,36.062,0,0,1-15.48,14.34Q868.193,253,854.874,253h-27.24V169.6h27.24q13.32,0,23.34,5.1m-.9,59.22q7.8-7.92,7.8-22.32,0-14.519-7.8-22.68t-22.44-8.16h-13.56v61.08h13.56q14.638,0,22.44-7.92" transform="translate(-826 9690)" fill="#fff"/>
    <path id="패스_75" data-name="패스 75" d="M911.993,251.32a8.76,8.76,0,0,1,6.24-15,8.332,8.332,0,0,1,6.12,2.52,8.986,8.986,0,0,1,0,12.48,8.332,8.332,0,0,1-6.12,2.52,8.475,8.475,0,0,1-6.24-2.52" transform="translate(-826 9690)" fill="#fff"/>
  </g>
</svg>
