<svg xmlns="http://www.w3.org/2000/svg" width="730.309" height="99.602" viewBox="0 0 730.309 99.602">
  <g id="그룹_83" data-name="그룹 83" transform="translate(230.12 -10200.519)">
    <path id="패스_84" data-name="패스 84" d="M609.56,511.6V564.76q0,9.481,4.98,14.28t13.86,4.8q9,0,13.98-4.8t4.98-14.28V511.6h13.68V564.52q0,10.2-4.44,17.28a27.563,27.563,0,0,1-11.88,10.561,38.31,38.31,0,0,1-16.44,3.479,37.91,37.91,0,0,1-16.38-3.479A26.885,26.885,0,0,1,600.2,581.8q-4.32-7.078-4.32-17.28V511.6Z" transform="translate(-826 9690)" fill="#fff"/>
    <path id="패스_85" data-name="패스 85" d="M734.838,559.24a21.408,21.408,0,0,1,1.38,24.779,22.369,22.369,0,0,1-9.54,8.04A33.7,33.7,0,0,1,712.158,595H678.8V511.6h31.8a34.122,34.122,0,0,1,14.64,2.881,21.5,21.5,0,0,1,9.24,7.739,19.692,19.692,0,0,1,3.12,10.861,18.608,18.608,0,0,1-3.84,12,22.352,22.352,0,0,1-10.32,7.08,18.45,18.45,0,0,1,11.4,7.08m-42.36-12.6H709.4q6.72,0,10.5-3.059t3.78-8.821a10.9,10.9,0,0,0-3.78-8.819q-3.78-3.179-10.5-3.181h-16.92Zm29.4,33.841q3.96-3.358,3.96-9.36a12.145,12.145,0,0,0-4.2-9.72q-4.2-3.6-11.16-3.6h-18v26.04h18.48q6.958,0,10.92-3.359" transform="translate(-826 9690)" fill="#fff"/>
    <rect id="사각형_174" data-name="사각형 174" width="13.68" height="83.4" transform="translate(-71.602 10201.6)" fill="#fff"/>
    <path id="패스_86" data-name="패스 86" d="M850.636,610.12,836,594.28a45.178,45.178,0,0,1-33.3-3.9,40.431,40.431,0,0,1-15.48-15.24,45.267,45.267,0,0,1,0-43.98,40.561,40.561,0,0,1,15.48-15.179,44.974,44.974,0,0,1,42.96,0,40.164,40.164,0,0,1,15.42,15.179,42.957,42.957,0,0,1,5.64,21.96,43.425,43.425,0,0,1-4.98,20.821A39.827,39.827,0,0,1,848,588.88l20.04,21.24Zm-51.42-40.74a26.2,26.2,0,0,0,10.14,10.8,30.707,30.707,0,0,0,29.52,0,26.218,26.218,0,0,0,10.14-10.8,34.686,34.686,0,0,0,3.66-16.26,34.332,34.332,0,0,0-3.66-16.2,25.916,25.916,0,0,0-10.14-10.68,31.142,31.142,0,0,0-29.52,0,25.9,25.9,0,0,0-10.14,10.68,34.309,34.309,0,0,0-3.66,16.2,34.662,34.662,0,0,0,3.66,16.26" transform="translate(-826 9690)" fill="#fff"/>
    <path id="패스_87" data-name="패스 87" d="M894.075,511.6V564.76q0,9.481,4.98,14.28t13.86,4.8q9,0,13.98-4.8t4.98-14.28V511.6h13.68V564.52q0,10.2-4.44,17.28a27.563,27.563,0,0,1-11.88,10.561,38.31,38.31,0,0,1-16.44,3.479,37.911,37.911,0,0,1-16.38-3.479,26.885,26.885,0,0,1-11.7-10.561q-4.32-7.078-4.32-17.28V511.6Z" transform="translate(-826 9690)" fill="#fff"/>
    <rect id="사각형_175" data-name="사각형 175" width="13.68" height="83.4" transform="translate(137.314 10201.6)" fill="#fff"/>
    <path id="패스_88" data-name="패스 88" d="M1048.872,511.6v11.16h-22.2V595h-13.68V522.76h-22.32V511.6Z" transform="translate(-826 9690)" fill="#fff"/>
    <path id="패스_89" data-name="패스 89" d="M1079.292,590.38a40.43,40.43,0,0,1-15.48-15.24,45.268,45.268,0,0,1,0-43.98,40.568,40.568,0,0,1,15.48-15.179,44.974,44.974,0,0,1,42.96,0,40.163,40.163,0,0,1,15.42,15.179,45.689,45.689,0,0,1,0,43.98,40.029,40.029,0,0,1-15.42,15.24,44.981,44.981,0,0,1-42.96,0m36.18-10.2a26.219,26.219,0,0,0,10.14-10.8,34.681,34.681,0,0,0,3.66-16.26,34.333,34.333,0,0,0-3.66-16.2,25.913,25.913,0,0,0-10.14-10.679,31.136,31.136,0,0,0-29.521,0,25.9,25.9,0,0,0-10.139,10.679,34.308,34.308,0,0,0-3.66,16.2,34.656,34.656,0,0,0,3.66,16.26,26.209,26.209,0,0,0,10.139,10.8,30.709,30.709,0,0,0,29.521,0" transform="translate(-826 9690)" fill="#fff"/>
    <path id="패스_90" data-name="패스 90" d="M1170.311,511.6V564.76q0,9.481,4.98,14.28t13.862,4.8q9,0,13.978-4.8t4.981-14.28V511.6h13.679V564.52q0,10.2-4.439,17.28a27.554,27.554,0,0,1-11.881,10.561,38.305,38.305,0,0,1-16.439,3.479,37.906,37.906,0,0,1-16.379-3.479,26.888,26.888,0,0,1-11.7-10.561q-4.319-7.078-4.321-17.28V511.6Z" transform="translate(-826 9690)" fill="#fff"/>
    <path id="패스_91" data-name="패스 91" d="M1251.91,592.9a24.806,24.806,0,0,1-10.561-8.341,21.169,21.169,0,0,1-3.839-12.6h14.639a13.211,13.211,0,0,0,4.261,8.879q3.78,3.483,10.62,3.481,7.078,0,11.039-3.42a11.117,11.117,0,0,0,3.961-8.82,9.634,9.634,0,0,0-2.461-6.84,16.471,16.471,0,0,0-6.119-4.08,92.545,92.545,0,0,0-10.141-3.12,94.891,94.891,0,0,1-13.259-4.38,21.909,21.909,0,0,1-8.7-6.9q-3.6-4.68-3.6-12.479a22.194,22.194,0,0,1,3.6-12.6,23,23,0,0,1,10.081-8.279,36.621,36.621,0,0,1,15-2.881q12.118,0,19.86,6.061t8.58,16.62h-15.12a10.957,10.957,0,0,0-4.32-7.8q-3.96-3.24-10.44-3.24a14.817,14.817,0,0,0-9.6,3q-3.72,3-3.719,8.639a8.763,8.763,0,0,0,2.34,6.3,16.5,16.5,0,0,0,5.94,3.9,91.84,91.84,0,0,0,9.84,3.12,103.152,103.152,0,0,1,13.5,4.559,22.513,22.513,0,0,1,8.88,7.021q3.658,4.742,3.66,12.66a22.77,22.77,0,0,1-3.42,12,24.679,24.679,0,0,1-9.96,9.06,32.847,32.847,0,0,1-15.42,3.419,37.327,37.327,0,0,1-15.12-2.939" transform="translate(-826 9690)" fill="#fff"/>
    <path id="패스_92" data-name="패스 92" d="M1311.309,593.32a8.76,8.76,0,0,1,6.239-15,8.329,8.329,0,0,1,6.12,2.52,8.983,8.983,0,0,1,0,12.48,8.329,8.329,0,0,1-6.12,2.52,8.473,8.473,0,0,1-6.239-2.52" transform="translate(-826 9690)" fill="#fff"/>
  </g>
</svg>
