<svg xmlns="http://www.w3.org/2000/svg" width="1208.533" height="50.848" viewBox="0 0 1208.533 50.848">
  <g id="그룹_88" data-name="그룹 88" transform="translate(345.976 -11343.408)">
    <path id="패스_150" data-name="패스 150" d="M525.328,1680.569v3.7h-45.3v-3.7h18.424v-7.28h4.592v7.28Zm-10.136-15.064c.056-1.736.056-3.3.056-4.873v-.559h-29.9v-3.752h34.44v4.311a75.828,75.828,0,0,1-1.4,16.577l-4.536-.336a59.219,59.219,0,0,0,1.12-7.9l-30.184,1.4-.672-3.865Zm-24.864,34.1h30.52v3.752H485.736v-14.784h4.592Z" transform="translate(-826 9690)" fill="#fff"/>
    <path id="패스_151" data-name="패스 151" d="M553.776,1681.912c-5.768,1.121-10.472,1.344-18.48,1.344H532.1v-25.143h18.984v3.7h-14.56v6.888h12.544v3.584H536.528v7.28a78.056,78.056,0,0,0,16.8-1.345Zm19.88,17.361v3.752h-34.1v-15.569h4.592v11.817Zm-15.568-27.385h-6.664v-3.752h6.664v-13.159h4.368v35.336h-4.368ZM572.2,1691.6h-4.424v-37.632H572.2Z" transform="translate(-826 9690)" fill="#fff"/>
    <path id="패스_152" data-name="패스 152" d="M625.232,1697.7H579.648v-3.752h45.584Zm-42.84-15.9c9.632-1.68,17.7-7.9,17.7-16.128H583.9v-3.695h16.184v-6.832h4.648v6.832h16.128v3.695H604.736c0,8.232,8.064,14.448,17.7,16.128l-1.848,3.752c-7.952-1.624-15.064-5.88-18.144-12.319-3.136,6.439-10.248,10.695-18.256,12.319Z" transform="translate(-826 9690)" fill="#fff"/>
    <path id="패스_153" data-name="패스 153" d="M664.544,1666.905c-3.248,8.063-10.864,13.943-21.672,17.08l-1.848-3.641c11.984-3.584,19.432-10.248,20.272-18.927H643.6v-3.7h22.68a28.811,28.811,0,0,1-.56,5.433h11.368v-9.185h4.648v30.017h-4.648v-6.608h-13.16v-3.752h13.16v-6.72Zm17.416,27.328c0,6.048-6.5,9.688-16.632,9.688s-16.632-3.64-16.632-9.688,6.5-9.688,16.632-9.688,16.632,3.639,16.632,9.688m-4.536,0c0-3.752-4.7-6.049-12.1-6.049s-12.1,2.3-12.1,6.049c0,3.808,4.7,6.1,12.1,6.1s12.1-2.3,12.1-6.1" transform="translate(-826 9690)" fill="#fff"/>
    <path id="패스_154" data-name="패스 154" d="M719.367,1662.872h-29.12v-3.7h12.265v-5.768H707.1v5.768h12.264Zm-14.56,20.441c-6.832,0-11.648-3.529-11.648-8.905s4.816-8.96,11.648-8.96c6.776,0,11.592,3.584,11.592,8.96s-4.816,8.905-11.592,8.905m0-3.416c4.256,0,7.28-2.241,7.28-5.489s-3.024-5.488-7.28-5.488-7.28,2.24-7.28,5.488,3.025,5.489,7.28,5.489m-5.879,7.111h32.647v16.464H698.928Zm4.48,12.769H727.1v-9.128H703.408Zm28.167-45.809v30.353h-4.648v-11.369h-8.344V1669.2h8.344v-15.232Z" transform="translate(-826 9690)" fill="#fff"/>
    <path id="패스_155" data-name="패스 155" d="M792.279,1653.912v50.344h-4.592v-19.488H775.143c-2.072,5.1-5.992,8.064-10.808,8.064-7.336,0-12.544-6.832-12.544-17.528s5.208-17.527,12.544-17.527c4.648,0,8.344,2.687,10.472,7.391h12.88v-11.256ZM772.511,1675.3c0-8.119-3.416-13.384-8.176-13.384-4.816,0-8.176,5.265-8.176,13.384,0,8.177,3.36,13.441,8.176,13.441,4.76,0,8.176-5.264,8.176-13.441m15.176,5.712v-12.1H776.095a28.537,28.537,0,0,1,.728,6.384,29.919,29.919,0,0,1-.56,5.712Z" transform="translate(-826 9690)" fill="#fff"/>
    <path id="패스_156" data-name="패스 156" d="M828.063,1681.968a20.633,20.633,0,0,1-12.1-11.312,21.736,21.736,0,0,1-12.656,12.768l-2.407-3.64c7.5-2.744,12.655-9.52,12.655-16.744V1661.3h-11.2v-3.7h26.824v3.7H818.151v1.736c0,6.441,4.928,12.769,12.208,15.344Zm14.224,12.824c0,5.936-6.44,9.352-16.744,9.352s-16.744-3.416-16.744-9.352,6.441-9.352,16.744-9.352,16.744,3.416,16.744,9.352m-4.592,0c0-3.64-4.592-5.824-12.152-5.824s-12.152,2.184-12.152,5.824,4.592,5.768,12.152,5.768,12.152-2.128,12.152-5.768m-.224-27.832v-12.992h4.648v29.9h-4.648v-13.16h-9.912v-3.752Z" transform="translate(-826 9690)" fill="#fff"/>
    <path id="패스_157" data-name="패스 157" d="M878.911,1655.033h4.368v46.647h-4.368v-24.472h-6.327c-.392,9.857-4.48,15.905-10.641,15.905-6.551,0-10.751-6.721-10.751-17.584,0-10.7,4.2-17.416,10.751-17.416,6.048,0,10.081,5.88,10.641,15.343h6.327Zm-10.471,20.5c0-8.065-2.577-13.161-6.5-13.161-4.032,0-6.551,5.1-6.551,13.161,0,8.231,2.519,13.328,6.551,13.328,3.92,0,6.5-5.1,6.5-13.328m24.807,28.615h-4.368v-50.231h4.368Z" transform="translate(-826 9690)" fill="#fff"/>
    <path id="패스_158" data-name="패스 158" d="M918,1667.24c0,9.128,5.712,18.256,12.992,21.728l-2.688,3.64c-5.712-2.856-10.3-8.848-12.6-15.9-2.184,7.448-6.832,13.776-12.487,16.8l-2.8-3.64c7.28-3.64,12.992-13.328,12.992-22.624v-9.016H918Zm23.8-13.328V1704.2h-4.592v-29.512H925.559v-3.752h11.648v-17.024Z" transform="translate(-826 9690)" fill="#fff"/>
    <path id="패스_159" data-name="패스 159" d="M950.591,1689.361c9.128,0,21.728-.057,32.7-1.737l.392,3.416c-11.312,2.073-23.464,2.184-32.536,2.184Zm29.4-19.937c0,7-5.6,11.817-13.44,11.817-7.784,0-13.44-4.817-13.44-11.817,0-7.056,5.656-11.815,13.44-11.815,7.84,0,13.44,4.759,13.44,11.815m-22.4,0c0,4.649,3.808,7.9,8.96,7.9,5.208,0,8.96-3.248,8.96-7.9,0-4.7-3.752-7.895-8.96-7.895-5.152,0-8.96,3.191-8.96,7.895m33.6,34.832H986.6v-50.344h4.592Z" transform="translate(-826 9690)" fill="#fff"/>
    <path id="패스_160" data-name="패스 160" d="M1029.943,1689.584c4.7-.28,9.576-.616,14.056-1.343l.392,3.416c-11.256,2.072-23.576,2.128-32.536,2.183l-.616-3.864c4.144,0,9.016,0,14.112-.168v-9.352h4.592Zm-17.192-11.032c7.392-2.239,12.488-7.783,12.6-14.392h-11.424v-3.7h11.424v-6.216h4.592v6.216h11.591v3.7h-11.591c.112,6.384,5.375,11.7,12.711,13.888l-2.128,3.528a20.156,20.156,0,0,1-12.823-10.583c-2.184,5.263-6.832,9.24-12.824,11.143ZM1051.9,1704.2H1047.3v-50.288h4.592Z" transform="translate(-826 9690)" fill="#fff"/>
    <path id="패스_161" data-name="패스 161" d="M1087.4,1681.129a21.088,21.088,0,0,1-11.984-11.312,20.993,20.993,0,0,1-12.431,12.712l-2.408-3.641a18.376,18.376,0,0,0,12.487-17.247v-5.152h4.593v5.544c0,6.776,4.927,13.048,12.151,15.512Zm12.936,13.832c0,5.824-6.328,9.128-16.52,9.128-10.247,0-16.575-3.3-16.575-9.128,0-5.88,6.328-9.184,16.575-9.184,10.192,0,16.52,3.3,16.52,9.184m-4.591,0c0-3.529-4.537-5.6-11.929-5.6-7.447,0-11.984,2.071-11.984,5.6,0,3.471,4.537,5.544,11.984,5.544,7.392,0,11.929-2.073,11.929-5.544m11.479-28.056v3.808h-7.448v13.664h-4.592v-30.409h4.592v12.937Z" transform="translate(-826 9690)" fill="#fff"/>
    <path id="패스_162" data-name="패스 162" d="M1110.975,1689.361c9.128,0,21.728-.057,32.7-1.737l.391,3.416c-11.311,2.073-23.463,2.184-32.535,2.184Zm29.4-19.937c0,7-5.6,11.817-13.44,11.817-7.784,0-13.44-4.817-13.44-11.817,0-7.056,5.656-11.815,13.44-11.815,7.84,0,13.44,4.759,13.44,11.815m-22.4,0c0,4.649,3.808,7.9,8.96,7.9,5.208,0,8.96-3.248,8.96-7.9,0-4.7-3.752-7.895-8.96-7.895-5.152,0-8.96,3.191-8.96,7.895m33.6,34.832h-4.592v-50.344h4.592Z" transform="translate(-826 9690)" fill="#fff"/>
    <path id="패스_163" data-name="패스 163" d="M1216.813,1693.336v3.752H1171.4v-3.752h17.64V1675.36h4.592v17.976ZM1206.79,1662.7h-30.632v-3.752h35.224v4.984a113.236,113.236,0,0,1-1.9,23.24l-4.592-.5a107.239,107.239,0,0,0,1.9-22.736Z" transform="translate(-826 9690)" fill="#fff"/>
    <path id="패스_164" data-name="패스 164" d="M1243.022,1657.664c0,11.985-6.607,21-19.319,26.376l-2.24-3.36c10.248-4.2,16.015-10.976,16.855-19.319h-14.9v-3.7Zm-13.216,28.224h33.768v18.256h-4.592v-14.5h-29.176Zm33.768-31.92v29.513h-4.424v-13.16h-6.607v12.935h-4.368v-28.392h4.368v11.7h6.607v-12.6Z" transform="translate(-826 9690)" fill="#fff"/>
    <path id="패스_165" data-name="패스 165" d="M1307.03,1681.633h-23.072v-23.239h23.072Zm-4.48-19.544h-14.112v15.9h14.112Zm-8.344,37.184h28.9v3.752h-33.488v-15.792h4.592Zm34.048-30.072v3.864h-7.393v17.584h-4.591v-36.792h4.591V1669.2Z" transform="translate(-826 9690)" fill="#fff"/>
    <path id="패스_166" data-name="패스 166" d="M1377.31,1679.113v3.752h-45.584v-3.752h20.384v-7.561h4.593v7.561Zm-43.008-8.344c8.736-1.009,16.912-5.433,17.193-11.089H1335.87v-3.752h37.184v3.752H1357.43c.28,5.656,8.344,10.08,17.192,11.089l-1.624,3.584c-8.232-1.009-15.736-4.7-18.536-10.248-2.8,5.544-10.248,9.239-18.48,10.248Zm2.464,17.079h34.776V1704.2h-4.592v-12.657h-30.184Z" transform="translate(-826 9690)" fill="#fff"/>
    <path id="패스_167" data-name="패스 167" d="M1427.15,1694.008v3.809h-45.64v-3.809h20.44v-12.88h-14.615v-23.183h34.047v3.751h-29.456v15.736h29.96v3.7H1406.6v12.88Z" transform="translate(-826 9690)" fill="#fff"/>
    <path id="패스_168" data-name="패스 168" d="M1476.933,1680.737h-45.528v-3.473h45.528Zm-35.448,19.432h31.36v3.3h-35.9v-11.143h29.792v-4.2h-29.9v-3.3h34.439v10.7h-29.792Zm25.088-41.552h-29.456v-3.248h33.992v10.472h-29.344v4.312h30.24v3.3h-34.776V1662.7h29.344Z" transform="translate(-826 9690)" fill="#fff"/>
    <path id="패스_169" data-name="패스 169" d="M1517.254,1681.633h-23.072v-23.239h23.072Zm-4.48-19.544h-14.112v15.9h14.112Zm-8.344,37.184h28.9v3.752h-33.488v-15.792h4.592Zm34.048-30.072v3.864h-7.393v17.584h-4.591v-36.792h4.591V1669.2Z" transform="translate(-826 9690)" fill="#fff"/>
    <path id="패스_170" data-name="패스 170" d="M1587.421,1680.344h-45.472v-3.752h45.472Zm-5.208-8.792h-34.552v-16.016h34.1v3.7h-29.513v8.624h29.96Zm-5.208,12.712h4.593v19.1h-33.769v-19.1h4.536v5.488h24.64Zm0,9.128h-24.64v6.272h24.64Z" transform="translate(-826 9690)" fill="#fff"/>
    <path id="패스_171" data-name="패스 171" d="M1599.518,1687.233a118.593,118.593,0,0,0,23.687-2.353l.5,3.92a119.33,119.33,0,0,1-24.64,2.353h-4.144v-32.368h4.593Zm33.431,16.855h-4.592v-50.176h4.592Z" transform="translate(-826 9690)" fill="#fff"/>
    <path id="패스_172" data-name="패스 172" d="M1648.349,1687.792a122.079,122.079,0,0,0,22.624-1.68l.5,3.808c-7.672,1.456-14.279,1.792-23.743,1.792h-3.977v-32.983h23.353v3.807h-18.761Zm40.208-10.248h-8.288v26.712h-4.592v-50.344h4.592v19.824h8.288Z" transform="translate(-826 9690)" fill="#fff"/>
  </g>
</svg>
