<svg xmlns="http://www.w3.org/2000/svg" xmlns:xlink="http://www.w3.org/1999/xlink" width="210" height="80" viewBox="0 0 210 80">
  <defs>
    <clipPath id="clip-path">
      <rect id="사각형_4195" data-name="사각형 4195" width="200.86" height="50.955" fill="none"/>
    </clipPath>
  </defs>
  <g id="그룹_2211" data-name="그룹 2211" transform="translate(-305 -528)">
    <g id="그룹_2198" data-name="그룹 2198" transform="translate(310 542.999)">
      <g id="그룹_2197" data-name="그룹 2197" transform="translate(0 0)" clip-path="url(#clip-path)">
        <path id="패스_1418" data-name="패스 1418" d="M28.423,31.02c-.037,3.621-2.616,4.885-5.936,4.978H15.305c-3.315-.093-5.912-1.381-5.944-4.978V3.773H0V32.449c.016,8.1,7.158,12.232,13.5,12.242H24.24c6.319-.011,13.474-4.058,13.49-12.242l.005-28.676H28.423Z" transform="translate(0 6.265)" fill="#d6006e"/>
        <path id="패스_1419" data-name="패스 1419" d="M34.534,10.04V0h-8.6V10.04H15.946v8.547h9.986V28.634h8.6V18.586h10.05V10.04Z" transform="translate(26.483 0)" fill="#d6006e"/>
        <path id="패스_1420" data-name="패스 1420" d="M29.521,38.25V33.006H46.367V24.792H34.635V4.889H64.569v19.9H52.8v8.214H69.683V38.25ZM58.5,10.139H40.752v9.4H58.5Z" transform="translate(49.029 8.119)" fill="#8b8b8c"/>
        <path id="패스_1421" data-name="패스 1421" d="M46.227,35.659V7.044H52.3v8.991h8.674V7.044h6.024V35.659ZM60.971,21.33H52.3v9.081h8.674Zm17.846,3.057V43.92H72.7V3.758h6.117V18.5h5.654v5.888Z" transform="translate(76.775 6.24)" fill="#8b8b8c"/>
        <path id="패스_1422" data-name="패스 1422" d="M73.206,24.113c-5.936,0-11.319-3.97-11.319-9.813s5.3-9.765,11.319-9.765c5.928,0,11.319,3.922,11.319,9.765,0,5.8-5.391,9.813-11.319,9.813M67.592,43.46V32.694H90.454v-2.1H67.592V26.074H97.164V36.707H74.3v2.057H98.077v4.7ZM73.206,9.689c-2.834,0-5.343,2.012-5.343,4.518,0,2.6,2.509,4.656,5.343,4.656,2.786,0,5.3-2.051,5.3-4.656,0-2.554-2.509-4.518-5.3-4.518M91.233,3.758H97.3V24.523H91.233Z" transform="translate(102.783 6.24)" fill="#8b8b8c"/>
      </g>
    </g>
    <rect id="사각형_4196" data-name="사각형 4196" width="210" height="80" transform="translate(305 528)" fill="none"/>
  </g>
</svg>
