<svg xmlns="http://www.w3.org/2000/svg" width="200" height="80" viewBox="0 0 200 80">
  <g id="그룹_2075" data-name="그룹 2075" transform="translate(-1512 -1424)">
    <g id="그룹_2076" data-name="그룹 2076">
      <path id="_8831c85b436247f" data-name="8831c85b436247f" d="M23.325,42.889c-2.552.448-5.148.582-7.835.94l-8.193-24V44.859c-2.552.269-4.88.627-7.3.985V0H6.805l9.312,26.011V0h7.208V42.889Zm14.1-26.1c2.776,0,7.029-.134,9.581-.134v7.163c-3.179,0-6.894,0-9.581.134V34.607c4.208-.269,8.417-.627,12.67-.761v6.894L30.264,42.307V0H50.1V7.163H37.427v9.625ZM76.735,7.163H69.3v32.95c-2.418,0-4.835,0-7.163.089V7.163H54.708V0H76.735V7.163ZM88.374,16.3h9.8v7.163h-9.8V39.711H81.345V0h20.012V7.163H88.374V16.3ZM113,33.443c4.074.089,8.193.4,12.177.627v7.074c-6.4-.4-12.8-.806-19.34-.94V0H113V33.443Zm18.221,8.193c2.283.135,4.7.269,7.029.537V0h-7.029ZM169.631,0l-9.088,21.8,9.088,24.041c-2.686-.358-5.373-.851-8.059-1.3l-5.148-13.251-5.238,12.177c-2.6-.448-5.1-.582-7.7-.941l9.222-21L144.381,0h7.7l4.7,12.043L161.8,0h7.835Z" transform="translate(1527 1441)" fill="#555"/>
      <rect id="사각형_4076" data-name="사각형 4076" width="200" height="80" transform="translate(1512 1424)" fill="none"/>
    </g>
  </g>
</svg>
