<svg xmlns="http://www.w3.org/2000/svg" xmlns:xlink="http://www.w3.org/1999/xlink" width="106" height="15" viewBox="0 0 106 15">
  <defs>
    <clipPath id="clip-path">
      <rect id="사각형_446" data-name="사각형 446" width="106" height="15" transform="translate(4387 5153)" fill="#fff" stroke="#707070" stroke-width="1"/>
    </clipPath>
    <clipPath id="clip-path-2">
      <rect id="사각형_443" data-name="사각형 443" width="106.307" height="57.282" fill="none"/>
    </clipPath>
  </defs>
  <g id="마스크_그룹_9" data-name="마스크 그룹 9" transform="translate(-4387 -5153)" clip-path="url(#clip-path)">
    <g id="그룹_331" data-name="그룹 331" transform="translate(4387 5110)">
      <g id="그룹_326" data-name="그룹 326">
        <g id="그룹_325" data-name="그룹 325" clip-path="url(#clip-path-2)">
          <path id="패스_844" data-name="패스 844" d="M21.209,178.03a3.819,3.819,0,0,1-1.588-1.263,3.233,3.233,0,0,1-.594-1.866h1.8a2.369,2.369,0,0,0,.752,1.532,2.7,2.7,0,0,0,1.922.623,2.807,2.807,0,0,0,1.9-.6,1.958,1.958,0,0,0,.7-1.55,1.762,1.762,0,0,0-.409-1.207,2.614,2.614,0,0,0-1.021-.706,16.1,16.1,0,0,0-1.653-.52,14.524,14.524,0,0,1-2.052-.669,3.3,3.3,0,0,1-1.318-1.049,3.083,3.083,0,0,1-.548-1.922,3.332,3.332,0,0,1,.538-1.875,3.511,3.511,0,0,1,1.514-1.262,5.328,5.328,0,0,1,2.238-.446,4.687,4.687,0,0,1,2.98.91,3.363,3.363,0,0,1,1.309,2.414H25.824a2,2,0,0,0-.78-1.309,2.77,2.77,0,0,0-1.82-.567,2.637,2.637,0,0,0-1.727.548,1.87,1.87,0,0,0-.669,1.532,1.659,1.659,0,0,0,.4,1.152,2.568,2.568,0,0,0,.984.678q.585.233,1.643.529a15.525,15.525,0,0,1,2.062.7,3.442,3.442,0,0,1,1.337,1.059,3.079,3.079,0,0,1,.557,1.941,3.41,3.41,0,0,1-.5,1.782,3.687,3.687,0,0,1-1.486,1.356,4.9,4.9,0,0,1-2.321.52,5.531,5.531,0,0,1-2.293-.455" transform="translate(-13.956 -121.203)" fill="#9e9e9e"/>
          <path id="패스_845" data-name="패스 845" d="M91.477,165.872v1.374H87.949v11.569h-1.69V167.246H82.712v-1.374Z" transform="translate(-60.667 -121.664)" fill="#9e9e9e"/>
          <path id="패스_846" data-name="패스 846" d="M149.341,165.872v8.189a3.465,3.465,0,0,0,.845,2.563,3.694,3.694,0,0,0,4.68,0,3.466,3.466,0,0,0,.845-2.563v-8.189h1.69v8.171a5.279,5.279,0,0,1-.65,2.72A4.077,4.077,0,0,1,155,178.407a5.975,5.975,0,0,1-4.959,0,4.021,4.021,0,0,1-1.746-1.644,5.345,5.345,0,0,1-.64-2.72v-8.171Z" transform="translate(-108.299 -121.664)" fill="#9e9e9e"/>
          <path id="패스_847" data-name="패스 847" d="M226.907,166.661a5.55,5.55,0,0,1,2.377,2.256,7.615,7.615,0,0,1,0,6.9,5.449,5.449,0,0,1-2.377,2.228,8.151,8.151,0,0,1-3.667.771h-4.03V165.872h4.03a8,8,0,0,1,3.667.789m.158,9.434a5.055,5.055,0,0,0,1.318-3.724,5.157,5.157,0,0,0-1.328-3.77,5.1,5.1,0,0,0-3.816-1.356H220.9v10.177h2.34a5.16,5.16,0,0,0,3.825-1.328" transform="translate(-160.785 -121.664)" fill="#9e9e9e"/>
          <rect id="사각형_442" data-name="사각형 442" width="1.69" height="12.944" transform="translate(78.052 44.208)" fill="#9e9e9e"/>
          <path id="패스_848" data-name="패스 848" d="M335.229,177.692a6.176,6.176,0,0,1-2.349-2.358,7.156,7.156,0,0,1,0-6.815,6.185,6.185,0,0,1,2.349-2.358,6.853,6.853,0,0,1,6.593,0,6.139,6.139,0,0,1,2.34,2.349,7.259,7.259,0,0,1,0,6.834,6.131,6.131,0,0,1-2.34,2.349,6.851,6.851,0,0,1-6.593,0m5.729-1.253a4.446,4.446,0,0,0,1.708-1.8,6.236,6.236,0,0,0,0-5.432,4.483,4.483,0,0,0-1.7-1.792,5.075,5.075,0,0,0-4.9,0,4.479,4.479,0,0,0-1.7,1.792,6.243,6.243,0,0,0,0,5.432,4.448,4.448,0,0,0,1.708,1.8,5.037,5.037,0,0,0,4.884,0" transform="translate(-243.528 -121.255)" fill="#9e9e9e"/>
        </g>
      </g>
      <path id="패스_849" data-name="패스 849" d="M25.75.215,17.426,10.569,9.1.215H0L12.875,16.23,0,32.246H9.1l8.323-10.354L25.75,32.246h9.1L21.977,16.23,34.852.215Z" transform="translate(0 -0.157)" fill="#dbfc00"/>
      <g id="그룹_328" data-name="그룹 328">
        <g id="그룹_327" data-name="그룹 327" clip-path="url(#clip-path-2)">
          <path id="패스_850" data-name="패스 850" d="M285.39,24.786h17.122V0h7.57V27.232a5.131,5.131,0,0,1-5.125,5.125H282.945a5.131,5.131,0,0,1-5.125-5.125V0h7.57Z" transform="translate(-203.775)" fill="#dbfc00"/>
          <path id="패스_851" data-name="패스 851" d="M130.075,13.022h13.063V.629h7.57V13.022h13.064v7.57H150.708V32.985h-7.57V20.592H130.075Z" transform="translate(-95.408 -0.461)" fill="#dbfc00"/>
        </g>
      </g>
    </g>
  </g>
</svg>
