<svg xmlns="http://www.w3.org/2000/svg" width="782" height="219.1" viewBox="0 0 782 219.1">
  <g id="그룹_376" data-name="그룹 376" transform="translate(-571 -432.8)">
    <path id="패스_298" data-name="패스 298" d="M-282.9,7.5V-2h-51.8V-6.8h48.6v-22h-60.2v9.3h48.5V-15h-48.6V7.5Zm3.4-63.1c-11.5-.3-25-4.9-28.7-13.4h24.6v-9.1h-64.1V-69h24.8c-3.3,8.5-15.1,13-28.8,13.6l4.8,9c14.1-1.3,26.7-6.5,31.2-15.3,5.2,8.5,18.7,13.9,31.2,15.2Zm4,21.8v-9.4H-356v9.4Zm79.7,41.7V-81.2h-11.7v34.6h-17v9.8h17V7.9Zm-28.4-79.8h-41.5v9.7h28.8c-1.6,17.7-14.8,36.7-34.3,45.6l7.2,8.8C-236.8-22.7-224.9-45-224.2-71.9ZM-112.8,6.8V-23.3h-24.3v-7.5h34.6v-9.4H-183v9.4h34.2v7.5h-23.9V6.8Zm-61.1-69c0,9.9,11.2,17.3,31.2,17.3s31.1-7.4,31.1-17.3-11.1-17.1-31.2-17.1C-162.7-79.3-173.9-72.1-173.9-62.2Zm12.1.1c0-5,7-8.2,19-8.2,12.2,0,19.2,3.2,19.2,8.2,0,4.8-7.4,8.1-19.2,8.1C-154.8-54-161.8-57.3-161.8-62.1Zm37.5,59.8h-36.8V-14.4h36.8ZM-16-34.3v-9.3H-96.5v9.3ZM-23.4,7.5V-2.1H-75.2V-7h48.6V-29.4H-86.8v9.1h48.6v5.1H-86.9V7.5ZM-75.5-63.9c0-4.1,7-7.1,19.4-7.1s19.5,3,19.5,7.1c0,4-7.1,7.2-19.5,7.2S-75.5-59.9-75.5-63.9Zm-12.1,0c0,9.6,11.3,16,31.5,16,20.1,0,31.5-6.4,31.5-16,0-9.7-11.4-16-31.5-16C-76.3-79.9-87.6-73.6-87.6-63.9ZM91.8,7.9V-81.2H80.6v34.9H73.4V-79.6h-11V3.8h11V-37h7.2V7.9ZM53.7-15.2V-72.1H42.1v20.6H29.7V-72H18.1v56.8ZM42.1-24.4H29.7V-42.5H42.1ZM185-37.3V-47H172.1V-81.2H160.5V7.9h11.6V-37.3ZM148.7-72.1H107.1v9.7H136c-1.6,17.8-14.9,36.5-34.3,45.4l7.1,8.8C136.1-23,147.9-45.2,148.7-72.1Zm91.6,21.4V-60H188.6v9.3ZM201.1-66.2h27.5v-9.2H201.1Zm57.6-15H246.9V7.9h11.8V-35.4h12.4v-9.7H258.7ZM193-28.4c0,11.3,8.7,19.2,21.5,19.2S236-17.5,236-28.4c0-11.2-8.7-19.2-21.5-19.2S193-39.3,193-28.4Zm11.4,0c0-5.9,4.3-9.8,10.1-9.8s10.1,3.9,10.1,9.8c0,5.8-3.6,9.7-10.1,9.7C208.6-18.7,204.4-22.6,204.4-28.4ZM356-4.6v-9.3H316.1v-30H304.4v30H275.5v9.3Zm-9.2-68.8H284.1V-64H335c.3,12.3-.4,29.4-3.2,39.7L343-22.9a97.2,97.2,0,0,0,2.2-11.409C346.6-44.414,347.087-57.339,346.8-73.4ZM-236.95,137.9V48.8h-11.1v35h-7.4V50.4h-10.9v83.4h10.9V93.2h7.4v44.7Zm-31.5-30c-10.8-6.4-16.8-20-16.8-37.2V57.4h-11.3V70.8c0,19-7.3,32.4-18.5,39.7l6.7,8A40.157,40.157,0,0,0-290.85,95c2.4,8.8,10,17.6,15.7,21.2Zm115.1-4.3V94.2h-51V83.4h48.4V54.5h-60.5v9.3h48.9V74.1h-48.4v29.5h23.9v13.9h-34.2v9.3h80.5v-9.3h-34.6V103.6Zm83.8,33.2V106.7h-24.3V99.2h34.6V89.8h-80.5v9.4h34.2v7.5h-23.9v30.1Zm-61.1-69c0,9.9,11.2,17.3,31.2,17.3s31.1-7.4,31.1-17.3-11.1-17.1-31.2-17.1C-119.45,50.7-130.65,57.9-130.65,67.8Zm12.1.1c0-5,7-8.2,19-8.2,12.2,0,19.2,3.2,19.2,8.2,0,4.8-7.4,8.1-19.2,8.1C-111.55,76-118.55,72.7-118.55,67.9Zm37.5,59.8h-36.8V115.6h36.8Zm108.3-32V86.4h-80.5v9.3Zm-7.4,41.8v-9.6h-51.8V123h48.6V100.6h-60.2v9.1H5.05v5.1h-48.7v22.7Zm-52.1-71.4c0-4.1,7-7.1,19.4-7.1s19.5,3,19.5,7.1c0,4-7.1,7.2-19.5,7.2S-32.25,70.1-32.25,66.1Zm-12.1,0c0,9.6,11.3,16,31.5,16,20.1,0,31.5-6.4,31.5-16,0-9.7-11.4-16-31.5-16C-33.05,50.1-44.35,56.4-44.35,66.1Zm177.2,71.8V48.8h-11.6V79.1H99.95V89h21.3v48.9Zm-22.4-24.5-1.7-9.3c-10,2.4-21.2,2.8-33.9,2.8V66.4h28.4V57h-40v59.4h8.6C89.05,116.4,101.95,115.5,110.45,113.4Zm86.6-34.1V70h-51.7v9.3Zm-39.2-15.5h27.5V54.6h-27.5Zm57.6-15h-11.8v89.1h11.8V94.6h12.4V84.9h-12.4Zm-65.7,52.8c0,11.3,8.7,19.2,21.5,19.2s21.5-8.3,21.5-19.2c0-11.2-8.7-19.2-21.5-19.2S149.75,90.7,149.75,101.6Zm11.4,0c0-5.9,4.3-9.8,10.1-9.8s10.1,3.9,10.1,9.8c0,5.8-3.6,9.7-10.1,9.7C165.35,111.3,161.15,107.4,161.15,101.6Zm140.7-52.8h-11.7v89.1h11.7V92.1h12.8V82.4h-12.8Zm-54.6,58.8V66.4h29.1V57h-40.7v60.2h8.6c17.4,0,30.9-.8,39.5-3-.5-3-.8-6.2-1.3-9.3C272.35,107.2,259.95,107.6,247.25,107.6Z" transform="translate(927 514)" fill="#fff"/>
    <path id="합치기_4" data-name="합치기 4" d="M-2183,60V35h-25V25h25V0h10V25h25V35h-25V60Z" transform="translate(3470 571)" fill="#df0"/>
    <path id="합치기_5" data-name="합치기 5" d="M-2183.251,31.82-2200.929,49.5l-7.07-7.071,17.677-17.677L-2208,7.071l7.07-7.071,17.678,17.678L-2165.574,0l7.071,7.071-17.678,17.678,17.678,17.678-7.071,7.07Z" transform="translate(3511.502 449)" fill="#df0"/>
  </g>
</svg>
