<svg id="그룹_91" data-name="그룹 91" xmlns="http://www.w3.org/2000/svg" xmlns:xlink="http://www.w3.org/1999/xlink" width="725.311" height="273.256" viewBox="0 0 725.311 273.256">
  <defs>
    <clipPath id="clip-path">
      <rect id="사각형_192" data-name="사각형 192" width="725.311" height="273.256" fill="none"/>
    </clipPath>
  </defs>
  <g id="그룹_90" data-name="그룹 90">
    <g id="그룹_89" data-name="그룹 89" clip-path="url(#clip-path)">
      <path id="패스_194" data-name="패스 194" d="M98.784,171.5H78.231v17.7H73.639V171.5H53.311V167.7H98.784ZM58.408,151.9c0-6.72,7.111-10.977,17.527-10.977,10.473,0,17.584,4.257,17.584,10.977,0,6.775-7.111,11.032-17.584,11.032-10.416,0-17.527-4.257-17.527-11.032m4.7,0c0,4.479,5.208,7.336,12.823,7.336,7.672,0,12.88-2.857,12.88-7.336,0-4.424-5.208-7.28-12.88-7.28-7.615,0-12.823,2.856-12.823,7.28" fill="#fff"/>
      <path id="패스_195" data-name="패스 195" d="M110.656,173.24a147.6,147.6,0,0,0,24.415-1.792l.449,3.752a145.77,145.77,0,0,1-25.312,1.848h-4.145V157.784h18.481V147.313H105.9v-3.752h23.295v17.92H110.656Zm33.711,15.96h-4.592V138.856h4.592Z" fill="#fff"/>
      <path id="패스_196" data-name="패스 196" d="M198.464,168.2H152.936v-3.7h45.528Zm-35.112,15.96h30.183v3.752H158.76V173.24h4.592Zm29.9-26.376H159.1V140.76h4.592v13.272h29.568Z" fill="#fff"/>
      <path id="패스_197" data-name="패스 197" d="M259.224,182.368H213.64v-3.809h45.584Zm-5.264-15.624h-34.5V143.5h33.992v3.808H224v15.68h29.96Z" fill="#fff"/>
      <path id="패스_198" data-name="패스 198" d="M270.088,173.24c9.128,0,15.624-.336,23.128-1.792l.5,3.808a128.027,128.027,0,0,1-24.136,1.792h-3.976V157.84H283.64V147.313h-18.2v-3.752h22.736v18.031H270.088Zm40.376-10.528h-8.232V189.2H297.64V138.857h4.592v19.991h8.232Z" fill="#fff"/>
      <path id="패스_199" data-name="패스 199" d="M315.392,143.952h23.016v32.424H315.392Zm4.479,28.727h14.057V147.648H319.871Zm40.433-9.855h-8.288v26.319h-4.593V138.968h4.593V158.96H360.3Z" fill="#fff"/>
      <path id="패스_200" data-name="패스 200" d="M363.215,192.616c3.528-1.568,5.6-4.312,5.6-7.616a2.349,2.349,0,0,1-.617.055,3.508,3.508,0,0,1-3.752-3.584,3.641,3.641,0,0,1,3.865-3.584c2.687,0,4.311,2.3,4.311,6.048,0,5.376-3.136,9.577-8.176,11.7Z" fill="#fff"/>
      <path id="패스_201" data-name="패스 201" d="M433.383,167.025H387.967v-3.7h45.416Zm-5.1-17.473c0,5.936-6.776,9.464-17.64,9.464s-17.64-3.528-17.64-9.464c0-5.991,6.776-9.52,17.64-9.52s17.64,3.529,17.64,9.52m-.448,38.92H393.568v-16.52h34.271Zm-30.128-38.92c0,3.7,4.984,5.88,12.936,5.88s12.936-2.184,12.936-5.88-4.984-5.88-12.936-5.88-12.936,2.185-12.936,5.88m.336,35.225h25.312v-9.185H398.047Z" fill="#fff"/>
      <path id="패스_202" data-name="패스 202" d="M451.863,165.679c-7.616,0-13.105-4.815-13.105-11.927,0-7,5.489-11.816,13.105-11.816,7.559,0,13.1,4.816,13.1,11.816,0,7.112-5.544,11.927-13.1,11.927m0-3.863c4.983,0,8.624-3.3,8.624-8.064,0-4.7-3.641-7.952-8.624-7.952-5.04,0-8.624,3.248-8.624,7.952,0,4.759,3.584,8.064,8.624,8.064m-7.729,9.239h32.649v18.088h-4.592V174.807H444.134Zm40.1-15.4h-7.447V168.48h-4.592V138.968h4.592v12.879h7.447Z" fill="#fff"/>
      <path id="패스_203" data-name="패스 203" d="M487.647,192.616c3.527-1.568,5.6-4.312,5.6-7.616a2.349,2.349,0,0,1-.617.055,3.508,3.508,0,0,1-3.751-3.584,3.641,3.641,0,0,1,3.864-3.584c2.688,0,4.312,2.3,4.312,6.048,0,5.376-3.137,9.577-8.176,11.7Z" fill="#fff"/>
      <path id="패스_204" data-name="패스 204" d="M538.383,160.3c0,10.7-5.208,17.529-12.6,17.529S513.127,171,513.127,160.3s5.263-17.527,12.656-17.527,12.6,6.832,12.6,17.527m-4.368,0c0-8.119-3.417-13.383-8.232-13.383-4.872,0-8.288,5.264-8.288,13.383,0,8.177,3.416,13.441,8.288,13.441,4.815,0,8.232-5.264,8.232-13.441m25.312,2.521h-8.288v26.319h-4.593V138.968h4.593V158.96h8.288Z" fill="#fff"/>
      <path id="패스_205" data-name="패스 205" d="M607.711,163.719v3.7H562.238v-3.7h20.441V157.9H567.951V141.208h34.1v3.7H572.543v9.3h29.848v3.7h-15.12v5.823Zm-5.6,16.353c0,5.824-6.5,9.071-17.135,9.071-10.752,0-17.248-3.247-17.248-9.071s6.5-9.072,17.248-9.072c10.639,0,17.135,3.248,17.135,9.072m-4.647,0c0-3.528-4.648-5.488-12.488-5.488-7.952,0-12.6,1.96-12.6,5.488s4.648,5.487,12.6,5.487c7.84,0,12.488-1.96,12.488-5.487" fill="#fff"/>
      <path id="패스_206" data-name="패스 206" d="M668.414,166.632H622.942v-3.808h45.472Zm-5.6,13.384c0,5.824-6.5,9.072-17.192,9.072s-17.191-3.248-17.191-9.072,6.5-9.071,17.191-9.071,17.192,3.248,17.192,9.071m.281-22.008H628.654v-17.08h34.1v3.7H633.246v9.689h29.849Zm-4.929,22.008c0-3.527-4.647-5.487-12.544-5.487s-12.544,1.96-12.544,5.487,4.649,5.488,12.544,5.488c7.841,0,12.544-1.96,12.544-5.488" fill="#fff"/>
      <path id="패스_207" data-name="패스 207" d="M4.592,256.792a122.083,122.083,0,0,0,22.624-1.68l.5,3.808c-7.672,1.456-14.279,1.792-23.744,1.792H0V227.729H23.352v3.807H4.592ZM44.8,246.544H36.512v26.712H31.92V222.912h4.592v19.824H44.8Z" fill="#fff"/>
      <path id="패스_208" data-name="패스 208" d="M61.767,249.568c-7.615,0-13.1-4.872-13.1-11.872,0-6.944,5.488-11.759,13.1-11.759,7.561,0,13.105,4.815,13.105,11.759,0,7-5.544,11.872-13.105,11.872m0-3.864c4.985,0,8.624-3.3,8.624-8.008s-3.639-7.952-8.624-7.952c-5.04,0-8.624,3.248-8.624,7.952s3.584,8.008,8.624,8.008M87.248,263.68c0,5.936-6.385,9.408-16.521,9.408-10.191,0-16.575-3.472-16.575-9.408,0-5.991,6.384-9.408,16.575-9.408,10.136,0,16.521,3.417,16.521,9.408m-4.593,0c0-3.64-4.535-5.768-11.928-5.768-7.447,0-11.983,2.128-11.983,5.768,0,3.584,4.536,5.768,11.983,5.768,7.393,0,11.928-2.184,11.928-5.768m4.089-29.512v6.944h7.279v3.808H86.744V252.7H82.151V222.968h4.593v7.448h7.279v3.752Z" fill="#fff"/>
      <path id="패스_209" data-name="패스 209" d="M127.344,232.768H97.72v-3.7h12.488v-6.16H114.8v6.16h12.544ZM112.5,254.216c-7.112,0-11.984-3.7-11.984-9.352,0-5.6,4.872-9.3,11.984-9.3s12.04,3.7,12.04,9.3c0,5.656-4.929,9.352-12.04,9.352m0-3.584c4.536,0,7.672-2.24,7.672-5.768,0-3.472-3.136-5.712-7.672-5.712s-7.616,2.24-7.616,5.712c0,3.528,3.08,5.768,7.616,5.768m-2.632,17.64h28.9v3.752H105.279V257.632h4.593Zm34.048-28.784v3.864h-7.393V260.6h-4.591V222.912h4.591v16.576Z" fill="#fff"/>
      <path id="패스_210" data-name="패스 210" d="M203.783,248.616v3.7H183.624v10.135h-4.592V252.313H158.144v-3.7ZM168.56,268.273h30.127v3.752H163.968V257.689h4.592ZM197.848,242.9H164.08v-17.64h33.768Zm-4.536-13.944H168.56v10.248h24.752Z" fill="#fff"/>
      <path id="패스_211" data-name="패스 211" d="M225.736,259.424a131.3,131.3,0,0,0,13.5-1.232l.28,3.416c-10.752,1.9-22.568,2.016-31.36,2.016l-.616-3.865c4.032,0,8.736,0,13.608-.168V254.1c-5.768-.728-9.576-4.2-9.576-9.184,0-5.657,4.872-9.3,11.872-9.3s11.872,3.639,11.872,9.3c0,4.984-3.808,8.456-9.576,9.184Zm12.656-26.768H208.376v-3.64h12.768v-6.049h4.592v6.049h12.656ZM223.44,250.632c4.48,0,7.5-2.24,7.5-5.712s-3.024-5.768-7.5-5.768-7.5,2.3-7.5,5.768,3.024,5.712,7.5,5.712m31.192-2.52h-7.84v25.031H242.2V222.912h4.593v21.336h7.84Z" fill="#fff"/>
      <path id="패스_212" data-name="패스 212" d="M314.159,249.569v3.7h-45.3v-3.7h18.424v-7.28h4.592v7.28Zm-10.136-15.064c.056-1.736.056-3.3.056-4.873v-.559h-29.9v-3.752h34.44v4.311a75.83,75.83,0,0,1-1.4,16.577l-4.536-.336a59.2,59.2,0,0,0,1.12-7.9l-30.184,1.4-.672-3.865Zm-24.864,34.1h30.52v3.752H274.567V257.577h4.592Z" fill="#fff"/>
      <path id="패스_213" data-name="패스 213" d="M342.607,250.912c-5.768,1.12-10.472,1.344-18.48,1.344h-3.191V227.112h18.983v3.7h-14.56V237.7H337.9v3.584H325.359v7.281a78.125,78.125,0,0,0,16.8-1.345Zm19.88,17.361v3.752h-34.1V256.456h4.592v11.817Zm-15.568-27.385h-6.664v-3.752h6.664V223.977h4.368v35.336h-4.368ZM361.031,260.6h-4.424V222.968h4.424Z" fill="#fff"/>
      <path id="패스_214" data-name="패스 214" d="M414.064,266.7H368.48v-3.752h45.584Zm-42.84-15.9c9.632-1.68,17.7-7.9,17.7-16.128H372.736v-3.695h16.183v-6.832h4.649v6.832H409.7v3.695H393.568c0,8.232,8.063,14.448,17.7,16.128l-1.849,3.752c-7.952-1.624-15.063-5.88-18.143-12.319-3.136,6.439-10.248,10.695-18.256,12.319Z" fill="#fff"/>
      <path id="패스_215" data-name="패스 215" d="M463.846,249.736H418.319v-3.473h45.527ZM428.4,269.168h31.359v3.3H423.863V261.328h29.792v-4.2h-29.9v-3.3h34.44v10.7H428.4Zm25.088-41.552H424.031v-3.248h33.992V234.84H428.679v4.312h30.24v3.3H424.143V231.7h29.344Z" fill="#fff"/>
      <path id="패스_216" data-name="패스 216" d="M493.751,237.08c0,8.737,3.752,17.472,10.7,21.392l-2.8,3.36c-4.872-2.912-8.343-8.288-10.08-14.672-1.735,6.888-5.376,12.768-10.359,15.9l-2.8-3.416c7-4.2,10.92-13.329,10.92-22.569v-4.536h-9.52v-3.752h22.9v3.752h-8.96Zm13.439-13.048h4.369v46.48H507.19V244.7H498.9v-3.752h8.287Zm14.5,49.056H517.27V222.857h4.424Z" fill="#fff"/>
      <path id="패스_217" data-name="패스 217" d="M555.686,251.081a20.293,20.293,0,0,1-12.095-11.2,21.105,21.105,0,0,1-12.544,12.208l-2.408-3.639c7.56-2.632,12.6-9.128,12.6-16.3v-2.017H529.982v-3.7h26.937v3.7H545.831v1.96c0,6.664,4.815,12.881,12.208,15.4ZM535.135,255.9h32.7v17.3h-4.592V259.592H535.135Zm40.152-15.96h-7.448v13.271h-4.592v-30.24h4.592v13.16h7.448Z" fill="#fff"/>
      <path id="패스_218" data-name="패스 218" d="M608.495,231.76H578.871v-3.695h12.488v-5.657h4.592v5.657h12.544ZM593.655,251.7c-7.168,0-11.984-3.416-11.984-8.792,0-5.32,4.816-8.736,11.984-8.736s12.04,3.416,12.04,8.736c0,5.376-4.872,8.792-12.04,8.792m0-3.472c4.592,0,7.672-2.016,7.672-5.32,0-3.248-3.08-5.32-7.672-5.32s-7.616,2.072-7.616,5.32c0,3.3,3.025,5.32,7.616,5.32m19.489,6.1h4.535v18.144H586.1V254.328h4.535v5.32h22.513Zm0,8.9H590.631v5.544h22.513Zm11.983-23.688h-7.448v12.544h-4.592V222.912h4.592V235.68h7.448Z" fill="#fff"/>
      <path id="패스_219" data-name="패스 219" d="M636.271,256.233a118.6,118.6,0,0,0,23.688-2.353l.5,3.92a119.325,119.325,0,0,1-24.64,2.352h-4.144V227.784h4.592ZM669.7,273.088h-4.592V222.912H669.7Z" fill="#fff"/>
      <path id="패스_220" data-name="패스 220" d="M685.1,256.792a122.076,122.076,0,0,0,22.624-1.68l.5,3.808c-7.672,1.456-14.279,1.792-23.743,1.792H680.51V227.729h23.353v3.807H685.1Zm40.208-10.248h-8.288v26.712H712.43V222.912h4.592v19.824h8.288Z" fill="#fff"/>
    </g>
  </g>
  <rect id="사각형_193" data-name="사각형 193" width="4" height="60" transform="translate(358.92 0)" fill="#df0"/>
  <rect id="사각형_194" data-name="사각형 194" width="60" height="4" transform="translate(330.92 28)" fill="#df0"/>
  <rect id="사각형_195" data-name="사각형 195" width="60" height="4" transform="matrix(0.707, -0.707, 0.707, 0.707, 337.921, 49.426)" fill="#df0"/>
  <rect id="사각형_196" data-name="사각형 196" width="4" height="60" transform="translate(337.92 9.829) rotate(-45)" fill="#df0"/>
</svg>
