<svg xmlns="http://www.w3.org/2000/svg" xmlns:xlink="http://www.w3.org/1999/xlink" width="1920" height="900" viewBox="0 0 1920 900">
  <defs>
    <clipPath id="clip-path">
      <rect id="사각형_448" data-name="사각형 448" width="1920" height="900" transform="translate(-5150 1753)" fill="#fff" stroke="#707070" stroke-width="1"/>
    </clipPath>
  </defs>
  <g id="마스크_그룹_10" data-name="마스크 그룹 10" transform="translate(5150 -1753)" clip-path="url(#clip-path)">
    <path id="패스_857" data-name="패스 857" d="M4.55,0H11.2V-15.45c0-3.5-.6-8.65-.95-12.15h.2l2.95,8.7L19.15-3.35H23.4L29.1-18.9l3-8.7h.25c-.4,3.5-.95,8.65-.95,12.15V0h6.75V-37.05h-8.2L23.8-19.7c-.8,2.3-1.45,4.75-2.25,7.1H21.3c-.75-2.35-1.45-4.8-2.25-7.1l-6.3-17.35H4.55Zm55-37.75H53.2V-30c0,7.85-2.45,16.1-9.2,20.2l3.95,4.95c4.15-2.5,6.85-6.9,8.45-12C57.85-12.2,60.3-8.3,64.2-5.9L67.8-11c-6.25-4.15-8.25-11.8-8.25-19.25Zm9.2,11.55h-5.8v5.35h5.8V2.25H74.9V-41H68.75ZM78.1-41.75V4.3h6.25V-41.75ZM98.65-31.1H109.2v-5.35H92.15v30.4h3.2a84.486,84.486,0,0,0,16.4-1.25l-.5-5.35a77.68,77.68,0,0,1-12.6,1.15ZM124.1-41.8v17.75h-4.15V-40.9H113.8V2.15h6.15v-20.9h4.15V4.3h6.25V-41.8ZM185.45-18H159.8v-5.15h24.25v-5.1H159.8V-33.1h25.3v-5.3h-32v25.6h32.35ZM148.2-6.35V-1h41.7V-6.35Zm75.3-17h3.7V-7.6h6.25V-41.75H227.2v13.1h-3.7V-40.9h-6.15V-8.5h6.15Zm-8.3,3.25a72.466,72.466,0,0,1-12.8,1.05v-4.6h11.05V-38H196v5.15h11.1v4.4H196.05v14.6h3.2a91.2,91.2,0,0,0,16.5-1.05ZM209.05-1.75v-9h-6.6V3.5H234.6V-1.75Zm68.4-18.75h-25.8V-32.6H277.1v-5.35H245.05v22.7h32.4ZM240.2-6.6v5.4h41.7V-6.6Zm66.55-13.45H321.7v-17.8H299.95v5.25h15v7.35H300V-6.3h4.15a126.288,126.288,0,0,0,22.6-1.6l-.7-5.35a115.239,115.239,0,0,1-19.3,1.5Zm22.5-21.75V4.4h6.6V-41.8Zm52.55,0h-6.65v27.55h6.65ZM371.6-23.75c-5.4,1.15-10.4,1.4-18.9,1.45V-33.05h15.25V-38.3h-21.8V-17h4c10.35,0,16.05-.25,22.1-1.45ZM366.25-.7c-6,0-9.2-1.35-9.2-4,0-2.7,3.2-3.95,9.2-3.95,5.95,0,9.15,1.25,9.15,3.95C375.4-2.05,372.2-.7,366.25-.7Zm0-13.1c-9.7,0-15.75,3.35-15.75,9.1,0,5.7,6.05,9.05,15.75,9.05,9.65,0,15.7-3.35,15.7-9.05C381.95-10.45,375.9-13.8,366.25-13.8Z" transform="translate(-4060 2370)" fill="#fff"/>
    <path id="패스_858" data-name="패스 858" d="M5.064-12.7c0-2.472,2.52-4.08,5.952-4.08s5.928,1.608,5.928,4.08-2.5,4.08-5.928,4.08S5.064-10.224,5.064-12.7ZM12-2.616V-7.1c4.008-.288,6.816-2.424,6.816-5.592,0-3.432-3.264-5.64-7.8-5.64-4.56,0-7.848,2.208-7.848,5.64,0,3.168,2.832,5.3,6.84,5.592v4.488H1.248V-.984h19.56V-2.616ZM34.128-5.4H32.112v.384c0,2.736-3.288,4.68-7.224,5.184L25.56,1.7c3.312-.48,6.24-1.92,7.56-4.128,1.272,2.208,4.2,3.648,7.512,4.128l.7-1.536c-3.96-.5-7.2-2.448-7.2-5.184ZM34.1-8.136V-10.3h6.72v-1.536H27.792v-2.136H40.368V-19.08H25.8v1.536H38.424v2.112H25.848V-10.3h6.264v2.16H23.328v1.584H42.864V-8.136ZM61.08-19.752V1.824h1.968V-19.752ZM51.7-18.1c-3.192,0-5.472,2.928-5.472,7.512S48.5-3.072,51.7-3.072,57.168-6,57.168-10.584,54.888-18.1,51.7-18.1Zm0,1.776c2.088,0,3.576,2.256,3.576,5.736,0,3.5-1.488,5.76-3.576,5.76-2.112,0-3.6-2.256-3.6-5.76C48.1-14.064,49.584-16.32,51.7-16.32Zm22.848,4.656c3.576-.36,6.792-1.728,8.088-3.864,1.272,2.136,4.512,3.5,8.064,3.864l.624-1.512c-3.84-.312-7.32-2.016-7.536-4.2H90.6v-1.56H74.664v1.56h6.792c-.216,2.208-3.72,3.864-7.536,4.2Zm2.664,9.528H89.856v-4.92H75.216v1.512h12.7v1.968H75.288V1.536H90.5V.024h-13.3Zm-4.344-8.448V-9H92.352v-1.584Zm23.376-6.84v1.584h8.088c-.408,5.112-3.288,9.24-9.072,12l1.056,1.608c7.152-3.5,10.008-8.976,10.008-15.192Zm14.424-2.328V1.776h1.968V-19.752Zm23.64,6.48H121.632V-18.96h-1.968v7.3H134.3ZM121.488-5.04H119.52V1.248h14.9V-.36H121.488Zm-4.464-3.744V-7.2h19.512V-8.784Zm30.5-8.352H145.56v13.32h1.368a39.829,39.829,0,0,0,7.7-.672l-.192-1.7a37.425,37.425,0,0,1-6.912.672Zm13.344-2.616v8.76h-3.048v-8.28h-1.848V.672h1.848V-9.36h3.048V1.752h1.9v-21.5Zm6.864,2.3v1.632h7.9c-.456,5.088-3.408,9.216-8.9,11.976l1.08,1.536c6.96-3.48,9.768-9.024,9.768-15.144ZM186.6-11.016h-3.456v-8.736h-1.968V1.776h1.968V-9.384H186.6Zm18.72,3.984v1.464h4.368V-3.36h1.968V-19.752h-1.968v12.72Zm-4.392-10.392c2.04,0,3.432.912,3.432,2.28,0,1.392-1.392,2.3-3.432,2.3s-3.432-.912-3.432-2.3C197.5-16.512,198.888-17.424,200.928-17.424Zm0,6.048c3.144,0,5.3-1.464,5.3-3.768,0-2.256-2.16-3.744-5.3-3.744s-5.3,1.488-5.3,3.744C195.624-12.84,197.784-11.376,200.928-11.376Zm-.768,7.248h1.968V-8.376c1.944-.12,3.936-.336,5.832-.624l-.168-1.416a116.941,116.941,0,0,1-13.872.624l.264,1.632c1.776,0,3.84-.024,5.976-.12Zm-1.2,3.816V-4.968h-1.968V1.3h15.216V-.312Zm23.472-4.344a3.228,3.228,0,0,1-3.36-3.312,3.234,3.234,0,0,1,3.36-3.336,3.24,3.24,0,0,1,3.384,3.336A3.234,3.234,0,0,1,222.432-4.656Zm0-8.28a4.907,4.907,0,0,0-5.208,4.968,4.875,4.875,0,0,0,5.208,4.944c3.072,0,5.256-2.016,5.256-4.944A4.921,4.921,0,0,0,222.432-12.936Zm.96-6.552h-1.968V-16.3H216v1.584h12.7V-16.3h-5.3Zm12.84,8.592H232.7v-8.832h-1.968v21.5H232.7V-9.24h3.528Zm11.664-2.88v1.584h6.048v8.16h1.992v-15.7h-1.992v5.952ZM250.488-9.5a44.635,44.635,0,0,1-9.1.7v-7.56h7.9v-1.608h-9.864V-7.2h1.632a50.2,50.2,0,0,0,9.648-.7ZM244.1-.168V-5.184h-1.968V1.44h14.352V-.168ZM274.92-7.992a15.667,15.667,0,0,0,.192-2.472,15.667,15.667,0,0,0-.192-2.472h2.928v4.944ZM270.5-4.776c-1.7,0-2.808-2.184-2.808-5.688,0-3.48,1.1-5.664,2.808-5.664,1.728,0,2.808,2.184,2.808,5.664C273.312-6.96,272.232-4.776,270.5-4.776Zm7.344-9.768h-3.336c-.744-2.16-2.136-3.408-4.008-3.408-2.784,0-4.584,2.88-4.584,7.488,0,4.632,1.8,7.512,4.584,7.512,1.872,0,3.24-1.248,4.008-3.408h3.336V.72h1.872V-19.272h-1.872Zm4.224-5.208V1.776h1.872V-19.752Zm22.92,6H292.344V-19.3h-1.968v7.128h14.616ZM297.456.168c-3.384,0-5.376-.888-5.376-2.376,0-1.536,1.992-2.4,5.376-2.4s5.376.864,5.376,2.4C302.832-.72,300.816.168,297.456.168Zm0-6.312c-4.584,0-7.368,1.416-7.368,3.936,0,2.5,2.784,3.912,7.368,3.912s7.368-1.416,7.368-3.912C304.824-4.728,302.04-6.144,297.456-6.144Zm-9.7-3.528v1.608h19.464V-9.672Zm23.9,4.368h1.512l.288-10.176.072-2.5H311.3l.072,2.5Zm.744,5.616a1.571,1.571,0,0,0,1.584-1.656,1.6,1.6,0,0,0-1.584-1.7,1.613,1.613,0,0,0-1.584,1.7A1.585,1.585,0,0,0,312.408.312ZM17.016,27.384h1.992V16.272H17.016V20.16h-4.68v1.608h4.68Zm-3.168-1.992c-3.1-1.032-5.28-3.648-5.28-6.456V16.944H6.624v1.992a7.468,7.468,0,0,1-5.376,6.936l1.032,1.56A8.983,8.983,0,0,0,7.656,22.2a8.724,8.724,0,0,0,5.184,4.728ZM7.128,35.928v-2.3h11.88v-5.16H5.136v1.56H17.064v2.112H5.184v5.352h14.64v-1.56Zm18.84-9.84h5.76V18.624H24v1.608h5.832v4.3h-5.76V32.5h1.416a46.6,46.6,0,0,0,8.184-.624L33.5,30.264a41.9,41.9,0,0,1-7.536.576ZM35.4,23.976H32.736v1.632H35.4v11.04h1.848V16.776H35.4Zm4.344-7.728V37.776h1.9V16.248Zm22.944,6.48H50.016V17.04H48.048v7.3h14.64ZM49.872,30.96H47.9v6.288h14.9V35.64H49.872Zm-4.464-3.744V28.8H64.92V27.216Zm30.264-7.224H81.7V30.72H75.672ZM73.752,32.3h9.864v-13.9H73.752ZM93,24.84H89.448V16.272H87.48v21.5h1.968V26.5H93Zm11.688-8.112c-4.656,0-7.56,1.512-7.56,4.08,0,2.544,2.9,4.056,7.56,4.056s7.56-1.512,7.56-4.056C112.248,18.24,109.344,16.728,104.688,16.728Zm0,1.56c3.408,0,5.544.936,5.544,2.52s-2.136,2.52-5.544,2.52-5.544-.936-5.544-2.52S101.28,18.288,104.688,18.288Zm-7.32,12.12v7.08h14.688v-7.08Zm12.768,1.56V35.9H99.288V31.968ZM94.968,26.712V28.3h19.464V26.712Zm31.8-9.12c-4.464,0-7.824,2.376-7.824,5.952,0,3.6,3.36,5.952,7.824,5.952s7.824-2.352,7.824-5.952C134.592,19.968,131.232,17.592,126.768,17.592Zm0,1.608c3.408,0,5.952,1.752,5.952,4.344,0,2.616-2.544,4.344-5.952,4.344-3.384,0-5.952-1.728-5.952-4.344C120.816,20.952,123.384,19.2,126.768,19.2Zm-9.744,14.088V34.92h19.56V33.288Zm32.832.216V29.448h6.888V27.864H143.5v-3.48H156.24V17.832H141.5V19.44H154.32V22.8H141.552v6.648h6.312V33.5H139.1v1.608h19.56V33.5Zm24.36-15.384h-1.944v3.864c0,4.08-2.616,8.208-5.784,9.72l1.2,1.608a11.962,11.962,0,0,0,5.568-7.224A11.691,11.691,0,0,0,178.8,32.9l1.176-1.584a10.708,10.708,0,0,1-5.76-9.336Zm8.016-1.872V37.824H184.2V16.248Zm17.88,6.12V24h4.3v5.3H206.4V16.248h-1.992v6.12Zm1.3,4.488c-3.168-.936-5.4-3.336-5.4-6.024v-.408h4.752V18.84h-4.752V16.128H194.04V18.84h-4.776v1.584h4.776v.408c0,2.9-2.16,5.52-5.328,6.6l.96,1.512a8.575,8.575,0,0,0,5.4-5.016,8.685,8.685,0,0,0,5.4,4.464Zm-2.136,9.36c-3.24,0-5.184-.912-5.184-2.424,0-1.488,1.944-2.4,5.184-2.4,3.288,0,5.232.912,5.232,2.4C204.5,35.3,202.536,36.216,199.272,36.216Zm0-6.36c-4.416,0-7.152,1.44-7.152,3.936,0,2.52,2.736,3.96,7.152,3.96,4.464,0,7.2-1.44,7.2-3.96C206.472,31.3,203.736,29.856,199.272,29.856Zm16.8,1.3c-1.68,0-2.856-1.368-2.856-3.288a2.879,2.879,0,1,1,5.712,0C218.928,29.784,217.728,31.152,216.072,31.152Zm0-8.184a4.581,4.581,0,0,0-4.608,4.9,4.618,4.618,0,1,0,9.216,0A4.581,4.581,0,0,0,216.072,22.968Zm.96-6.1h-1.944V19.92H210.72v1.608H221.4V19.92h-4.368Zm10.056-.648v9.1h-2.76V16.728H222.48V36.72h1.848V26.928h2.76V37.752h1.9V16.224Zm9.984,7.008h10.992v3.96H237.072Zm6.48,10.176V28.776h6.432V17.784h-1.92v3.84H237.072v-3.84h-1.944V28.776h6.432v4.632h-8.736v1.608h19.512V33.408Zm17.736-15.12h-1.9v4.1c0,3.7-1.776,7.56-4.728,9.288l1.224,1.464a10.966,10.966,0,0,0,4.464-6.6,10.521,10.521,0,0,0,4.248,6.144l1.128-1.536c-2.832-1.728-4.44-5.376-4.44-8.832Zm5.664,5.688H263.4v1.632h3.552V36.72H268.8V16.728h-1.848Zm4.368-7.728V37.776h1.872V16.248ZM283.728,28.32a12.833,12.833,0,0,0,2.976.336,13.258,13.258,0,0,0,3.024-.336v5.064h-6Zm2.976-9.168c3.456,0,5.952,1.584,5.952,3.984s-2.5,3.984-5.952,3.984-5.928-1.584-5.928-3.984S283.248,19.152,286.7,19.152ZM291.7,33.384V27.552a4.88,4.88,0,0,0,2.832-4.416c0-3.36-3.24-5.52-7.824-5.52-4.56,0-7.824,2.16-7.824,5.52a4.92,4.92,0,0,0,2.88,4.44v5.808h-4.8v1.632h19.56V33.384Zm9.432,2.928a1.585,1.585,0,0,0,1.584-1.656,1.588,1.588,0,1,0-3.168,0A1.585,1.585,0,0,0,301.128,36.312Z" transform="translate(-4060 2432)" fill="#919191"/>
    <path id="패스_859" data-name="패스 859" d="M1.02-1.46Q3.56-3.5,5-4.81A16.148,16.148,0,0,0,7.43-7.55a4.935,4.935,0,0,0,.99-2.81,3.089,3.089,0,0,0-.63-2.05,2.51,2.51,0,0,0-2.03-.75,2.666,2.666,0,0,0-2.11.85,3.544,3.544,0,0,0-.81,2.27H1.08A4.8,4.8,0,0,1,2.44-13.5a4.587,4.587,0,0,1,3.3-1.22,4.575,4.575,0,0,1,3.27,1.14,4.106,4.106,0,0,1,1.21,3.14,5.982,5.982,0,0,1-.99,3.23A14.16,14.16,0,0,1,6.98-4.45Q5.72-3.26,3.76-1.68h6.88V-.16H1.02ZM12.74-7.38a10.752,10.752,0,0,1,1.12-5.37,4.15,4.15,0,0,1,3.92-1.93,4.13,4.13,0,0,1,3.9,1.93A10.752,10.752,0,0,1,22.8-7.38a10.958,10.958,0,0,1-1.12,5.44A4.124,4.124,0,0,1,17.78,0a4.143,4.143,0,0,1-3.92-1.94A10.958,10.958,0,0,1,12.74-7.38Zm8.26,0a16.1,16.1,0,0,0-.23-2.95,3.752,3.752,0,0,0-.94-1.95,2.709,2.709,0,0,0-2.05-.74,2.737,2.737,0,0,0-2.07.74,3.752,3.752,0,0,0-.94,1.95,16.1,16.1,0,0,0-.23,2.95,16.668,16.668,0,0,0,.23,3.02,3.76,3.76,0,0,0,.94,1.96,2.737,2.737,0,0,0,2.07.74,2.709,2.709,0,0,0,2.05-.74,3.76,3.76,0,0,0,.94-1.96A16.668,16.668,0,0,0,21-7.38Zm4.08,5.92q2.54-2.04,3.98-3.35a16.148,16.148,0,0,0,2.43-2.74,4.935,4.935,0,0,0,.99-2.81,3.089,3.089,0,0,0-.63-2.05,2.51,2.51,0,0,0-2.03-.75,2.666,2.666,0,0,0-2.11.85,3.544,3.544,0,0,0-.81,2.27H25.14A4.8,4.8,0,0,1,26.5-13.5a4.587,4.587,0,0,1,3.3-1.22,4.575,4.575,0,0,1,3.27,1.14,4.106,4.106,0,0,1,1.21,3.14,5.982,5.982,0,0,1-.99,3.23,14.16,14.16,0,0,1-2.25,2.76q-1.26,1.19-3.22,2.77H34.7V-.16H25.08Zm11.5,0q2.54-2.04,3.98-3.35a16.148,16.148,0,0,0,2.43-2.74,4.935,4.935,0,0,0,.99-2.81,3.089,3.089,0,0,0-.63-2.05,2.51,2.51,0,0,0-2.03-.75,2.666,2.666,0,0,0-2.11.85,3.544,3.544,0,0,0-.81,2.27H36.64A4.8,4.8,0,0,1,38-13.5a4.587,4.587,0,0,1,3.3-1.22,4.575,4.575,0,0,1,3.27,1.14,4.106,4.106,0,0,1,1.21,3.14,5.982,5.982,0,0,1-.99,3.23,14.16,14.16,0,0,1-2.25,2.76q-1.26,1.19-3.22,2.77H46.2V-.16H36.58Z" transform="translate(-4060 2556)" fill="#fff"/>
  </g>
</svg>
