<svg xmlns="http://www.w3.org/2000/svg" xmlns:xlink="http://www.w3.org/1999/xlink" width="1920" height="900" viewBox="0 0 1920 900">
  <defs>
    <clipPath id="clip-path">
      <rect id="사각형_449" data-name="사각형 449" width="1920" height="900" transform="translate(-5150 2750)" fill="#fff" stroke="#707070" stroke-width="1"/>
    </clipPath>
  </defs>
  <g id="마스크_그룹_11" data-name="마스크 그룹 11" transform="translate(5150 -2750)" clip-path="url(#clip-path)">
    <path id="패스_853" data-name="패스 853" d="M20-38.2H13.4v6.7c0,8.95-3.8,17.85-11.85,21.3L5.5-4.75c5.5-2.6,9.25-7.55,11.3-13.7,2.05,5.65,5.6,10.2,10.9,12.6l3.75-5.35C23.65-14.55,20-22.95,20-31.5Zm13.7-3.6V4.4h6.6V-41.8ZM52.4-20.65c8.55-.95,14.2-4.55,16.55-9.3,2.45,4.75,8.05,8.35,16.6,9.3l2.4-5.15c-9.05-1.05-13.55-4.8-14.3-8.55h12.4V-39.6H51.95v5.25H64.3c-.75,3.75-5.35,7.5-14.3,8.55Zm7.4,10.6H53.2V3.5H85.1V-1.75H59.8ZM48.15-18.3v5.25h41.7V-18.3Zm60.6-13.5h6.7v-5.35H94.95v5.35h7.4v2.25c0,7.9-2.4,16.15-9.1,20.4l3.9,4.85c4.15-2.6,6.85-7.1,8.45-12.35,1.5,4.85,4.15,8.8,8.2,11.25l3.85-4.8c-6.65-3.9-8.9-11.65-8.9-19.35Zm9.35,5.75h-5.85v5.35h5.85V2.2h6.15V-41H118.1Zm9.3-15.75V4.25h6.25V-41.8Zm64.35,21.7c-10.4-1.75-16.1-8.9-16.1-15.65v-3.3H168.6v3.3c0,6.6-5.75,13.9-16.1,15.65l2.8,5.55c8-1.55,13.85-6.05,16.8-11.9,2.95,5.85,8.85,10.3,16.85,11.9ZM151.5-6.65V-1.3h41.7V-6.65Zm83.3-16.2H209.2v-3.5h24.15v-5H209.2V-34.7h25.15v-5.2h-31.7v22.2H234.8Zm4.35,8.3h-41.7v5.3h9.65V4.3h6.65V-9.25H223V4.3h6.65V-9.25h9.5Zm13.7-17.75H268.5v-5.35H246.25v31.1h4.05c9.8,0,15.65-.2,21.9-1.4l-.6-5.45c-5.55,1.05-10.7,1.3-18.75,1.35Zm22.2-9.45V4.45h6.6v-46.2Zm24.6,15.05c0-4.7,4.35-7.45,10.65-7.45,6.35,0,10.7,2.75,10.7,7.45s-4.35,7.45-10.7,7.45C304-19.25,299.65-22,299.65-26.7ZM313.6-6.4v-7.8c8.15-.95,13.9-5.65,13.9-12.5,0-7.7-7.35-12.7-17.2-12.7-9.8,0-17.15,5-17.15,12.7,0,6.85,5.75,11.5,13.85,12.5v7.8H289.5v5.35h41.7V-6.4Zm54.05-34.45c-10.15,0-16.65,3.4-16.65,8.95,0,5.6,6.5,8.95,16.65,8.95s16.7-3.35,16.7-8.95C384.35-37.45,377.8-40.85,367.65-40.85Zm0,5.05c6.3,0,9.9,1.3,9.9,3.9s-3.6,3.9-9.9,3.9c-6.25,0-9.85-1.3-9.85-3.9S361.4-35.8,367.65-35.8ZM351.7-11.85V3.75h31.8v-15.6ZM377-6.7v5.3H358.15V-6.7ZM346.85-20.3v5.2h41.6v-5.2Zm52.8-7.65c0-3.65,2.55-5.7,6.05-5.7,3.45,0,6.05,2.05,6.05,5.7,0,3.6-2.6,5.7-6.05,5.7C402.2-22.25,399.65-24.35,399.65-27.95Zm18.5,0c0-6.55-5.4-11.3-12.45-11.3-7.1,0-12.5,4.75-12.5,11.3s5.4,11.25,12.5,11.25C412.75-16.7,418.15-21.4,418.15-27.95ZM398.4-7.6h24.1V4.35h6.6V-12.9H398.4Zm36.8-23.35h-6.1V-41.7h-6.6v26.9h6.6V-25.55h6.1ZM470.3-17.4a40.176,40.176,0,0,0,.25-4.4,31.864,31.864,0,0,0-.3-4.5h4.05v8.9Zm-9.7,6.15c-2.6,0-4.1-3.5-4.1-10.55s1.5-10.5,4.1-10.5c2.55,0,4.05,3.45,4.05,10.5S463.15-11.25,460.6-11.25ZM474.3-31.6H469c-1.7-4.45-4.65-6.9-8.4-6.9-6.15,0-10,6.3-10,16.7,0,10.45,3.85,16.75,10,16.75,3.8,0,6.75-2.55,8.45-7h5.25V2.2h6.15V-41H474.3Zm9.15-10.2V4.25h6.25V-41.8Zm49.8,11.5h-25.2V-40.95h-6.6v15.9h31.8ZM516.9-.85c-6.15,0-9.3-1.1-9.3-3.5s3.15-3.5,9.3-3.5,9.3,1.1,9.3,3.5S523.05-.85,516.9-.85Zm0-12.05c-9.95,0-15.95,3.15-15.95,8.55s6,8.55,15.95,8.55,16-3.15,16-8.55S526.85-12.9,516.9-12.9Zm-20.65-8.25v5.25H537.9v-5.25Z" transform="translate(-4060 3367)" fill="#fff"/>
    <path id="패스_854" data-name="패스 854" d="M2.64-11.592H3.984l.432-4.44L4.464-18.5H2.16l.048,2.472ZM21.12-9.936c-3.168-.984-5.424-3.5-5.424-6.336v-.48h4.872V-18.36H8.76v1.608h4.92v.48c0,2.952-2.208,5.64-5.472,6.672L9.216-8.04a8.978,8.978,0,0,0,5.5-5.136A8.827,8.827,0,0,0,20.16-8.424ZM23.664-.12H13.68V-2.9h9.984Zm0-4.32H13.68V-7.056H11.736V1.488H25.608V-7.056H23.664ZM23.64-19.752V-8.088h1.968V-19.752Zm7.752,8.16h1.344l.432-4.44.048-2.472h-2.3l.048,2.472ZM41.568-4.776c-1.728,0-2.808-2.184-2.808-5.712,0-3.456,1.08-5.64,2.808-5.64,1.68,0,2.784,2.184,2.784,5.64C44.352-6.96,43.248-4.776,41.568-4.776Zm7.272-6.6H46.128c-.24-4.056-1.968-6.576-4.56-6.576-2.808,0-4.608,2.88-4.608,7.464,0,4.656,1.8,7.536,4.608,7.536,2.64,0,4.392-2.592,4.56-6.816H48.84V.72h1.872V-19.272H48.84Zm4.272-8.376V1.776h1.872V-19.752Zm13.2,1.848H64.344v3.864c0,3.984-2.448,8.136-5.568,9.7l1.2,1.56a11.943,11.943,0,0,0,5.352-7.2,11.532,11.532,0,0,0,5.4,6.816l1.152-1.56a10.731,10.731,0,0,1-5.568-9.312Zm8.232-1.848v7.3H69.552v1.608h4.992V1.8h1.968V-19.752Zm27.432,11.52h1.992v-11.52h-1.992v3.12h-3.5v1.584h3.5v2.016h-3.5v1.584h3.5ZM90.912-16.8h3.24v6.1c-1.08.048-2.184.072-3.24.1Zm7.968,5.736c-.888.1-1.848.192-2.808.24V-16.8h2.136v-1.584H86.88V-16.8h2.136v6.216H86.3l.216,1.632A87.927,87.927,0,0,0,99-9.624ZM92.088,0V-2.256h11.88V-7.248H90.1v1.536h11.928V-3.72H90.144V1.536h14.64V0Zm23.664-14.448h4.776v-1.584h-4.776v-3.336h-1.968v3.336h-4.848v1.584h4.872v1.68a10.156,10.156,0,0,1-5.472,8.88l1.1,1.488a10.93,10.93,0,0,0,5.352-6.648,10.7,10.7,0,0,0,5.352,6.312l1.128-1.512a9.8,9.8,0,0,1-5.52-8.52Zm8.3-5.328v6.84h-4.368v1.608h4.368v2.856h-4.368V-6.84h4.368V1.8h1.968V-19.776Zm14.016,3.864h5.064v-1.632H131.112v1.632H136.1v2.736a11.01,11.01,0,0,1-5.712,9.24l1.152,1.584a12.073,12.073,0,0,0,5.544-7.1,11.373,11.373,0,0,0,5.64,6.576l1.1-1.584a10.024,10.024,0,0,1-5.76-8.712Zm7.968-3.816v21.5h1.968v-21.5Zm23.688,6.456H157.056V-18.96h-1.968v7.3h14.64ZM156.912-5.04h-1.968V1.248h14.9V-.36H156.912Zm-4.464-3.744V-7.2H171.96V-8.784Zm28.632-8.664v1.632h7.9c-.456,5.088-3.408,9.216-8.9,11.976l1.08,1.536c6.96-3.48,9.768-9.024,9.768-15.144Zm18.864,6.432h-3.456v-8.736H194.52V1.776h1.968V-9.384h3.456Zm14.544,1.68c-3.168-1.056-5.208-3.576-5.208-6.384v-.84h4.752v-1.584H202.488v1.584h4.824v.84a7.624,7.624,0,0,1-5.4,7.008l1.008,1.56a8.889,8.889,0,0,0,5.424-5.28A8.371,8.371,0,0,0,213.552-7.8ZM211.872.192c-3.216,0-5.136-.888-5.136-2.424,0-1.512,1.92-2.4,5.136-2.4,3.168,0,5.112.888,5.112,2.4C216.984-.7,215.04.192,211.872.192Zm0-6.384c-4.416,0-7.1,1.464-7.1,3.96,0,2.52,2.688,3.984,7.1,3.984,4.368,0,7.08-1.464,7.08-3.984C218.952-4.728,216.24-6.192,211.872-6.192Zm6.84-8.112v-5.424h-1.968V-6.744h1.968v-5.9H221.9V-14.3Zm12.12,2.712h1.344l.432-4.44.048-2.472h-2.3l.048,2.472ZM248.9-17.328h-5.376V-19.9H241.56v2.568h-5.352v1.584h12.7Zm-6.36,4.2c1.968,0,3.288.912,3.288,2.376,0,1.44-1.32,2.352-3.288,2.352s-3.264-.912-3.264-2.352C239.28-12.216,240.576-13.128,242.544-13.128Zm0,6.24c3.072,0,5.16-1.512,5.16-3.864s-2.088-3.888-5.16-3.888c-3.048,0-5.136,1.536-5.136,3.888S239.5-6.888,242.544-6.888ZM247.32-5.88h-1.944v.36c0,2.928-3.408,5.088-7.2,5.688l.768,1.512c3.168-.552,6.12-2.088,7.416-4.464,1.272,2.376,4.2,3.912,7.416,4.464L254.52.168c-3.84-.6-7.2-2.76-7.2-5.688Zm5.52-7.632v-6.24h-1.968V-4.68h1.968v-7.2h3.168v-1.632Zm6.744,1.92h1.344l.432-4.44.048-2.472h-2.3l.048,2.472Zm18.072-5.52H272.28v-2.64h-1.968v2.64H264.96v1.584h12.7Zm-9.624,6.768c0-1.488,1.32-2.448,3.264-2.448s3.288.96,3.288,2.448c0,1.512-1.344,2.472-3.288,2.472S268.032-8.832,268.032-10.344Zm8.424,0c0-2.4-2.112-3.984-5.16-3.984s-5.136,1.584-5.136,3.984c0,2.424,2.088,4.008,5.136,4.008S276.456-7.92,276.456-10.344Zm-6.288,5.472H268.2V1.3h14.352V-.312H270.168Zm11.424-7.776v-7.1h-1.968V-3.6h1.968v-7.392h3.168v-1.656Zm12.528-1.7.288,1.656,12.936-.6a25.372,25.372,0,0,1-.48,3.384l1.944.144a32.5,32.5,0,0,0,.6-7.1V-18.72h-14.76v1.608h12.816v.24c0,.672,0,1.344-.024,2.088ZM296.784-4.9h-1.968V1.44h15.048V-.168h-13.08Zm5.448-3.432v-3.12h-1.968v3.12h-7.9v1.584h19.416V-8.328ZM321.96-17.9h-1.968v3.864c0,3.984-2.448,8.136-5.568,9.7l1.2,1.56a11.943,11.943,0,0,0,5.352-7.2,11.533,11.533,0,0,0,5.4,6.816l1.152-1.56a10.731,10.731,0,0,1-5.568-9.312Zm8.232-1.848v7.3H325.2v1.608h4.992V1.8h1.968V-19.752ZM353.784-8.136H340.992v-3.408h12.1V-13.1h-12.1V-16.3h12.576V-17.88H339V-6.552h14.784Zm-17.3,5.52v1.608h19.536V-2.616ZM2.4,36H4.632V30.432l3.024-3.6L12.936,36h2.472L9.048,25.1l5.5-6.72h-2.5L4.7,27.24H4.632V18.384H2.4Zm13.416-5.88H21.96V28.44H15.816ZM25.44,36h2.232V29.016h2.9c3.864,0,6.48-1.728,6.48-5.448,0-3.84-2.64-5.184-6.576-5.184H25.44Zm2.232-8.784V20.208h2.52c3.1,0,4.656.816,4.656,3.36,0,2.52-1.464,3.648-4.56,3.648Zm19.44,9.1c4.416,0,7.512-3.528,7.512-9.168s-3.1-9.072-7.512-9.072S39.6,21.5,39.6,27.144,42.7,36.312,47.112,36.312Zm0-1.944c-3.168,0-5.232-2.832-5.232-7.224,0-4.416,2.064-7.128,5.232-7.128,3.144,0,5.232,2.712,5.232,7.128C52.344,31.536,50.256,34.368,47.112,34.368ZM58.416,36h2.232V29.016h2.9c3.864,0,6.48-1.728,6.48-5.448,0-3.84-2.64-5.184-6.576-5.184h-5.04Zm2.232-8.784V20.208h2.52c3.1,0,4.656.816,4.656,3.36,0,2.52-1.464,3.648-4.56,3.648ZM69.984,40.56a5.341,5.341,0,0,0,3.5-5.016c0-1.608-.7-2.592-1.848-2.592a1.56,1.56,0,0,0-1.656,1.536,1.5,1.5,0,0,0,1.608,1.536A.985.985,0,0,0,71.856,36a3.6,3.6,0,0,1-2.4,3.264Zm28.8-12.7H85.992V24.456h12.1V22.9h-12.1V19.7H98.568V18.12H84V29.448H98.784Zm-17.3,5.52v1.608h19.536V33.384Zm32.832.12V29.448H121.2V27.864H107.952v-3.48H120.7V17.832H105.96V19.44h12.816V22.8H106.008v6.648h6.312V33.5h-8.76v1.608h19.56V33.5Zm28.632-5.64H130.152V24.456h12.1V22.9h-12.1V19.7h12.576V18.12H128.16V29.448h14.784Zm-17.3,5.52v1.608h19.536V33.384Zm31.944-2.3h-1.968V37.3h14.808V35.688h-12.84Zm-.288-9.888c0-1.7,2.16-2.712,5.568-2.712,3.36,0,5.52,1.008,5.52,2.712s-2.16,2.688-5.52,2.688C159.456,23.88,157.3,22.9,157.3,21.192Zm6.552,6.5V25.44c4.008-.216,6.552-1.776,6.552-4.248,0-2.688-2.952-4.3-7.536-4.3-4.632,0-7.584,1.608-7.584,4.3,0,2.5,2.544,4.032,6.6,4.248V27.7h-8.76V29.3h19.44V27.7Zm14.16-1.728h7.752V18.24h-9.744v1.608h7.8V24.36h-7.728v8.232h1.7a54.866,54.866,0,0,0,10.344-.768l-.216-1.632a48.755,48.755,0,0,1-9.912.768Zm17.3-1.176h-3.528V16.224h-1.968V37.8h1.968V26.448h3.528Zm19.632-8.52h-1.968v15.72h1.968ZM199.7,23.04a3.7,3.7,0,1,1,3.672,3.624A3.519,3.519,0,0,1,199.7,23.04Zm9.312,0c0-3.1-2.424-5.28-5.64-5.28a5.314,5.314,0,1,0,5.64,5.28Zm-5.952,12.648v-5.3H201.1V37.3h14.5V35.688Zm23.448-14.04L226.8,23.3l12.936-.6a25.376,25.376,0,0,1-.48,3.384l1.944.144a32.5,32.5,0,0,0,.6-7.1V17.28H227.04v1.608h12.816v.24c0,.672,0,1.344-.024,2.088Zm2.664,9.456h-1.968V37.44h15.048V35.832h-13.08Zm5.448-3.432v-3.12h-1.968v3.12h-7.9v1.584h19.416V27.672ZM254.352,18.1h-1.968V21.96c0,3.984-2.448,8.136-5.568,9.7l1.2,1.56a11.943,11.943,0,0,0,5.352-7.2,11.532,11.532,0,0,0,5.4,6.816l1.152-1.56a10.731,10.731,0,0,1-5.568-9.312Zm8.232-1.848v7.3h-4.992v1.608h4.992V37.8h1.968V16.248Zm23.592,11.616H273.384V24.456h12.1V22.9h-12.1V19.7H285.96V18.12H271.392V29.448h14.784Zm-17.3,5.52v1.608h19.536V33.384Z" transform="translate(-4060 3429)" fill="#919191"/>
    <path id="패스_860" data-name="패스 860" d="M1.02-1.46Q3.56-3.5,5-4.81A16.148,16.148,0,0,0,7.43-7.55a4.935,4.935,0,0,0,.99-2.81,3.089,3.089,0,0,0-.63-2.05,2.51,2.51,0,0,0-2.03-.75,2.666,2.666,0,0,0-2.11.85,3.544,3.544,0,0,0-.81,2.27H1.08A4.8,4.8,0,0,1,2.44-13.5a4.587,4.587,0,0,1,3.3-1.22,4.575,4.575,0,0,1,3.27,1.14,4.106,4.106,0,0,1,1.21,3.14,5.982,5.982,0,0,1-.99,3.23A14.16,14.16,0,0,1,6.98-4.45Q5.72-3.26,3.76-1.68h6.88V-.16H1.02ZM12.74-7.38a10.752,10.752,0,0,1,1.12-5.37,4.15,4.15,0,0,1,3.92-1.93,4.13,4.13,0,0,1,3.9,1.93A10.752,10.752,0,0,1,22.8-7.38a10.958,10.958,0,0,1-1.12,5.44A4.124,4.124,0,0,1,17.78,0a4.143,4.143,0,0,1-3.92-1.94A10.958,10.958,0,0,1,12.74-7.38Zm8.26,0a16.1,16.1,0,0,0-.23-2.95,3.752,3.752,0,0,0-.94-1.95,2.709,2.709,0,0,0-2.05-.74,2.737,2.737,0,0,0-2.07.74,3.752,3.752,0,0,0-.94,1.95,16.1,16.1,0,0,0-.23,2.95,16.668,16.668,0,0,0,.23,3.02,3.76,3.76,0,0,0,.94,1.96,2.737,2.737,0,0,0,2.07.74,2.709,2.709,0,0,0,2.05-.74,3.76,3.76,0,0,0,.94-1.96A16.668,16.668,0,0,0,21-7.38Zm4.08,5.92q2.54-2.04,3.98-3.35a16.148,16.148,0,0,0,2.43-2.74,4.935,4.935,0,0,0,.99-2.81,3.089,3.089,0,0,0-.63-2.05,2.51,2.51,0,0,0-2.03-.75,2.666,2.666,0,0,0-2.11.85,3.544,3.544,0,0,0-.81,2.27H25.14A4.8,4.8,0,0,1,26.5-13.5a4.587,4.587,0,0,1,3.3-1.22,4.575,4.575,0,0,1,3.27,1.14,4.106,4.106,0,0,1,1.21,3.14,5.982,5.982,0,0,1-.99,3.23,14.16,14.16,0,0,1-2.25,2.76q-1.26,1.19-3.22,2.77H34.7V-.16H25.08Zm11.68-9.36a3.914,3.914,0,0,1,1.42-2.88,5.1,5.1,0,0,1,3.32-1.04,5.244,5.244,0,0,1,2.35.49,3.532,3.532,0,0,1,1.5,1.33,3.588,3.588,0,0,1,.51,1.9,3.351,3.351,0,0,1-.71,2.14A3.19,3.19,0,0,1,43.3-7.72v.1a3.7,3.7,0,0,1,2.06,1.26,3.792,3.792,0,0,1,.76,2.46,4.058,4.058,0,0,1-.52,2.05A3.582,3.582,0,0,1,44.04-.42a5.538,5.538,0,0,1-2.5.52,5.325,5.325,0,0,1-3.48-1.11,4.3,4.3,0,0,1-1.52-3.15H38.3a3.02,3.02,0,0,0,.98,1.96,3.212,3.212,0,0,0,2.24.76,2.886,2.886,0,0,0,2.13-.73,2.557,2.557,0,0,0,.73-1.89,2.4,2.4,0,0,0-1-2.16,5.545,5.545,0,0,0-3.02-.66H39.9V-8.4h.48a5.4,5.4,0,0,0,2.78-.61,2.007,2.007,0,0,0,.94-1.83,2.208,2.208,0,0,0-.69-1.7,2.792,2.792,0,0,0-1.97-.64,3,3,0,0,0-2,.64,2.594,2.594,0,0,0-.9,1.72Z" transform="translate(-4060 3553)" fill="#fff"/>
  </g>
</svg>
