<svg xmlns="http://www.w3.org/2000/svg" xmlns:xlink="http://www.w3.org/1999/xlink" width="212.75" height="44.553" viewBox="0 0 212.75 44.553">
  <defs>
    <clipPath id="clip-path">
      <rect id="사각형_92" data-name="사각형 92" width="212.75" height="44.553" transform="translate(0 0)" fill="none"/>
    </clipPath>
  </defs>
  <g id="그룹_48" data-name="그룹 48" transform="translate(0 0)">
    <g id="그룹_47" data-name="그룹 47" clip-path="url(#clip-path)">
      <path id="패스_63" data-name="패스 63" d="M19.951,33.7A20.641,20.641,0,0,1,12.1,23.1,20.093,20.093,0,0,1,3.351,34.853L0,30.852C5.6,27.2,9.251,20.5,9.251,11V4.3H14.9v6.65c0,8.6,3,15.4,8.4,18.6ZM33.5,44.553V22.2H29.8V42.5H24.352V.8H29.8V17.5h3.7V0h5.551V44.553Z" fill="#fff"/>
      <path id="패스_64" data-name="패스 64" d="M67.352,27.4v6.951h17.3V39H44.4V34.352H61.5V27.4H49.551V12.65h24.2V7.5H49.3V2.85H79.553V17.3h-24.2v5.4h25.5v4.7Z" fill="#fff"/>
      <path id="패스_65" data-name="패스 65" d="M92.8,44V28.952h11.95V25.2h-17.1V20.5H127.9v4.7H110.6v3.751h12.15V44ZM107.751.95c10.05,0,15.6,3.6,15.6,8.551S117.8,18.152,107.8,18.152,92.2,14.451,92.2,9.5,97.8.95,107.751.95m0,12.651c5.9,0,9.6-1.65,9.6-4.05,0-2.5-3.5-4.1-9.6-4.1-6,0-9.5,1.6-9.5,4.1,0,2.4,3.5,4.05,9.5,4.05M117,33.4H98.6v6.05H117Z" fill="#fff"/>
      <path id="패스_66" data-name="패스 66" d="M130.9,18.8h40.253v4.65H130.9ZM151.1.65c10.051,0,15.752,3.15,15.752,8,0,4.8-5.7,8-15.752,8-10.1,0-15.75-3.2-15.75-8,0-4.85,5.65-8,15.75-8m-15.4,43.7V33h24.351v-2.55h-24.3V25.9h30.1V37.1h-24.3v2.45h25.9v4.8Zm15.4-32.1c6.2,0,9.752-1.6,9.752-3.6C160.852,6.6,157.3,5.1,151.1,5.1s-9.7,1.5-9.7,3.549c0,2,3.5,3.6,9.7,3.6" fill="#fff"/>
      <path id="패스_67" data-name="패스 67" d="M193.448,33.8h-4.3V4.1h20V8.8h-14.2V29.052c6.35,0,11.95-.2,16.95-1.4l.851,4.65c-4.25,1.051-10.7,1.5-19.3,1.5" fill="#fff"/>
    </g>
  </g>
</svg>
