<svg xmlns="http://www.w3.org/2000/svg" xmlns:xlink="http://www.w3.org/1999/xlink" width="107.351" height="44.554" viewBox="0 0 107.351 44.554">
  <defs>
    <clipPath id="clip-path">
      <rect id="사각형_88" data-name="사각형 88" width="107.35" height="44.553" transform="translate(0 0)" fill="none"/>
    </clipPath>
  </defs>
  <g id="그룹_41" data-name="그룹 41" transform="translate(0 0)">
    <path id="패스_52" data-name="패스 52" d="M10.651,0V15.152H0V20.1H10.651V44.553h5.8V0Z" fill="#fff"/>
    <g id="그룹_40" data-name="그룹 40">
      <g id="그룹_39" data-name="그룹 39" clip-path="url(#clip-path)">
        <path id="패스_53" data-name="패스 53" d="M22.7,10.6H48.55v4.65H22.7Zm12.951,6.2c6.4,0,10.75,4,10.75,9.6,0,5.45-4.35,9.6-10.75,9.6S24.9,32.052,24.9,26.4c0-5.451,4.351-9.6,10.751-9.6m-6.7-13.9H42.7V7.5H28.948Zm6.7,28.351c3.25,0,5.05-1.95,5.05-4.85a4.766,4.766,0,0,0-5.05-4.9,4.766,4.766,0,0,0-5.05,4.9,4.727,4.727,0,0,0,5.05,4.85m22.1-13.2h6.2V22.9h-6.2V44.553h-5.9V0h5.9Z" fill="#fff"/>
        <path id="패스_54" data-name="패스 54" d="M91.249,28.052c.25,1.55.4,3.15.649,4.65-4.3,1.1-11.05,1.5-19.75,1.5h-4.3V4.1H88.2V8.8H73.648V29.4c6.35,0,12.551-.2,17.6-1.35m9.7-11.251h6.4v4.851h-6.4v22.9H95.1V0h5.85Z" fill="#fff"/>
      </g>
    </g>
  </g>
</svg>
