<svg xmlns="http://www.w3.org/2000/svg" xmlns:xlink="http://www.w3.org/1999/xlink" width="210" height="42" viewBox="0 0 210 42">
  <defs>
    <clipPath id="clip-path">
      <rect id="사각형_4802" data-name="사각형 4802" width="199.5" height="40.587" transform="translate(0 0)" fill="#535353"/>
    </clipPath>
  </defs>
  <g id="그룹_117079" data-name="그룹 117079" transform="translate(18451 1164)">
    <rect id="사각형_4805" data-name="사각형 4805" width="210" height="42" transform="translate(-18451 -1164)" fill="none"/>
    <g id="그룹_117075" data-name="그룹 117075" transform="translate(-18445.75 -1162.95)">
      <g id="그룹_117068" data-name="그룹 117068" transform="translate(0 0)" clip-path="url(#clip-path)">
        <path id="패스_1469" data-name="패스 1469" d="M461.285,39.367h-8.552V31.325h-4.467v8.042h-8.552V43.63h8.552v8.045h4.467V43.63h8.552ZM478.8,31.325V47.412H468.5V31.325h-4.467V48.69a2.985,2.985,0,0,0,2.985,2.985h13.261a2.985,2.985,0,0,0,2.985-2.985V31.325Zm-37.984,0H435.49l-5.5,6.858-5.5-6.858H419.16L427.325,41.5,419.16,51.675h5.323l5.5-6.859,5.5,6.859h5.323L432.648,41.5Z" transform="translate(-283.763 -21.206)" fill="#535353"/>
        <path id="패스_1470" data-name="패스 1470" d="M251.231,46.722a4.657,4.657,0,0,0,1.738,3.913,6.183,6.183,0,0,0,7.187,0,4.657,4.657,0,0,0,1.738-3.913V36.7a4.658,4.658,0,0,0-1.738-3.913,6.184,6.184,0,0,0-7.187,0,4.658,4.658,0,0,0-1.738,3.913Zm8.567.05a2.977,2.977,0,0,1-1,2.375,3.728,3.728,0,0,1-4.476,0,2.977,2.977,0,0,1-1-2.375V36.654a2.976,2.976,0,0,1,1-2.375,3.728,3.728,0,0,1,4.476,0,2.976,2.976,0,0,1,1,2.375Zm-11.885,4.81h-2.1V31.843h2.1Zm-6.633-18.269a5.4,5.4,0,0,0-4.072-1.471h-4.945v19.74h4.945a5.4,5.4,0,0,0,4.072-1.471,4.763,4.763,0,0,0,1.219-3.424v-9.95a4.764,4.764,0,0,0-1.219-3.424m-.877,13.3a3.011,3.011,0,0,1-.818,2.232,3.236,3.236,0,0,1-2.377.844H234.36V33.736h2.849a3.236,3.236,0,0,1,2.377.843,3.012,3.012,0,0,1,.818,2.232ZM218.365,31.843V46.722a4.657,4.657,0,0,0,1.738,3.913,6.057,6.057,0,0,0,7.106,0,4.657,4.657,0,0,0,1.738-3.913V31.843h-2.1V46.773a2.976,2.976,0,0,1-1,2.375,3.606,3.606,0,0,1-4.394,0,2.976,2.976,0,0,1-1-2.375V31.843Zm-1.974,1.893h-4.029V51.583h-2.1V33.736h-4.029V31.843h10.155ZM204.893,47a4.416,4.416,0,0,1-1.563,3.612,5.554,5.554,0,0,1-3.542,1.175,6.106,6.106,0,0,1-3.865-1.118,4.291,4.291,0,0,1-1.674-3.777V45.248h2.092V46.59a3.017,3.017,0,0,0,.876,2.5,3.669,3.669,0,0,0,2.469.806,3.2,3.2,0,0,0,2.389-.865,2.741,2.741,0,0,0,.724-1.89,3.069,3.069,0,0,0-.71-1.931,9.426,9.426,0,0,0-1.864-1.679l-2.722-2.1a9.571,9.571,0,0,1-2.577-2.746,4.614,4.614,0,0,1-.611-2.5,4.236,4.236,0,0,1,1.556-3.35,5.561,5.561,0,0,1,3.6-1.19,5.714,5.714,0,0,1,3.651,1.208,3.968,3.968,0,0,1,1.5,3.31V37.39h-2.092v-.721a2.8,2.8,0,0,0-.873-2.438,3.3,3.3,0,0,0-2.209-.7,3.124,3.124,0,0,0-2.226.756,2.624,2.624,0,0,0-.812,2.012,3.056,3.056,0,0,0,.73,1.884,9.542,9.542,0,0,0,1.865,1.735l2.794,2.158a9.148,9.148,0,0,1,2.435,2.436A4.4,4.4,0,0,1,204.893,47" transform="translate(-131.503 -21.42)" fill="#535353"/>
        <path id="패스_1471" data-name="패스 1471" d="M20.944,40.474V26.06a.113.113,0,0,1,.113-.113h3.109a.113.113,0,0,1,.113.113V40.474a.113.113,0,0,1-.113.113H21.057a.113.113,0,0,1-.113-.113m.113-25.833h3.109a.113.113,0,0,0,.113-.113V.113A.113.113,0,0,0,24.166,0H21.057a.113.113,0,0,0-.113.113V14.528a.113.113,0,0,0,.113.113m-19.813,4.1v3.109a.113.113,0,0,0,.113.113H16.845a.113.113,0,0,0,.113-.113V18.739a.113.113,0,0,0-.113-.113H1.357a.113.113,0,0,0-.113.113m27.021,0v3.109a.113.113,0,0,0,.113.113H43.866a.113.113,0,0,0,.113-.113V18.739a.113.113,0,0,0-.113-.113H28.377a.113.113,0,0,0-.113.113m15.967,16.99L37.312,25.37c-.184-.276-.933-.1-1.673.4s-1.19,1.118-1.007,1.394l6.779,10.149H39.235c-.657,0-.885-.054-1.179-.327a9.346,9.346,0,0,1-1.106-1.5L30.194,25.37c-.184-.276-.933-.1-1.673.4s-1.191,1.118-1.007,1.394l6.246,9.351A10.84,10.84,0,0,0,36.4,39.652a4.634,4.634,0,0,0,3.034.822h2.646a3.771,3.771,0,0,0,2.2-.447,2.075,2.075,0,0,0,.945-1.8,4.252,4.252,0,0,0-.992-2.5M16.7,25.766c-.74-.494-1.489-.672-1.673-.4L8.273,35.484a9.331,9.331,0,0,1-1.106,1.5c-.295.273-.522.327-1.18.327H3.812l6.779-10.149c.184-.276-.267-.9-1.007-1.394s-1.489-.672-1.673-.4L.992,35.729A4.252,4.252,0,0,0,0,38.228a2.075,2.075,0,0,0,.945,1.8,3.77,3.77,0,0,0,2.2.447H5.793a4.634,4.634,0,0,0,3.034-.822,10.84,10.84,0,0,0,2.636-3.141l6.246-9.351c.184-.276-.267-.9-1.007-1.394m1.007-12.338L11.463,4.077A10.84,10.84,0,0,0,8.827.935,4.634,4.634,0,0,0,5.793.113H3.147A3.77,3.77,0,0,0,.945.56,2.075,2.075,0,0,0,0,2.359a4.252,4.252,0,0,0,.992,2.5L7.911,15.218c.184.275.933.1,1.673-.4s1.191-1.118,1.007-1.394L3.812,3.279H5.988c.658,0,.885.054,1.18.327A9.355,9.355,0,0,1,8.273,5.1l6.756,10.115c.184.275.933.1,1.673-.4s1.191-1.118,1.007-1.394M44.278.56a3.771,3.771,0,0,0-2.2-.447H39.43A4.634,4.634,0,0,0,36.4.935,10.84,10.84,0,0,0,33.76,4.077l-6.246,9.351c-.184.276.266.9,1.007,1.394s1.489.672,1.673.4L36.949,5.1a9.37,9.37,0,0,1,1.106-1.5c.295-.273.522-.327,1.179-.327h2.177L34.632,13.428c-.184.276.267.9,1.007,1.394s1.489.672,1.673.4L44.231,4.859a4.252,4.252,0,0,0,.992-2.5,2.075,2.075,0,0,0-.945-1.8" transform="translate(0 0)" fill="#535353"/>
      </g>
    </g>
  </g>
</svg>
