<svg id="그룹_117021" data-name="그룹 117021" xmlns="http://www.w3.org/2000/svg" xmlns:xlink="http://www.w3.org/1999/xlink" width="130" height="26" viewBox="0 0 130 26">
  <defs>
    <clipPath id="clip-path">
      <rect id="사각형_4802" data-name="사각형 4802" width="123.5" height="25.126" fill="none"/>
    </clipPath>
  </defs>
  <rect id="사각형_4805" data-name="사각형 4805" width="130" height="26" fill="none"/>
  <g id="그룹_117075" data-name="그룹 117075" transform="translate(3.25 0.65)">
    <g id="그룹_117068" data-name="그룹 117068" transform="translate(0 0)" clip-path="url(#clip-path)">
      <path id="패스_1469" data-name="패스 1469" d="M445.237,36.3h-5.294V31.325h-2.765V36.3h-5.294v2.639h5.294v4.98h2.765v-4.98h5.294Zm10.84-4.978v9.958H449.7V31.325h-2.765v10.75a1.848,1.848,0,0,0,1.848,1.848H457a1.848,1.848,0,0,0,1.848-1.848V31.325Zm-23.514,0h-3.3l-3.407,4.246-3.407-4.246h-3.3l5.055,6.3-5.055,6.3h3.3l3.407-4.246,3.407,4.246h3.3l-5.055-6.3Z" transform="translate(-335.343 -25.061)" fill="#fff"/>
      <path id="패스_1470" data-name="패스 1470" d="M229.524,40.977A2.883,2.883,0,0,0,230.6,43.4a3.828,3.828,0,0,0,4.449,0,2.883,2.883,0,0,0,1.076-2.422v-6.2a2.883,2.883,0,0,0-1.076-2.422,3.828,3.828,0,0,0-4.449,0,2.883,2.883,0,0,0-1.076,2.422Zm5.3.031a1.843,1.843,0,0,1-.618,1.47,2.308,2.308,0,0,1-2.771,0,1.843,1.843,0,0,1-.618-1.47V34.744a1.843,1.843,0,0,1,.618-1.47,2.308,2.308,0,0,1,2.771,0,1.842,1.842,0,0,1,.618,1.47Zm-7.357,2.978h-1.3V31.766h1.3Zm-4.106-11.309a3.341,3.341,0,0,0-2.521-.911h-3.061v12.22h3.061a3.34,3.34,0,0,0,2.521-.911,2.948,2.948,0,0,0,.755-2.119V34.8a2.949,2.949,0,0,0-.755-2.12m-.543,8.234a1.864,1.864,0,0,1-.506,1.382,2,2,0,0,1-1.472.522H219.08V32.938h1.764a2,2,0,0,1,1.472.522,1.865,1.865,0,0,1,.506,1.382Zm-13.643-9.144v9.211a2.883,2.883,0,0,0,1.076,2.422,3.749,3.749,0,0,0,4.4,0,2.883,2.883,0,0,0,1.076-2.422V31.766h-1.3v9.242a1.842,1.842,0,0,1-.618,1.47,2.232,2.232,0,0,1-2.72,0,1.842,1.842,0,0,1-.618-1.47V31.766Zm-1.222,1.172h-2.494V43.986h-1.3V32.938H201.67V31.766h6.286Zm-7.118,8.211a2.734,2.734,0,0,1-.967,2.236,3.438,3.438,0,0,1-2.193.727,3.78,3.78,0,0,1-2.392-.692,2.656,2.656,0,0,1-1.036-2.338V40.064h1.3v.831a1.868,1.868,0,0,0,.542,1.547,2.271,2.271,0,0,0,1.529.5A1.978,1.978,0,0,0,199.1,42.4a1.7,1.7,0,0,0,.448-1.17,1.9,1.9,0,0,0-.44-1.2A5.835,5.835,0,0,0,197.95,39l-1.685-1.3a5.925,5.925,0,0,1-1.6-1.7,2.856,2.856,0,0,1-.379-1.548,2.622,2.622,0,0,1,.963-2.074,3.442,3.442,0,0,1,2.23-.736,3.537,3.537,0,0,1,2.26.748,2.456,2.456,0,0,1,.927,2.049V35.2h-1.3v-.446a1.735,1.735,0,0,0-.54-1.51,2.043,2.043,0,0,0-1.368-.432,1.934,1.934,0,0,0-1.378.468,1.625,1.625,0,0,0-.5,1.246,1.892,1.892,0,0,0,.452,1.167,5.907,5.907,0,0,0,1.155,1.074l1.73,1.336a5.663,5.663,0,0,1,1.508,1.508,2.722,2.722,0,0,1,.407,1.539" transform="translate(-155.407 -25.313)" fill="#fff"/>
      <path id="패스_1471" data-name="패스 1471" d="M12.965,25.056V16.132a.07.07,0,0,1,.07-.07H14.96a.07.07,0,0,1,.07.07v8.923a.07.07,0,0,1-.07.07H13.035a.07.07,0,0,1-.07-.07m.07-15.992H14.96a.07.07,0,0,0,.07-.07V.07A.07.07,0,0,0,14.96,0H13.035a.07.07,0,0,0-.07.07V8.993a.07.07,0,0,0,.07.07M.77,11.6v1.925a.07.07,0,0,0,.07.07h9.588a.07.07,0,0,0,.07-.07V11.6a.07.07,0,0,0-.07-.07H.84a.07.07,0,0,0-.07.07m16.727,0v1.925a.07.07,0,0,0,.07.07h9.588a.07.07,0,0,0,.07-.07V11.6a.07.07,0,0,0-.07-.07H17.567a.07.07,0,0,0-.07.07m9.884,10.518L23.1,15.7c-.114-.171-.577-.061-1.036.245s-.737.692-.623.863l4.2,6.283H24.288c-.407,0-.548-.034-.73-.2a5.785,5.785,0,0,1-.685-.927L18.691,15.7c-.114-.171-.578-.061-1.036.245s-.737.692-.623.863L20.9,22.6a6.71,6.71,0,0,0,1.632,1.945,2.869,2.869,0,0,0,1.878.509h1.638a2.335,2.335,0,0,0,1.363-.277A1.285,1.285,0,0,0,28,23.665a2.632,2.632,0,0,0-.614-1.547M10.34,15.95c-.458-.306-.922-.416-1.036-.245L5.122,21.966a5.776,5.776,0,0,1-.685.927c-.182.169-.323.2-.73.2H2.36l4.2-6.283c.114-.171-.165-.557-.623-.863S5.011,15.534,4.9,15.7L.614,22.118A2.632,2.632,0,0,0,0,23.665a1.284,1.284,0,0,0,.585,1.114,2.334,2.334,0,0,0,1.363.277H3.586a2.869,2.869,0,0,0,1.878-.509A6.71,6.71,0,0,0,7.1,22.6l3.867-5.789c.114-.171-.165-.557-.623-.863m.623-7.638L7.1,2.524A6.71,6.71,0,0,0,5.464.579,2.869,2.869,0,0,0,3.586.07H1.948A2.334,2.334,0,0,0,.585.347,1.284,1.284,0,0,0,0,1.461,2.632,2.632,0,0,0,.614,3.008L4.9,9.421c.114.17.577.061,1.035-.245s.737-.692.623-.863L2.36,2.03H3.707c.407,0,.548.033.73.2a5.791,5.791,0,0,1,.685.927L9.3,9.421c.114.17.577.061,1.036-.245s.737-.692.623-.863M27.41.347A2.335,2.335,0,0,0,26.047.07H24.409a2.869,2.869,0,0,0-1.878.509A6.71,6.71,0,0,0,20.9,2.524L17.033,8.313c-.114.171.165.557.623.863s.922.416,1.036.245l4.182-6.261a5.8,5.8,0,0,1,.685-.927c.182-.169.323-.2.73-.2h1.347l-4.2,6.283c-.114.171.165.557.623.863s.922.416,1.036.245l4.283-6.413A2.632,2.632,0,0,0,28,1.461,1.285,1.285,0,0,0,27.41.347" transform="translate(0 0)" fill="#c8f500"/>
    </g>
  </g>
</svg>
